<svg width="435" height="545" viewBox="0 0 435 545" fill="none" xmlns="http://www.w3.org/2000/svg">
<path d="M384.85 3H50C24.0426 3 3 24.0426 3 50V494.53C3 520.487 24.0426 541.53 50 541.53H384.85C410.807 541.53 431.85 520.487 431.85 494.53V50C431.85 24.0426 410.807 3 384.85 3Z" stroke="#00A7B8" stroke-width="5" stroke-miterlimit="10"/>
<path d="M44.7869 458.126C44.8923 458.179 45.0681 458.249 45.2791 458.337C45.49 458.425 45.8767 458.636 46.4041 458.987C46.949 459.339 47.4236 459.725 47.8279 460.147C48.2322 460.587 48.6013 461.184 48.9353 461.958C49.2869 462.731 49.4451 463.557 49.4451 464.454C49.4451 466.563 48.5486 468.339 46.7556 469.815C44.9626 471.274 42.4841 472.013 39.3552 472.013C38.1599 472.013 36.9998 471.854 35.8748 471.556C34.7498 471.257 33.8005 470.905 33.0623 470.483C32.324 470.061 31.6736 469.64 31.1111 469.218C30.5486 468.796 30.1267 468.444 29.863 468.163L29.4587 467.688L32.7107 464.454L32.9919 464.735C33.115 464.841 33.3787 465.069 33.783 465.386C34.2048 465.702 34.6267 465.966 35.0837 466.212C35.5408 466.44 36.1208 466.651 36.824 466.845C37.5271 467.038 38.2654 467.143 39.0037 467.143C40.4978 467.143 41.658 466.827 42.4666 466.212C43.2751 465.579 43.6794 464.823 43.6794 463.909C43.6794 462.96 43.3103 462.186 42.5544 461.589C41.7986 460.974 40.6736 460.675 39.1794 460.675H35.9451V455.981H39.0037C40.2341 455.981 41.1658 455.718 41.8162 455.225C42.4666 454.716 42.783 454.065 42.783 453.292C42.783 452.518 42.449 451.868 41.7634 451.358C41.0779 450.831 40.0935 450.585 38.8279 450.585C37.9138 450.585 37.0349 450.778 36.156 451.165C35.2947 451.552 34.6619 451.921 34.2576 452.307L33.6072 452.923L30.3552 449.513C30.4255 449.407 30.5486 449.284 30.7244 449.108C30.9001 448.932 31.2517 448.634 31.8142 448.194C32.3767 447.737 32.9919 447.35 33.6248 447.034C34.2576 446.718 35.1013 446.419 36.1384 446.138C37.1931 445.856 38.2654 445.733 39.3552 445.733C42.1326 445.733 44.3474 446.419 46.0349 447.807C47.7224 449.196 48.5486 450.849 48.5486 452.747C48.5486 453.538 48.4255 454.259 48.1619 454.927C47.8982 455.577 47.5818 456.087 47.1951 456.456C46.8259 456.843 46.4568 457.159 46.1052 457.44C45.7537 457.722 45.4373 457.897 45.1736 457.985L44.7869 458.126ZM66.7244 460.833L63.6658 452.554L60.5896 460.833H66.7244ZM68.5173 465.509H58.7966L56.6345 471.45H50.8689L60.783 446.243H66.531L76.4451 471.45H70.6794L68.5173 465.509ZM101.652 446.243V471.45H96.2556V461.184H85.4626V471.45H80.0486V446.243H85.4626V456.333H96.2556V446.243H101.652ZM126.859 446.243V471.468H121.463V462.643H116.787L111.918 471.468H106.17L111.566 461.923C111.443 461.87 111.285 461.8 111.074 461.694C110.863 461.589 110.511 461.307 110.002 460.886C109.474 460.446 109.017 459.972 108.631 459.479C108.226 458.97 107.857 458.266 107.541 457.388C107.224 456.491 107.066 455.542 107.066 454.54C107.066 452.202 107.875 450.233 109.51 448.634C111.127 447.052 113.201 446.243 115.697 446.243H126.859ZM112.463 454.54C112.463 455.454 112.779 456.21 113.429 456.843C114.08 457.475 114.906 457.792 115.89 457.792H121.463V451.13H115.89C114.906 451.13 114.08 451.446 113.429 452.097C112.779 452.729 112.463 453.556 112.463 454.54ZM130.832 446.243H150.625V451.112H143.435V471.45H138.039V451.112H130.832V446.243ZM177.08 471.45H171.683V455.436L159.273 471.45H154.58V446.243H159.994V462.274L172.404 446.243H177.08V471.45ZM194.711 439.95C195.326 439.95 195.836 439.757 196.258 439.335C196.662 438.931 196.873 438.421 196.873 437.806H200.476C200.476 439.423 199.931 440.759 198.877 441.813C197.804 442.868 196.416 443.395 194.711 443.395C193.006 443.395 191.617 442.868 190.562 441.813C189.49 440.759 188.963 439.423 188.963 437.806H192.549C192.549 438.421 192.742 438.931 193.164 439.335C193.568 439.757 194.078 439.95 194.711 439.95ZM206.049 471.45H200.652V455.436L188.242 471.45H183.549V446.243H188.963V462.274L201.373 446.243H206.049V471.45ZM232.152 445.716C233.47 445.716 234.736 445.891 235.931 446.243C237.127 446.595 238.094 446.999 238.867 447.491C239.64 447.983 240.308 448.475 240.906 448.968C241.504 449.46 241.926 449.882 242.189 450.216L242.594 450.743L239.166 454.171C239.095 454.083 238.99 453.96 238.867 453.784C238.744 453.608 238.463 453.327 238.041 452.905C237.619 452.501 237.144 452.149 236.652 451.833C236.142 451.516 235.474 451.235 234.666 450.972C233.84 450.708 232.996 450.567 232.152 450.567C229.797 450.567 227.828 451.358 226.246 452.94C224.664 454.522 223.873 456.491 223.873 458.847C223.873 461.202 224.664 463.171 226.246 464.753C227.828 466.335 229.797 467.126 232.152 467.126C233.066 467.126 233.927 467.003 234.771 466.757C235.615 466.511 236.301 466.212 236.863 465.86C237.408 465.509 237.9 465.157 238.322 464.806C238.744 464.454 239.043 464.155 239.236 463.891L239.517 463.522L242.769 466.95C242.664 467.091 242.523 467.284 242.33 467.513C242.136 467.741 241.715 468.145 241.047 468.725C240.379 469.306 239.676 469.815 238.92 470.255C238.164 470.694 237.179 471.099 235.949 471.45C234.719 471.819 233.453 471.995 232.152 471.995C228.302 471.995 225.051 470.712 222.414 468.145C219.777 465.579 218.459 462.468 218.459 458.847C218.459 455.225 219.777 452.132 222.414 449.565C225.051 446.999 228.302 445.716 232.152 445.716ZM268.504 446.243V471.45H263.107V451.112H252.49V471.45H247.076V446.243H268.504ZM279.138 458.864C279.138 461.184 279.912 463.153 281.494 464.735C283.058 466.335 284.974 467.126 287.224 467.126C289.474 467.126 291.39 466.335 292.955 464.735C294.537 463.153 295.31 461.184 295.31 458.864C295.31 456.544 294.537 454.575 292.955 452.975C291.39 451.376 289.474 450.567 287.224 450.567C284.974 450.567 283.058 451.376 281.494 452.975C279.912 454.575 279.138 456.544 279.138 458.864ZM273.549 458.847C273.549 455.225 274.867 452.132 277.504 449.565C280.14 446.999 283.392 445.716 287.224 445.716C291.056 445.716 294.308 446.999 296.945 449.565C299.582 452.132 300.9 455.225 300.9 458.847C300.9 462.468 299.582 465.579 296.945 468.145C294.308 470.712 291.056 471.995 287.224 471.995C283.392 471.995 280.14 470.712 277.504 468.145C274.867 465.579 273.549 462.468 273.549 458.847ZM305.963 446.243L316.58 446.261C319.164 446.261 321.308 447.069 323.013 448.686C324.719 450.304 325.58 452.325 325.58 454.716C325.58 457.106 324.719 459.128 323.031 460.745C321.326 462.362 319.181 463.171 316.58 463.171H311.377V471.45H305.963V446.243ZM316.404 451.13H311.377V458.319H316.404C317.476 458.319 318.373 457.968 319.094 457.282C319.814 456.579 320.183 455.735 320.183 454.733C320.183 453.714 319.814 452.87 319.094 452.167C318.373 451.464 317.476 451.13 316.404 451.13ZM327.918 446.243H347.711V451.112H340.521V471.45H335.125V451.112H327.918V446.243ZM354.373 458.864C354.373 461.184 355.146 463.153 356.728 464.735C358.293 466.335 360.209 467.126 362.459 467.126C364.709 467.126 366.625 466.335 368.189 464.735C369.771 463.153 370.545 461.184 370.545 458.864C370.545 456.544 369.771 454.575 368.189 452.975C366.625 451.376 364.709 450.567 362.459 450.567C360.209 450.567 358.293 451.376 356.728 452.975C355.146 454.575 354.373 456.544 354.373 458.864ZM348.783 458.847C348.783 455.225 350.101 452.132 352.738 449.565C355.375 446.999 358.627 445.716 362.459 445.716C366.291 445.716 369.543 446.999 372.179 449.565C374.816 452.132 376.135 455.225 376.135 458.847C376.135 462.468 374.816 465.579 372.179 468.145C369.543 470.712 366.291 471.995 362.459 471.995C358.627 471.995 355.375 470.712 352.738 468.145C350.101 465.579 348.783 462.468 348.783 458.847ZM394.697 457.229L403.416 446.243H408.197V471.45H402.801V454.645L394.697 464.964L386.611 454.716V471.45H381.197V446.243H386.066L394.697 457.229Z" fill="#1D1D1B"/>
<path d="M107.65 333.23C107.077 333.202 106.503 333.291 105.965 333.491C105.427 333.691 104.935 333.999 104.52 334.395C104.104 334.791 103.773 335.267 103.547 335.795C103.321 336.323 103.204 336.891 103.204 337.465C103.204 338.039 103.321 338.607 103.547 339.135C103.773 339.663 104.104 340.139 104.52 340.535C104.935 340.931 105.427 341.238 105.965 341.439C106.503 341.639 107.077 341.728 107.65 341.7H146.52C147.093 341.728 147.667 341.639 148.205 341.439C148.743 341.238 149.235 340.931 149.65 340.535C150.066 340.139 150.397 339.663 150.623 339.135C150.849 338.607 150.966 338.039 150.966 337.465C150.966 336.891 150.849 336.323 150.623 335.795C150.397 335.267 150.066 334.791 149.65 334.395C149.235 333.999 148.743 333.691 148.205 333.491C147.667 333.291 147.093 333.202 146.52 333.23H107.65Z" fill="#00A7B8"/>
<path d="M135.43 333.23C127.6 333.23 121.26 335.17 121.26 337.47C121.26 339.77 127.6 341.7 135.43 341.7H262.58C270.41 341.7 276.75 339.77 276.75 337.47C276.75 335.17 270.41 333.23 262.58 333.23H135.43Z" fill="#00A7B8"/>
<path d="M285.63 255.14C279.38 259.01 278.06 261.23 272.46 264.55C270.36 265.714 268.166 266.697 265.9 267.49C262.55 268.14 260.51 269.28 259.3 266.43C258.18 263.76 260.36 260.65 263.06 258.9C264.46 257.98 267.21 255.97 268.7 255.14C273.109 252.879 276.961 249.669 279.98 245.74C276.98 241.6 271.59 234.66 268.7 230.74C263.57 233.87 260.2 237.29 255.54 240.14C254.89 240.51 252.43 241.74 251.78 242.02C247.3 243.86 245.93 245.02 244.26 242.02C242.49 238.61 243.45 236.12 248.02 234.02C253.707 231.49 258.813 227.817 263.02 223.23C260.32 219.08 256.32 212.23 253.62 208.23C249.24 210.91 245.76 212.93 241.76 215.23C239.944 216.36 238.033 217.33 236.05 218.13C232.32 219.42 231.37 221.36 229.87 218.13C228.48 215.13 227.51 213.93 231.05 211.99C232.73 211.07 235.11 209.25 236.69 208.23C240.05 206.12 246.13 203.23 249.86 200.71C244.64 191.87 236.35 179.47 231.13 170.63C227.871 172.268 224.718 174.108 221.69 176.14C220.48 176.97 217.74 184.34 217.93 185.54C218.3 187.93 220.45 187.97 222.59 187.42C225.11 186.78 229.86 183.33 230.8 185.54C231.495 187.356 231.495 189.364 230.8 191.18C230.24 192.65 227.13 194.18 225.45 194.94C217.34 198.63 211.45 198.48 202.89 196.82C190.4 194.43 180.71 186.96 171.66 178.58C169.33 176.46 165.45 172.98 162.74 170.5C156.784 176.955 151.347 183.869 146.48 191.18C144.15 194.86 143.07 198.78 140.83 202.46C139.9 204.03 138.66 206.31 137.07 206.77C135.189 207.322 133.168 207.125 131.43 206.22C129.2 205.22 130.59 202.22 131.43 199.86C132.43 197 135.68 193.86 137.07 191.18C143.13 180.18 150.35 171.12 158.92 161.91C163.4 157.12 164.42 152.59 162.74 146.05C162.18 143.75 163.32 142.16 165.28 140.41C169.2 137 170.73 140.62 171.66 146.05C172.87 152.68 172.02 158.05 169.04 164.85C178.92 175.63 191.94 188.33 208.53 191.18C205.08 184.83 210.81 176.24 214.17 172.38C219.95 165.47 224.02 163.9 232.97 162.97C237.17 162.51 239.74 163.2 241.8 166.7C251.3 182.82 260.63 198.85 270.8 214.41C278.63 226.48 287.48 237.99 296.06 249.5C299.319 253.704 302.936 257.619 306.87 261.2C309.276 263.621 312.17 265.503 315.36 266.72C336.05 273.54 346.36 288 349.1 309C350.5 320.05 347.42 329.08 339.59 336.81C337.985 338.462 336.056 339.765 333.924 340.637C331.792 341.51 329.503 341.933 327.2 341.88H265.75C255.703 341.836 245.911 338.716 237.69 332.94C198.17 305.87 157.8 279.71 119.86 250.24C115.48 246.83 111.66 242.87 107.65 239.09C104.29 235.87 103.83 232 105.13 227.58C107.37 220.58 111.85 215.33 117.53 211C120.61 208.61 123.22 209.16 127.32 212.29C137.85 220.21 148.2 228.29 158.92 235.96C192.2 259.63 225.85 282.47 261.09 303.2C267.402 307.136 274.723 309.152 282.16 309C298.01 308.54 313.95 308.81 329.8 308.81H338.28C338.521 302.594 336.846 296.455 333.481 291.223C330.117 285.991 325.226 281.919 319.47 279.56C314.72 277.63 308.53 274.99 304.47 272.04C300.462 269.216 296.69 266.073 293.19 262.64C291.56 260.9 287.02 256.6 285.63 255.14ZM112.63 232.58C117.01 236.36 121.88 239.95 125.79 242.81C140.79 253.81 154.54 265.14 169.92 275.81C192.92 291.81 215.4 306.98 238.62 322.81C246.35 328.06 257.31 334.09 266.82 334.09H328.87C335.31 334.09 336.32 325.86 338.28 319.09H329.8C316.19 319.09 302.9 318.17 289.39 319.09C275.12 320.09 263.71 316.87 251.78 309.69C210.2 284.69 170.92 255.69 131.43 227.62C128.82 225.69 125.11 222.62 122.03 220.34C119.98 222.99 114.68 229.61 112.63 232.56V232.58Z" fill="#00A7B8"/>
<path d="M90.5899 312.14C90.0164 312.112 89.4433 312.201 88.9052 312.401C88.3671 312.601 87.8753 312.909 87.4596 313.305C87.0439 313.701 86.7129 314.177 86.4868 314.705C86.2606 315.233 86.144 315.801 86.144 316.375C86.144 316.949 86.2606 317.517 86.4868 318.045C86.7129 318.573 87.0439 319.049 87.4596 319.445C87.8753 319.841 88.3671 320.149 88.9052 320.349C89.4433 320.549 90.0164 320.638 90.5899 320.61H129.46C130.033 320.638 130.607 320.549 131.145 320.349C131.683 320.149 132.174 319.841 132.59 319.445C133.006 319.049 133.337 318.573 133.563 318.045C133.789 317.517 133.906 316.949 133.906 316.375C133.906 315.801 133.789 315.233 133.563 314.705C133.337 314.177 133.006 313.701 132.59 313.305C132.174 312.909 131.683 312.601 131.145 312.401C130.607 312.201 130.033 312.112 129.46 312.14H90.5899Z" fill="#00A7B8"/>
<path d="M142.52 316.47C142.521 317.03 142.633 317.584 142.849 318.1C143.065 318.617 143.381 319.085 143.779 319.479C144.176 319.873 144.648 320.185 145.167 320.396C145.685 320.607 146.24 320.714 146.8 320.71H155.47C156.594 320.71 157.673 320.263 158.468 319.468C159.263 318.673 159.71 317.594 159.71 316.47C159.71 315.345 159.263 314.267 158.468 313.472C157.673 312.677 156.594 312.23 155.47 312.23H146.8C146.236 312.211 145.674 312.307 145.149 312.513C144.623 312.718 144.146 313.029 143.745 313.426C143.344 313.824 143.029 314.298 142.818 314.822C142.607 315.345 142.506 315.906 142.52 316.47Z" fill="#00A7B8"/>
<path d="M116.6 297.31C116.601 297.871 116.713 298.426 116.93 298.943C117.147 299.46 117.464 299.929 117.862 300.323C118.261 300.717 118.734 301.028 119.254 301.239C119.773 301.45 120.329 301.555 120.89 301.55H142.52C143.093 301.578 143.667 301.489 144.205 301.289C144.743 301.089 145.234 300.781 145.65 300.385C146.066 299.989 146.397 299.513 146.623 298.985C146.849 298.457 146.966 297.889 146.966 297.315C146.966 296.741 146.849 296.173 146.623 295.645C146.397 295.117 146.066 294.641 145.65 294.245C145.234 293.849 144.743 293.542 144.205 293.341C143.667 293.141 143.093 293.052 142.52 293.08H120.89C120.326 293.058 119.763 293.152 119.237 293.356C118.71 293.56 118.231 293.87 117.829 294.266C117.427 294.662 117.11 295.137 116.899 295.661C116.688 296.184 116.586 296.746 116.6 297.31Z" fill="#00A7B8"/>
</svg>
