<svg width="435" height="545" viewBox="0 0 435 545" fill="none" xmlns="http://www.w3.org/2000/svg">
<path fill-rule="evenodd" clip-rule="evenodd" d="M217.43 88.1402C211.981 88.1402 206.655 89.756 202.124 92.7832C197.593 95.8105 194.062 100.113 191.977 105.147C189.892 110.181 189.346 115.721 190.409 121.065C191.472 126.409 194.096 131.318 197.949 135.171C201.802 139.024 206.711 141.648 212.055 142.711C217.399 143.774 222.939 143.228 227.973 141.143C233.007 139.058 237.31 135.527 240.337 130.996C243.364 126.466 244.98 121.139 244.98 115.69C244.98 108.383 242.077 101.376 236.911 96.2094C231.744 91.0428 224.737 88.1402 217.43 88.1402ZM206.07 156.4C205.88 157.01 205.7 157.63 205.53 158.25C203.465 166.489 201.958 174.858 201.02 183.3C199.9 192.25 199.12 201.17 198.62 207.84C198.37 211.18 198.19 213.97 198.07 215.92L197.89 219.01C197.73 222.21 197.79 225.45 197.84 228.67C197.84 230.25 197.89 231.84 197.89 233.41C197.89 234.302 198.109 235.181 198.53 235.967C198.95 236.754 199.558 237.425 200.3 237.92L214.42 247.33C215.308 247.925 216.352 248.242 217.42 248.242C218.488 248.242 219.532 247.925 220.42 247.33L234.55 237.92C235.292 237.425 235.9 236.754 236.32 235.967C236.741 235.181 236.96 234.302 236.96 233.41C236.96 231.84 236.96 230.25 237.01 228.67C237.06 225.45 237.11 222.21 236.95 219.01C236.95 218.01 236.84 216.95 236.78 215.92C236.66 213.92 236.48 211.18 236.23 207.84C235.73 201.17 234.95 192.25 233.83 183.3C232.887 174.859 231.38 166.49 229.32 158.25C229.14 157.63 228.97 157.01 228.78 156.4C233.918 158.098 238.959 160.078 243.88 162.33C254.55 167.1 265.33 172.89 272.44 176.88C274.238 177.901 275.76 179.346 276.874 181.089C277.987 182.831 278.659 184.819 278.83 186.88L286.24 266.45C286.478 269.032 285.964 271.628 284.759 273.925C283.554 276.221 281.71 278.119 279.45 279.39L261.51 289.48C257.928 291.496 254.916 294.389 252.758 297.887C250.599 301.385 249.365 305.374 249.17 309.48L245.64 382.14C245.53 384.374 244.565 386.48 242.946 388.023C241.327 389.566 239.177 390.428 236.94 390.43H197.94C195.694 390.443 193.53 389.588 191.899 388.043C190.269 386.498 189.298 384.384 189.19 382.14L185.64 309.45C185.449 305.345 184.217 301.355 182.06 297.857C179.903 294.358 176.892 291.465 173.31 289.45L155.36 279.36C153.102 278.087 151.261 276.188 150.058 273.892C148.855 271.596 148.342 269.001 148.58 266.42L155.98 186.85C156.155 184.79 156.829 182.804 157.942 181.062C159.055 179.32 160.574 177.875 162.37 176.85C169.49 172.85 180.27 167.07 190.93 162.3C195.864 160.042 200.918 158.055 206.07 156.35V156.4ZM179.07 115.69C179.07 109.018 180.809 102.462 184.116 96.6674C187.423 90.8728 192.183 86.0403 197.927 82.6466C203.671 79.2528 210.2 77.415 216.871 77.3144C223.542 77.2139 230.124 78.854 235.968 82.0731C241.812 85.2922 246.716 89.979 250.196 95.6712C253.675 101.364 255.611 107.865 255.813 114.533C256.014 121.202 254.473 127.808 251.342 133.7C248.212 139.591 243.599 144.565 237.96 148.13C241.37 149.42 244.87 150.89 248.34 152.44C259.43 157.44 270.53 163.37 277.77 167.44C281.099 169.325 283.92 171.992 285.989 175.209C288.059 178.427 289.315 182.099 289.65 185.91L297.05 265.48C297.483 270.146 296.555 274.838 294.38 278.989C292.204 283.139 288.874 286.571 284.79 288.87L266.85 298.96C264.876 300.068 263.214 301.658 262.019 303.581C260.825 305.505 260.137 307.699 260.02 309.96L256.47 382.66C256.228 387.672 254.067 392.398 250.435 395.859C246.803 399.321 241.977 401.251 236.96 401.25H197.96C192.942 401.249 188.117 399.318 184.484 395.857C180.85 392.397 178.686 387.672 178.44 382.66L174.9 309.96C174.781 307.7 174.092 305.506 172.898 303.583C171.704 301.66 170.043 300.069 168.07 298.96L150.13 288.87C146.045 286.573 142.713 283.142 140.537 278.99C138.361 274.839 137.435 270.147 137.87 265.48L145.27 185.91C145.602 182.099 146.858 178.425 148.927 175.207C150.997 171.989 153.819 169.323 157.15 167.44C164.39 163.38 175.48 157.44 186.58 152.44C190.05 150.89 193.58 149.44 196.96 148.13C191.469 144.673 186.946 139.878 183.814 134.196C180.681 128.513 179.042 122.129 179.05 115.64L179.07 115.69ZM208.74 230.51V219.37V218.79C208.74 218.28 208.81 217.53 208.87 216.58C208.99 214.67 209.16 211.94 209.41 208.65C209.9 202.08 210.67 193.35 211.76 184.65C212.637 176.726 214.04 168.868 215.96 161.13C216.46 159.34 216.96 157.85 217.42 156.65C217.981 158.117 218.465 159.613 218.87 161.13C220.799 168.867 222.205 176.725 223.08 184.65C224.17 193.36 224.93 202.09 225.43 208.65C225.67 211.94 225.85 214.65 225.97 216.58C226.03 217.58 226.07 218.28 226.1 218.79V219.37V230.51L217.39 236.32L208.74 230.51Z" fill="#00A7B8"/>
<path d="M384.85 3H50C24.0426 3 3 24.0426 3 50V494.53C3 520.487 24.0426 541.53 50 541.53H384.85C410.807 541.53 431.85 520.487 431.85 494.53V50C431.85 24.0426 410.807 3 384.85 3Z" stroke="#00A7B8" stroke-width="5" stroke-miterlimit="10"/>
<path d="M133.784 473.149L142.503 462.163H147.284V487.37H141.888V470.565L133.784 480.884L125.698 470.636V487.37H120.284V462.163H125.154L133.784 473.149ZM156.812 462.163L162.736 474.046L167.781 462.163H173.546L164.722 481.077C163.702 483.257 162.49 484.909 161.083 486.034C159.695 487.159 157.972 487.722 155.898 487.722C155.423 487.722 154.948 487.687 154.456 487.581C153.982 487.493 153.63 487.405 153.384 487.3L153.015 487.194V482.519C153.613 482.765 154.333 482.87 155.177 482.87C156.988 482.87 158.376 482.044 159.343 480.356L160.064 479.091L151.064 462.163H156.812ZM189.384 478.915L187.222 476.577L179.839 487.37H173.546L183.618 472.604L174.267 462.163H180.56L189.384 471.884V462.163H194.781V471.884L203.605 462.163H209.898L200.546 472.604L210.618 487.37H204.325L196.943 476.577L194.781 478.915V487.37H189.384V478.915ZM224.681 461.636C225.999 461.636 227.265 461.812 228.46 462.163C229.656 462.515 230.622 462.919 231.396 463.411C232.169 463.903 232.837 464.396 233.435 464.888C234.032 465.38 234.454 465.802 234.718 466.136L235.122 466.663L231.695 470.091C231.624 470.003 231.519 469.88 231.396 469.704C231.273 469.528 230.991 469.247 230.57 468.825C230.148 468.421 229.673 468.069 229.181 467.753C228.671 467.437 228.003 467.155 227.195 466.892C226.368 466.628 225.525 466.487 224.681 466.487C222.325 466.487 220.357 467.278 218.775 468.86C217.193 470.442 216.402 472.411 216.402 474.767C216.402 477.122 217.193 479.091 218.775 480.673C220.357 482.255 222.325 483.046 224.681 483.046C225.595 483.046 226.456 482.923 227.3 482.677C228.144 482.431 228.829 482.132 229.392 481.78C229.937 481.429 230.429 481.077 230.851 480.726C231.273 480.374 231.572 480.075 231.765 479.812L232.046 479.442L235.298 482.87C235.193 483.011 235.052 483.204 234.859 483.433C234.665 483.661 234.243 484.065 233.575 484.646C232.907 485.226 232.204 485.735 231.448 486.175C230.693 486.614 229.708 487.019 228.478 487.37C227.247 487.739 225.982 487.915 224.681 487.915C220.831 487.915 217.579 486.632 214.943 484.065C212.306 481.499 210.988 478.388 210.988 474.767C210.988 471.146 212.306 468.052 214.943 465.485C217.579 462.919 220.831 461.636 224.681 461.636ZM245.019 462.163V473.149L254.915 462.163H261.208L251.857 472.604L261.929 487.37H255.636L248.253 476.577L245.019 480.163V487.37H239.605V462.163H245.019ZM267.87 474.784C267.87 477.104 268.644 479.073 270.226 480.655C271.79 482.255 273.706 483.046 275.956 483.046C278.206 483.046 280.122 482.255 281.687 480.655C283.269 479.073 284.042 477.104 284.042 474.784C284.042 472.464 283.269 470.495 281.687 468.896C280.122 467.296 278.206 466.487 275.956 466.487C273.706 466.487 271.79 467.296 270.226 468.896C268.644 470.495 267.87 472.464 267.87 474.784ZM262.281 474.767C262.281 471.146 263.599 468.052 266.236 465.485C268.872 462.919 272.124 461.636 275.956 461.636C279.788 461.636 283.04 462.919 285.677 465.485C288.314 468.052 289.632 471.146 289.632 474.767C289.632 478.388 288.314 481.499 285.677 484.065C283.04 486.632 279.788 487.915 275.956 487.915C272.124 487.915 268.872 486.632 266.236 484.065C263.599 481.499 262.281 478.388 262.281 474.767ZM305.857 455.87C306.472 455.87 306.982 455.677 307.404 455.255C307.808 454.851 308.019 454.341 308.019 453.726H311.622C311.622 455.343 311.077 456.679 310.023 457.733C308.95 458.788 307.562 459.315 305.857 459.315C304.152 459.315 302.763 458.788 301.708 457.733C300.636 456.679 300.109 455.343 300.109 453.726H303.695C303.695 454.341 303.888 454.851 304.31 455.255C304.714 455.677 305.224 455.87 305.857 455.87ZM317.195 487.37H311.798V471.356L299.388 487.37H294.695V462.163H300.109V478.194L312.519 462.163H317.195V487.37Z" fill="#1D1D1B"/>
</svg>
