<svg width="434" height="545" viewBox="0 0 434 545" fill="none" xmlns="http://www.w3.org/2000/svg">
<path d="M384.38 3H49.53C23.5726 3 2.53003 24.0426 2.53003 50V494.53C2.53003 520.487 23.5726 541.53 49.53 541.53H384.38C410.337 541.53 431.38 520.487 431.38 494.53V50C431.38 24.0426 410.337 3 384.38 3Z" stroke="#00A7B8" stroke-width="5" stroke-miterlimit="10"/>
<path fill-rule="evenodd" clip-rule="evenodd" d="M216.95 88.14C211.501 88.14 206.175 89.7558 201.644 92.783C197.113 95.8103 193.582 100.113 191.497 105.147C189.412 110.181 188.866 115.721 189.929 121.065C190.992 126.409 193.616 131.318 197.469 135.171C201.322 139.024 206.231 141.648 211.575 142.711C216.919 143.774 222.459 143.228 227.493 141.143C232.527 139.058 236.83 135.527 239.857 130.996C242.884 126.465 244.5 121.139 244.5 115.69C244.497 108.384 241.594 101.378 236.428 96.2122C231.262 91.0461 224.256 88.1427 216.95 88.14ZM178.57 115.64C178.564 108.919 180.323 102.314 183.672 96.4859C187.02 90.658 191.841 85.8117 197.65 82.4319C203.46 79.0521 210.056 77.2572 216.777 77.227C223.498 77.1967 230.11 78.932 235.95 82.2593C241.79 85.5866 246.653 90.3892 250.054 96.1867C253.455 101.984 255.274 108.573 255.329 115.294C255.383 122.015 253.672 128.633 250.366 134.485C247.06 140.337 242.275 145.218 236.49 148.64C239.36 150.02 242.22 151.57 244.98 153.2C252.779 157.876 260.262 163.061 267.38 168.72C271.429 171.951 274.269 176.454 275.44 181.5L307.62 316.28C309.042 322.236 308.16 328.509 305.15 333.842C302.139 339.174 297.224 343.171 291.39 345.03L268 352.47C265.514 353.259 263.312 354.756 261.664 356.777C260.016 358.798 258.993 361.256 258.72 363.85L256.63 383.69C256.126 388.492 253.862 392.938 250.274 396.169C246.686 399.401 242.029 401.189 237.2 401.19H196.71C191.88 401.19 187.222 399.401 183.632 396.17C180.043 392.939 177.776 388.493 177.27 383.69L175.19 363.89C174.921 361.297 173.9 358.838 172.253 356.817C170.606 354.795 168.405 353.298 165.92 352.51L142.53 345.07C136.694 343.213 131.776 339.217 128.764 333.884C125.752 328.552 124.868 322.277 126.29 316.32L158.47 181.54C159.641 176.494 162.481 171.991 166.53 168.76C173.643 163.098 181.122 157.914 188.92 153.24C191.68 151.61 194.54 150.06 197.41 148.68C191.669 145.285 186.912 140.453 183.608 134.659C180.304 128.865 178.568 122.31 178.57 115.64ZM184.98 168.64C180.29 171.85 176.18 174.97 173.23 177.3C171.093 179.025 169.602 181.421 169 184.1L136.82 318.84C136.032 322.138 136.523 325.613 138.192 328.564C139.862 331.516 142.587 333.726 145.82 334.75L169.21 342.19C173.702 343.618 177.68 346.324 180.659 349.977C183.637 353.631 185.486 358.073 185.98 362.76L188.06 382.6C188.287 384.741 189.298 386.723 190.899 388.163C192.5 389.603 194.577 390.4 196.73 390.4H237.19C239.341 390.397 241.416 389.599 243.014 388.159C244.613 386.719 245.623 384.739 245.85 382.6L247.94 362.76C248.434 358.074 250.282 353.634 253.259 349.981C256.235 346.328 260.211 343.621 264.7 342.19L288.09 334.75C291.321 333.724 294.045 331.513 295.714 328.562C297.384 325.611 297.875 322.138 297.09 318.84L264.9 184.06C264.297 181.381 262.807 178.985 260.67 177.26C257.67 174.93 253.61 171.81 248.92 168.6C246.693 175.319 242.406 181.166 236.667 185.31C230.928 189.454 224.029 191.685 216.95 191.685C209.871 191.685 202.972 189.454 197.233 185.31C191.494 181.166 187.207 175.319 184.98 168.6V168.64ZM239.35 162.53C238.318 167.711 235.522 172.375 231.437 175.726C227.353 179.077 222.233 180.908 216.95 180.908C211.667 180.908 206.547 179.077 202.463 175.726C198.378 172.375 195.582 167.711 194.55 162.53C198.48 160.178 202.586 158.132 206.83 156.41C209.98 154.866 213.442 154.064 216.95 154.064C220.458 154.064 223.92 154.866 227.07 156.41C231.314 158.117 235.419 160.15 239.35 162.49V162.53Z" fill="#00A7B8"/>
<path d="M134.208 479.545L132.046 477.207L124.663 488H118.37L128.442 473.234L119.091 462.793H125.384L134.208 472.514V462.793H139.604V472.514L148.428 462.793H154.721L145.37 473.234L155.442 488H149.149L141.766 477.207L139.604 479.545V488H134.208V479.545ZM164.108 483.148H177.608V488H158.694V462.793H177.239V467.662H164.108V472.707H174.356V477.559H164.108V483.148ZM204.239 462.793V488H198.843V477.734H188.05V488H182.635V462.793H188.05V472.883H198.843V462.793H204.239ZM222.977 462.266C224.296 462.266 225.561 462.441 226.757 462.793C227.952 463.145 228.919 463.549 229.692 464.041C230.466 464.533 231.134 465.025 231.731 465.518C232.329 466.01 232.751 466.432 233.014 466.766L233.419 467.293L229.991 470.721C229.921 470.633 229.815 470.51 229.692 470.334C229.569 470.158 229.288 469.877 228.866 469.455C228.444 469.051 227.969 468.699 227.477 468.383C226.968 468.066 226.3 467.785 225.491 467.521C224.665 467.258 223.821 467.117 222.977 467.117C220.622 467.117 218.653 467.908 217.071 469.49C215.489 471.072 214.698 473.041 214.698 475.396C214.698 477.752 215.489 479.721 217.071 481.303C218.653 482.885 220.622 483.676 222.977 483.676C223.891 483.676 224.753 483.553 225.596 483.307C226.44 483.061 227.126 482.762 227.688 482.41C228.233 482.059 228.725 481.707 229.147 481.355C229.569 481.004 229.868 480.705 230.061 480.441L230.343 480.072L233.594 483.5C233.489 483.641 233.348 483.834 233.155 484.062C232.962 484.291 232.54 484.695 231.872 485.275C231.204 485.855 230.501 486.365 229.745 486.805C228.989 487.244 228.005 487.648 226.774 488C225.544 488.369 224.278 488.545 222.977 488.545C219.128 488.545 215.876 487.262 213.239 484.695C210.602 482.129 209.284 479.018 209.284 475.396C209.284 471.775 210.602 468.682 213.239 466.115C215.876 463.549 219.128 462.266 222.977 462.266ZM243.315 462.793V473.779L253.212 462.793H259.505L250.153 473.234L260.225 488H253.932L246.55 477.207L243.315 480.793V488H237.901V462.793H243.315ZM285.96 488H280.563V471.986L268.153 488H263.46V462.793H268.874V478.824L281.284 462.793H285.96V488ZM303.591 456.5C304.206 456.5 304.716 456.307 305.137 455.885C305.542 455.48 305.753 454.971 305.753 454.355H309.356C309.356 455.973 308.811 457.309 307.757 458.363C306.684 459.418 305.296 459.945 303.591 459.945C301.885 459.945 300.497 459.418 299.442 458.363C298.37 457.309 297.843 455.973 297.843 454.355H301.428C301.428 454.971 301.622 455.48 302.044 455.885C302.448 456.307 302.958 456.5 303.591 456.5ZM314.928 488H309.532V471.986L297.122 488H292.428V462.793H297.843V478.824L310.253 462.793H314.928V488Z" fill="#1D1D1B"/>
</svg>
