<svg width="434" height="545" viewBox="0 0 434 545" fill="none" xmlns="http://www.w3.org/2000/svg">
<path d="M384.38 3H49.53C23.5726 3 2.53003 24.0426 2.53003 50V494.53C2.53003 520.487 23.5726 541.53 49.53 541.53H384.38C410.337 541.53 431.38 520.487 431.38 494.53V50C431.38 24.0426 410.337 3 384.38 3Z" stroke="#00A7B8" stroke-width="5" stroke-miterlimit="10"/>
<path d="M66.2979 347.113V372.32H60.9014V362.054H50.1084V372.32H44.6943V347.113H50.1084V357.203H60.9014V347.113H66.2979ZM78.1982 367.468H91.6982V372.32H72.7842V347.113H91.3291V351.982H78.1982V357.027H88.4463V361.878H78.1982V367.468ZM117.081 358.996C117.187 359.048 117.362 359.119 117.573 359.207C117.784 359.294 118.171 359.505 118.698 359.857C119.243 360.208 119.718 360.595 120.122 361.017C120.526 361.457 120.896 362.054 121.229 362.828C121.581 363.601 121.739 364.427 121.739 365.324C121.739 367.433 120.843 369.208 119.05 370.685C117.257 372.144 114.778 372.882 111.649 372.882C110.454 372.882 109.294 372.724 108.169 372.425C107.044 372.126 106.095 371.775 105.356 371.353C104.618 370.931 103.968 370.509 103.405 370.087C102.843 369.666 102.421 369.314 102.157 369.033L101.753 368.558L105.005 365.324L105.286 365.605C105.409 365.71 105.673 365.939 106.077 366.255C106.499 366.572 106.921 366.835 107.378 367.082C107.835 367.31 108.415 367.521 109.118 367.714C109.821 367.908 110.56 368.013 111.298 368.013C112.792 368.013 113.952 367.697 114.761 367.082C115.569 366.449 115.974 365.693 115.974 364.779C115.974 363.83 115.604 363.056 114.849 362.458C114.093 361.843 112.968 361.544 111.474 361.544H108.239V356.851H111.298C112.528 356.851 113.46 356.587 114.11 356.095C114.761 355.585 115.077 354.935 115.077 354.162C115.077 353.388 114.743 352.738 114.058 352.228C113.372 351.701 112.388 351.455 111.122 351.455C110.208 351.455 109.329 351.648 108.45 352.035C107.589 352.421 106.956 352.791 106.552 353.177L105.901 353.792L102.649 350.382C102.72 350.277 102.843 350.154 103.019 349.978C103.194 349.802 103.546 349.503 104.108 349.064C104.671 348.607 105.286 348.22 105.919 347.904C106.552 347.587 107.396 347.289 108.433 347.007C109.487 346.726 110.56 346.603 111.649 346.603C114.427 346.603 116.642 347.289 118.329 348.677C120.017 350.066 120.843 351.718 120.843 353.617C120.843 354.408 120.72 355.128 120.456 355.796C120.192 356.447 119.876 356.957 119.489 357.326C119.12 357.712 118.751 358.029 118.399 358.31C118.048 358.591 117.731 358.767 117.468 358.855L117.081 358.996ZM148.388 347.113V372.32H142.991V362.054H132.198V372.32H126.784V347.113H132.198V357.203H142.991V347.113H148.388ZM167.847 361.703L164.788 353.423L161.712 361.703H167.847ZM169.64 366.378H159.919L157.757 372.32H151.991L161.905 347.113H167.653L177.567 372.32H171.802L169.64 366.378ZM215.378 359.734C215.378 363.408 214.112 366.519 211.616 369.05C209.12 371.599 206.114 372.865 202.581 372.865C199.347 372.865 196.587 371.845 194.267 369.771C191.964 367.697 190.54 365.13 189.995 362.054H186.585V372.32H181.171V347.113H186.585V357.027H189.995C190.54 354.126 191.964 351.666 194.284 349.626C196.604 347.605 199.364 346.585 202.599 346.585C206.114 346.585 209.138 347.869 211.634 350.4C214.13 352.949 215.378 356.06 215.378 359.734ZM209.964 359.716C209.964 357.343 209.243 355.375 207.784 353.81C206.343 352.228 204.603 351.455 202.581 351.455C200.577 351.455 198.837 352.228 197.378 353.81C195.937 355.375 195.198 357.343 195.198 359.716C195.198 362.107 195.937 364.076 197.378 365.64C198.837 367.222 200.577 367.996 202.581 367.996C204.603 367.996 206.343 367.222 207.784 365.64C209.243 364.076 209.964 362.107 209.964 359.716ZM239.214 372.32H227.788V347.113H238.599C240.884 347.113 242.765 347.781 244.259 349.117C245.753 350.453 246.509 352.017 246.509 353.775C246.509 354.443 246.403 355.093 246.228 355.691C246.034 356.289 245.788 356.798 245.507 357.185C245.208 357.589 244.909 357.941 244.628 358.222C244.347 358.503 244.101 358.714 243.925 358.82L243.626 358.996C243.731 359.048 243.89 359.119 244.065 359.207C244.241 359.294 244.575 359.505 245.067 359.857C245.542 360.208 245.964 360.578 246.333 360.982C246.685 361.404 247.019 361.966 247.317 362.669C247.616 363.373 247.774 364.128 247.774 364.937C247.774 366.958 246.966 368.699 245.366 370.14C243.749 371.599 241.71 372.32 239.214 372.32ZM233.202 367.82H238.95C239.935 367.82 240.743 367.521 241.394 366.888C242.044 366.273 242.378 365.5 242.378 364.585C242.378 363.671 242.044 362.916 241.394 362.283C240.743 361.65 239.935 361.333 238.95 361.333H233.202V367.82ZM238.229 351.613H233.202V357.027H238.229C239.108 357.027 239.812 356.781 240.339 356.289C240.849 355.796 241.112 355.146 241.112 354.32C241.112 353.511 240.849 352.843 240.339 352.351C239.812 351.859 239.108 351.613 238.229 351.613ZM280.364 347.113V372.32H274.968V347.113H280.364ZM263.085 372.32H252.819V347.113H258.233V355.392H263.085C265.669 355.392 267.813 356.218 269.519 357.835C271.224 359.453 272.085 361.474 272.085 363.865C272.085 366.273 271.224 368.277 269.519 369.894C267.813 371.511 265.669 372.32 263.085 372.32ZM258.233 367.468H262.909C263.981 367.468 264.878 367.134 265.599 366.431C266.319 365.728 266.688 364.884 266.688 363.865C266.688 362.863 266.319 362.019 265.599 361.316C264.878 360.613 263.981 360.261 262.909 360.261H258.233V367.468ZM299.103 346.585C300.421 346.585 301.687 346.761 302.882 347.113C304.077 347.464 305.044 347.869 305.817 348.361C306.591 348.853 307.259 349.345 307.856 349.837C308.454 350.33 308.876 350.751 309.14 351.085L309.544 351.613L306.116 355.041C306.046 354.953 305.94 354.83 305.817 354.654C305.694 354.478 305.413 354.197 304.991 353.775C304.569 353.371 304.095 353.019 303.603 352.703C303.093 352.386 302.425 352.105 301.616 351.841C300.79 351.578 299.946 351.437 299.103 351.437C296.747 351.437 294.778 352.228 293.196 353.81C291.614 355.392 290.823 357.361 290.823 359.716C290.823 362.072 291.614 364.041 293.196 365.623C294.778 367.205 296.747 367.996 299.103 367.996C300.017 367.996 300.878 367.873 301.722 367.626C302.565 367.38 303.251 367.082 303.813 366.73C304.358 366.378 304.851 366.027 305.272 365.675C305.694 365.324 305.993 365.025 306.187 364.761L306.468 364.392L309.72 367.82C309.614 367.96 309.474 368.154 309.28 368.382C309.087 368.611 308.665 369.015 307.997 369.595C307.329 370.175 306.626 370.685 305.87 371.125C305.114 371.564 304.13 371.968 302.899 372.32C301.669 372.689 300.403 372.865 299.103 372.865C295.253 372.865 292.001 371.582 289.364 369.015C286.728 366.449 285.409 363.337 285.409 359.716C285.409 356.095 286.728 353.001 289.364 350.435C292.001 347.869 295.253 346.585 299.103 346.585ZM317.437 359.734C317.437 362.054 318.21 364.023 319.792 365.605C321.356 367.205 323.272 367.996 325.522 367.996C327.772 367.996 329.688 367.205 331.253 365.605C332.835 364.023 333.608 362.054 333.608 359.734C333.608 357.414 332.835 355.445 331.253 353.845C329.688 352.246 327.772 351.437 325.522 351.437C323.272 351.437 321.356 352.246 319.792 353.845C318.21 355.445 317.437 357.414 317.437 359.734ZM311.847 359.716C311.847 356.095 313.165 353.001 315.802 350.435C318.438 347.869 321.69 346.585 325.522 346.585C329.354 346.585 332.606 347.869 335.243 350.435C337.88 353.001 339.198 356.095 339.198 359.716C339.198 363.337 337.88 366.449 335.243 369.015C332.606 371.582 329.354 372.865 325.522 372.865C321.69 372.865 318.438 371.582 315.802 369.015C313.165 366.449 311.847 363.337 311.847 359.716ZM340.306 347.113H360.099V351.982H352.909V372.32H347.513V351.982H340.306V347.113ZM367.851 347.113L373.774 358.996L378.819 347.113H384.585L375.761 366.027C374.741 368.207 373.528 369.859 372.122 370.984C370.733 372.109 369.011 372.671 366.937 372.671C366.462 372.671 365.987 372.636 365.495 372.531C365.021 372.443 364.669 372.355 364.423 372.25L364.054 372.144V367.468C364.651 367.714 365.372 367.82 366.216 367.82C368.026 367.82 369.415 366.994 370.382 365.306L371.103 364.041L362.103 347.113H367.851Z" fill="#00A7B8"/>
<path d="M162.556 389.786C163.875 389.786 165.14 389.961 166.335 390.313C167.531 390.665 168.498 391.069 169.271 391.561C170.044 392.053 170.712 392.545 171.31 393.038C171.908 393.53 172.33 393.952 172.593 394.286L172.998 394.813L169.57 398.241C169.5 398.153 169.394 398.03 169.271 397.854C169.148 397.678 168.867 397.397 168.445 396.975C168.023 396.571 167.548 396.219 167.056 395.903C166.546 395.586 165.878 395.305 165.07 395.042C164.244 394.778 163.4 394.637 162.556 394.637C160.201 394.637 158.232 395.428 156.65 397.01C155.068 398.592 154.277 400.561 154.277 402.917C154.277 405.272 155.068 407.241 156.65 408.823C158.232 410.405 160.201 411.196 162.556 411.196C163.47 411.196 164.332 411.073 165.175 410.827C166.019 410.581 166.705 410.282 167.267 409.93C167.812 409.579 168.304 409.227 168.726 408.875C169.148 408.524 169.447 408.225 169.64 407.961L169.921 407.592L173.173 411.02C173.068 411.161 172.927 411.354 172.734 411.583C172.541 411.811 172.119 412.215 171.451 412.795C170.783 413.375 170.08 413.885 169.324 414.325C168.568 414.764 167.583 415.168 166.353 415.52C165.123 415.889 163.857 416.065 162.556 416.065C158.707 416.065 155.455 414.782 152.818 412.215C150.181 409.649 148.863 406.538 148.863 402.917C148.863 399.295 150.181 396.202 152.818 393.635C155.455 391.069 158.707 389.786 162.556 389.786ZM188.906 415.52H177.48V390.313H188.291C190.576 390.313 192.457 390.981 193.951 392.317C195.445 393.653 196.201 395.217 196.201 396.975C196.201 397.643 196.095 398.293 195.919 398.891C195.726 399.489 195.48 399.999 195.199 400.385C194.9 400.79 194.601 401.141 194.32 401.422C194.039 401.704 193.792 401.915 193.617 402.02L193.318 402.196C193.423 402.249 193.582 402.319 193.757 402.407C193.933 402.495 194.267 402.706 194.759 403.057C195.234 403.409 195.656 403.778 196.025 404.182C196.376 404.604 196.71 405.167 197.009 405.87C197.308 406.573 197.466 407.329 197.466 408.137C197.466 410.159 196.658 411.899 195.058 413.34C193.441 414.799 191.402 415.52 188.906 415.52ZM182.894 411.02H188.642C189.626 411.02 190.435 410.721 191.085 410.088C191.736 409.473 192.07 408.7 192.07 407.786C192.07 406.872 191.736 406.116 191.085 405.483C190.435 404.85 189.626 404.534 188.642 404.534H182.894V411.02ZM187.921 394.813H182.894V400.227H187.921C188.8 400.227 189.503 399.981 190.031 399.489C190.541 398.997 190.804 398.346 190.804 397.52C190.804 396.711 190.541 396.043 190.031 395.551C189.503 395.059 188.8 394.813 187.921 394.813ZM206.66 402.934C206.66 405.254 207.433 407.223 209.015 408.805C210.58 410.405 212.496 411.196 214.746 411.196C216.996 411.196 218.912 410.405 220.476 408.805C222.058 407.223 222.832 405.254 222.832 402.934C222.832 400.614 222.058 398.645 220.476 397.045C218.912 395.446 216.996 394.637 214.746 394.637C212.496 394.637 210.58 395.446 209.015 397.045C207.433 398.645 206.66 400.614 206.66 402.934ZM201.07 402.917C201.07 399.295 202.388 396.202 205.025 393.635C207.662 391.069 210.914 389.786 214.746 389.786C218.578 389.786 221.83 391.069 224.466 393.635C227.103 396.202 228.421 399.295 228.421 402.917C228.421 406.538 227.103 409.649 224.466 412.215C221.83 414.782 218.578 416.065 214.746 416.065C210.914 416.065 207.662 414.782 205.025 412.215C202.388 409.649 201.07 406.538 201.07 402.917ZM229.511 410.668H230.953C231.041 410.581 231.181 410.44 231.357 410.229C231.533 410.018 231.867 409.561 232.324 408.823C232.781 408.084 233.167 407.276 233.519 406.397C233.871 405.518 234.187 404.34 234.468 402.829C234.75 401.334 234.908 399.752 234.908 398.065V390.313H252.363V410.668H255.439V420.741H250.025V415.52H234.908V420.741H229.511V410.668ZM240.304 398.065C240.304 399.752 240.164 401.334 239.882 402.811C239.601 404.305 239.285 405.5 238.898 406.415C238.511 407.329 238.142 408.12 237.755 408.788C237.369 409.456 237.035 409.948 236.789 410.229L236.349 410.668H246.966V395.182H240.304V398.065ZM272.542 404.903L269.484 396.624L266.408 404.903H272.542ZM274.335 409.579H264.615L262.453 415.52H256.687L266.601 390.313H272.349L282.263 415.52H276.498L274.335 409.579Z" fill="#00A7B8"/>
<path d="M69.5815 431.933V457.14H65.6265V435.537H53.1987V457.14H49.2437V431.933H69.5815ZM84.6812 457.492C84.0308 457.492 83.3979 457.421 82.8003 457.263C82.1851 457.123 81.6577 456.929 81.2358 456.701C80.7964 456.472 80.4097 456.244 80.0757 455.998C79.7417 455.751 79.4956 455.558 79.355 455.417L79.1089 455.154V464.699H75.5054V439.861H79.1089V441.847C79.2671 441.689 79.4956 441.478 79.7944 441.197C80.0933 440.933 80.7261 440.582 81.7104 440.142C82.6772 439.72 83.6616 439.492 84.6812 439.492C86.9663 439.492 88.9351 440.371 90.6226 442.128C92.3101 443.886 93.1538 445.996 93.1538 448.492C93.1538 450.988 92.3101 453.115 90.6226 454.873C88.9351 456.63 86.9663 457.492 84.6812 457.492ZM84.3296 442.744C82.9585 442.744 81.7456 443.306 80.6909 444.431C79.6362 445.556 79.1089 446.927 79.1089 448.509C79.1089 450.091 79.6362 451.445 80.6909 452.57C81.7456 453.695 82.9585 454.257 84.3296 454.257C85.7007 454.257 86.9136 453.695 87.9683 452.57C89.0229 451.445 89.5503 450.091 89.5503 448.509C89.5503 446.927 89.0229 445.556 87.9683 444.431C86.9136 443.306 85.7007 442.744 84.3296 442.744ZM110.416 448.509C110.416 446.892 109.871 445.539 108.816 444.414C107.744 443.306 106.478 442.744 105.019 442.744C103.542 442.744 102.277 443.306 101.205 444.414C100.132 445.539 99.605 446.892 99.605 448.509C99.605 450.126 100.132 451.48 101.205 452.587C102.277 453.712 103.542 454.257 105.019 454.257C106.478 454.257 107.744 453.712 108.816 452.587C109.871 451.48 110.416 450.126 110.416 448.509ZM96.019 448.509C96.019 446.083 96.8979 443.974 98.6909 442.181C100.484 440.388 102.593 439.492 105.019 439.492C107.445 439.492 109.537 440.388 111.33 442.181C113.123 443.974 114.019 446.083 114.019 448.509C114.019 450.935 113.123 453.027 111.33 454.82C109.537 456.613 107.445 457.509 105.019 457.509C102.593 457.509 100.484 456.613 98.6909 454.82C96.8979 453.027 96.019 450.935 96.019 448.509ZM130.578 439.861H133.812V457.14H130.208V445.802L121.208 457.14H117.974V439.861H121.578V451.199L130.578 439.861ZM125.884 434.464C126.605 434.464 127.203 434.236 127.695 433.744C128.169 433.269 128.416 432.671 128.416 431.933H131.123C131.123 433.375 130.63 434.587 129.646 435.537C128.662 436.503 127.414 436.978 125.902 436.978C124.39 436.978 123.142 436.503 122.158 435.537C121.173 434.587 120.681 433.375 120.681 431.933H123.371C123.371 432.654 123.599 433.251 124.091 433.744C124.566 434.236 125.164 434.464 125.884 434.464ZM137.064 443.095V439.861H152.533V443.095H146.591V457.14H143.005V443.095H137.064ZM168.371 439.861H171.605V457.14H168.001V445.802L159.001 457.14H155.767V439.861H159.371V451.199L168.371 439.861ZM181.343 453.906H182.591C182.662 453.835 182.75 453.73 182.89 453.572C183.031 453.414 183.259 453.062 183.593 452.5C183.927 451.955 184.226 451.357 184.472 450.724C184.718 450.091 184.947 449.248 185.158 448.193C185.369 447.156 185.474 446.066 185.474 444.906V439.861H198.078V453.906H200.591V461.464H197.005V457.14H184.947V461.464H181.343V453.906ZM189.078 443.095L189.06 444.906C189.06 446.066 188.972 447.156 188.779 448.175C188.585 449.212 188.339 450.074 188.058 450.742C187.777 451.41 187.478 451.99 187.197 452.482C186.916 452.974 186.669 453.326 186.494 453.537L186.195 453.906H194.474V443.095H189.078ZM216.816 439.861H220.05V457.14H216.447V445.802L207.447 457.14H204.212V439.861H207.816V451.199L216.816 439.861ZM238.964 457.14L235.361 457.158V455.365C235.308 455.4 235.22 455.488 235.115 455.593C235.009 455.699 234.781 455.857 234.447 456.103C234.113 456.349 233.761 456.56 233.375 456.753C232.988 456.947 232.496 457.123 231.916 457.281C231.318 457.421 230.738 457.509 230.14 457.509C228.382 457.509 226.923 457 225.763 455.98C224.603 454.96 224.023 453.783 224.023 452.482C224.023 451.058 224.462 449.863 225.359 448.896C226.255 447.947 227.486 447.332 229.05 447.068L235.361 445.978C235.361 445.064 235.009 444.308 234.341 443.675C233.673 443.06 232.812 442.744 231.757 442.744C230.843 442.744 230 442.937 229.261 443.324C228.523 443.71 228.013 444.08 227.732 444.466L227.257 445.082L224.919 442.744C224.99 442.656 225.078 442.533 225.201 442.392C225.324 442.251 225.605 441.988 226.027 441.619C226.449 441.25 226.906 440.916 227.398 440.617C227.873 440.335 228.505 440.072 229.296 439.843C230.087 439.615 230.914 439.492 231.757 439.492C233.867 439.492 235.589 440.125 236.943 441.373C238.279 442.621 238.964 444.15 238.964 445.978V457.14ZM230.685 454.275C232.144 454.275 233.287 453.835 234.113 452.957C234.939 452.078 235.361 450.847 235.361 449.23V448.878L229.771 449.775C229.121 449.88 228.593 450.144 228.207 450.566C227.802 450.97 227.609 451.48 227.609 452.095C227.609 452.675 227.873 453.185 228.435 453.625C228.998 454.046 229.736 454.275 230.685 454.275ZM256.068 439.861V443.095H247.613V457.14H244.009V439.861H256.068ZM262.554 449.933V457.14H258.951V439.861H262.554V446.699H271.009V439.861H274.613V457.14H271.009V449.933H262.554ZM292.982 448.509C292.982 446.892 292.437 445.539 291.382 444.414C290.31 443.306 289.044 442.744 287.585 442.744C286.109 442.744 284.843 443.306 283.771 444.414C282.699 445.539 282.171 446.892 282.171 448.509C282.171 450.126 282.699 451.48 283.771 452.587C284.843 453.712 286.109 454.257 287.585 454.257C289.044 454.257 290.31 453.712 291.382 452.587C292.437 451.48 292.982 450.126 292.982 448.509ZM278.585 448.509C278.585 446.083 279.464 443.974 281.257 442.181C283.05 440.388 285.16 439.492 287.585 439.492C290.011 439.492 292.103 440.388 293.896 442.181C295.689 443.974 296.585 446.083 296.585 448.509C296.585 450.935 295.689 453.027 293.896 454.82C292.103 456.613 290.011 457.509 287.585 457.509C285.16 457.509 283.05 456.613 281.257 454.82C279.464 453.027 278.585 450.935 278.585 448.509ZM299.468 448.509C299.468 446.083 300.347 443.992 302.14 442.199C303.933 440.406 306.042 439.509 308.468 439.509C309.804 439.509 311.07 439.791 312.23 440.371C313.39 440.951 314.216 441.531 314.726 442.111L315.482 442.937L313.144 445.275C313.021 445.082 312.845 444.853 312.599 444.572C312.353 444.291 311.843 443.921 311.035 443.464C310.226 442.99 309.382 442.761 308.468 442.761C306.992 442.761 305.726 443.306 304.654 444.431C303.582 445.539 303.054 446.892 303.054 448.509C303.054 450.126 303.582 451.48 304.654 452.605C305.726 453.712 306.992 454.275 308.468 454.275C309.382 454.275 310.226 454.046 311.035 453.589C311.843 453.132 312.423 452.675 312.775 452.253L313.32 451.585L315.658 453.923C315.587 454.011 315.482 454.134 315.341 454.31C315.201 454.486 314.884 454.767 314.427 455.171C313.953 455.576 313.46 455.927 312.951 456.244C312.423 456.56 311.755 456.841 310.947 457.105C310.121 457.369 309.294 457.509 308.468 457.509C306.042 457.509 303.933 456.613 302.14 454.82C300.347 453.027 299.468 450.935 299.468 448.509ZM317.451 443.095V439.861H332.919V443.095H326.978V457.14H323.392V443.095H317.451ZM348.757 439.861H351.992V457.14H348.388V445.802L339.388 457.14H336.154V439.861H339.757V451.199L348.757 439.861ZM372.347 439.861L365.685 447.068L372.875 457.14H368.919L363.347 449.406L360.64 452.289V457.14H357.037V439.861H360.64V447.595L368.023 439.861H372.347ZM379.888 458.933L380.609 457.14L373.578 439.861H377.357L382.402 452.464L387.447 439.861H391.226L383.474 458.933C382.578 461.078 381.699 462.572 380.82 463.416C379.941 464.277 378.851 464.699 377.55 464.699C377.058 464.699 376.619 464.681 376.197 464.611C375.775 464.558 375.458 464.488 375.265 464.417L375.019 464.347V461.095C375.617 461.341 376.214 461.464 376.83 461.464C378.201 461.464 379.22 460.621 379.888 458.933Z" fill="#00A7B8"/>
<path d="M134.378 483.061L142.657 483.079C144.31 483.079 145.611 483.5 146.595 484.344C147.562 485.188 148.054 486.278 148.054 487.579C148.054 488.317 147.878 488.985 147.562 489.583C147.245 490.18 146.911 490.602 146.577 490.848L146.085 491.182C146.156 491.2 146.243 491.235 146.384 491.288C146.507 491.358 146.736 491.499 147.087 491.745C147.421 491.991 147.72 492.254 147.966 492.536C148.212 492.817 148.441 493.204 148.652 493.696C148.863 494.188 148.968 494.733 148.968 495.295C148.968 496.79 148.423 498.002 147.368 498.934C146.314 499.883 144.855 500.34 143.027 500.34H134.378V483.061ZM143.027 492.624H137.982V497.299H143.027C143.73 497.299 144.31 497.088 144.732 496.667C145.154 496.245 145.365 495.665 145.365 494.961C145.365 494.311 145.136 493.766 144.714 493.309C144.275 492.852 143.712 492.624 143.027 492.624ZM144.468 487.93C144.468 487.368 144.292 486.928 143.976 486.612C143.642 486.295 143.202 486.137 142.657 486.137H137.982V489.741H142.657C143.202 489.741 143.642 489.565 143.976 489.249C144.292 488.932 144.468 488.493 144.468 487.93ZM163.892 487.737C163.892 490.356 164.788 492.571 166.599 494.381C168.409 496.209 170.624 497.106 173.243 497.106C175.863 497.106 178.077 496.209 179.888 494.381C181.698 492.571 182.613 490.356 182.613 487.737C182.613 485.135 181.698 482.92 179.888 481.11C178.077 479.299 175.863 478.385 173.243 478.385C170.624 478.385 168.409 479.299 166.599 481.11C164.788 482.92 163.892 485.135 163.892 487.737ZM159.937 487.737C159.937 484.116 161.202 481.057 163.769 478.543C166.318 476.047 169.482 474.782 173.243 474.782C177.005 474.782 180.169 476.047 182.718 478.543C185.284 481.057 186.55 484.116 186.55 487.737C186.55 491.358 185.284 494.434 182.718 496.93C180.169 499.444 177.005 500.692 173.243 500.692C169.482 500.692 166.318 499.444 163.769 496.93C161.202 494.434 159.937 491.358 159.937 487.737ZM192.351 475.133L202.423 475.151C204.814 475.151 206.835 475.924 208.452 477.506C210.07 479.088 210.896 481.004 210.896 483.254C210.896 485.504 210.07 487.42 208.452 488.985C206.835 490.567 204.814 491.34 202.423 491.34H196.306V500.34H192.351V475.133ZM202.423 478.754L196.306 478.737V487.737H202.423C203.654 487.737 204.726 487.315 205.605 486.454C206.484 485.592 206.923 484.52 206.923 483.254C206.923 481.989 206.484 480.917 205.605 480.055C204.726 479.176 203.654 478.754 202.423 478.754ZM213.761 475.133H232.833V478.737H225.275V500.34H221.32V478.737H213.761V475.133ZM241.13 496.737H255.351V500.34H237.175V475.133H254.999V478.737H241.13V485.399H252.116V489.002H241.13V496.737ZM264.72 475.133V487.385L276.058 475.133H281.103L271.382 485.575L281.823 500.34H276.954L268.675 488.458L264.72 492.782V500.34H260.765V475.133H264.72ZM282.913 500.34L293.355 475.133H297.31L307.751 500.34H303.62L300.913 493.678H289.751L287.044 500.34H282.913ZM295.341 479.633L291.193 490.075H299.472L295.341 479.633Z" fill="#00A7B8"/>
<path fill-rule="evenodd" clip-rule="evenodd" d="M116.52 79.4399C112.52 79.4399 109.21 81.81 107.05 84.96C104.753 88.4729 103.562 92.5934 103.63 96.7899C103.572 100.991 104.762 105.116 107.05 108.64C109.21 111.79 112.5 114.17 116.52 114.17C120.54 114.17 123.81 111.78 125.97 108.63C128.195 105.082 129.375 100.978 129.375 96.7899C129.375 92.6018 128.195 88.4984 125.97 84.95C123.82 81.81 120.52 79.4399 116.52 79.4399ZM112.09 105.18C110.501 102.675 109.687 99.7559 109.75 96.7899C109.682 93.8295 110.497 90.9159 112.09 88.4199C113.48 86.4199 115.09 85.5499 116.52 85.5499C117.95 85.5499 119.52 86.3799 120.92 88.4099C122.451 90.9388 123.261 93.8387 123.261 96.7949C123.261 99.7512 122.451 102.651 120.92 105.18C119.52 107.18 117.92 108.05 116.52 108.05C115.12 108.05 113.52 107.22 112.1 105.18H112.09ZM103.66 99.1799C103.289 96.2611 102.052 93.5201 100.11 91.3099C99.2289 90.1969 98.071 89.3346 96.7522 88.8093C95.4333 88.284 93.9997 88.1141 92.5946 88.3165C91.1895 88.519 89.8621 89.0867 88.7452 89.963C87.6283 90.8393 86.761 91.9934 86.23 93.3099C85.0756 95.7655 84.6288 98.4944 84.94 101.19C84.4935 100.53 83.9698 99.9257 83.38 99.39C82.5681 98.5393 81.5481 97.9154 80.421 97.5802C79.2939 97.245 78.0988 97.21 76.9541 97.4788C75.8093 97.7475 74.7545 98.3108 73.8944 99.1125C73.0342 99.9143 72.3985 100.927 72.05 102.05C71.2942 104.24 71.1749 106.599 71.7059 108.854C72.2369 111.109 73.3965 113.167 75.05 114.79C75.8634 115.643 76.8855 116.268 78.015 116.604C79.1446 116.939 80.3423 116.974 81.4893 116.704C82.6364 116.435 83.6931 115.869 84.5545 115.065C85.4158 114.261 86.052 113.246 86.4 112.12C86.9284 110.716 87.1599 109.218 87.08 107.72C87.5084 108.435 88.0076 109.105 88.57 109.72C89.449 110.838 90.6071 111.705 91.9276 112.234C93.2482 112.763 94.6847 112.934 96.0926 112.732C97.5006 112.529 98.8303 111.959 99.9481 111.079C101.066 110.2 101.932 109.041 102.46 107.72C103.714 105.049 104.135 102.063 103.67 99.1499L103.66 99.1799ZM93.46 94.36C93.8802 94.352 94.2958 94.4472 94.6707 94.6372C95.0455 94.8272 95.3681 95.1063 95.61 95.45C96.712 96.7509 97.4075 98.347 97.61 100.04C97.9041 101.731 97.6882 103.472 96.9899 105.04C96.3799 106.26 95.68 106.62 95.23 106.69C94.8081 106.693 94.3916 106.595 94.0157 106.404C93.6398 106.212 93.3154 105.933 93.07 105.59C92.0066 104.265 91.3193 102.678 91.08 100.996C90.8407 99.3143 91.0583 97.5989 91.71 96.0299C92.31 94.8099 93.01 94.45 93.45 94.39L93.46 94.36ZM78.35 103.41C78.422 103.39 78.498 103.39 78.57 103.41C78.8323 103.509 79.0708 103.663 79.27 103.86C80.0432 104.631 80.5749 105.611 80.8 106.68C81.0803 107.73 81.0455 108.839 80.7 109.87C80.6096 110.13 80.4666 110.368 80.28 110.57C80.2269 110.627 80.1621 110.671 80.09 110.7C80.0146 110.72 79.9354 110.72 79.86 110.7C79.6036 110.599 79.3692 110.45 79.17 110.26C78.4005 109.487 77.8723 108.507 77.65 107.44C77.3691 106.39 77.4038 105.28 77.75 104.25C77.8374 103.991 77.9769 103.753 78.16 103.55C78.2087 103.475 78.2782 103.416 78.36 103.38L78.35 103.41ZM73.27 113.05C72.4836 111.034 71.12 109.295 69.35 108.05C68.4649 107.364 67.4165 106.92 66.308 106.763C65.1995 106.605 64.069 106.738 63.0277 107.15C61.9864 107.562 61.0702 108.237 60.3693 109.11C59.6683 109.984 59.2068 111.024 59.03 112.13C58.6304 114.268 58.8448 116.475 59.6483 118.497C60.4518 120.518 61.8115 122.27 63.57 123.55C64.4541 124.236 65.5019 124.68 66.6099 124.839C67.718 124.997 68.8481 124.863 69.8889 124.451C70.9296 124.039 71.8451 123.363 72.5449 122.49C73.2448 121.616 73.705 120.575 73.88 119.47C74.3363 117.309 74.1271 115.06 73.28 113.02L73.27 113.05ZM65.92 113.05C65.7365 112.901 65.5145 112.808 65.28 112.78C65.1255 112.962 65.025 113.184 64.99 113.42C64.8567 114.355 64.9713 115.31 65.3222 116.187C65.6732 117.064 66.2482 117.834 66.99 118.42C67.1745 118.575 67.4006 118.672 67.64 118.7C67.7913 118.517 67.8883 118.295 67.92 118.06C68.0822 117.127 67.9675 116.168 67.59 115.3C67.2688 114.398 66.6919 113.609 65.93 113.03L65.92 113.05ZM71.42 134.37C76.3112 129.718 82.2684 126.336 88.77 124.52C94.87 123.29 105.31 121.52 114.15 122.37C118.6 122.82 122.28 123.91 124.78 125.77C127.11 127.51 128.66 130.07 128.66 134.23C128.575 135.79 128.13 137.31 127.36 138.67C126.379 140.513 125.223 142.257 123.91 143.88C122.59 145.56 121.19 147.15 119.91 148.61L119.76 148.79C118.582 150.057 117.48 151.393 116.46 152.79C112.32 158.98 109.46 165.35 108.61 172.09C107.76 178.83 108.92 185.82 112.48 193.09C114.2 196.6 115.97 199.6 117.65 202.35C118.07 203.04 118.49 203.7 118.89 204.35C120.13 206.35 121.29 208.23 122.38 210.2C125.725 216.049 127.864 222.51 128.67 229.2C128.67 237.72 127.9 243.62 125.85 247.6C123.96 251.27 120.79 253.6 114.75 254.6C103.38 256.41 91.38 246.6 88.89 231.1C88.19 226.69 87.62 222.84 87.1 219.32C85.04 205.25 83.76 196.53 77.61 179.32C77.4016 178.633 77.1373 177.964 76.82 177.32C76.46 176.52 76 175.56 75.47 174.5L74.47 172.58C73.61 170.88 72.66 168.98 71.68 166.94C68.91 161.17 66.22 154.88 65.47 150.23C65.47 150.23 65.47 150.23 65.47 150.16C64.42 144.33 66.82 138.96 71.43 134.35L71.42 134.37ZM134.77 134.23C134.77 128.23 132.38 123.8 128.43 120.87C124.65 118.05 119.7 116.78 114.76 116.29C104.87 115.29 93.55 117.29 87.44 118.55L87.22 118.61C79.6707 120.701 72.7578 124.632 67.1 130.05C61.61 135.53 57.92 142.83 59.47 151.19C60.39 156.81 63.47 163.83 66.2 169.53C67.2 171.61 68.2 173.6 69.06 175.31L69.99 177.17C70.51 178.17 70.93 179.1 71.25 179.79C71.4 180.13 71.52 180.41 71.6 180.62C71.6437 180.709 71.6772 180.803 71.7 180.9C71.7 181.01 71.76 181.12 71.8 181.23C77.8 197.98 78.97 206.12 81.02 220.1C81.55 223.64 82.12 227.57 82.85 232.1C85.68 249.73 99.94 263.18 115.7 260.66C123.22 259.46 128.31 256.18 131.27 250.41C134.07 244.98 134.78 237.7 134.77 229.01C134.78 228.874 134.78 228.736 134.77 228.6C133.883 221.085 131.503 213.823 127.77 207.24C126.6 205.14 125.34 203.1 124.08 201.07C123.69 200.44 123.3 199.81 122.92 199.18C121.27 196.49 119.62 193.68 118.02 190.42C114.93 184.12 114.02 178.42 114.72 172.89C115.42 167.36 117.79 161.89 121.59 156.21C122.472 155.024 123.416 153.885 124.42 152.8L124.58 152.62C125.85 151.18 127.35 149.47 128.78 147.62C130.34 145.683 131.71 143.6 132.87 141.4C134.058 139.185 134.712 136.723 134.78 134.21L134.77 134.23ZM62.67 124.16C61.8149 122.334 60.4184 120.815 58.67 119.81C57.8786 119.306 57.0202 118.915 56.12 118.65C55.0264 118.284 53.8435 118.284 52.75 118.65C51.8282 119.088 51.0239 119.739 50.4032 120.55C49.7825 121.36 49.3632 122.306 49.18 123.31C48.683 125.511 48.8751 127.812 49.73 129.9C50.1676 131.038 50.8794 132.051 51.8022 132.848C52.725 133.645 53.8303 134.202 55.02 134.47C56.7104 134.874 58.4817 134.781 60.12 134.2C61.2331 133.741 62.1303 132.876 62.63 131.78C63.0058 130.963 63.2359 130.086 63.31 129.19C63.4809 127.472 63.2551 125.737 62.65 124.12L62.67 124.16ZM55.45 127.71C55.0605 126.795 54.956 125.785 55.15 124.81L55.48 125C55.8742 125.241 56.2369 125.53 56.56 125.86C56.7388 126.023 56.8877 126.216 57 126.43C57.2458 127.136 57.3346 127.886 57.26 128.63C56.998 128.643 56.7355 128.619 56.48 128.56C56.2514 128.51 56.0364 128.411 55.85 128.27C55.6727 128.113 55.5385 127.913 55.46 127.69L55.45 127.71ZM57 126.43L59.84 125.3L56.9899 126.42L57 126.43ZM253.13 103.19C253.532 103.154 253.937 103.201 254.321 103.325C254.705 103.45 255.06 103.651 255.364 103.916C255.669 104.182 255.916 104.505 256.093 104.869C256.269 105.232 256.37 105.627 256.39 106.03V106.31C257.32 119.66 258.65 138.64 262.16 155.31C263.93 163.69 266.22 171.31 269.21 177.22C272.2 183.13 275.72 187.03 279.67 188.56C298.81 195.96 317.91 205.04 344.98 219.69C347.411 221.004 350.049 221.89 352.78 222.31C358.69 223.22 364.02 224.13 368.56 225.22C372.579 226.056 376.449 227.492 380.04 229.48C383.13 231.37 385.48 233.95 386.28 237.48C387.08 241.01 386.28 244.76 384.35 248.9C383.03 251.78 379.87 253.26 377.06 254.1C373.627 255.034 370.096 255.561 366.54 255.67C359.313 256.035 352.069 255.436 345 253.89C344.313 253.703 343.601 253.629 342.89 253.67C313.82 255.81 298.68 252.92 286.89 249.42C284.41 248.68 282.13 247.93 279.89 247.21C271.72 244.53 264.74 242.21 253.27 242.21C239.82 242.21 230.27 245.13 221.27 247.86C219.17 248.5 217.12 249.12 215.05 249.7C209.585 251.393 203.891 252.23 198.17 252.18C191.208 251.872 184.391 250.09 178.17 246.95C169.4 242.78 166.71 232.54 167.17 221.4C167.64 210.01 171.39 196.32 177.17 183.09C179.17 178.51 180.64 170.73 181.71 160.81C182.78 150.89 183.41 139.43 183.87 127.52L184.02 123.52C184.083 122.735 184.447 122.004 185.036 121.48C185.625 120.956 186.393 120.679 187.18 120.708C187.968 120.736 188.714 121.067 189.263 121.632C189.813 122.197 190.123 122.952 190.13 123.74L189.98 127.74C189.51 139.68 188.87 151.41 187.78 161.44C186.69 171.47 185.18 179.99 182.78 185.51C177.21 198.32 173.78 211.25 173.3 221.63C172.87 232.26 175.6 238.93 180.83 241.41C187.63 244.65 193.25 245.9 198.34 246.05C203.447 246.08 208.527 245.318 213.4 243.79C215.28 243.27 217.22 242.67 219.24 242.06C228.24 239.31 238.79 236.06 253.24 236.06C265.76 236.06 273.76 238.69 282.07 241.42C284.19 242.12 286.34 242.82 288.58 243.49C299.58 246.76 313.95 249.59 342.36 247.49C343.706 247.409 345.056 247.54 346.36 247.88C352.841 249.281 359.478 249.819 366.1 249.48C369.164 249.395 372.207 248.955 375.17 248.17C377.75 247.4 378.52 246.56 378.65 246.28C380.28 242.72 380.53 240.34 380.17 238.73C379.81 237.12 378.85 235.88 376.71 234.57C373.663 232.915 370.387 231.722 366.99 231.03C362.72 230.03 357.61 229.13 351.71 228.22C348.286 227.692 344.977 226.579 341.93 224.93C314.99 210.36 296.14 201.41 277.33 194.13C271.33 191.8 266.91 186.39 263.61 179.84C260.31 173.29 257.86 165.06 256.04 156.44C252.44 139.44 251.04 120.07 250.17 106.8V106.36C250.151 105.954 250.214 105.549 250.353 105.168C250.493 104.787 250.708 104.438 250.984 104.141C251.261 103.844 251.594 103.605 251.964 103.438C252.334 103.271 252.734 103.18 253.14 103.17L253.13 103.19ZM187.86 103.19C188.264 103.196 188.663 103.283 189.033 103.445C189.403 103.607 189.738 103.84 190.017 104.133C190.296 104.425 190.514 104.769 190.659 105.147C190.804 105.524 190.872 105.926 190.86 106.33C190.793 108.59 190.723 110.867 190.65 113.16C190.637 113.562 190.545 113.958 190.378 114.325C190.212 114.692 189.975 115.023 189.682 115.298C189.388 115.573 189.042 115.788 188.665 115.93C188.289 116.072 187.888 116.138 187.485 116.125C187.082 116.112 186.686 116.02 186.32 115.853C185.953 115.687 185.622 115.45 185.347 115.156C185.072 114.863 184.857 114.517 184.715 114.141C184.573 113.764 184.507 113.362 184.52 112.96C184.587 110.673 184.657 108.397 184.73 106.13C184.742 105.729 184.832 105.335 184.996 104.969C185.16 104.604 185.395 104.274 185.687 103.999C185.978 103.724 186.321 103.51 186.696 103.367C187.07 103.225 187.469 103.158 187.87 103.17L187.86 103.19ZM208.28 188.19C208.962 187.75 209.79 187.599 210.583 187.769C211.377 187.94 212.07 188.418 212.51 189.1C214.044 191.474 216.373 193.225 219.08 194.04C222.15 194.97 226.45 194.97 232.21 192.5C232.954 192.18 233.794 192.169 234.546 192.469C235.298 192.77 235.9 193.356 236.22 194.1C236.54 194.844 236.551 195.684 236.25 196.436C235.95 197.188 235.364 197.79 234.62 198.11C227.81 201.04 222.02 201.31 217.31 199.89C213.217 198.655 209.697 196.003 207.38 192.41C206.95 191.732 206.804 190.912 206.974 190.128C207.145 189.344 207.618 188.658 208.29 188.22L208.28 188.19Z" fill="#00A7B8"/>
<path d="M252.64 260.54C266.585 260.54 277.89 249.235 277.89 235.29C277.89 221.345 266.585 210.04 252.64 210.04C238.695 210.04 227.39 221.345 227.39 235.29C227.39 249.235 238.695 260.54 252.64 260.54Z" fill="white" stroke="#F58233" stroke-width="2"/>
<path d="M119.77 204.74C133.715 204.74 145.02 193.435 145.02 179.49C145.02 165.545 133.715 154.24 119.77 154.24C105.825 154.24 94.52 165.545 94.52 179.49C94.52 193.435 105.825 204.74 119.77 204.74Z" fill="white" stroke="#F58233" stroke-width="2"/>
<path fill-rule="evenodd" clip-rule="evenodd" d="M126.97 164.86C126.167 164.037 125.204 163.387 124.14 162.95C122.793 162.424 121.355 162.176 119.91 162.22C118.504 162.197 117.109 162.462 115.81 163C114.708 163.434 113.722 164.119 112.93 165C112.163 165.817 111.562 166.774 111.16 167.82C110.792 168.88 110.557 169.982 110.46 171.1H116.18C116.217 170.383 116.453 169.691 116.86 169.1C117.282 168.498 117.864 168.027 118.54 167.74C118.989 167.567 119.47 167.492 119.95 167.52C120.368 167.46 120.792 167.46 121.21 167.52C121.583 167.663 121.924 167.881 122.21 168.16C122.533 168.429 122.787 168.772 122.95 169.16C123.142 169.59 123.238 170.058 123.23 170.53C123.232 171.315 123.057 172.091 122.72 172.8C122.402 173.562 121.999 174.287 121.52 174.96L119.89 176.87C119.33 177.46 118.77 178.1 118.26 178.74C117.764 179.354 117.344 180.025 117.01 180.74C116.681 181.454 116.52 182.234 116.54 183.02V186.02H122.12V183.79C122.137 183.122 122.312 182.467 122.63 181.88C123.012 181.223 123.447 180.597 123.93 180.01L125.61 178.01C126.22 177.322 126.778 176.59 127.28 175.82C127.815 175.043 128.251 174.203 128.58 173.32C128.921 172.384 129.097 171.396 129.1 170.4C129.098 169.381 128.94 168.37 128.63 167.4C128.271 166.441 127.704 165.574 126.97 164.86ZM116.52 188.78H121.96V194.1H116.52V188.78Z" fill="#F58233"/>
<path fill-rule="evenodd" clip-rule="evenodd" d="M259.84 220.67C259.035 219.849 258.072 219.2 257.01 218.76C255.662 218.229 254.218 217.981 252.77 218.03C251.368 218.005 249.976 218.267 248.68 218.8C247.577 219.256 246.592 219.957 245.8 220.85C245.033 221.667 244.432 222.625 244.03 223.67C243.664 224.731 243.429 225.832 243.33 226.95H249.05C249.087 226.233 249.323 225.541 249.73 224.95C250.156 224.355 250.737 223.888 251.41 223.6C251.859 223.428 252.34 223.353 252.82 223.38C253.237 223.31 253.663 223.31 254.08 223.38C254.453 223.52 254.793 223.734 255.08 224.01C255.4 224.282 255.654 224.624 255.82 225.01C256.012 225.437 256.108 225.902 256.1 226.37C256.101 227.159 255.927 227.937 255.59 228.65C255.25 229.39 254.831 230.09 254.34 230.74L252.71 232.66C252.15 233.25 251.59 233.89 251.08 234.53C250.586 235.145 250.166 235.816 249.83 236.53C249.502 237.244 249.341 238.024 249.36 238.81V241.81H254.94V239.58C254.958 238.909 255.133 238.251 255.45 237.66C255.833 237.006 256.267 236.384 256.75 235.8L258.43 233.8C259.038 233.114 259.596 232.385 260.1 231.62C260.633 230.839 261.07 229.996 261.4 229.11C261.741 228.178 261.917 227.193 261.92 226.2C261.925 225.162 261.766 224.129 261.45 223.14C261.098 222.21 260.548 221.368 259.84 220.67ZM249.38 244.58H254.82V249.96H249.38V244.58Z" fill="#F58233"/>
</svg>
