<svg width="435" height="544" viewBox="0 0 435 544" fill="none" xmlns="http://www.w3.org/2000/svg">
<path d="M384.85 2.66003H50C24.0426 2.66003 3 23.7027 3 49.66V494.19C3 520.147 24.0426 541.19 50 541.19H384.85C410.807 541.19 431.85 520.147 431.85 494.19V49.66C431.85 23.7027 410.807 2.66003 384.85 2.66003Z" stroke="#00A7B8" stroke-width="5" stroke-miterlimit="10"/>
<path d="M80.65 327.84C81.9284 327.831 83.2014 328.006 84.43 328.36C85.4683 328.633 86.4618 329.054 87.38 329.61C88.0731 330.067 88.7407 330.561 89.38 331.09C89.8521 331.457 90.2814 331.877 90.66 332.34L91.06 332.87L87.64 336.29C87.56 336.2 87.47 336.07 87.35 335.9C87.0933 335.592 86.816 335.301 86.52 335.03C86.0938 334.62 85.6244 334.258 85.12 333.95C84.491 333.583 83.8193 333.294 83.12 333.09C81.9772 332.712 80.7657 332.587 79.5698 332.725C78.374 332.862 77.2223 333.258 76.195 333.886C75.1677 334.513 74.2894 335.357 73.6211 336.358C72.9528 337.359 72.5105 338.494 72.325 339.683C72.1396 340.872 72.2153 342.088 72.5471 343.245C72.8788 344.402 73.4586 345.473 74.2461 346.384C75.0336 347.294 76.0099 348.022 77.1071 348.517C78.2044 349.012 79.3963 349.262 80.6 349.25C81.4905 349.252 82.3765 349.124 83.23 348.87C83.9613 348.667 84.6613 348.364 85.31 347.97C85.8191 347.671 86.307 347.337 86.77 346.97C87.1112 346.7 87.42 346.391 87.69 346.05L87.97 345.69L91.22 349.11C91.12 349.25 90.98 349.44 90.79 349.67C90.3818 350.096 89.9512 350.5 89.5 350.88C88.0488 352.188 86.3023 353.125 84.41 353.61C83.1738 353.979 81.8901 354.165 80.6 354.16C78.8023 354.201 77.0148 353.88 75.3434 353.217C73.6721 352.554 72.1508 351.562 70.87 350.3C69.6186 349.099 68.623 347.657 67.9429 346.062C67.2627 344.466 66.9121 342.749 66.9121 341.015C66.9121 339.28 67.2627 337.564 67.9429 335.968C68.623 334.373 69.6186 332.931 70.87 331.73C72.1539 330.456 73.6821 329.455 75.3627 328.786C77.0434 328.118 78.8418 327.796 80.65 327.84Z" fill="#1D1D1B"/>
<path d="M116.65 328.37V353.57H111.26V333.23H100.65V353.57H95.23V328.37H116.65Z" fill="#1D1D1B"/>
<path d="M128.19 348.72H141.65V353.57H122.77V328.37H141.32V333.23H128.19V338.28H138.43V343.14H128.19V348.72Z" fill="#1D1D1B"/>
<path d="M146.34 353.57V328.37H151.75V348.72H162V328.37H167.39V348.72H170.45V358.79H165.06V353.57H146.34Z" fill="#1D1D1B"/>
<path d="M196.72 353.57H191.33V337.57L178.92 353.57H174.22V328.37H179.65V344.37L192.06 328.37H196.73L196.72 353.57Z" fill="#1D1D1B"/>
<path d="M217.65 347.63H207.93L205.77 353.57H199.95L209.86 328.37H215.65L225.57 353.57H219.8L217.65 347.63ZM215.86 342.96L212.8 334.68L209.72 342.96H215.86Z" fill="#1D1D1B"/>
<path d="M249.81 328.37V353.57H244.41V333.23H237.03V336.14C237.067 339.131 236.87 342.12 236.44 345.08C236.201 347.017 235.612 348.894 234.7 350.62C234.097 351.739 233.211 352.681 232.13 353.35C231.088 353.893 229.925 354.165 228.75 354.14C228.212 354.137 227.676 354.08 227.15 353.97C226.746 353.898 226.348 353.795 225.96 353.66L225.52 353.52V348.37C226.088 348.604 226.696 348.729 227.31 348.74C227.728 348.759 228.145 348.693 228.537 348.547C228.928 348.401 229.287 348.178 229.59 347.89C230.388 346.8 230.891 345.522 231.05 344.18C231.497 341.538 231.691 338.859 231.63 336.18V328.4L249.81 328.37Z" fill="#1D1D1B"/>
<path d="M266.54 353.57H255.92V328.37H261.33V336.65H266.54C268.924 336.575 271.24 337.449 272.98 339.08C273.79 339.862 274.435 340.8 274.875 341.837C275.315 342.874 275.541 343.989 275.541 345.115C275.541 346.241 275.315 347.356 274.875 348.393C274.435 349.43 273.79 350.368 272.98 351.15C271.238 352.778 268.922 353.648 266.54 353.57ZM261.33 348.72H266.33C266.824 348.739 267.316 348.661 267.78 348.49C268.243 348.318 268.668 348.056 269.03 347.72C269.372 347.387 269.644 346.989 269.83 346.55C270.016 346.11 270.112 345.637 270.112 345.16C270.112 344.683 270.016 344.21 269.83 343.77C269.644 343.331 269.372 342.933 269.03 342.6C268.673 342.253 268.25 341.982 267.786 341.801C267.323 341.621 266.827 341.536 266.33 341.55H261.33V348.72Z" fill="#1D1D1B"/>
<path d="M301.65 328.37V353.57H296.25V343.31H285.44V353.57H280.03V328.37H285.44V338.46H296.23V328.37H301.65Z" fill="#1D1D1B"/>
<path d="M318.01 353.57H307.74V328.37H313.15V336.65H318.01C320.394 336.575 322.71 337.449 324.45 339.08C325.26 339.862 325.905 340.8 326.345 341.837C326.785 342.874 327.012 343.989 327.012 345.115C327.012 346.241 326.785 347.356 326.345 348.393C325.905 349.43 325.26 350.368 324.45 351.15C322.708 352.778 320.392 353.648 318.01 353.57ZM313.15 348.72H317.83C318.324 348.739 318.816 348.661 319.28 348.49C319.743 348.318 320.168 348.056 320.53 347.72C320.872 347.387 321.144 346.989 321.33 346.55C321.516 346.11 321.612 345.637 321.612 345.16C321.612 344.683 321.516 344.21 321.33 343.77C321.144 343.331 320.872 342.933 320.53 342.6C320.173 342.253 319.75 341.982 319.286 341.801C318.823 341.621 318.327 341.536 317.83 341.55H313.15V348.72ZM335.28 328.37V353.57H329.89V328.37H335.28Z" fill="#1D1D1B"/>
<path d="M346.81 348.72H360.31V353.57H341.39V328.37H359.94V333.23H346.81V338.28H357.06V343.14H346.81V348.72Z" fill="#1D1D1B"/>
<path d="M94.5902 396.77H83.1602V371.57H93.9702C96.046 371.49 98.0741 372.205 99.6402 373.57C100.334 374.134 100.894 374.844 101.281 375.65C101.668 376.455 101.873 377.336 101.88 378.23C101.901 378.875 101.823 379.519 101.65 380.14C101.492 380.675 101.249 381.182 100.93 381.64C100.667 381.995 100.376 382.33 100.06 382.64C99.8458 382.865 99.6077 383.066 99.3502 383.24L99.0502 383.42L99.5002 383.62C99.8462 383.816 100.18 384.033 100.5 384.27C100.964 384.602 101.39 384.984 101.77 385.41C102.19 385.91 102.528 386.474 102.77 387.08C103.072 387.802 103.226 388.577 103.22 389.36C103.224 390.35 103.01 391.329 102.594 392.228C102.177 393.127 101.568 393.923 100.81 394.56C99.1032 396.078 96.872 396.87 94.5902 396.77ZM93.5902 376.07H88.5902V381.48H93.5902C94.3637 381.522 95.1223 381.256 95.7002 380.74C96.2007 380.206 96.4793 379.502 96.4793 378.77C96.4793 378.038 96.2007 377.334 95.7002 376.8C95.1359 376.303 94.4019 376.041 93.6502 376.07H93.5902ZM88.5902 392.27H94.3302C94.7813 392.285 95.2309 392.211 95.6531 392.051C96.0753 391.891 96.4618 391.65 96.7902 391.34C97.0977 391.04 97.3421 390.682 97.5089 390.286C97.6758 389.89 97.7617 389.465 97.7617 389.035C97.7617 388.605 97.6758 388.18 97.5089 387.784C97.3421 387.388 97.0977 387.03 96.7902 386.73C96.4636 386.417 96.0776 386.173 95.6552 386.011C95.2327 385.85 94.7822 385.775 94.3302 385.79H88.5902V392.27Z" fill="#1D1D1B"/>
<path d="M130.32 396.77H124.92V380.77L112.51 396.77H107.82V371.57H113.23V387.57L125.64 371.57H130.32V396.77Z" fill="#1D1D1B"/>
<path d="M133.19 391.92H134.65C134.75 391.83 134.88 391.68 135.07 391.47C135.419 391.026 135.737 390.559 136.02 390.07C136.495 389.301 136.899 388.491 137.23 387.65C137.648 386.489 137.966 385.295 138.18 384.08C138.47 382.51 138.613 380.917 138.61 379.32V371.57H156.06V391.92H159.14V401.99H153.72V396.77H138.59V401.99H133.19V391.92ZM143.98 379.32C143.991 380.909 143.854 382.496 143.57 384.06C143.362 385.295 143.027 386.505 142.57 387.67C142.234 388.482 141.85 389.274 141.42 390.04C141.132 390.55 140.798 391.032 140.42 391.48L139.98 391.92H150.65V376.44H143.98V379.32Z" fill="#1D1D1B"/>
<path d="M173.14 396.77H162.87V371.57H168.29V379.85H173.14C175.524 379.775 177.84 380.649 179.58 382.28C180.39 383.063 181.035 384 181.475 385.037C181.915 386.074 182.142 387.189 182.142 388.315C182.142 389.441 181.915 390.556 181.475 391.593C181.035 392.63 180.39 393.567 179.58 394.35C177.839 395.978 175.523 396.848 173.14 396.77ZM168.29 391.92H172.96C173.454 391.939 173.947 391.861 174.41 391.689C174.873 391.518 175.298 391.256 175.66 390.92C176.002 390.587 176.275 390.189 176.46 389.75C176.646 389.31 176.742 388.837 176.742 388.36C176.742 387.883 176.646 387.41 176.46 386.97C176.275 386.531 176.002 386.133 175.66 385.8C175.299 385.462 174.874 385.2 174.411 385.028C173.947 384.856 173.454 384.779 172.96 384.8H168.29V391.92ZM190.42 371.57V396.77H185.02V371.57H190.42Z" fill="#1D1D1B"/>
<path d="M215.78 371.04C217.059 371.031 218.332 371.206 219.56 371.56C220.598 371.833 221.592 372.254 222.51 372.81C223.201 373.269 223.869 373.763 224.51 374.29C224.977 374.66 225.403 375.079 225.78 375.54L226.18 376.07L222.76 379.49L222.47 379.1C222.213 378.792 221.936 378.501 221.64 378.23C221.214 377.82 220.745 377.458 220.24 377.15C219.611 376.783 218.939 376.494 218.24 376.29C217.097 375.912 215.886 375.787 214.69 375.925C213.494 376.062 212.342 376.458 211.315 377.086C210.288 377.713 209.41 378.557 208.741 379.558C208.073 380.559 207.631 381.694 207.445 382.883C207.26 384.073 207.335 385.288 207.667 386.445C207.999 387.602 208.579 388.673 209.366 389.584C210.154 390.494 211.13 391.222 212.227 391.717C213.325 392.212 214.516 392.462 215.72 392.45C216.611 392.452 217.497 392.324 218.35 392.07C219.081 391.867 219.781 391.564 220.43 391.17C220.939 390.871 221.427 390.537 221.89 390.17C222.231 389.9 222.54 389.591 222.81 389.25L223.09 388.89L226.34 392.31C226.207 392.504 226.063 392.691 225.91 392.87C225.509 393.299 225.081 393.704 224.63 394.08C223.173 395.385 221.424 396.321 219.53 396.81C218.294 397.18 217.01 397.365 215.72 397.36C213.923 397.4 212.135 397.078 210.464 396.415C208.793 395.752 207.272 394.761 205.99 393.5C204.739 392.299 203.743 390.857 203.063 389.262C202.383 387.666 202.032 385.949 202.032 384.215C202.032 382.48 202.383 380.764 203.063 379.168C203.743 377.573 204.739 376.131 205.99 374.93C207.276 373.656 208.806 372.654 210.488 371.986C212.17 371.317 213.97 370.996 215.78 371.04Z" fill="#1D1D1B"/>
<path d="M251.77 371.57V396.77H246.38V376.44H235.76V396.77H230.35V371.57H251.77Z" fill="#1D1D1B"/>
<path d="M260.41 393.46C259.155 392.261 258.156 390.82 257.473 389.224C256.791 387.628 256.439 385.911 256.439 384.175C256.439 382.439 256.791 380.722 257.473 379.126C258.156 377.53 259.155 376.089 260.41 374.89C263.042 372.416 266.518 371.038 270.13 371.038C273.742 371.038 277.218 372.416 279.85 374.89C281.101 376.091 282.097 377.533 282.777 379.128C283.457 380.724 283.808 382.441 283.808 384.175C283.808 385.91 283.457 387.626 282.777 389.222C282.097 390.817 281.101 392.259 279.85 393.46C277.221 395.939 273.744 397.319 270.13 397.319C266.516 397.319 263.039 395.939 260.41 393.46ZM264.41 378.29C262.896 379.875 262.051 381.983 262.051 384.175C262.051 386.367 262.896 388.475 264.41 390.06C265.162 390.817 266.056 391.418 267.041 391.828C268.026 392.238 269.083 392.449 270.15 392.449C271.217 392.449 272.274 392.238 273.259 391.828C274.244 391.418 275.138 390.817 275.89 390.06C277.4 388.473 278.241 386.366 278.241 384.175C278.241 381.984 277.4 379.878 275.89 378.29C275.14 377.529 274.247 376.925 273.261 376.513C272.276 376.101 271.218 375.888 270.15 375.888C269.082 375.888 268.024 376.101 267.039 376.513C266.053 376.925 265.16 377.529 264.41 378.29Z" fill="#1D1D1B"/>
<path d="M288.48 371.57H299.1C301.484 371.495 303.8 372.369 305.54 374C306.349 374.782 306.992 375.719 307.431 376.755C307.87 377.791 308.097 378.905 308.097 380.03C308.097 381.155 307.87 382.269 307.431 383.305C306.992 384.341 306.349 385.278 305.54 386.06C304.678 386.869 303.664 387.5 302.557 387.917C301.45 388.334 300.272 388.529 299.09 388.49H293.88V396.77H288.47L288.48 371.57ZM298.92 376.44H293.92V383.62H298.92C299.414 383.64 299.907 383.562 300.37 383.39C300.834 383.219 301.259 382.957 301.62 382.62C301.97 382.295 302.246 381.9 302.432 381.46C302.619 381.021 302.71 380.547 302.7 380.07C302.709 379.592 302.617 379.117 302.431 378.676C302.245 378.235 301.969 377.838 301.62 377.51C301.265 377.159 300.843 376.884 300.379 376.7C299.915 376.516 299.419 376.428 298.92 376.44Z" fill="#1D1D1B"/>
<path d="M310.07 371.57H329.87V376.44H322.65V396.77H317.25V376.44H310.04L310.07 371.57Z" fill="#1D1D1B"/>
<path d="M346.07 390.83H336.34L334.18 396.77H328.42L338.33 371.57H344.08L353.99 396.77H348.23L346.07 390.83ZM344.27 386.16L341.21 377.88L338.14 386.16H344.27Z" fill="#1D1D1B"/>
<path d="M98.3201 437.25C99.3192 438.164 100.117 439.277 100.663 440.516C101.209 441.756 101.491 443.096 101.491 444.45C101.491 445.805 101.209 447.144 100.663 448.384C100.117 449.623 99.3192 450.736 98.3201 451.65C96.0108 453.667 93.036 454.757 89.9701 454.71V458.14H86.0201V454.72C82.9515 454.765 79.9743 453.676 77.66 451.66C76.6609 450.746 75.863 449.633 75.3171 448.394C74.7712 447.154 74.4893 445.814 74.4893 444.46C74.4893 443.106 74.7712 441.766 75.3171 440.526C75.863 439.287 76.6609 438.174 77.66 437.26C79.9719 435.24 82.9507 434.15 86.0201 434.2V431.49H89.9701V434.2C93.0353 434.146 96.0113 435.233 98.3201 437.25ZM80.44 439.6C79.1813 440.905 78.478 442.647 78.478 444.46C78.478 446.273 79.1813 448.015 80.44 449.32C81.9957 450.642 83.979 451.353 86.0201 451.32V437.65C83.9847 437.599 82.0005 438.292 80.44 439.6ZM95.55 449.32C96.8088 448.015 97.5122 446.273 97.5122 444.46C97.5122 442.647 96.8088 440.905 95.55 439.6C93.9987 438.271 92.0125 437.559 89.9701 437.6V451.27C92.0053 451.32 93.9891 450.627 95.55 449.32Z" fill="#878787"/>
<path d="M117.86 440.14H121.1V457.42H117.49V446.08L108.49 457.42H105.26V440.14H108.86V451.48L117.86 440.14Z" fill="#878787"/>
<path d="M123.97 443.37V440.14H139.44V443.38H133.5V457.38H129.91V443.38L123.97 443.37Z" fill="#878787"/>
<path d="M145.92 450.21V457.41H142.31V440.14H145.92V446.98H154.37V440.14H157.98V457.42H154.37V450.22L145.92 450.21Z" fill="#878787"/>
<path d="M178.65 450.03H165.15C165.341 451.269 165.982 452.394 166.95 453.19C167.942 454.074 169.231 454.553 170.56 454.53C171.543 454.537 172.512 454.3 173.38 453.84C174.076 453.514 174.707 453.063 175.24 452.51L175.78 451.84L178.12 454.18L177.79 454.57C177.498 454.88 177.184 455.167 176.85 455.43C176.375 455.837 175.862 456.198 175.32 456.51C174.652 456.87 173.948 457.158 173.22 457.37C172.357 457.63 171.461 457.762 170.56 457.76C169.375 457.77 168.201 457.537 167.11 457.074C166.02 456.611 165.036 455.929 164.22 455.07C163.362 454.225 162.684 453.216 162.227 452.102C161.77 450.988 161.543 449.794 161.56 448.59C161.568 446.252 162.499 444.013 164.151 442.359C165.803 440.705 168.042 439.771 170.38 439.76C171.5 439.734 172.613 439.936 173.653 440.353C174.692 440.77 175.636 441.394 176.427 442.187C177.218 442.98 177.84 443.925 178.255 444.966C178.67 446.006 178.869 447.12 178.84 448.24L178.65 450.03ZM170.37 442.84C169.171 442.801 168.002 443.211 167.09 443.99C166.192 444.776 165.565 445.826 165.3 446.99H175.3C175.123 445.828 174.542 444.766 173.66 443.99C172.747 443.213 171.578 442.803 170.38 442.84H170.37Z" fill="#878787"/>
<path d="M184.04 455.08C182.799 453.822 181.956 452.226 181.616 450.492C181.275 448.757 181.453 446.961 182.127 445.327C182.801 443.694 183.942 442.294 185.406 441.304C186.87 440.314 188.593 439.777 190.36 439.76C191.664 439.751 192.952 440.049 194.12 440.63C195.053 441.047 195.898 441.637 196.61 442.37L197.37 443.19L195.03 445.53C194.866 445.285 194.686 445.051 194.49 444.83C194.022 444.392 193.497 444.019 192.93 443.72C192.152 443.259 191.264 443.017 190.36 443.02C189.643 443.014 188.933 443.159 188.276 443.447C187.62 443.735 187.031 444.159 186.55 444.69C185.518 445.8 184.945 447.259 184.945 448.775C184.945 450.291 185.518 451.75 186.55 452.86C187.341 453.728 188.404 454.3 189.564 454.481C190.724 454.663 191.912 454.444 192.93 453.86C193.582 453.524 194.168 453.074 194.66 452.53L195.21 451.86L197.54 454.2L197.23 454.59C196.945 454.898 196.637 455.186 196.31 455.45C195.854 455.854 195.362 456.215 194.84 456.53C194.206 456.887 193.535 457.175 192.84 457.39C192.042 457.647 191.209 457.778 190.37 457.78C189.186 457.789 188.013 457.554 186.924 457.089C185.835 456.625 184.853 455.941 184.04 455.08Z" fill="#878787"/>
<path d="M201.65 455.08C200.409 453.822 199.566 452.226 199.225 450.492C198.885 448.757 199.063 446.961 199.737 445.327C200.411 443.694 201.551 442.294 203.015 441.304C204.479 440.314 206.203 439.777 207.97 439.76C209.274 439.751 210.562 440.049 211.73 440.63C212.663 441.047 213.508 441.637 214.22 442.37L214.98 443.19L212.64 445.53C212.484 445.282 212.306 445.048 212.11 444.83C211.639 444.39 211.111 444.017 210.54 443.72C209.762 443.259 208.874 443.017 207.97 443.02C207.253 443.014 206.543 443.159 205.886 443.447C205.23 443.735 204.641 444.159 204.16 444.69C203.128 445.8 202.555 447.259 202.555 448.775C202.555 450.291 203.128 451.75 204.16 452.86C204.951 453.728 206.014 454.3 207.174 454.481C208.334 454.663 209.521 454.444 210.54 453.86C211.193 453.526 211.779 453.075 212.27 452.53L212.82 451.86L215.16 454.2L214.84 454.59C214.556 454.896 214.252 455.184 213.93 455.45C212.929 456.349 211.74 457.011 210.45 457.39C209.648 457.647 208.812 457.778 207.97 457.78C206.788 457.787 205.616 457.552 204.529 457.087C203.442 456.623 202.462 455.939 201.65 455.08Z" fill="#878787"/>
<path d="M219.65 453.14L222.88 454.95L218.38 462.14L216.05 460.89L219.65 453.14Z" fill="#878787"/>
<path d="M242.49 464.97V457.76C239.823 457.882 237.213 456.965 235.21 455.2C234.329 454.377 233.626 453.381 233.146 452.275C232.666 451.169 232.418 449.976 232.418 448.77C232.418 447.564 232.666 446.371 233.146 445.265C233.626 444.159 234.329 443.163 235.21 442.34C237.209 440.565 239.82 439.64 242.49 439.76V432.21H246.1V439.76C248.77 439.64 251.382 440.565 253.38 442.34C254.261 443.163 254.964 444.159 255.444 445.265C255.924 446.371 256.172 447.564 256.172 448.77C256.172 449.976 255.924 451.169 255.444 452.275C254.964 453.381 254.261 454.377 253.38 455.2C251.377 456.965 248.767 457.882 246.1 457.76V464.97H242.49ZM242.49 454.53V443.02C240.76 442.915 239.054 443.473 237.72 444.58C236.627 445.701 236.015 447.204 236.015 448.77C236.015 450.336 236.627 451.839 237.72 452.96C239.051 454.075 240.758 454.637 242.49 454.53ZM246.1 443.02V454.53C247.832 454.637 249.54 454.075 250.87 452.96C251.963 451.839 252.575 450.336 252.575 448.77C252.575 447.204 251.963 445.701 250.87 444.58C249.536 443.473 247.831 442.915 246.1 443.02Z" fill="#878787"/>
<path d="M263.91 459.21L264.63 457.41L257.65 440.14H261.43L266.43 452.75L271.43 440.14H275.21L267.46 459.22C266.866 460.867 265.967 462.387 264.81 463.7C264.377 464.123 263.864 464.454 263.3 464.674C262.737 464.894 262.135 464.998 261.53 464.98C261.078 464.982 260.627 464.952 260.18 464.89C259.865 464.854 259.554 464.79 259.25 464.7L259 464.63V461.38C259.578 461.604 260.19 461.729 260.81 461.75C262.23 461.72 263.24 460.88 263.91 459.21Z" fill="#878787"/>
<path d="M275.96 443.37V440.14H291.43V443.38H285.49V457.38H281.9V443.38L275.96 443.37Z" fill="#878787"/>
<path d="M311.58 448.96C311.598 450.115 311.381 451.262 310.943 452.331C310.505 453.401 309.854 454.37 309.03 455.18C308.248 456.005 307.305 456.659 306.259 457.103C305.213 457.547 304.087 457.771 302.95 457.76C301.712 457.802 300.481 457.562 299.35 457.058C298.218 456.554 297.216 455.799 296.42 454.85C294.78 452.92 293.95 450.11 293.95 446.43C293.95 442.23 294.73 439.083 296.29 436.99C297.089 435.937 298.089 435.052 299.233 434.388C300.376 433.724 301.639 433.293 302.95 433.12C304.116 432.938 305.266 432.667 306.39 432.31C307.115 432.099 307.818 431.822 308.49 431.48L309.07 431.13L310.69 433.84C310.56 433.987 310.416 434.121 310.26 434.24C309.567 434.656 308.829 434.991 308.06 435.24C306.517 435.775 304.926 436.163 303.31 436.4C301.778 436.601 300.364 437.329 299.31 438.46C298.244 439.7 297.619 441.257 297.53 442.89C297.605 442.787 297.689 442.69 297.78 442.6C297.91 442.48 298.16 442.26 298.53 441.95C298.903 441.641 299.301 441.363 299.72 441.12C300.228 440.845 300.764 440.627 301.32 440.47C301.969 440.277 302.643 440.179 303.32 440.18C304.411 440.187 305.488 440.423 306.482 440.872C307.476 441.322 308.365 441.975 309.09 442.79C309.892 443.604 310.524 444.567 310.951 445.626C311.379 446.685 311.592 447.818 311.58 448.96ZM299.4 444.96C298.416 446.06 297.872 447.484 297.872 448.96C297.872 450.436 298.416 451.86 299.4 452.96C299.844 453.462 300.39 453.865 301.001 454.141C301.612 454.416 302.275 454.559 302.945 454.559C303.616 454.559 304.278 454.416 304.89 454.141C305.501 453.865 306.046 453.462 306.49 452.96C307.474 451.86 308.018 450.436 308.018 448.96C308.018 447.484 307.474 446.06 306.49 444.96C306.048 444.455 305.503 444.05 304.892 443.772C304.28 443.495 303.617 443.351 302.945 443.351C302.274 443.351 301.61 443.495 300.999 443.772C300.387 444.05 299.842 444.455 299.4 444.96Z" fill="#878787"/>
<path d="M317.14 455.08C315.731 453.623 314.869 451.723 314.7 449.703C314.531 447.683 315.065 445.666 316.213 443.995C317.36 442.324 319.05 441.1 320.996 440.532C322.942 439.964 325.024 440.086 326.891 440.878C328.757 441.669 330.293 443.081 331.237 444.875C332.181 446.669 332.477 448.734 332.073 450.72C331.669 452.707 330.591 454.493 329.022 455.776C327.452 457.059 325.487 457.76 323.46 457.76C322.279 457.771 321.109 457.538 320.021 457.077C318.934 456.616 317.953 455.936 317.14 455.08ZM327.26 452.86C328.292 451.75 328.865 450.291 328.865 448.775C328.865 447.26 328.292 445.8 327.26 444.69C326.776 444.164 326.188 443.743 325.533 443.456C324.878 443.169 324.17 443.02 323.455 443.02C322.74 443.02 322.032 443.169 321.377 443.456C320.722 443.743 320.134 444.164 319.65 444.69C318.618 445.8 318.045 447.26 318.045 448.775C318.045 450.291 318.618 451.75 319.65 452.86C320.134 453.386 320.722 453.807 321.377 454.094C322.032 454.381 322.74 454.53 323.455 454.53C324.17 454.53 324.878 454.381 325.533 454.094C326.188 453.807 326.776 453.386 327.26 452.86Z" fill="#878787"/>
<path d="M338.02 440.14H351.35V457.42H347.74V443.42H341.65V445.14C341.725 447.76 341.46 450.379 340.86 452.93C340.592 454.378 339.895 455.712 338.86 456.76C337.954 457.441 336.843 457.793 335.71 457.76C335.375 457.756 335.041 457.729 334.71 457.68C334.428 457.636 334.151 457.569 333.88 457.48L333.56 457.41V453.98C333.969 454.091 334.388 454.158 334.81 454.18C335.449 454.215 336.077 454 336.56 453.58C337.154 452.812 337.525 451.895 337.63 450.93C337.962 449.032 338.106 447.106 338.06 445.18L338.02 440.14Z" fill="#878787"/>
<path d="M357.28 453.14L360.51 454.95L356.01 462.14L353.65 460.84L357.28 453.14Z" fill="#878787"/>
<path d="M101.11 483.33H109.38C110.806 483.253 112.211 483.709 113.32 484.61C113.788 485.004 114.162 485.497 114.415 486.055C114.667 486.612 114.792 487.218 114.78 487.83C114.785 488.526 114.62 489.212 114.3 489.83C114.069 490.319 113.727 490.747 113.3 491.08L112.81 491.42L113.11 491.54C113.354 491.673 113.588 491.823 113.81 491.99C114.138 492.216 114.437 492.481 114.7 492.78C114.988 493.133 115.22 493.527 115.39 493.95C115.594 494.459 115.696 495.002 115.69 495.55C115.711 496.237 115.579 496.919 115.304 497.549C115.029 498.178 114.618 498.739 114.1 499.19C112.873 500.179 111.323 500.677 109.75 500.59H101.11V483.33ZM110.7 489.51C110.868 489.336 110.999 489.129 111.083 488.902C111.168 488.674 111.204 488.432 111.19 488.19C111.202 487.948 111.165 487.706 111.081 487.48C110.997 487.253 110.867 487.045 110.7 486.87C110.523 486.706 110.315 486.578 110.089 486.496C109.862 486.414 109.621 486.377 109.38 486.39H104.71V489.99H109.38C109.621 490.003 109.862 489.967 110.089 489.884C110.315 489.802 110.523 489.674 110.7 489.51ZM109.7 492.88H104.7V497.55H109.7C110.013 497.576 110.327 497.533 110.622 497.425C110.917 497.317 111.185 497.146 111.407 496.925C111.63 496.703 111.802 496.436 111.911 496.142C112.02 495.848 112.064 495.533 112.04 495.22C112.051 494.603 111.817 494.006 111.39 493.56C111.177 493.341 110.922 493.168 110.64 493.051C110.358 492.934 110.055 492.876 109.75 492.88H109.7Z" fill="#878787"/>
<path d="M120.88 498.28C119.471 496.823 118.609 494.923 118.44 492.903C118.271 490.883 118.805 488.866 119.953 487.195C121.1 485.524 122.79 484.3 124.736 483.732C126.682 483.164 128.764 483.286 130.631 484.078C132.497 484.869 134.033 486.281 134.977 488.075C135.921 489.869 136.217 491.934 135.813 493.921C135.409 495.907 134.331 497.693 132.762 498.976C131.192 500.259 129.227 500.96 127.2 500.96C126.019 500.971 124.849 500.738 123.761 500.277C122.674 499.816 121.693 499.136 120.88 498.28ZM131 496.06C132.032 494.95 132.605 493.491 132.605 491.975C132.605 490.459 132.032 489 131 487.89C130.516 487.364 129.928 486.943 129.273 486.656C128.618 486.369 127.91 486.22 127.195 486.22C126.48 486.22 125.772 486.369 125.117 486.656C124.462 486.943 123.874 487.364 123.39 487.89C122.358 489 121.785 490.459 121.785 491.975C121.785 493.491 122.358 494.95 123.39 496.06C123.874 496.586 124.462 497.007 125.117 497.294C125.772 497.582 126.48 497.73 127.195 497.73C127.91 497.73 128.618 497.582 129.273 497.294C129.928 497.007 130.516 496.586 131 496.06Z" fill="#878787"/>
<path d="M141.76 483.33H155.09V500.61H151.48V486.61H145.37V488.42C145.443 491.039 145.181 493.657 144.59 496.21C144.322 497.658 143.625 498.992 142.59 500.04C141.686 500.726 140.574 501.079 139.44 501.04C139.105 501.037 138.771 501.01 138.44 500.96C138.155 500.917 137.874 500.85 137.6 500.76L137.28 500.69V497.14C137.688 497.251 138.107 497.318 138.53 497.34C139.169 497.375 139.797 497.16 140.28 496.74C140.874 495.972 141.245 495.055 141.35 494.09C141.682 492.192 141.826 490.266 141.78 488.34L141.76 483.33Z" fill="#878787"/>
<path d="M175.77 493.23H162.27C162.469 494.466 163.109 495.588 164.07 496.39C165.062 497.274 166.351 497.753 167.68 497.73C168.663 497.737 169.632 497.5 170.5 497.04C171.2 496.72 171.831 496.268 172.36 495.71L172.9 495.04L175.24 497.38L174.92 497.77C174.626 498.077 174.312 498.364 173.98 498.63C173.505 499.037 172.993 499.398 172.45 499.71C171.782 500.07 171.078 500.358 170.35 500.57C169.484 500.83 168.584 500.962 167.68 500.96C166.497 500.971 165.324 500.738 164.234 500.275C163.145 499.813 162.163 499.13 161.35 498.27C160.489 497.427 159.809 496.418 159.35 495.304C158.891 494.19 158.663 492.995 158.68 491.79C158.693 489.454 159.626 487.217 161.277 485.564C162.928 483.911 165.164 482.976 167.5 482.96C168.62 482.932 169.734 483.133 170.775 483.55C171.815 483.967 172.759 484.59 173.551 485.384C174.342 486.177 174.964 487.123 175.378 488.164C175.792 489.205 175.99 490.32 175.96 491.44L175.77 493.23ZM167.49 486.04C166.292 486.003 165.123 486.413 164.21 487.19C163.315 487.977 162.692 489.027 162.43 490.19H172.43C172.253 489.028 171.672 487.966 170.79 487.19C169.873 486.407 168.695 485.996 167.49 486.04Z" fill="#878787"/>
<path d="M192.14 483.33H195.38V500.61H191.77V489.27L182.77 500.61H179.54V483.33H183.14V494.67L192.14 483.33ZM185.66 477.21C186.144 477.674 186.789 477.934 187.46 477.934C188.131 477.934 188.776 477.674 189.26 477.21C189.497 476.971 189.683 476.687 189.806 476.374C189.93 476.061 189.989 475.726 189.98 475.39H192.65C192.669 476.062 192.547 476.73 192.292 477.352C192.038 477.974 191.655 478.535 191.17 479C190.143 479.927 188.809 480.44 187.425 480.44C186.042 480.44 184.707 479.927 183.68 479C183.198 478.533 182.819 477.971 182.566 477.349C182.312 476.728 182.191 476.061 182.21 475.39H184.9C184.894 475.729 184.958 476.065 185.087 476.378C185.216 476.691 185.407 476.974 185.65 477.21H185.66Z" fill="#878787"/>
<path d="M217.32 492.14C217.338 493.295 217.121 494.442 216.683 495.511C216.244 496.581 215.594 497.55 214.77 498.36C213.988 499.185 213.045 499.839 211.999 500.283C210.953 500.727 209.826 500.951 208.69 500.94C207.452 500.982 206.221 500.742 205.089 500.238C203.958 499.734 202.956 498.979 202.16 498.03C200.52 496.09 199.69 493.29 199.69 489.61C199.69 485.41 200.47 482.263 202.03 480.17C202.829 479.117 203.829 478.232 204.972 477.568C206.116 476.904 207.379 476.473 208.69 476.3C209.855 476.118 211.005 475.847 212.13 475.49C212.854 475.279 213.557 475.002 214.23 474.66L214.81 474.31L216.43 477.02C216.3 477.167 216.156 477.301 216 477.42C215.307 477.836 214.569 478.171 213.8 478.42C212.257 478.955 210.666 479.343 209.05 479.58C207.518 479.781 206.103 480.509 205.05 481.64C203.984 482.88 203.358 484.437 203.27 486.07C203.345 485.967 203.429 485.87 203.52 485.78C203.65 485.66 203.9 485.44 204.27 485.13C204.643 484.821 205.041 484.543 205.46 484.3C205.967 484.025 206.504 483.807 207.06 483.65C207.709 483.457 208.383 483.359 209.06 483.36C210.151 483.366 211.228 483.602 212.223 484.051C213.217 484.501 214.105 485.155 214.83 485.97C215.631 486.783 216.264 487.747 216.691 488.806C217.118 489.865 217.332 490.998 217.32 492.14ZM205.14 488.14C204.156 489.24 203.612 490.664 203.612 492.14C203.612 493.616 204.156 495.04 205.14 496.14C205.584 496.642 206.129 497.045 206.741 497.32C207.352 497.596 208.015 497.739 208.685 497.739C209.355 497.739 210.018 497.596 210.629 497.32C211.24 497.045 211.786 496.642 212.23 496.14C213.214 495.04 213.758 493.616 213.758 492.14C213.758 490.664 213.214 489.24 212.23 488.14C211.788 487.635 211.243 487.23 210.631 486.952C210.02 486.675 209.356 486.531 208.685 486.531C208.014 486.531 207.35 486.675 206.738 486.952C206.127 487.23 205.582 487.635 205.14 488.14Z" fill="#878787"/>
<path d="M222.88 498.28C221.471 496.823 220.609 494.923 220.44 492.903C220.271 490.883 220.805 488.866 221.953 487.195C223.1 485.524 224.79 484.3 226.736 483.732C228.682 483.164 230.764 483.286 232.631 484.078C234.497 484.869 236.033 486.281 236.977 488.075C237.921 489.869 238.217 491.934 237.813 493.921C237.409 495.907 236.331 497.693 234.762 498.976C233.192 500.259 231.227 500.96 229.2 500.96C228.019 500.971 226.849 500.738 225.761 500.277C224.674 499.816 223.693 499.136 222.88 498.28ZM233 496.06C234.032 494.95 234.605 493.491 234.605 491.975C234.605 490.459 234.032 489 233 487.89C232.516 487.364 231.928 486.943 231.273 486.656C230.618 486.369 229.91 486.22 229.195 486.22C228.48 486.22 227.772 486.369 227.117 486.656C226.462 486.943 225.874 487.364 225.39 487.89C224.358 489 223.785 490.459 223.785 491.975C223.785 493.491 224.358 494.95 225.39 496.06C225.874 496.586 226.462 497.007 227.117 497.294C227.772 497.582 228.48 497.73 229.195 497.73C229.91 497.73 230.618 497.582 231.273 497.294C231.928 497.007 232.516 496.586 233 496.06Z" fill="#878787"/>
<path d="M243.76 483.33H257.09V500.61H253.48V486.61H247.37V488.42C247.445 491.04 247.18 493.658 246.58 496.21C246.316 497.659 245.618 498.995 244.58 500.04C243.674 500.721 242.563 501.073 241.43 501.04C241.095 501.036 240.761 501.009 240.43 500.96C240.148 500.916 239.871 500.849 239.6 500.76L239.28 500.69V497.14C239.688 497.251 240.107 497.318 240.53 497.34C241.169 497.375 241.797 497.16 242.28 496.74C242.874 495.972 243.245 495.055 243.35 494.09C243.682 492.192 243.826 490.266 243.78 488.34L243.76 483.33Z" fill="#878787"/>
<path d="M281.19 483.33H284.42V500.61H280.82V489.27L271.82 500.61H268.58V483.33H272.19V494.67L281.19 483.33Z" fill="#878787"/>
<path d="M293.4 497.38H294.65C294.72 497.31 294.83 497.19 294.96 497.03C295.221 496.696 295.455 496.341 295.66 495.97C296.007 495.405 296.301 494.809 296.54 494.19C296.841 493.368 297.072 492.521 297.23 491.66C297.437 490.579 297.541 489.481 297.54 488.38V483.38H310.14V497.38H312.65V504.94H309.07V500.61H297.01V504.94H293.4V497.38ZM301.14 486.57V488.38C301.143 489.477 301.046 490.571 300.85 491.65C300.705 492.524 300.463 493.379 300.13 494.2C299.877 494.799 299.59 495.384 299.27 495.95C299.064 496.323 298.826 496.677 298.56 497.01L298.26 497.38H306.54V486.57H301.14Z" fill="#878787"/>
<path d="M325.07 500.96C324.436 500.964 323.804 500.887 323.19 500.73C322.654 500.597 322.137 500.399 321.65 500.14C321.248 499.939 320.863 499.705 320.5 499.44C320.245 499.266 320.001 499.075 319.77 498.87L319.52 498.61V508.14H315.92V483.3H319.52V485.3C319.68 485.13 319.92 484.92 320.21 484.65C320.799 484.217 321.441 483.861 322.12 483.59C323.062 483.162 324.085 482.941 325.12 482.94C326.241 482.937 327.349 483.17 328.374 483.623C329.399 484.076 330.318 484.739 331.07 485.57C332.69 487.298 333.591 489.577 333.591 491.945C333.591 494.313 332.69 496.593 331.07 498.32C330.313 499.159 329.387 499.828 328.353 500.283C327.319 500.738 326.2 500.969 325.07 500.96ZM328.36 487.9C327.911 487.373 327.353 486.949 326.725 486.659C326.096 486.369 325.412 486.218 324.72 486.218C324.028 486.218 323.344 486.369 322.715 486.659C322.087 486.949 321.529 487.373 321.08 487.9C320.057 489.008 319.488 490.462 319.488 491.97C319.488 493.478 320.057 494.932 321.08 496.04C321.527 496.57 322.084 496.997 322.713 497.289C323.342 497.581 324.027 497.733 324.72 497.733C325.413 497.733 326.098 497.581 326.727 497.289C327.356 496.997 327.913 496.57 328.36 496.04C329.383 494.932 329.951 493.478 329.951 491.97C329.951 490.462 329.383 489.008 328.36 487.9Z" fill="#878787"/>
<path d="M340.57 496.99C340.792 497.201 340.969 497.456 341.09 497.738C341.21 498.02 341.271 498.323 341.27 498.63C341.273 498.937 341.213 499.241 341.092 499.523C340.972 499.806 340.794 500.06 340.57 500.27C340.355 500.488 340.099 500.661 339.817 500.779C339.534 500.897 339.231 500.958 338.925 500.958C338.619 500.958 338.316 500.897 338.034 500.779C337.751 500.661 337.495 500.488 337.28 500.27C337.056 500.06 336.879 499.806 336.758 499.523C336.638 499.241 336.577 498.937 336.58 498.63C336.577 498.165 336.713 497.71 336.971 497.323C337.229 496.936 337.596 496.635 338.026 496.459C338.456 496.283 338.929 496.239 339.385 496.334C339.84 496.428 340.256 496.657 340.58 496.99H340.57Z" fill="#878787"/>
<path fill-rule="evenodd" clip-rule="evenodd" d="M243.65 104.74L231.65 92.74C242.543 93.8012 253.148 96.8517 262.94 101.74L243.65 104.74ZM271.65 107.34C271.899 107.303 272.144 107.239 272.38 107.15C286.025 116.153 296.974 128.688 304.06 143.42V143.49L294.32 171.34H266.75L238.75 136.34L245.27 111.56L271.65 107.34ZM300.56 174.4L308.03 153.14C312.464 166.103 313.896 179.903 312.22 193.5L300.56 174.4ZM294.8 178.27L310.34 203.7C306.847 218.033 299.875 231.284 290.04 242.28L259.35 246.47L242.01 217.14L267.01 178.3L294.8 178.27ZM259.36 253.47L281.79 250.41C271.605 259.251 259.561 265.687 246.55 269.24L259.36 253.47ZM253.36 249.9L235.84 271.46C231.535 272.081 227.19 272.392 222.84 272.39C209.428 272.41 196.183 269.42 184.08 263.64V245.64C184.08 244.72 183.714 243.837 183.064 243.186C182.413 242.536 181.53 242.17 180.61 242.17H172.1L166.82 232.67L192.17 207.32L235.65 219.98L253.36 249.9ZM170.17 249.16H177.17V272.39H126.78V249.14H170.14L170.17 249.16ZM137.97 242.22H123.31C122.39 242.22 121.507 242.586 120.856 243.236C120.206 243.887 119.84 244.77 119.84 245.69V275.86C119.84 276.316 119.93 276.767 120.104 277.188C120.279 277.609 120.534 277.991 120.856 278.314C121.179 278.636 121.561 278.892 121.982 279.066C122.403 279.24 122.854 279.33 123.31 279.33H180.65C181.106 279.33 181.557 279.24 181.978 279.066C182.399 278.892 182.782 278.636 183.104 278.314C183.426 277.991 183.682 277.609 183.856 277.188C184.03 276.767 184.12 276.316 184.12 275.86V271.27C198.379 277.485 213.923 280.179 229.442 279.126C244.961 278.073 259.999 273.303 273.288 265.219C286.577 257.136 297.726 245.974 305.797 232.678C313.867 219.381 318.622 204.338 319.659 188.818C320.697 173.298 317.987 157.757 311.758 143.504C305.529 129.251 295.964 116.705 283.869 106.925C271.775 97.144 257.505 90.4153 242.265 87.3061C227.024 84.197 211.259 84.7985 196.3 89.06C195.453 89.3427 194.748 89.9407 194.331 90.7299C193.914 91.519 193.817 92.4386 194.061 93.2973C194.304 94.1561 194.869 94.8881 195.638 95.3411C196.407 95.7941 197.321 95.9335 198.19 95.73C205.764 93.5775 213.587 92.4309 221.46 92.32L238.65 109.49L232.07 134.49L188.54 151.34L184.14 148.7V125.03C184.14 124.11 183.774 123.227 183.124 122.576C182.473 121.926 181.59 121.56 180.67 121.56H156.47C160.32 117.366 164.555 113.543 169.12 110.14C169.859 109.591 170.349 108.771 170.483 107.861C170.617 106.95 170.384 106.024 169.835 105.285C169.286 104.546 168.466 104.056 167.556 103.922C166.645 103.788 165.719 104.021 164.98 104.57C158.39 109.471 152.443 115.183 147.28 121.57H123.28C122.36 121.57 121.477 121.936 120.826 122.586C120.176 123.237 119.81 124.12 119.81 125.04V155.21C119.81 156.13 120.176 157.013 120.826 157.664C121.477 158.314 122.36 158.68 123.28 158.68H128.76C122.784 182.511 126.053 207.721 137.91 229.24L137.97 242.22ZM144.91 242.22V158.67H159.09V232.05C159.08 232.096 159.08 232.144 159.09 232.19V242.19L144.91 242.22ZM184.85 157.22L183.85 156.61C183.569 157.212 183.12 157.72 182.558 158.075C181.996 158.429 181.344 158.615 180.68 158.61H165.99V223.68L187.65 202.14L184.85 157.22ZM177.18 150.75V128.5H149.25C149.051 128.52 148.85 128.52 148.65 128.5H126.78V151.73H177.15L177.18 150.75ZM132.84 182.34C132.835 174.342 133.894 166.379 135.99 158.66H137.99V212.37C134.569 202.731 132.817 192.578 132.81 182.35L132.84 182.34ZM187.84 95.56C188.216 96.3997 188.243 97.3539 187.917 98.214C187.591 99.0741 186.938 99.7702 186.1 100.15C183.8 101.177 181.553 102.3 179.36 103.52C178.961 103.754 178.519 103.906 178.06 103.966C177.601 104.027 177.134 103.995 176.688 103.873C176.242 103.75 175.824 103.54 175.46 103.254C175.097 102.968 174.794 102.612 174.57 102.207C174.345 101.802 174.204 101.356 174.155 100.896C174.106 100.436 174.149 99.9702 174.282 99.5269C174.416 99.0837 174.636 98.6716 174.931 98.3149C175.226 97.9582 175.59 97.6641 176 97.45C178.36 96.1166 180.777 94.9066 183.25 93.82C184.083 93.4642 185.022 93.448 185.866 93.775C186.711 94.102 187.394 94.7461 187.77 95.57L187.84 95.56ZM233.84 141.24L191.84 157.51L194.55 200.8L236.48 212.97L260.88 174.97L233.84 141.24Z" fill="#00A7B8"/>
</svg>
