<svg width="434" height="544" viewBox="0 0 434 544" fill="none" xmlns="http://www.w3.org/2000/svg">
<path d="M384.37 2.66003H49.52C23.5626 2.66003 2.52002 23.7027 2.52002 49.66V494.19C2.52002 520.147 23.5626 541.19 49.52 541.19H384.37C410.327 541.19 431.37 520.147 431.37 494.19V49.66C431.37 23.7027 410.327 2.66003 384.37 2.66003Z" stroke="#00A7B8" stroke-width="5" stroke-miterlimit="10"/>
<path d="M191.408 346.719H196.805C197.754 346.719 198.563 346.42 199.231 345.804C199.881 345.189 200.215 344.469 200.215 343.66C200.215 342.851 199.881 342.131 199.231 341.515C198.563 340.9 197.754 340.584 196.805 340.584H191.408V346.719ZM196.981 351.57H185.994V326.363H203.467V331.232H191.408V335.732H196.981C199.442 335.732 201.498 336.506 203.151 338.052C204.785 339.599 205.612 341.48 205.612 343.66C205.612 345.84 204.785 347.703 203.151 349.25C201.498 350.797 199.442 351.57 196.981 351.57ZM215.877 346.719H229.377V351.57H210.463V326.363H229.008V331.232H215.877V336.277H226.125V341.129H215.877V346.719ZM234.405 351.57V326.363H251.508V331.232H239.819V351.57H234.405Z" fill="#1D1D1B"/>
<path d="M78.51 443.337H79.9514C80.0569 443.249 80.2151 443.09 80.4084 442.862C80.6018 442.633 80.9534 442.106 81.4456 441.297C81.9377 440.489 82.3596 439.592 82.7463 438.626C83.1331 437.641 83.4846 436.323 83.801 434.635C84.1174 432.948 84.2756 431.172 84.2756 429.292V421.733H100.658V443.337H103.717V452.337H99.7444V446.94H82.4651V452.337H78.51V443.337ZM88.2307 429.292C88.2307 431.172 88.0725 432.948 87.7737 434.6C87.4749 436.253 87.1233 437.589 86.7014 438.608C86.2795 439.628 85.8577 440.524 85.4358 441.28C85.0139 442.036 84.6448 442.563 84.3459 442.88L83.9065 443.337H96.6858V425.337H88.2307V429.292ZM120.469 438.309C120.469 436.692 119.924 435.339 118.869 434.214C117.797 433.106 116.531 432.544 115.073 432.544C113.596 432.544 112.33 433.106 111.258 434.214C110.186 435.339 109.658 436.692 109.658 438.309C109.658 439.926 110.186 441.28 111.258 442.387C112.33 443.512 113.596 444.057 115.073 444.057C116.531 444.057 117.797 443.512 118.869 442.387C119.924 441.28 120.469 439.926 120.469 438.309ZM106.073 438.309C106.073 435.883 106.951 433.774 108.744 431.981C110.537 430.188 112.647 429.292 115.073 429.292C117.498 429.292 119.59 430.188 121.383 431.981C123.176 433.774 124.073 435.883 124.073 438.309C124.073 440.735 123.176 442.827 121.383 444.62C119.59 446.413 117.498 447.309 115.073 447.309C112.647 447.309 110.537 446.413 108.744 444.62C106.951 442.827 106.073 440.735 106.073 438.309ZM144.955 430.206C147.469 430.206 149.543 431.014 151.16 432.614C152.778 434.196 153.604 436.217 153.604 438.678C153.604 441.21 152.76 443.284 151.108 444.901C149.455 446.501 147.276 447.309 144.604 447.309C143.444 447.309 142.354 447.169 141.317 446.887C140.28 446.606 139.418 446.29 138.75 445.903C138.082 445.516 137.502 445.13 137.01 444.743C136.518 444.356 136.166 444.04 135.92 443.776L135.604 443.337L138.117 440.823C138.153 440.893 138.24 440.999 138.364 441.139C138.487 441.28 138.75 441.508 139.155 441.842C139.559 442.176 139.998 442.475 140.455 442.721C140.912 442.967 141.51 443.196 142.248 443.407C142.987 443.618 143.778 443.706 144.604 443.706C146.045 443.706 147.24 443.231 148.19 442.264C149.139 441.315 149.631 440.102 149.631 438.661C149.631 437.219 149.139 436.024 148.19 435.057C147.223 434.108 146.028 433.616 144.604 433.616C143.549 433.616 142.6 433.809 141.756 434.196C140.912 434.583 140.332 434.969 140.033 435.356L139.559 435.954H136.676L137.397 421.733H151.969V425.337H141L140.631 431.278C141.58 430.575 143.022 430.206 144.955 430.206ZM180.78 429.661L174.117 436.868L181.307 446.94H177.352L171.78 439.206L169.073 442.089V446.94H165.469V429.661H169.073V437.395L176.455 429.661H180.78ZM193.348 437.219L199.658 429.661H202.541V446.94H198.938V435.602L193.348 442.264L187.776 435.602V446.94H184.172V429.661H187.055L193.348 437.219ZM208.852 442.616L212.086 444.426L207.586 451.616L205.248 450.368L208.852 442.616ZM240.721 446.94H223.969C223.969 445.393 224.215 443.969 224.672 442.704C225.147 441.438 225.762 440.366 226.518 439.522C227.274 438.678 228.1 437.905 229.014 437.202C229.928 436.499 230.824 435.866 231.721 435.286C232.635 434.706 233.461 434.126 234.217 433.563C234.973 433.001 235.588 432.35 236.045 431.594C236.52 430.839 236.748 430.012 236.748 429.116C236.748 427.85 236.362 426.831 235.571 426.092C234.78 425.354 233.672 424.985 232.248 424.985C231.563 424.985 230.912 425.126 230.315 425.372C229.717 425.618 229.242 425.917 228.908 426.268C228.574 426.62 228.276 426.954 228.03 427.305C227.783 427.657 227.608 427.973 227.52 428.219L227.397 428.589L224.162 427.147C224.198 426.989 224.268 426.778 224.356 426.514C224.444 426.268 224.69 425.811 225.094 425.143C225.498 424.493 225.973 423.913 226.518 423.403C227.045 422.911 227.836 422.436 228.856 422.014C229.875 421.592 231 421.381 232.266 421.381C234.727 421.381 236.766 422.137 238.348 423.614C239.93 425.108 240.721 426.936 240.721 429.116C240.721 430.276 240.475 431.331 240.018 432.315C239.543 433.299 238.946 434.126 238.225 434.794C237.504 435.462 236.678 436.13 235.746 436.833C234.815 437.536 233.918 438.169 233.039 438.731C232.16 439.311 231.281 439.997 230.438 440.805C229.594 441.614 228.944 442.458 228.487 443.337H240.721V446.94ZM258.176 434.706V437.94H245.573V434.706H258.176ZM277.776 438.292H281.028V441.895H277.776V446.94H273.821V441.895H261.586V437.589L272.748 421.733H277.776V438.292ZM273.821 438.292V426.233L265.365 438.292H273.821ZM301.348 447.292C300.698 447.292 300.065 447.221 299.467 447.063C298.852 446.922 298.324 446.729 297.903 446.501C297.463 446.272 297.076 446.044 296.742 445.797C296.408 445.551 296.162 445.358 296.022 445.217L295.776 444.954V454.499H292.172V429.661H295.776V431.647C295.934 431.489 296.162 431.278 296.461 430.997C296.76 430.733 297.393 430.381 298.377 429.942C299.344 429.52 300.328 429.292 301.348 429.292C303.633 429.292 305.602 430.171 307.289 431.928C308.977 433.686 309.821 435.796 309.821 438.292C309.821 440.788 308.977 442.915 307.289 444.672C305.602 446.43 303.633 447.292 301.348 447.292ZM300.996 432.544C299.625 432.544 298.412 433.106 297.358 434.231C296.303 435.356 295.776 436.727 295.776 438.309C295.776 439.891 296.303 441.245 297.358 442.37C298.412 443.495 299.625 444.057 300.996 444.057C302.367 444.057 303.58 443.495 304.635 442.37C305.69 441.245 306.217 439.891 306.217 438.309C306.217 436.727 305.69 435.356 304.635 434.231C303.58 433.106 302.367 432.544 300.996 432.544ZM327.627 446.94L324.024 446.958V445.165C323.971 445.2 323.883 445.288 323.778 445.393C323.672 445.499 323.444 445.657 323.11 445.903C322.776 446.149 322.424 446.36 322.037 446.553C321.651 446.747 321.158 446.922 320.578 447.081C319.981 447.221 319.401 447.309 318.803 447.309C317.045 447.309 315.586 446.799 314.426 445.78C313.266 444.76 312.686 443.583 312.686 442.282C312.686 440.858 313.125 439.663 314.022 438.696C314.918 437.747 316.149 437.131 317.713 436.868L324.024 435.778C324.024 434.864 323.672 434.108 323.004 433.475C322.336 432.86 321.475 432.544 320.42 432.544C319.506 432.544 318.662 432.737 317.924 433.124C317.186 433.51 316.676 433.88 316.395 434.266L315.92 434.881L313.582 432.544C313.653 432.456 313.74 432.333 313.864 432.192C313.987 432.051 314.268 431.788 314.69 431.419C315.112 431.049 315.569 430.715 316.061 430.417C316.535 430.135 317.168 429.872 317.959 429.643C318.75 429.415 319.576 429.292 320.42 429.292C322.53 429.292 324.252 429.924 325.606 431.172C326.942 432.421 327.627 433.95 327.627 435.778V446.94ZM319.348 444.075C320.807 444.075 321.949 443.635 322.776 442.756C323.602 441.878 324.024 440.647 324.024 439.03V438.678L318.434 439.575C317.783 439.68 317.256 439.944 316.869 440.366C316.465 440.77 316.272 441.28 316.272 441.895C316.272 442.475 316.535 442.985 317.098 443.424C317.66 443.846 318.399 444.075 319.348 444.075ZM344.186 434.161C344.186 434.969 343.957 435.672 343.518 436.27C343.078 436.868 342.621 437.255 342.164 437.448L341.479 437.782C341.584 437.799 341.707 437.835 341.865 437.905C342.024 437.958 342.287 438.098 342.674 438.309C343.061 438.52 343.395 438.784 343.694 439.083C343.992 439.381 344.274 439.786 344.52 440.313C344.766 440.84 344.889 441.438 344.889 442.089C344.889 443.53 344.256 444.76 342.973 445.78C341.69 446.799 339.932 447.292 337.699 447.292C336.856 447.292 336.047 447.186 335.274 446.975C334.5 446.764 333.85 446.518 333.34 446.219C332.813 445.938 332.373 445.639 331.987 445.34C331.6 445.042 331.301 444.778 331.125 444.567L330.879 444.233L333.217 441.895C333.358 442.071 333.533 442.264 333.78 442.51C334.026 442.756 334.535 443.09 335.326 443.477C336.117 443.864 336.908 444.057 337.717 444.057C338.912 444.057 339.809 443.846 340.406 443.389C341.004 442.95 341.321 442.387 341.321 441.719C341.321 441.051 341.004 440.506 340.406 440.049C339.809 439.61 338.912 439.381 337.717 439.381H335.731V436.499H337.717C338.649 436.499 339.369 436.323 339.862 435.954C340.354 435.585 340.6 435.11 340.6 434.53C340.6 433.95 340.354 433.475 339.862 433.106C339.369 432.737 338.649 432.544 337.717 432.544C337.014 432.544 336.346 432.684 335.678 432.948C335.01 433.212 334.535 433.475 334.219 433.756L333.762 434.161L331.406 431.823C331.565 431.647 331.811 431.401 332.127 431.12C332.444 430.839 333.147 430.469 334.237 429.995C335.326 429.538 336.487 429.292 337.717 429.292C339.703 429.292 341.285 429.784 342.446 430.733C343.606 431.7 344.186 432.842 344.186 434.161ZM362.748 446.94L359.145 446.958V445.165C359.092 445.2 359.004 445.288 358.899 445.393C358.793 445.499 358.565 445.657 358.231 445.903C357.897 446.149 357.545 446.36 357.158 446.553C356.772 446.747 356.28 446.922 355.699 447.081C355.102 447.221 354.522 447.309 353.924 447.309C352.166 447.309 350.707 446.799 349.547 445.78C348.387 444.76 347.807 443.583 347.807 442.282C347.807 440.858 348.246 439.663 349.143 438.696C350.039 437.747 351.27 437.131 352.834 436.868L359.145 435.778C359.145 434.864 358.793 434.108 358.125 433.475C357.457 432.86 356.596 432.544 355.541 432.544C354.627 432.544 353.783 432.737 353.045 433.124C352.307 433.51 351.797 433.88 351.516 434.266L351.041 434.881L348.703 432.544C348.774 432.456 348.862 432.333 348.985 432.192C349.108 432.051 349.389 431.788 349.811 431.419C350.233 431.049 350.69 430.715 351.182 430.417C351.656 430.135 352.289 429.872 353.08 429.643C353.871 429.415 354.698 429.292 355.541 429.292C357.651 429.292 359.373 429.924 360.727 431.172C362.063 432.421 362.748 433.95 362.748 435.778V446.94ZM354.469 444.075C355.928 444.075 357.071 443.635 357.897 442.756C358.723 441.878 359.145 440.647 359.145 439.03V438.678L353.555 439.575C352.905 439.68 352.377 439.944 351.99 440.366C351.586 440.77 351.393 441.28 351.393 441.895C351.393 442.475 351.656 442.985 352.219 443.424C352.781 443.846 353.52 444.075 354.469 444.075Z" fill="#878787"/>
<path d="M146.255 472.861L154.534 472.878C156.187 472.878 157.487 473.3 158.472 474.144C159.438 474.988 159.931 476.078 159.931 477.378C159.931 478.117 159.755 478.785 159.438 479.382C159.122 479.98 158.788 480.402 158.454 480.648L157.962 480.982C158.032 480.999 158.12 481.035 158.261 481.087C158.384 481.158 158.612 481.298 158.964 481.544C159.298 481.79 159.597 482.054 159.843 482.335C160.089 482.617 160.317 483.003 160.528 483.495C160.739 483.988 160.845 484.533 160.845 485.095C160.845 486.589 160.3 487.802 159.245 488.734C158.19 489.683 156.731 490.14 154.903 490.14H146.255V472.861ZM154.903 482.423H149.858V487.099H154.903C155.606 487.099 156.187 486.888 156.608 486.466C157.03 486.044 157.241 485.464 157.241 484.761C157.241 484.111 157.013 483.566 156.591 483.109C156.151 482.652 155.589 482.423 154.903 482.423ZM156.345 477.73C156.345 477.167 156.169 476.728 155.853 476.411C155.519 476.095 155.079 475.937 154.534 475.937H149.858V479.54H154.534C155.079 479.54 155.519 479.365 155.853 479.048C156.169 478.732 156.345 478.292 156.345 477.73ZM175.593 482.933V490.14H171.989V472.861H175.593V479.699H184.048V472.861H187.651V490.14H184.048V482.933H175.593ZM208.71 482.757H195.192C195.386 483.988 195.983 485.042 197.003 485.921C198.022 486.818 199.218 487.257 200.606 487.257C201.626 487.257 202.558 487.029 203.437 486.572C204.315 486.115 204.931 485.675 205.282 485.236L205.827 484.568L208.165 486.906C208.095 487.011 207.989 487.134 207.849 487.31C207.708 487.486 207.392 487.767 206.899 488.171C206.425 488.576 205.915 488.927 205.37 489.244C204.843 489.56 204.14 489.841 203.278 490.105C202.417 490.369 201.521 490.492 200.606 490.492C198.163 490.492 196.054 489.595 194.278 487.802C192.503 486.009 191.606 483.847 191.606 481.316C191.606 478.89 192.485 476.816 194.208 475.093C195.931 473.37 198.005 472.492 200.431 472.492C202.856 472.492 204.86 473.3 206.478 474.917C208.095 476.535 208.903 478.538 208.903 480.964L208.71 482.757ZM200.413 475.568C199.112 475.568 198.022 475.954 197.144 476.728C196.265 477.501 195.667 478.486 195.351 479.699H205.353C205.142 478.486 204.597 477.501 203.718 476.728C202.839 475.954 201.749 475.568 200.413 475.568ZM210.327 486.906H211.575C211.646 486.835 211.733 486.73 211.874 486.572C212.015 486.413 212.243 486.062 212.577 485.499C212.911 484.954 213.21 484.357 213.456 483.724C213.702 483.091 213.931 482.247 214.142 481.193C214.353 480.156 214.458 479.066 214.458 477.906V472.861H227.062V486.906H229.575V494.464H225.989V490.14H213.931V494.464H210.327V486.906ZM218.062 476.095L218.044 477.906C218.044 479.066 217.956 480.156 217.763 481.175C217.569 482.212 217.323 483.074 217.042 483.742C216.761 484.41 216.462 484.99 216.181 485.482C215.899 485.974 215.653 486.326 215.478 486.536L215.179 486.906H223.458V476.095H218.062ZM249.21 482.757H235.692C235.886 483.988 236.483 485.042 237.503 485.921C238.522 486.818 239.718 487.257 241.106 487.257C242.126 487.257 243.058 487.029 243.937 486.572C244.815 486.115 245.431 485.675 245.782 485.236L246.327 484.568L248.665 486.906C248.595 487.011 248.489 487.134 248.349 487.31C248.208 487.486 247.892 487.767 247.399 488.171C246.925 488.576 246.415 488.927 245.87 489.244C245.343 489.56 244.64 489.841 243.778 490.105C242.917 490.369 242.021 490.492 241.106 490.492C238.663 490.492 236.554 489.595 234.778 487.802C233.003 486.009 232.106 483.847 232.106 481.316C232.106 478.89 232.985 476.816 234.708 475.093C236.431 473.37 238.505 472.492 240.931 472.492C243.356 472.492 245.36 473.3 246.978 474.917C248.595 476.535 249.403 478.538 249.403 480.964L249.21 482.757ZM240.913 475.568C239.612 475.568 238.522 475.954 237.644 476.728C236.765 477.501 236.167 478.486 235.851 479.699H245.853C245.642 478.486 245.097 477.501 244.218 476.728C243.339 475.954 242.249 475.568 240.913 475.568ZM255.327 472.861L268.634 472.878V490.158H265.03V476.113H258.913V477.923C258.913 481.21 258.667 483.812 258.14 485.71C257.612 487.609 256.944 488.892 256.136 489.542C255.327 490.175 254.272 490.509 252.989 490.509C252.673 490.509 252.321 490.474 251.97 490.421C251.618 490.351 251.337 490.298 251.144 490.228L250.827 490.158V486.73C251.302 486.835 251.724 486.906 252.075 486.923C252.813 486.923 253.394 486.712 253.815 486.326C254.237 485.921 254.606 485.042 254.888 483.671C255.169 482.3 255.327 480.384 255.327 477.906V472.861ZM298.534 481.509C298.534 483.935 297.638 486.027 295.845 487.82C294.052 489.613 291.96 490.492 289.534 490.492C287.249 490.492 285.28 489.753 283.628 488.242C281.976 486.747 280.991 484.972 280.71 482.933H277.3V490.14H273.696V472.861H277.3V479.699H280.71C281.097 477.8 282.116 476.13 283.786 474.671C285.456 473.23 287.372 472.492 289.534 472.492C291.96 472.492 294.052 473.388 295.845 475.181C297.638 476.974 298.534 479.083 298.534 481.509ZM294.931 481.509C294.931 479.892 294.386 478.538 293.331 477.413C292.259 476.306 290.993 475.744 289.534 475.744C288.058 475.744 286.792 476.306 285.737 477.413C284.665 478.538 284.138 479.892 284.138 481.509C284.138 483.126 284.665 484.48 285.737 485.587C286.792 486.712 288.058 487.257 289.534 487.257C290.993 487.257 292.259 486.712 293.331 485.587C294.386 484.48 294.931 483.126 294.931 481.509Z" fill="#878787"/>
<path fill-rule="evenodd" clip-rule="evenodd" d="M171.12 90.6601C171.504 90.7808 171.86 90.9776 172.167 91.2388C172.473 91.5 172.724 91.8203 172.904 92.1805C173.084 92.5407 173.19 92.9335 173.215 93.3354C173.24 93.7374 173.184 94.1402 173.05 94.52L171.51 99.14C171.254 99.9078 170.704 100.542 169.98 100.904C169.256 101.266 168.418 101.326 167.65 101.07C166.882 100.814 166.248 100.264 165.886 99.5398C165.524 98.8159 165.464 97.9778 165.72 97.21L167.27 92.57C167.393 92.1888 167.591 91.836 167.852 91.5325C168.114 91.229 168.433 90.9809 168.792 90.8029C169.151 90.6249 169.542 90.5205 169.942 90.496C170.341 90.4715 170.742 90.5272 171.12 90.6601ZM240.78 90.6601C241.545 90.9216 242.175 91.4761 242.531 92.2018C242.887 92.9275 242.941 93.7649 242.68 94.53L225.68 143.87C225.68 144.03 225.68 144.29 225.68 144.65C225.68 145.38 225.76 146.38 225.87 147.65C226.11 150.17 226.54 153.58 227.11 157.58C228.27 165.58 230 175.85 231.93 186.05C233.86 196.25 235.93 206.33 237.93 213.95C238.93 217.78 239.78 220.95 240.55 223.11C240.826 223.929 241.16 224.728 241.55 225.5C243.09 226.07 245.55 226.83 248.66 227.81L251.16 228.59C255.86 230.07 261.48 231.88 266.94 233.95C272.169 235.827 277.22 238.169 282.03 240.95C284.048 242.136 285.913 243.567 287.58 245.21C289.147 246.702 290.248 248.616 290.75 250.72C291.75 255.72 289.75 260.96 286.37 264.72C284.623 266.756 282.466 268.4 280.039 269.544C277.613 270.688 274.972 271.307 272.29 271.36H238.29C229.44 271.36 222.41 269.86 216.48 266.72C210.55 263.58 205.96 258.93 201.77 253.06C194.12 242.36 168.12 211.73 161.86 205.47C159.914 203.704 157.66 202.31 155.21 201.36C152.33 200.12 149.05 199.06 145.52 197.93L144.97 197.75C138.24 195.6 130.55 193.14 124.97 188.68C119.85 184.59 118.78 177.4 119.39 170.74C120.126 163.707 122.298 156.9 125.77 150.74C129.28 144.61 135.29 140.4 140.53 137.1C141.53 136.45 142.53 135.85 143.48 135.27C145.03 134.27 146.48 133.43 147.82 132.53C149.378 131.562 150.8 130.392 152.05 129.05L161.17 106.25C161.47 105.499 162.055 104.899 162.798 104.58C163.54 104.261 164.379 104.25 165.13 104.55C165.881 104.85 166.481 105.435 166.8 106.178C167.119 106.921 167.13 107.759 166.83 108.51L157.55 131.72C157.452 131.97 157.321 132.205 157.16 132.42C155.471 134.455 153.466 136.204 151.22 137.6C149.78 138.6 148.14 139.6 146.5 140.6L143.77 142.29C138.56 145.57 133.77 149.1 131.06 153.8C128.016 159.197 126.107 165.159 125.45 171.32C124.9 177.43 126.14 181.84 128.77 183.94C133.44 187.68 140.18 189.85 147.36 192.15C150.84 193.26 154.41 194.41 157.6 195.79C160.765 197.04 163.668 198.872 166.16 201.19C172.66 207.7 198.89 238.58 206.71 249.54C210.57 254.94 214.49 258.8 219.31 261.35C224.13 263.9 230.11 265.29 238.31 265.29H272.31C274.127 265.234 275.913 264.798 277.551 264.009C279.189 263.22 280.643 262.096 281.82 260.71C284.28 257.92 285.33 254.6 284.82 251.91C284.54 250.966 283.999 250.12 283.26 249.47C281.947 248.193 280.483 247.081 278.9 246.16C274.414 243.584 269.709 241.408 264.84 239.66C259.55 237.66 254.06 235.9 249.38 234.42L247.01 233.68C243.45 232.56 240.43 231.62 238.72 230.94C238.046 230.654 237.457 230.199 237.01 229.62C236.694 229.21 236.416 228.771 236.18 228.31C235.662 227.279 235.217 226.213 234.85 225.12C233.98 222.65 233.03 219.3 232.06 215.42C230.06 207.63 227.96 197.42 226.06 187.16C224.16 176.9 222.37 166.53 221.21 158.43C220.62 154.38 220.21 150.87 219.93 148.2C219.81 146.86 219.73 145.7 219.71 144.77C219.71 144.3 219.71 143.85 219.71 143.44C219.73 142.961 219.814 142.487 219.96 142.03L236.96 92.51C237.223 91.7598 237.773 91.1446 238.489 90.7996C239.205 90.4546 240.029 90.408 240.78 90.6701V90.6601ZM173.17 147.2C173.132 146.782 173.009 146.376 172.807 146.008C172.605 145.64 172.329 145.317 171.997 145.061C171.665 144.804 171.283 144.619 170.876 144.516C170.469 144.414 170.045 144.397 169.631 144.466C169.217 144.535 168.821 144.688 168.469 144.917C168.117 145.146 167.817 145.445 167.586 145.796C167.355 146.146 167.198 146.541 167.127 146.955C167.055 147.368 167.07 147.792 167.17 148.2C167.883 152.52 170.096 156.45 173.42 159.3C177.23 162.57 182.75 164.68 190.3 164.68C191.109 164.68 191.885 164.359 192.457 163.787C193.029 163.215 193.35 162.439 193.35 161.63C193.35 160.821 193.029 160.045 192.457 159.473C191.885 158.901 191.109 158.58 190.3 158.58C183.92 158.58 179.89 156.82 177.39 154.67C175.149 152.758 173.654 150.116 173.17 147.21V147.2Z" fill="#00A7B8"/>
</svg>
