<svg width="43" height="67" viewBox="0 0 43 67" fill="none" xmlns="http://www.w3.org/2000/svg">
<path d="M12.0999 40.28C12.0999 39.81 12.1899 39.52 12.1899 39.28V18.49C12.1853 17.4091 12.5242 16.3546 13.1578 15.4789C13.7914 14.6031 14.6869 13.9513 15.7149 13.6175C16.743 13.2837 17.8506 13.2853 18.8778 13.6218C19.905 13.9584 20.7987 14.6125 21.4299 15.49C22.0866 16.3895 22.4372 17.4762 22.4299 18.5899V29.4599C23.1662 29.2936 23.9158 29.1932 24.6699 29.16C25.6237 29.1651 26.549 29.4855 27.3016 30.0716C28.0541 30.6577 28.5915 31.4765 28.8299 32.4C28.9499 32.89 29.0499 33.08 29.6499 32.77C31.3999 31.85 34.4299 33.0799 35.2099 34.9599C35.3899 35.3999 35.5399 35.8399 35.7299 36.3299C36.2111 36.1635 36.702 36.0267 37.1999 35.92C39.5199 35.58 42.1999 37.27 42.2799 39.86C42.36 44.49 42.4299 49.14 42.1899 53.76C41.9273 56.4521 40.8094 58.9894 38.9999 61C37.6207 62.7146 35.8608 64.0841 33.8599 65C30.6476 66.4012 27.1028 66.859 23.6399 66.3199C20.6283 65.8922 17.8066 64.596 15.5199 62.5899C14.0767 61.2392 12.828 59.6944 11.8099 58C9.46992 54.61 7.11992 51.2299 4.80992 47.8299C3.43992 45.8299 1.99992 43.8299 0.809919 41.8299C0.430476 41.1627 0.207135 40.4182 0.156721 39.6523C0.106306 38.8864 0.230131 38.1191 0.518842 37.4079C0.807553 36.6968 1.25364 36.0602 1.82365 35.5461C2.39366 35.0321 3.07277 34.6539 3.80992 34.4399C4.90482 34.1216 6.07392 34.1714 7.13786 34.5814C8.2018 34.9914 9.10183 35.7392 9.69993 36.7099C10.3999 37.8199 11.1999 39 12.0999 40.28ZM14.4599 31.4V44.17C14.4599 44.7 14.4 45.17 13.78 45.37C13.5009 45.4744 13.1931 45.473 12.915 45.3662C12.6368 45.2593 12.4074 45.0544 12.2699 44.79C12.0899 44.49 11.8799 44.21 11.6799 43.92C10.2499 41.81 8.79994 39.6999 7.38994 37.5799C6.96391 37.0528 6.35637 36.7036 5.68638 36.6009C5.0164 36.4983 4.33222 36.6495 3.76787 37.0249C3.20351 37.4003 2.79967 37.9729 2.63542 38.6305C2.47117 39.2881 2.55837 39.9833 2.87993 40.5799C3.47993 41.5799 4.12991 42.5799 4.79991 43.5799C7.28991 47.2099 9.79991 50.8199 12.2999 54.4399C13.3499 55.9599 14.2999 57.58 15.4299 59.01C16.7446 60.6564 18.4206 61.9782 20.3281 62.873C22.2356 63.7678 24.3234 64.2116 26.4299 64.17C27.1367 64.1698 27.8413 64.0893 28.53 63.93C29.9155 63.7276 31.2783 63.3927 32.5999 62.93C34.6852 62.0793 36.4815 60.6462 37.7742 58.802C39.0669 56.9578 39.8014 54.7804 39.8899 52.53C40.1799 48.47 39.9799 44.38 39.9599 40.3C39.952 39.7378 39.721 39.2016 39.3178 38.8097C38.9146 38.4177 38.3722 38.202 37.8099 38.2099C37.2477 38.2179 36.7116 38.449 36.3196 38.8522C35.9277 39.2554 35.7119 39.7977 35.7199 40.36C35.7199 40.82 35.7199 41.29 35.7199 41.74C35.6499 42.51 35.0199 43.1499 34.4399 43.0899C34.1018 43.0268 33.7992 42.8405 33.5905 42.5671C33.3818 42.2938 33.2818 41.9527 33.3099 41.61C33.3099 40.08 33.3099 38.55 33.3099 37.02C33.3207 36.7341 33.2736 36.4489 33.1712 36.1817C33.0689 35.9146 32.9135 35.6709 32.7145 35.4653C32.5155 35.2598 32.277 35.0966 32.0132 34.9857C31.7495 34.8748 31.466 34.8184 31.1799 34.8199C30.6069 34.8382 30.0637 35.0794 29.6659 35.4922C29.268 35.9049 29.047 36.4567 29.0499 37.03C29.0949 37.8427 29.0949 38.6572 29.0499 39.47C29.0499 40.57 28.0499 41.14 27.2299 40.54C27.0566 40.3879 26.9159 40.2022 26.8163 39.9942C26.7166 39.7863 26.66 39.5603 26.6499 39.3299C26.5799 37.4699 26.6499 35.61 26.6499 33.75C26.6768 33.4579 26.6416 33.1634 26.5466 32.8858C26.4516 32.6083 26.299 32.3541 26.0988 32.1398C25.8986 31.9254 25.6553 31.7558 25.3849 31.6421C25.1145 31.5284 24.8232 31.4731 24.53 31.48C24.2388 31.486 23.9518 31.5512 23.6866 31.6715C23.4213 31.7918 23.1833 31.9647 22.9869 32.1798C22.7905 32.3949 22.6399 32.6476 22.5442 32.9227C22.4484 33.1978 22.4095 33.4895 22.4299 33.78C22.5199 35 22.4299 36.2299 22.4299 37.4499C22.4411 37.7574 22.3328 38.0573 22.1277 38.2866C21.9226 38.5159 21.6367 38.657 21.3299 38.68C21.1779 38.6983 21.0238 38.6843 20.8775 38.639C20.7313 38.5938 20.5962 38.5182 20.4811 38.4172C20.366 38.3163 20.2735 38.1923 20.2095 38.0532C20.1456 37.9141 20.1116 37.763 20.1099 37.61C20.0678 37.2784 20.0511 36.9441 20.0599 36.61C20.0599 30.93 20.0599 25.24 20.0599 19.61C20.0632 19.0756 20.0365 18.5414 19.9799 18.01C19.9162 17.3882 19.6264 16.8115 19.1656 16.3894C18.7047 15.9672 18.1048 15.729 17.4799 15.72C17.0759 15.6794 16.668 15.7292 16.2856 15.8656C15.9032 16.002 15.5558 16.2217 15.2687 16.5088C14.9816 16.7959 14.762 17.1432 14.6255 17.5256C14.4891 17.908 14.4393 18.316 14.4799 18.72C14.3999 22.88 14.4599 27.14 14.4599 31.4Z" fill="#C6C6C6"/>
<path d="M5.14001 16.5C4.43001 16.5 3.72001 16.5 3.01001 16.5C2.84069 16.5166 2.6698 16.4981 2.50793 16.4457C2.34607 16.3934 2.19666 16.3083 2.06909 16.1957C1.94153 16.0832 1.83852 15.9455 1.76642 15.7914C1.69431 15.6373 1.65471 15.4701 1.65002 15.3001C1.65002 14.5501 2.12 14.09 3 14.08C4.42 14.08 5.84001 14.08 7.26001 14.08C7.4317 14.0678 7.60411 14.0906 7.76672 14.147C7.92934 14.2034 8.07874 14.2924 8.20593 14.4084C8.33313 14.5243 8.43541 14.665 8.50659 14.8217C8.57777 14.9784 8.61636 15.1479 8.62 15.32C8.56877 15.6564 8.39593 15.9624 8.13422 16.1798C7.8725 16.3973 7.54011 16.5113 7.20001 16.5H5.14001Z" fill="#C6C6C6"/>
<path d="M18.76 4C18.76 4.71 18.76 5.42 18.76 6.13C18.76 6.84 18.31 7.43997 17.62 7.46997C17.4552 7.48442 17.2891 7.46345 17.1331 7.40845C16.9771 7.35345 16.8346 7.26573 16.7153 7.15112C16.5959 7.03652 16.5024 6.89771 16.4411 6.74402C16.3799 6.59032 16.3522 6.42529 16.36 6.26001C16.29 5.51001 16.36 4.73998 16.36 3.97998C16.36 3.21998 16.36 2.65998 16.36 1.97998C16.3287 1.62204 16.4372 1.26586 16.6628 0.986206C16.8884 0.70655 17.2135 0.525144 17.57 0.47998C18.32 0.47998 18.78 1.04 18.79 2C18.77 2.66 18.76 3.32 18.76 4Z" fill="#C6C6C6"/>
<path d="M9.44998 6.70998C9.94998 7.20998 10.45 7.70999 10.95 8.21999C11.0826 8.32066 11.1925 8.44805 11.2728 8.59389C11.3531 8.73973 11.4018 8.90079 11.416 9.06667C11.4301 9.23254 11.4093 9.39958 11.3549 9.5569C11.3005 9.71422 11.2136 9.85834 11.0999 9.98C10.9911 10.1051 10.8567 10.2055 10.7057 10.2742C10.5548 10.3429 10.3908 10.3784 10.2249 10.3784C10.0591 10.3784 9.89518 10.3429 9.74423 10.2742C9.59329 10.2055 9.45883 10.1051 9.34995 9.98C8.76995 9.5 8.25994 8.92003 7.71994 8.39003C7.17994 7.86003 6.71998 7.46 6.31998 6.98C6.04579 6.74991 5.87094 6.42295 5.83182 6.06716C5.7927 5.71136 5.8923 5.35412 6.10996 5.06996C6.63996 4.53996 7.35996 4.61005 8.04996 5.28005L9.44998 6.70998Z" fill="#C6C6C6"/>
<path d="M25.63 6.70998C25.13 7.20998 24.63 7.70999 24.13 8.21999C23.997 8.3231 23.8871 8.45312 23.8076 8.60146C23.728 8.7498 23.6806 8.9132 23.6684 9.08107C23.6561 9.24894 23.6793 9.4175 23.7364 9.57582C23.7935 9.73414 23.8834 9.87867 24 10C24.1098 10.1237 24.2445 10.2226 24.3953 10.2904C24.5462 10.3582 24.7097 10.3933 24.875 10.3933C25.0404 10.3933 25.2039 10.3582 25.3547 10.2904C25.5055 10.2226 25.6402 10.1237 25.75 10C26.33 9.52002 26.84 8.94005 27.38 8.41005C27.92 7.88005 28.33 7.48002 28.78 7.00002C29.0564 6.77137 29.2328 6.44408 29.272 6.08754C29.3112 5.73101 29.2101 5.37321 28.99 5.08998C28.47 4.55998 27.74 4.63007 27.05 5.30007L25.63 6.70998Z" fill="#C6C6C6"/>
<path d="M29.44 17.88C28.65 17.88 27.86 17.88 27.07 17.88C26.9161 17.8896 26.7619 17.8655 26.6183 17.8094C26.4747 17.7532 26.345 17.6665 26.2384 17.5551C26.1317 17.4437 26.0507 17.3103 26.0009 17.1643C25.9511 17.0184 25.9337 16.8633 25.95 16.71C25.9483 16.5586 25.9779 16.4086 26.0369 16.2692C26.0959 16.1298 26.183 16.004 26.2929 15.8998C26.4027 15.7956 26.5329 15.7152 26.6752 15.6636C26.8175 15.612 26.9689 15.5904 27.12 15.6H31.7C32.0133 15.5945 32.3162 15.7118 32.5441 15.9267C32.7721 16.1416 32.907 16.437 32.92 16.75C32.9121 17.0586 32.7827 17.3516 32.5598 17.5651C32.3369 17.7786 32.0386 17.8954 31.73 17.8901C30.96 17.8901 30.2 17.8901 29.44 17.8901V17.88Z" fill="#C6C6C6"/>
</svg>
