<svg width="434" height="545" viewBox="0 0 434 545" fill="none" xmlns="http://www.w3.org/2000/svg">
<path d="M384.48 3H49.6301C23.6727 3 2.63013 24.0426 2.63013 50V494.53C2.63013 520.487 23.6727 541.53 49.6301 541.53H384.48C410.438 541.53 431.48 520.487 431.48 494.53V50C431.48 24.0426 410.438 3 384.48 3Z" stroke="#00A7B8" stroke-width="5" stroke-miterlimit="10"/>
<path d="M43.3704 383.33H31.9446V358.123H42.7551C45.0403 358.123 46.9211 358.791 48.4153 360.127C49.9094 361.463 50.6653 363.027 50.6653 364.785C50.6653 365.453 50.5598 366.104 50.384 366.701C50.1907 367.299 49.9446 367.809 49.6633 368.195C49.3645 368.6 49.0657 368.951 48.7844 369.232C48.5032 369.514 48.2571 369.725 48.0813 369.83L47.7825 370.006C47.8879 370.059 48.0461 370.129 48.2219 370.217C48.3977 370.305 48.7317 370.516 49.2239 370.867C49.6985 371.219 50.1204 371.588 50.4895 371.992C50.8411 372.414 51.175 372.977 51.4739 373.68C51.7727 374.383 51.9309 375.139 51.9309 375.947C51.9309 377.969 51.1223 379.709 49.5227 381.15C47.9055 382.609 45.8665 383.33 43.3704 383.33ZM37.3586 378.83H43.1067C44.0911 378.83 44.8997 378.531 45.55 377.898C46.2004 377.283 46.5344 376.51 46.5344 375.596C46.5344 374.682 46.2004 373.926 45.55 373.293C44.8997 372.66 44.0911 372.344 43.1067 372.344H37.3586V378.83ZM42.386 362.623H37.3586V368.037H42.386C43.2649 368.037 43.968 367.791 44.4954 367.299C45.0051 366.807 45.2688 366.156 45.2688 365.33C45.2688 364.521 45.0051 363.854 44.4954 363.361C43.968 362.869 43.2649 362.623 42.386 362.623ZM85.7864 358.123V383.33H80.3899V362.992H69.7727V383.33H64.3586V358.123H85.7864ZM97.6868 378.479H111.187V383.33H92.2727V358.123H110.818V362.992H97.6868V368.037H107.935V372.889H97.6868V378.479ZM116.214 358.123L126.831 358.141C129.415 358.141 131.56 358.949 133.265 360.566C134.97 362.184 135.831 364.205 135.831 366.596C135.831 368.986 134.97 371.008 133.282 372.625C131.577 374.242 129.433 375.051 126.831 375.051H121.628V383.33H116.214V358.123ZM126.656 363.01H121.628V370.199H126.656C127.728 370.199 128.624 369.848 129.345 369.162C130.066 368.459 130.435 367.615 130.435 366.613C130.435 365.594 130.066 364.75 129.345 364.047C128.624 363.344 127.728 363.01 126.656 363.01ZM146.097 378.479H159.597V383.33H140.683V358.123H159.228V362.992H146.097V368.037H156.345V372.889H146.097V378.479ZM161.39 378.479H162.831C162.919 378.391 163.06 378.25 163.236 378.039C163.411 377.828 163.745 377.371 164.202 376.633C164.659 375.895 165.046 375.086 165.398 374.207C165.749 373.328 166.066 372.15 166.347 370.639C166.628 369.145 166.786 367.562 166.786 365.875V358.123H184.241V378.479H187.318V388.551H181.904V383.33H166.786V388.551H161.39V378.479ZM172.183 365.875C172.183 367.562 172.042 369.145 171.761 370.621C171.48 372.115 171.163 373.311 170.777 374.225C170.39 375.139 170.021 375.93 169.634 376.598C169.247 377.266 168.913 377.758 168.667 378.039L168.228 378.479H178.845V362.992H172.183V365.875ZM213.052 358.123V383.33H207.656V373.064H196.863V383.33H191.448V358.123H196.863V368.213H207.656V358.123H213.052ZM224.952 378.479H238.452V383.33H219.538V358.123H238.083V362.992H224.952V368.037H235.2V372.889H224.952V378.479ZM254.642 351.83C255.257 351.83 255.767 351.637 256.189 351.215C256.593 350.811 256.804 350.301 256.804 349.686H260.407C260.407 351.303 259.863 352.639 258.808 353.693C257.736 354.748 256.347 355.275 254.642 355.275C252.937 355.275 251.548 354.748 250.493 353.693C249.421 352.639 248.894 351.303 248.894 349.686H252.48C252.48 350.301 252.673 350.811 253.095 351.215C253.499 351.637 254.009 351.83 254.642 351.83ZM265.98 383.33H260.583V367.316L248.173 383.33H243.48V358.123H248.894V374.154L261.304 358.123H265.98V383.33ZM284.876 358.123V365.875C284.876 367.387 285.263 368.547 286.036 369.355C286.81 370.164 287.935 370.551 289.376 370.551C290.255 370.551 291.116 370.41 291.96 370.111C292.804 369.812 293.419 369.514 293.806 369.215L294.421 368.758V358.123H299.818V383.33H294.421V373.979C292.857 374.945 290.87 375.42 288.48 375.402C285.667 375.402 283.452 374.576 281.87 372.906C280.271 371.254 279.48 368.898 279.48 365.875V358.123H284.876ZM319.277 372.713L316.218 364.434L313.142 372.713H319.277ZM321.07 377.389H311.349L309.187 383.33H303.421L313.335 358.123H319.083L328.997 383.33H323.232L321.07 377.389ZM343.411 357.596C344.73 357.596 345.995 357.771 347.191 358.123C348.386 358.475 349.353 358.879 350.126 359.371C350.9 359.863 351.568 360.355 352.165 360.848C352.763 361.34 353.185 361.762 353.448 362.096L353.853 362.623L350.425 366.051C350.355 365.963 350.249 365.84 350.126 365.664C350.003 365.488 349.722 365.207 349.3 364.785C348.878 364.381 348.404 364.029 347.911 363.713C347.402 363.396 346.734 363.115 345.925 362.852C345.099 362.588 344.255 362.447 343.411 362.447C341.056 362.447 339.087 363.238 337.505 364.82C335.923 366.402 335.132 368.371 335.132 370.727C335.132 373.082 335.923 375.051 337.505 376.633C339.087 378.215 341.056 379.006 343.411 379.006C344.325 379.006 345.187 378.883 346.031 378.637C346.874 378.391 347.56 378.092 348.122 377.74C348.667 377.389 349.159 377.037 349.581 376.686C350.003 376.334 350.302 376.035 350.495 375.771L350.777 375.402L354.029 378.83C353.923 378.971 353.782 379.164 353.589 379.393C353.396 379.621 352.974 380.025 352.306 380.605C351.638 381.186 350.935 381.695 350.179 382.135C349.423 382.574 348.439 382.979 347.208 383.33C345.978 383.699 344.712 383.875 343.411 383.875C339.562 383.875 336.31 382.592 333.673 380.025C331.036 377.459 329.718 374.348 329.718 370.727C329.718 367.105 331.036 364.012 333.673 361.445C336.31 358.879 339.562 357.596 343.411 357.596ZM355.822 358.123H375.615V362.992H368.425V383.33H363.029V362.992H355.822V358.123ZM402.07 383.33H396.673V367.316L384.263 383.33H379.57V358.123H384.984V374.154L397.394 358.123H402.07V383.33Z" fill="#1D1D1B"/>
<path d="M71.6208 414.733L78.4587 427.881L84.5759 414.733H88.7244L79.7244 433.823C78.6697 436.09 77.5095 437.743 76.2791 438.762C75.0486 439.782 73.4314 440.292 71.4451 440.292C71.0056 440.292 70.5837 440.256 70.1619 440.151C69.74 440.063 69.4236 439.975 69.2126 439.87L68.9138 439.764V436.336C69.3884 436.583 70.1091 436.706 71.0759 436.706C72.2361 436.706 73.1677 436.477 73.8357 436.002C74.5037 435.545 75.0837 434.807 75.5759 433.823L76.4724 432.012L67.4724 414.733H71.6208ZM99.1482 430.219L105.459 422.661H108.342V439.94H104.738V428.602L99.1482 435.264L93.5759 428.602V439.94H89.9724V422.661H92.8552L99.1482 430.219ZM129.4 432.557H115.883C116.076 433.788 116.674 434.842 117.693 435.721C118.713 436.618 119.908 437.057 121.297 437.057C122.316 437.057 123.248 436.829 124.127 436.372C125.006 435.915 125.621 435.475 125.972 435.036L126.517 434.368L128.855 436.706C128.785 436.811 128.679 436.934 128.539 437.11C128.398 437.286 128.082 437.567 127.59 437.971C127.115 438.375 126.605 438.727 126.06 439.043C125.533 439.36 124.83 439.641 123.969 439.905C123.107 440.168 122.211 440.292 121.297 440.292C118.853 440.292 116.744 439.395 114.969 437.602C113.193 435.809 112.297 433.647 112.297 431.116C112.297 428.69 113.176 426.616 114.898 424.893C116.621 423.17 118.695 422.292 121.121 422.292C123.547 422.292 125.551 423.1 127.168 424.717C128.785 426.334 129.594 428.338 129.594 430.764L129.4 432.557ZM121.103 425.368C119.802 425.368 118.713 425.754 117.834 426.528C116.955 427.301 116.357 428.286 116.041 429.499H126.043C125.832 428.286 125.287 427.301 124.408 426.528C123.529 425.754 122.439 425.368 121.103 425.368ZM142.707 440.292C142.056 440.292 141.424 440.221 140.826 440.063C140.211 439.922 139.683 439.729 139.261 439.5C138.822 439.272 138.435 439.043 138.101 438.797C137.767 438.551 137.521 438.358 137.381 438.217L137.135 437.954V447.499H133.531V422.661H137.135V424.647C137.293 424.489 137.521 424.278 137.82 423.997C138.119 423.733 138.752 423.381 139.736 422.942C140.703 422.52 141.687 422.292 142.707 422.292C144.992 422.292 146.961 423.17 148.648 424.928C150.336 426.686 151.179 428.795 151.179 431.292C151.179 433.788 150.336 435.915 148.648 437.672C146.961 439.43 144.992 440.292 142.707 440.292ZM142.355 425.543C140.984 425.543 139.771 426.106 138.717 427.231C137.662 428.356 137.135 429.727 137.135 431.309C137.135 432.891 137.662 434.245 138.717 435.37C139.771 436.495 140.984 437.057 142.355 437.057C143.726 437.057 144.939 436.495 145.994 435.37C147.049 434.245 147.576 432.891 147.576 431.309C147.576 429.727 147.049 428.356 145.994 427.231C144.939 426.106 143.726 425.543 142.355 425.543ZM171.131 432.557H157.613C157.806 433.788 158.404 434.842 159.424 435.721C160.443 436.618 161.638 437.057 163.027 437.057C164.047 437.057 164.978 436.829 165.857 436.372C166.736 435.915 167.351 435.475 167.703 435.036L168.248 434.368L170.586 436.706C170.515 436.811 170.41 436.934 170.269 437.11C170.129 437.286 169.812 437.567 169.32 437.971C168.845 438.375 168.336 438.727 167.791 439.043C167.263 439.36 166.56 439.641 165.699 439.905C164.838 440.168 163.941 440.292 163.027 440.292C160.584 440.292 158.474 439.395 156.699 437.602C154.924 435.809 154.027 433.647 154.027 431.116C154.027 428.69 154.906 426.616 156.629 424.893C158.351 423.17 160.426 422.292 162.851 422.292C165.277 422.292 167.281 423.1 168.898 424.717C170.515 426.334 171.324 428.338 171.324 430.764L171.131 432.557ZM162.834 425.368C161.533 425.368 160.443 425.754 159.564 426.528C158.685 427.301 158.088 428.286 157.771 429.499H167.773C167.562 428.286 167.017 427.301 166.138 426.528C165.26 425.754 164.17 425.368 162.834 425.368ZM178.865 432.733V439.94H175.261V422.661H178.865V429.499H187.32V422.661H190.924V439.94H187.32V432.733H178.865ZM199.572 432.733V439.94H195.969V422.661H199.572V429.499H208.027V422.661H211.631V439.94H208.027V432.733H199.572ZM230.545 439.94L226.941 439.958V438.165C226.888 438.2 226.801 438.288 226.695 438.393C226.59 438.499 226.361 438.657 226.027 438.903C225.693 439.149 225.342 439.36 224.955 439.553C224.568 439.747 224.076 439.922 223.496 440.081C222.898 440.221 222.318 440.309 221.72 440.309C219.963 440.309 218.504 439.799 217.344 438.78C216.183 437.76 215.603 436.583 215.603 435.282C215.603 433.858 216.043 432.663 216.939 431.696C217.836 430.747 219.066 430.131 220.631 429.868L226.941 428.778C226.941 427.864 226.59 427.108 225.922 426.475C225.254 425.86 224.392 425.543 223.338 425.543C222.424 425.543 221.58 425.737 220.842 426.124C220.103 426.51 219.594 426.879 219.312 427.266L218.838 427.881L216.5 425.543C216.57 425.456 216.658 425.333 216.781 425.192C216.904 425.051 217.185 424.788 217.607 424.418C218.029 424.049 218.486 423.715 218.978 423.417C219.453 423.135 220.086 422.872 220.877 422.643C221.668 422.415 222.494 422.292 223.338 422.292C225.447 422.292 227.17 422.924 228.523 424.172C229.859 425.42 230.545 426.95 230.545 428.778V439.94ZM222.265 437.075C223.724 437.075 224.867 436.635 225.693 435.756C226.519 434.877 226.941 433.647 226.941 432.03V431.678L221.351 432.575C220.701 432.68 220.174 432.944 219.787 433.366C219.383 433.77 219.189 434.28 219.189 434.895C219.189 435.475 219.453 435.985 220.015 436.424C220.578 436.846 221.316 437.075 222.265 437.075ZM241.355 422.661H249.248V439.94H245.662V434.543H241.883L238.455 439.94H234.5L238.279 433.999C238.191 433.981 238.068 433.928 237.91 433.84C237.752 433.77 237.47 433.577 237.084 433.295C236.697 433.014 236.363 432.68 236.064 432.293C235.765 431.924 235.484 431.415 235.238 430.747C234.992 430.079 234.851 429.375 234.851 428.602C234.851 426.879 235.449 425.473 236.644 424.348C237.84 423.223 239.404 422.661 241.355 422.661ZM245.662 425.719H241.338C240.529 425.719 239.844 426 239.281 426.545C238.736 427.108 238.455 427.793 238.455 428.602C238.455 429.428 238.736 430.114 239.281 430.659C239.844 431.221 240.529 431.485 241.338 431.485H245.662V425.719ZM278.779 431.485C278.779 433.911 277.918 435.985 276.213 437.708C274.508 439.43 272.486 440.292 270.131 440.292C267.424 440.292 265.261 439.325 263.609 437.391C261.957 435.458 261.131 432.645 261.131 428.971C261.131 424.77 261.922 421.624 263.469 419.532C265.033 417.422 267.248 416.139 270.131 415.665C271.414 415.454 272.556 415.172 273.576 414.856C274.595 414.522 275.299 414.241 275.685 414.03L276.265 413.678L277.883 416.385C277.812 416.473 277.654 416.614 277.443 416.79C277.232 416.965 276.494 417.282 275.246 417.739C273.998 418.196 272.416 418.583 270.5 418.899C268.847 419.163 267.511 419.848 266.51 420.956C265.49 422.045 264.91 423.522 264.734 425.385C264.769 425.315 264.857 425.209 264.98 425.086C265.103 424.963 265.349 424.752 265.736 424.436C266.105 424.12 266.492 423.856 266.914 423.61C267.336 423.364 267.863 423.153 268.513 422.959C269.164 422.766 269.832 422.661 270.5 422.661C272.679 422.661 274.595 423.54 276.265 425.28C277.935 427.02 278.779 429.094 278.779 431.485ZM265.086 431.485C265.086 433.067 265.595 434.403 266.58 435.458C267.582 436.53 268.76 437.057 270.131 437.057C271.502 437.057 272.679 436.53 273.681 435.458C274.666 434.403 275.176 433.067 275.176 431.485C275.176 429.903 274.666 428.584 273.681 427.512C272.679 426.44 271.502 425.895 270.131 425.895C268.76 425.895 267.582 426.44 266.58 427.512C265.595 428.584 265.086 429.903 265.086 431.485ZM296.41 431.309C296.41 429.692 295.865 428.338 294.81 427.213C293.738 426.106 292.472 425.543 291.013 425.543C289.537 425.543 288.271 426.106 287.199 427.213C286.127 428.338 285.599 429.692 285.599 431.309C285.599 432.926 286.127 434.28 287.199 435.387C288.271 436.512 289.537 437.057 291.013 437.057C292.472 437.057 293.738 436.512 294.81 435.387C295.865 434.28 296.41 432.926 296.41 431.309ZM282.013 431.309C282.013 428.883 282.892 426.774 284.685 424.981C286.478 423.188 288.588 422.292 291.013 422.292C293.439 422.292 295.531 423.188 297.324 424.981C299.117 426.774 300.013 428.883 300.013 431.309C300.013 433.735 299.117 435.827 297.324 437.62C295.531 439.413 293.439 440.309 291.013 440.309C288.588 440.309 286.478 439.413 284.685 437.62C282.892 435.827 282.013 433.735 282.013 431.309ZM305.955 422.661L319.261 422.678V439.958H315.658V425.913H309.541V427.723C309.541 431.01 309.295 433.612 308.767 435.51C308.24 437.409 307.572 438.692 306.763 439.342C305.955 439.975 304.9 440.309 303.617 440.309C303.301 440.309 302.949 440.274 302.597 440.221C302.246 440.151 301.965 440.098 301.771 440.028L301.455 439.958V436.53C301.929 436.635 302.351 436.706 302.703 436.723C303.441 436.723 304.021 436.512 304.443 436.125C304.865 435.721 305.234 434.842 305.515 433.471C305.797 432.1 305.955 430.184 305.955 427.706V422.661ZM327.927 436.881H331.883C332.691 436.881 333.377 436.618 333.939 436.055C334.484 435.51 334.765 434.825 334.765 433.999C334.765 433.19 334.484 432.504 333.939 431.942C333.377 431.397 332.691 431.116 331.883 431.116H327.927V436.881ZM338.369 434.016C338.369 435.739 337.771 437.163 336.576 438.27C335.381 439.395 333.816 439.94 331.865 439.94H324.306V422.661H327.91V428.057H331.865C333.816 428.057 335.381 428.62 336.576 429.745C337.771 430.87 338.369 432.293 338.369 434.016Z" fill="#878787"/>
<path d="M117.132 469.095V483.14H113.528V465.861H129.19V483.14H125.587V469.095H117.132ZM143.411 483.492C142.76 483.492 142.128 483.421 141.53 483.263C140.915 483.123 140.387 482.929 139.966 482.701C139.526 482.472 139.139 482.244 138.805 481.998C138.471 481.751 138.225 481.558 138.085 481.417L137.839 481.154V490.699H134.235V465.861H137.839V467.847C137.997 467.689 138.225 467.478 138.524 467.197C138.823 466.933 139.456 466.582 140.44 466.142C141.407 465.72 142.391 465.492 143.411 465.492C145.696 465.492 147.665 466.371 149.352 468.128C151.04 469.886 151.884 471.996 151.884 474.492C151.884 476.988 151.04 479.115 149.352 480.873C147.665 482.63 145.696 483.492 143.411 483.492ZM143.059 468.744C141.688 468.744 140.475 469.306 139.421 470.431C138.366 471.556 137.839 472.927 137.839 474.509C137.839 476.091 138.366 477.445 139.421 478.57C140.475 479.695 141.688 480.257 143.059 480.257C144.43 480.257 145.643 479.695 146.698 478.57C147.753 477.445 148.28 476.091 148.28 474.509C148.28 472.927 147.753 471.556 146.698 470.431C145.643 469.306 144.43 468.744 143.059 468.744ZM168.425 465.861H171.659V483.14H168.055V471.802L159.055 483.14H155.821V465.861H159.425V477.199L168.425 465.861ZM192.559 474.14L199.028 483.14H194.897L190.397 476.847L185.897 483.14H181.749L188.235 474.14L182.294 465.861H186.425L190.397 471.433L194.352 465.861H198.501L192.559 474.14ZM215.235 474.509C215.235 472.892 214.69 471.539 213.635 470.414C212.563 469.306 211.298 468.744 209.839 468.744C208.362 468.744 207.096 469.306 206.024 470.414C204.952 471.539 204.425 472.892 204.425 474.509C204.425 476.126 204.952 477.48 206.024 478.587C207.096 479.712 208.362 480.257 209.839 480.257C211.298 480.257 212.563 479.712 213.635 478.587C214.69 477.48 215.235 476.126 215.235 474.509ZM200.839 474.509C200.839 472.083 201.718 469.974 203.51 468.181C205.303 466.388 207.413 465.492 209.839 465.492C212.264 465.492 214.356 466.388 216.149 468.181C217.942 469.974 218.839 472.083 218.839 474.509C218.839 476.935 217.942 479.027 216.149 480.82C214.356 482.613 212.264 483.509 209.839 483.509C207.413 483.509 205.303 482.613 203.51 480.82C201.718 479.027 200.839 476.935 200.839 474.509ZM220.28 479.906H221.528C221.598 479.835 221.686 479.73 221.827 479.572C221.968 479.414 222.196 479.062 222.53 478.5C222.864 477.955 223.163 477.357 223.409 476.724C223.655 476.091 223.884 475.248 224.094 474.193C224.305 473.156 224.411 472.066 224.411 470.906V465.861H237.014V479.906H239.528V487.464H235.942V483.14H223.884V487.464H220.28V479.906ZM228.014 469.095L227.997 470.906C227.997 472.066 227.909 473.156 227.716 474.175C227.522 475.212 227.276 476.074 226.995 476.742C226.714 477.41 226.415 477.99 226.134 478.482C225.852 478.974 225.606 479.326 225.43 479.537L225.132 479.906H233.411V469.095H228.014ZM246.753 480.082H250.708C251.516 480.082 252.202 479.818 252.764 479.255C253.309 478.71 253.591 478.025 253.591 477.199C253.591 476.39 253.309 475.705 252.764 475.142C252.202 474.597 251.516 474.316 250.708 474.316H246.753V480.082ZM257.194 477.216C257.194 478.939 256.596 480.363 255.401 481.47C254.206 482.595 252.641 483.14 250.69 483.14H243.132V465.861H246.735V471.257H250.69C252.641 471.257 254.206 471.82 255.401 472.945C256.596 474.07 257.194 475.494 257.194 477.216ZM278.428 474.685C278.428 477.111 277.567 479.185 275.862 480.908C274.157 482.63 272.135 483.492 269.78 483.492C267.073 483.492 264.911 482.525 263.259 480.591C261.606 478.658 260.78 475.845 260.78 472.171C260.78 467.97 261.571 464.824 263.118 462.732C264.682 460.623 266.897 459.339 269.78 458.865C271.063 458.654 272.206 458.373 273.225 458.056C274.245 457.722 274.948 457.441 275.335 457.23L275.915 456.878L277.532 459.585C277.462 459.673 277.303 459.814 277.093 459.99C276.882 460.166 276.143 460.482 274.895 460.939C273.647 461.396 272.065 461.783 270.149 462.099C268.497 462.363 267.161 463.048 266.159 464.156C265.139 465.246 264.559 466.722 264.384 468.585C264.419 468.515 264.507 468.41 264.63 468.287C264.753 468.164 264.999 467.953 265.385 467.636C265.755 467.32 266.141 467.056 266.563 466.81C266.985 466.564 267.512 466.353 268.163 466.16C268.813 465.966 269.481 465.861 270.149 465.861C272.329 465.861 274.245 466.74 275.915 468.48C277.585 470.22 278.428 472.294 278.428 474.685ZM264.735 474.685C264.735 476.267 265.245 477.603 266.229 478.658C267.231 479.73 268.409 480.257 269.78 480.257C271.151 480.257 272.329 479.73 273.331 478.658C274.315 477.603 274.825 476.267 274.825 474.685C274.825 473.103 274.315 471.785 273.331 470.712C272.329 469.64 271.151 469.095 269.78 469.095C268.409 469.095 267.231 469.64 266.229 470.712C265.245 471.785 264.735 473.103 264.735 474.685ZM298.749 475.757H285.231C285.425 476.988 286.022 478.042 287.042 478.921C288.061 479.818 289.257 480.257 290.645 480.257C291.665 480.257 292.596 480.029 293.475 479.572C294.354 479.115 294.969 478.675 295.321 478.236L295.866 477.568L298.204 479.906C298.134 480.011 298.028 480.134 297.887 480.31C297.747 480.486 297.43 480.767 296.938 481.171C296.464 481.576 295.954 481.927 295.409 482.244C294.882 482.56 294.178 482.841 293.317 483.105C292.456 483.369 291.559 483.492 290.645 483.492C288.202 483.492 286.093 482.595 284.317 480.802C282.542 479.009 281.645 476.847 281.645 474.316C281.645 471.89 282.524 469.816 284.247 468.093C285.969 466.371 288.044 465.492 290.469 465.492C292.895 465.492 294.899 466.3 296.516 467.917C298.134 469.535 298.942 471.539 298.942 473.964L298.749 475.757ZM290.452 468.568C289.151 468.568 288.061 468.955 287.182 469.728C286.303 470.501 285.706 471.486 285.389 472.699H295.391C295.18 471.486 294.635 470.501 293.757 469.728C292.878 468.955 291.788 468.568 290.452 468.568Z" fill="#878787"/>
<path fill-rule="evenodd" clip-rule="evenodd" d="M117.01 80.7002C113.01 80.7002 109.79 83.0401 107.65 86.1501C105.389 89.6249 104.216 93.6951 104.28 97.8402C104.217 101.988 105.39 106.061 107.65 109.54C109.78 112.65 113.04 115 117.01 115C120.98 115 124.22 112.65 126.34 109.54C128.541 106.035 129.709 101.979 129.709 97.8402C129.709 93.7009 128.541 89.6457 126.34 86.1403C124.21 83.0403 120.97 80.7002 117.01 80.7002ZM112.62 106.14C111.107 103.641 110.308 100.776 110.308 97.8552C110.308 94.9343 111.107 92.069 112.62 89.5702C114 87.5702 115.62 86.7402 117 86.7402C118.38 86.7402 120 87.5502 121.35 89.5602C122.864 92.0602 123.665 94.9273 123.665 97.8502C123.665 100.773 122.864 103.64 121.35 106.14C119.97 108.14 118.35 108.97 117 108.97C115.65 108.97 114.01 108.15 112.62 106.14ZM104.28 100.14C103.914 97.2574 102.691 94.5506 100.77 92.3702C99.8996 91.2685 98.7545 90.4152 97.4499 89.8961C96.1453 89.3771 94.7271 89.2105 93.3377 89.4132C91.9484 89.6159 90.6368 90.1807 89.5348 91.0508C88.4329 91.9209 87.5793 93.0658 87.06 94.3702C85.9173 96.7973 85.4773 99.4958 85.79 102.16C85.3435 101.506 84.8235 100.906 84.24 100.37C83.4364 99.5315 82.428 98.9167 81.3143 98.5867C80.2006 98.2566 79.0201 98.2226 77.8893 98.4882C76.7584 98.7537 75.7164 99.3096 74.866 100.101C74.0156 100.892 73.3862 101.891 73.04 103C72.3004 105.168 72.1897 107.501 72.7206 109.729C73.2515 111.957 74.4023 113.989 76.04 115.59C76.8457 116.428 77.8557 117.042 78.9706 117.372C80.0854 117.701 81.2669 117.735 82.3988 117.47C83.5307 117.204 84.5741 116.649 85.4264 115.859C86.2787 115.068 86.9106 114.069 87.26 112.96C87.7779 111.571 88.0059 110.091 87.93 108.61C88.356 109.322 88.8482 109.991 89.4 110.61C90.265 111.719 91.4069 112.579 92.7105 113.106C94.0142 113.632 95.4336 113.806 96.8258 113.609C98.2179 113.413 99.5337 112.853 100.64 111.985C101.747 111.118 102.606 109.975 103.13 108.67C104.364 106.018 104.771 103.057 104.3 100.17L104.28 100.14ZM94.2 95.3802C94.6164 95.3719 95.0284 95.466 95.3998 95.6543C95.7712 95.8426 96.0907 96.1194 96.33 96.4602C97.4271 97.7449 98.1226 99.3236 98.33 101C98.613 102.658 98.4008 104.362 97.7199 105.9C97.1199 107.1 96.43 107.46 95.98 107.52C95.5637 107.528 95.152 107.433 94.7807 107.245C94.4094 107.057 94.0899 106.78 93.8499 106.44C92.7977 105.133 92.117 103.567 91.8794 101.906C91.6419 100.244 91.8562 98.5499 92.5 97.0002C93.09 95.7902 93.7899 95.4302 94.2199 95.3702L94.2 95.3802ZM79.27 104.38C79.27 104.38 79.35 104.38 79.49 104.38C79.7478 104.478 79.9828 104.628 80.18 104.82C80.9464 105.582 81.4716 106.552 81.69 107.61C81.9706 108.647 81.9358 109.744 81.5899 110.76C81.498 111.014 81.3589 111.248 81.18 111.45C81.1269 111.507 81.0621 111.551 80.99 111.58C80.9139 111.594 80.836 111.594 80.76 111.58C80.5092 111.48 80.2813 111.331 80.0899 111.14C79.3259 110.377 78.8011 109.407 78.58 108.35C78.3021 107.314 78.3334 106.219 78.67 105.2C78.7616 104.944 78.9045 104.709 79.0899 104.51C79.2099 104.38 79.27 104.36 79.29 104.36L79.27 104.38ZM74.27 113.9C73.5007 111.886 72.1502 110.146 70.39 108.9C69.5188 108.221 68.4856 107.78 67.3922 107.621C66.2989 107.462 65.183 107.591 64.1545 107.995C63.1261 108.399 62.2206 109.063 61.5271 109.923C60.8337 110.784 60.3763 111.809 60.2 112.9C59.8028 115.014 60.0139 117.197 60.8087 119.196C61.6036 121.195 62.9495 122.926 64.69 124.19C65.5777 124.834 66.6091 125.252 67.6947 125.407C68.7804 125.562 69.8875 125.45 70.92 125.08C71.9426 124.656 72.8437 123.985 73.542 123.126C74.2403 122.267 74.7138 121.248 74.92 120.16C75.3355 118.049 75.1091 115.862 74.27 113.88V113.9ZM67.01 113.9C66.8295 113.753 66.6112 113.659 66.38 113.63C66.2211 113.81 66.12 114.033 66.0899 114.27C65.9333 115.19 66.048 116.135 66.42 116.99C66.7401 117.873 67.3098 118.645 68.06 119.21C68.2469 119.36 68.4722 119.453 68.71 119.48C68.8569 119.299 68.9504 119.081 68.98 118.85C69.1405 117.928 69.0293 116.98 68.6599 116.12C68.3352 115.234 67.7625 114.46 67.01 113.89V113.9ZM72.44 134.97C77.2747 130.373 83.1634 127.032 89.5899 125.24C95.5899 124.02 105.94 122.24 114.67 123.11C119.07 123.55 122.67 124.63 125.17 126.47C127.48 128.18 129 130.72 129 134.83C128.92 136.37 128.482 137.87 127.72 139.21C126.757 141.033 125.618 142.758 124.32 144.36C123.01 146.03 121.63 147.6 120.32 149.04L120.17 149.21C119.007 150.479 117.918 151.815 116.91 153.21C112.82 159.33 110 165.62 109.15 172.28C108.324 179.421 109.658 186.646 112.98 193.02C114.68 196.5 116.42 199.45 118.09 202.18L119.31 204.18C120.53 206.18 121.68 208.01 122.77 209.96C126.067 215.741 128.175 222.123 128.97 228.73C128.97 237.16 128.21 242.98 126.19 246.92C124.32 250.55 121.19 252.92 115.19 253.84C103.96 255.63 92.1 245.92 89.64 230.63C88.94 226.27 88.38 222.46 87.87 218.98C85.87 205.08 84.56 196.47 78.49 179.41C78.2864 178.723 78.0255 178.054 77.71 177.41C77.36 176.62 76.89 175.67 76.38 174.63L75.38 172.72C74.54 171.04 73.6 169.16 72.63 167.15C69.89 161.44 67.24 155.23 66.49 150.63C66.4941 150.607 66.4941 150.583 66.49 150.56C65.52 144.82 67.89 139.51 72.44 134.96V134.97ZM135.04 134.83C135.04 128.89 132.68 124.53 128.78 121.62C125.04 118.85 120.15 117.62 115.27 117.1C105.49 116.1 94.27 118.1 88.27 119.34L88.05 119.39C80.5873 121.459 73.7535 125.345 68.1599 130.7C62.7399 136.12 59.09 143.32 60.63 151.59C61.54 157.15 64.57 164.08 67.27 169.71C68.27 171.77 69.2699 173.71 70.0999 175.43C70.4299 176.08 70.74 176.7 71.02 177.27C71.53 178.27 71.95 179.17 72.26 179.85C72.42 180.19 72.53 180.46 72.61 180.67C72.651 180.757 72.6845 180.847 72.71 180.94C72.7359 181.052 72.7693 181.163 72.81 181.27C78.71 197.82 79.89 205.87 81.92 219.68C82.44 223.19 83.01 227.06 83.73 231.54C86.53 248.95 100.61 262.24 116.19 259.76C123.62 258.57 128.65 255.33 131.58 249.63C134.34 244.26 135.04 237.07 135.03 228.48C135.04 228.347 135.04 228.213 135.03 228.08C134.14 220.651 131.778 213.475 128.08 206.97C126.92 204.89 125.68 202.87 124.44 200.87L123.28 199C121.65 196.34 120.02 193.57 118.45 190.35C115.45 184.13 114.5 178.45 115.19 173.03C115.88 167.61 118.19 162.17 121.98 156.55C122.851 155.38 123.783 154.255 124.77 153.18L124.94 153C126.19 151.58 127.67 149.89 129.09 148.09C130.616 146.176 131.956 144.12 133.09 141.95C134.291 139.76 134.959 137.317 135.04 134.82V134.83ZM63.8 124.88C62.9614 123.081 61.5938 121.581 59.88 120.58C59.0943 120.081 58.2427 119.694 57.3499 119.43C56.2626 119.09 55.0943 119.111 54.02 119.49C53.1106 119.924 52.3167 120.567 51.7032 121.367C51.0897 122.166 50.674 123.099 50.49 124.09C50.0098 126.266 50.2016 128.536 51.04 130.6C51.4725 131.724 52.1749 132.724 53.0852 133.512C53.9956 134.301 55.0859 134.853 56.26 135.12C57.9341 135.519 59.6879 135.426 61.31 134.85C62.4087 134.395 63.2947 133.541 63.79 132.46C64.1578 131.651 64.3845 130.785 64.46 129.9C64.6244 128.205 64.3986 126.495 63.8 124.9V124.88ZM56.6599 128.38C56.2749 127.479 56.1704 126.482 56.36 125.52C56.4742 125.576 56.5844 125.639 56.69 125.71C57.0806 125.948 57.4401 126.233 57.76 126.56C57.9324 126.723 58.0776 126.912 58.19 127.12C58.4356 127.816 58.5244 128.557 58.45 129.29C58.1909 129.299 57.9317 129.272 57.68 129.21C57.4532 129.17 57.24 129.074 57.06 128.93C56.864 128.788 56.7116 128.594 56.62 128.37L56.6599 128.38ZM58.19 127.12L61 126L58.19 127.11V127.12ZM252.01 104.12C252.406 104.09 252.803 104.139 253.18 104.264C253.557 104.389 253.905 104.587 254.205 104.848C254.504 105.108 254.749 105.426 254.925 105.781C255.101 106.137 255.205 106.524 255.23 106.92V107.2C256.15 120.39 257.46 139.2 260.93 155.58C262.68 163.86 264.93 171.38 267.93 177.24C270.93 183.1 274.37 186.92 278.27 188.44C297.19 195.75 316.06 204.73 342.81 219.2C345.212 220.499 347.82 221.375 350.52 221.79C356.36 222.69 361.63 223.59 366.11 224.67C370.082 225.491 373.905 226.91 377.45 228.88C378.977 229.713 380.314 230.854 381.376 232.231C382.438 233.609 383.203 235.192 383.62 236.88C384.38 240.29 383.62 244.07 381.71 248.17C380.41 251.02 377.29 252.48 374.51 253.31C371.114 254.224 367.624 254.74 364.11 254.85C356.97 255.216 349.813 254.624 342.83 253.09C342.152 252.912 341.45 252.841 340.75 252.88C312.08 255.01 297.17 252.83 285.6 250.05C283.04 249.44 280.68 248.81 278.41 248.2C270.41 246.07 263.51 244.2 252.24 244.2C239.41 244.2 230.13 246.49 221.57 248.61C219.12 249.22 216.73 249.81 214.33 250.33C208.887 251.646 203.28 252.151 197.69 251.83C190.868 251.224 184.221 249.334 178.1 246.26C169.44 242.14 166.77 232.02 167.23 221.01C167.69 209.76 171.4 196.23 177.09 183.15C179.25 178.15 180.78 169.46 181.86 158.4C182.94 147.34 183.51 134.62 183.95 121.69C183.964 121.296 184.055 120.909 184.219 120.55C184.382 120.191 184.615 119.868 184.903 119.6C185.191 119.331 185.53 119.121 185.899 118.983C186.268 118.845 186.661 118.781 187.055 118.795C187.449 118.809 187.836 118.9 188.195 119.064C188.554 119.227 188.877 119.46 189.146 119.748C189.414 120.036 189.624 120.375 189.762 120.744C189.9 121.113 189.964 121.506 189.95 121.9C189.51 134.84 188.95 147.84 187.83 158.98C186.71 170.12 185.17 179.62 182.59 185.56C177.08 198.22 173.59 210.99 173.22 221.26C172.79 231.76 175.49 238.35 180.66 240.81C186.107 243.559 192.024 245.255 198.1 245.81C203.111 246.081 208.134 245.617 213.01 244.43C215.18 243.96 217.42 243.43 219.77 242.82C228.4 240.67 238.55 238.16 252.19 238.16C264.32 238.16 272.11 240.25 280.19 242.41C282.39 243 284.61 243.6 286.95 244.16C297.84 246.77 312.11 248.93 340.24 246.84C341.585 246.747 342.936 246.876 344.24 247.22C350.643 248.599 357.199 249.131 363.74 248.8C366.78 248.716 369.8 248.28 372.74 247.5C375.29 246.74 376.05 245.91 376.18 245.64C377.79 242.11 378.04 239.77 377.68 238.17C377.32 236.57 376.38 235.36 374.26 234.06C371.249 232.423 368.01 231.247 364.65 230.57C360.44 229.57 355.39 228.69 349.56 227.79C346.174 227.269 342.903 226.17 339.89 224.54C313.27 210.14 294.65 201.29 276.05 194.1C270.11 191.8 265.76 186.45 262.5 179.98C259.24 173.51 256.82 165.37 255.02 156.86C251.46 140.02 250.13 120.86 249.21 107.8V107.37C249.18 106.974 249.229 106.577 249.354 106.2C249.479 105.823 249.677 105.475 249.938 105.176C250.198 104.876 250.515 104.631 250.871 104.455C251.227 104.279 251.614 104.175 252.01 104.15V104.12ZM187.5 104.12C187.897 104.129 188.289 104.217 188.652 104.379C189.016 104.541 189.343 104.773 189.616 105.062C189.888 105.352 190.101 105.692 190.24 106.064C190.38 106.437 190.445 106.833 190.43 107.23C190.43 108.23 190.43 108.99 190.43 109.78C190.43 110.59 190.43 111.46 190.43 112.67C190.406 113.466 190.067 114.219 189.488 114.765C188.908 115.311 188.136 115.604 187.34 115.58C186.544 115.556 185.791 115.217 185.245 114.638C184.699 114.058 184.406 113.286 184.43 112.49C184.43 111.49 184.43 110.7 184.43 109.91C184.43 109.11 184.43 108.26 184.43 107.07C184.439 106.676 184.526 106.288 184.685 105.927C184.844 105.567 185.073 105.241 185.358 104.969C185.643 104.697 185.979 104.484 186.346 104.342C186.714 104.199 187.106 104.131 187.5 104.14V104.12ZM207.69 188.12C208.022 187.903 208.394 187.755 208.784 187.682C209.174 187.61 209.575 187.616 209.963 187.7C210.351 187.784 210.718 187.943 211.044 188.17C211.369 188.397 211.647 188.686 211.86 189.02C213.378 191.367 215.683 193.097 218.36 193.9C221.36 194.82 225.64 194.82 231.36 192.38C232.096 192.063 232.928 192.052 233.672 192.348C234.417 192.644 235.013 193.224 235.33 193.96C235.647 194.696 235.658 195.528 235.362 196.272C235.066 197.017 234.486 197.613 233.75 197.93C227.01 200.82 221.29 201.09 216.64 199.68C212.597 198.459 209.117 195.844 206.82 192.3C206.398 191.638 206.253 190.836 206.415 190.068C206.578 189.299 207.036 188.625 207.69 188.19V188.12Z" fill="#00A7B8"/>
<path fill-rule="evenodd" clip-rule="evenodd" d="M114.67 123.1C105.94 122.23 95.6702 124.01 89.5802 125.22C83.1577 127.019 77.2732 130.363 72.4402 134.96C67.8902 139.51 65.5102 144.82 66.5802 150.5C66.5802 150.5 66.5802 150.5 66.5802 150.57C67.3761 154.415 68.6108 158.156 70.2602 161.72C71.9602 165.66 73.9102 169.54 75.4902 172.72L75.6202 172.97C75.9795 173.686 76.0397 174.515 75.7875 175.276C75.5352 176.036 74.9913 176.665 74.2752 177.025C73.5591 177.384 72.7296 177.444 71.9691 177.192C71.2087 176.94 70.5795 176.396 70.2202 175.68L70.0702 175.38C68.5002 172.24 66.4902 168.23 64.7102 164.12C62.8708 160.115 61.5016 155.91 60.6302 151.59C59.0902 143.32 62.7402 136.12 68.1602 130.7C73.7538 125.344 80.5875 121.458 88.0502 119.39L88.2602 119.34C94.2602 118.11 105.48 116.13 115.26 117.1C120.14 117.59 125.03 118.85 128.77 121.62C132.67 124.53 135.03 128.89 135.03 134.83C134.954 137.321 134.292 139.76 133.1 141.95C131.964 144.118 130.624 146.174 129.1 148.09C127.68 149.89 126.2 151.58 124.95 153L124.78 153.18C123.793 154.254 122.862 155.379 121.99 156.55C121.77 156.878 121.488 157.16 121.159 157.379C120.83 157.598 120.461 157.75 120.074 157.827C119.686 157.903 119.287 157.903 118.899 157.825C118.512 157.748 118.143 157.595 117.815 157.375C117.487 157.155 117.205 156.872 116.986 156.543C116.767 156.215 116.615 155.846 116.538 155.458C116.461 155.07 116.462 154.671 116.539 154.284C116.617 153.896 116.77 153.528 116.99 153.2C117.999 151.804 119.087 150.469 120.25 149.2L120.4 149.03C121.68 147.59 123.06 146.03 124.4 144.35C125.705 142.75 126.847 141.025 127.81 139.2C128.572 137.859 129.01 136.359 129.09 134.82C129.09 130.71 127.57 128.17 125.26 126.46C122.7 124.62 119.07 123.54 114.67 123.1ZM282.48 243.01C282.097 242.908 281.697 242.883 281.304 242.935C280.911 242.988 280.532 243.118 280.188 243.317C279.845 243.516 279.545 243.781 279.304 244.096C279.063 244.412 278.887 244.771 278.785 245.155C278.683 245.538 278.658 245.938 278.711 246.331C278.764 246.724 278.893 247.103 279.092 247.446C279.292 247.79 279.556 248.09 279.872 248.331C280.187 248.572 280.547 248.748 280.93 248.85C293.21 252.1 307.98 255.29 340.75 252.85C341.447 252.812 342.145 252.882 342.82 253.06C345.95 253.805 349.133 254.306 352.34 254.56C353.136 254.63 353.927 254.381 354.539 253.868C355.151 253.355 355.535 252.62 355.605 251.825C355.675 251.029 355.427 250.238 354.914 249.626C354.401 249.013 353.666 248.63 352.87 248.56C349.983 248.339 347.118 247.894 344.3 247.23C342.996 246.889 341.646 246.757 340.3 246.84C308.24 249.22 294.14 246.09 282.48 243.01Z" fill="#F58233"/>
</svg>
