<svg width="435" height="544" viewBox="0 0 435 544" fill="none" xmlns="http://www.w3.org/2000/svg">
<path d="M384.85 2.66003H50C24.0426 2.66003 3 23.7027 3 49.66V494.19C3 520.147 24.0426 541.19 50 541.19H384.85C410.807 541.19 431.85 520.147 431.85 494.19V49.66C431.85 23.7027 410.807 2.66003 384.85 2.66003Z" stroke="#00A7B8" stroke-width="5" stroke-miterlimit="10"/>
<path d="M125.533 345.764C125.533 348.084 126.306 350.053 127.888 351.635C129.453 353.235 131.369 354.026 133.619 354.026C135.869 354.026 137.785 353.235 139.349 351.635C140.931 350.053 141.705 348.084 141.705 345.764C141.705 343.444 140.931 341.475 139.349 339.875C137.785 338.276 135.869 337.467 133.619 337.467C131.369 337.467 129.453 338.276 127.888 339.875C126.306 341.475 125.533 343.444 125.533 345.764ZM119.943 345.747C119.943 342.125 121.261 339.032 123.898 336.465C126.535 333.899 129.787 332.616 133.619 332.616C137.451 332.616 140.703 333.899 143.339 336.465C145.976 339.032 147.294 342.125 147.294 345.747C147.294 349.368 145.976 352.479 143.339 355.045C140.703 357.612 137.451 358.895 133.619 358.895C129.787 358.895 126.535 357.612 123.898 355.045C121.261 352.479 119.943 349.368 119.943 345.747ZM155.96 345.395C155.96 347.03 156.505 348.366 157.613 349.42C158.72 350.475 160.214 351.055 162.078 351.143V339.629C160.197 339.735 158.703 340.297 157.613 341.352C156.505 342.407 155.96 343.76 155.96 345.395ZM167.474 355.836V359.071H162.078V355.836C158.703 355.749 155.943 354.694 153.798 352.672C151.636 350.651 150.564 348.225 150.564 345.395C150.564 342.565 151.636 340.139 153.798 338.118C155.96 336.114 158.72 335.059 162.078 334.954V332.247H167.474V334.954C170.832 335.059 173.591 336.114 175.753 338.118C177.916 340.139 179.005 342.565 179.005 345.395C179.005 348.225 177.916 350.651 175.753 352.672C173.591 354.694 170.832 355.749 167.474 355.836ZM173.609 345.395C173.609 343.76 173.046 342.407 171.939 341.352C170.832 340.297 169.337 339.735 167.474 339.629V351.143C169.337 351.055 170.832 350.475 171.939 349.42C173.046 348.366 173.609 347.03 173.609 345.395ZM206.181 358.35H200.785V342.336L188.375 358.35H183.681V333.143H189.095V349.174L201.505 333.143H206.181V358.35ZM224.902 332.616C226.22 332.616 227.486 332.792 228.681 333.143C229.876 333.495 230.843 333.899 231.617 334.391C232.39 334.883 233.058 335.375 233.656 335.868C234.253 336.36 234.675 336.782 234.939 337.116L235.343 337.643L231.916 341.071C231.845 340.983 231.74 340.86 231.617 340.684C231.494 340.508 231.212 340.227 230.791 339.805C230.369 339.401 229.894 339.049 229.402 338.733C228.892 338.417 228.224 338.135 227.416 337.872C226.589 337.608 225.746 337.467 224.902 337.467C222.546 337.467 220.578 338.258 218.996 339.84C217.414 341.422 216.623 343.391 216.623 345.747C216.623 348.102 217.414 350.071 218.996 351.653C220.578 353.235 222.546 354.026 224.902 354.026C225.816 354.026 226.677 353.903 227.521 353.657C228.365 353.411 229.05 353.112 229.613 352.76C230.158 352.409 230.65 352.057 231.072 351.706C231.494 351.354 231.792 351.055 231.986 350.792L232.267 350.422L235.519 353.85C235.414 353.991 235.273 354.184 235.08 354.413C234.886 354.641 234.464 355.045 233.796 355.625C233.128 356.206 232.425 356.715 231.669 357.155C230.914 357.594 229.929 357.999 228.699 358.35C227.468 358.719 226.203 358.895 224.902 358.895C221.052 358.895 217.8 357.612 215.164 355.045C212.527 352.479 211.208 349.368 211.208 345.747C211.208 342.125 212.527 339.032 215.164 336.465C217.8 333.899 221.052 332.616 224.902 332.616ZM261.429 333.143V358.35H256.033V348.084H245.24V358.35H239.826V333.143H245.24V343.233H256.033V333.143H261.429ZM295.46 333.143V358.35H290.064V333.143H295.46ZM278.181 358.35H267.916V333.143H273.33V341.422H278.181C280.765 341.422 282.91 342.249 284.615 343.866C286.32 345.483 287.181 347.504 287.181 349.895C287.181 352.303 286.32 354.307 284.615 355.924C282.91 357.542 280.765 358.35 278.181 358.35ZM273.33 353.499H278.005C279.078 353.499 279.974 353.165 280.695 352.461C281.416 351.758 281.785 350.915 281.785 349.895C281.785 348.893 281.416 348.049 280.695 347.346C279.974 346.643 279.078 346.292 278.005 346.292H273.33V353.499ZM313.109 326.85C313.724 326.85 314.234 326.657 314.656 326.235C315.06 325.831 315.271 325.321 315.271 324.706H318.875C318.875 326.323 318.33 327.659 317.275 328.713C316.203 329.768 314.814 330.295 313.109 330.295C311.404 330.295 310.015 329.768 308.96 328.713C307.888 327.659 307.361 326.323 307.361 324.706H310.947C310.947 325.321 311.14 325.831 311.562 326.235C311.966 326.657 312.476 326.85 313.109 326.85ZM324.447 358.35H319.05V342.336L306.64 358.35H301.947V333.143H307.361V349.174L319.771 333.143H324.447V358.35Z" fill="#1D1D1B"/>
<path d="M126.256 375.816C127.575 375.816 128.84 375.991 130.036 376.343C131.231 376.695 132.198 377.099 132.971 377.591C133.745 378.083 134.413 378.575 135.01 379.068C135.608 379.56 136.03 379.982 136.293 380.316L136.698 380.843L133.27 384.271C133.2 384.183 133.094 384.06 132.971 383.884C132.848 383.708 132.567 383.427 132.145 383.005C131.723 382.601 131.249 382.249 130.756 381.933C130.247 381.616 129.579 381.335 128.77 381.072C127.944 380.808 127.1 380.667 126.256 380.667C123.901 380.667 121.932 381.458 120.35 383.04C118.768 384.622 117.977 386.591 117.977 388.947C117.977 391.302 118.768 393.271 120.35 394.853C121.932 396.435 123.901 397.226 126.256 397.226C127.17 397.226 128.032 397.103 128.875 396.857C129.719 396.611 130.405 396.312 130.967 395.96C131.512 395.609 132.004 395.257 132.426 394.906C132.848 394.554 133.147 394.255 133.34 393.991L133.622 393.622L136.874 397.05C136.768 397.191 136.627 397.384 136.434 397.613C136.241 397.841 135.819 398.245 135.151 398.825C134.483 399.406 133.78 399.915 133.024 400.355C132.268 400.794 131.284 401.198 130.053 401.55C128.823 401.919 127.557 402.095 126.256 402.095C122.407 402.095 119.155 400.812 116.518 398.245C113.881 395.679 112.563 392.568 112.563 388.947C112.563 385.325 113.881 382.232 116.518 379.665C119.155 377.099 122.407 375.816 126.256 375.816ZM144.59 388.964C144.59 391.284 145.364 393.253 146.946 394.835C148.51 396.435 150.426 397.226 152.676 397.226C154.926 397.226 156.842 396.435 158.407 394.835C159.989 393.253 160.762 391.284 160.762 388.964C160.762 386.644 159.989 384.675 158.407 383.075C156.842 381.476 154.926 380.667 152.676 380.667C150.426 380.667 148.51 381.476 146.946 383.075C145.364 384.675 144.59 386.644 144.59 388.964ZM139 388.947C139 385.325 140.319 382.232 142.956 379.665C145.592 377.099 148.844 375.816 152.676 375.816C156.508 375.816 159.76 377.099 162.397 379.665C165.034 382.232 166.352 385.325 166.352 388.947C166.352 392.568 165.034 395.679 162.397 398.245C159.76 400.812 156.508 402.095 152.676 402.095C148.844 402.095 145.592 400.812 142.956 398.245C140.319 395.679 139 392.568 139 388.947ZM167.459 376.343H187.252V381.212H180.063V401.55H174.667V381.212H167.459V376.343ZM191.208 376.343L201.825 376.361C204.409 376.361 206.553 377.169 208.258 378.786C209.963 380.404 210.825 382.425 210.825 384.816C210.825 387.206 209.963 389.228 208.276 390.845C206.571 392.462 204.426 393.271 201.825 393.271H196.622V401.55H191.208V376.343ZM201.649 381.23H196.622V388.419H201.649C202.721 388.419 203.618 388.068 204.338 387.382C205.059 386.679 205.428 385.835 205.428 384.833C205.428 383.814 205.059 382.97 204.338 382.267C203.618 381.564 202.721 381.23 201.649 381.23ZM217.997 376.343L223.92 388.226L228.965 376.343H234.731L225.907 395.257C224.887 397.437 223.674 399.089 222.268 400.214C220.879 401.339 219.157 401.902 217.083 401.902C216.608 401.902 216.133 401.866 215.641 401.761C215.167 401.673 214.815 401.585 214.569 401.48L214.2 401.374V396.698C214.797 396.945 215.518 397.05 216.362 397.05C218.172 397.05 219.561 396.224 220.528 394.536L221.249 393.271L212.249 376.343H217.997ZM233.29 396.698H234.731C234.819 396.611 234.959 396.47 235.135 396.259C235.311 396.048 235.645 395.591 236.102 394.853C236.559 394.115 236.946 393.306 237.297 392.427C237.649 391.548 237.965 390.37 238.247 388.859C238.528 387.365 238.686 385.782 238.686 384.095V376.343H256.141V396.698H259.217V406.771H253.803V401.55H238.686V406.771H233.29V396.698ZM244.083 384.095C244.083 385.782 243.942 387.365 243.661 388.841C243.379 390.335 243.063 391.531 242.676 392.445C242.29 393.359 241.92 394.15 241.534 394.818C241.147 395.486 240.813 395.978 240.567 396.259L240.127 396.698H250.745V381.212H244.083V384.095ZM284.952 376.343V401.55H279.555V391.284H268.762V401.55H263.348V376.343H268.762V386.433H279.555V376.343H284.952ZM313.938 401.55H308.542V385.536L296.131 401.55H291.438V376.343H296.852V392.374L309.262 376.343H313.938V401.55ZM325.821 376.343V387.329L335.717 376.343H342.01L332.659 386.784L342.731 401.55H336.438L329.055 390.757L325.821 394.343V401.55H320.407V376.343H325.821Z" fill="#1D1D1B"/>
<path d="M96.3943 440.775L106.115 428.523H109.543V453.73H105.588V435.379L96.3943 446.892L87.2185 435.379V453.73H83.2634V428.523H86.6736L96.3943 440.775ZM129.336 453.73L125.732 453.748V451.955C125.679 451.99 125.592 452.078 125.486 452.183C125.381 452.289 125.152 452.447 124.818 452.693C124.484 452.939 124.133 453.15 123.746 453.343C123.359 453.537 122.867 453.713 122.287 453.871C121.689 454.011 121.109 454.099 120.511 454.099C118.754 454.099 117.295 453.589 116.135 452.57C114.974 451.55 114.394 450.373 114.394 449.072C114.394 447.648 114.834 446.453 115.73 445.486C116.627 444.537 117.857 443.922 119.422 443.658L125.732 442.568C125.732 441.654 125.381 440.898 124.713 440.265C124.045 439.65 123.183 439.334 122.129 439.334C121.215 439.334 120.371 439.527 119.633 439.914C118.894 440.3 118.385 440.67 118.103 441.056L117.629 441.672L115.291 439.334C115.361 439.246 115.449 439.123 115.572 438.982C115.695 438.841 115.976 438.578 116.398 438.209C116.82 437.839 117.277 437.505 117.769 437.207C118.244 436.925 118.877 436.662 119.668 436.433C120.459 436.205 121.285 436.082 122.129 436.082C124.238 436.082 125.961 436.714 127.314 437.963C128.65 439.211 129.336 440.74 129.336 442.568V453.73ZM121.056 450.865C122.515 450.865 123.658 450.425 124.484 449.547C125.31 448.668 125.732 447.437 125.732 445.82V445.468L120.142 446.365C119.492 446.47 118.965 446.734 118.578 447.156C118.174 447.56 117.98 448.07 117.98 448.685C117.98 449.265 118.244 449.775 118.806 450.214C119.369 450.636 120.107 450.865 121.056 450.865ZM136.367 436.451L149.674 436.468V453.748H146.07V439.703H139.953V441.513C139.953 444.8 139.707 447.402 139.179 449.3C138.652 451.199 137.984 452.482 137.176 453.132C136.367 453.765 135.312 454.099 134.029 454.099C133.713 454.099 133.361 454.064 133.01 454.011C132.658 453.941 132.377 453.888 132.183 453.818L131.867 453.748V450.32C132.342 450.425 132.763 450.496 133.115 450.513C133.853 450.513 134.433 450.302 134.855 449.916C135.277 449.511 135.646 448.632 135.927 447.261C136.209 445.89 136.367 443.974 136.367 441.496V436.451ZM168.06 445.099C168.06 443.482 167.515 442.129 166.461 441.004C165.388 439.896 164.123 439.334 162.664 439.334C161.187 439.334 159.922 439.896 158.849 441.004C157.777 442.129 157.25 443.482 157.25 445.099C157.25 446.716 157.777 448.07 158.849 449.177C159.922 450.302 161.187 450.847 162.664 450.847C164.123 450.847 165.388 450.302 166.461 449.177C167.515 448.07 168.06 446.716 168.06 445.099ZM153.664 445.099C153.664 442.673 154.543 440.564 156.336 438.771C158.129 436.978 160.238 436.082 162.664 436.082C165.09 436.082 167.181 436.978 168.974 438.771C170.767 440.564 171.664 442.673 171.664 445.099C171.664 447.525 170.767 449.617 168.974 451.41C167.181 453.203 165.09 454.099 162.664 454.099C160.238 454.099 158.129 453.203 156.336 451.41C154.543 449.617 153.664 447.525 153.664 445.099ZM179.222 439.685V453.73H175.619V436.451H191.281V453.73H187.677V439.685H179.222ZM209.65 445.099C209.65 443.482 209.105 442.129 208.051 441.004C206.978 439.896 205.713 439.334 204.254 439.334C202.777 439.334 201.511 439.896 200.439 441.004C199.367 442.129 198.84 443.482 198.84 445.099C198.84 446.716 199.367 448.07 200.439 449.177C201.511 450.302 202.777 450.847 204.254 450.847C205.713 450.847 206.978 450.302 208.051 449.177C209.105 448.07 209.65 446.716 209.65 445.099ZM195.254 445.099C195.254 442.673 196.133 440.564 197.926 438.771C199.719 436.978 201.828 436.082 204.254 436.082C206.679 436.082 208.771 436.978 210.564 438.771C212.357 440.564 213.254 442.673 213.254 445.099C213.254 447.525 212.357 449.617 210.564 451.41C208.771 453.203 206.679 454.099 204.254 454.099C201.828 454.099 199.719 453.203 197.926 451.41C196.133 449.617 195.254 447.525 195.254 445.099ZM214.695 450.496H215.943C216.013 450.425 216.101 450.32 216.242 450.162C216.383 450.004 216.611 449.652 216.945 449.089C217.279 448.545 217.578 447.947 217.824 447.314C218.07 446.681 218.299 445.838 218.51 444.783C218.72 443.746 218.826 442.656 218.826 441.496V436.451H231.429V450.496H233.943V458.054H230.357V453.73H218.299V458.054H214.695V450.496ZM222.429 439.685L222.412 441.496C222.412 442.656 222.324 443.746 222.131 444.765C221.937 445.802 221.691 446.664 221.41 447.332C221.129 448 220.83 448.58 220.549 449.072C220.267 449.564 220.021 449.916 219.845 450.127L219.547 450.496H227.826V439.685H222.429ZM237.564 436.451L245.844 436.468C247.496 436.468 248.797 436.89 249.781 437.734C250.748 438.578 251.24 439.668 251.24 440.968C251.24 441.707 251.064 442.375 250.748 442.972C250.431 443.57 250.097 443.992 249.763 444.238L249.271 444.572C249.342 444.589 249.429 444.625 249.57 444.677C249.693 444.748 249.922 444.888 250.273 445.134C250.607 445.38 250.906 445.644 251.152 445.925C251.398 446.207 251.627 446.593 251.838 447.086C252.049 447.578 252.154 448.123 252.154 448.685C252.154 450.179 251.609 451.392 250.554 452.324C249.5 453.273 248.041 453.73 246.213 453.73H237.564V436.451ZM246.213 446.013H241.168V450.689H246.213C246.916 450.689 247.496 450.478 247.918 450.056C248.34 449.634 248.551 449.054 248.551 448.351C248.551 447.701 248.322 447.156 247.9 446.699C247.461 446.242 246.898 446.013 246.213 446.013ZM247.654 441.32C247.654 440.757 247.478 440.318 247.162 440.002C246.828 439.685 246.388 439.527 245.844 439.527H241.168V443.13H245.844C246.388 443.13 246.828 442.955 247.162 442.638C247.478 442.322 247.654 441.882 247.654 441.32ZM268.695 436.451H271.929V453.73H268.326V442.392L259.326 453.73H256.092V436.451H259.695V447.789L268.695 436.451ZM289.929 443.464L296.592 436.451H300.916L294.254 443.658L301.461 453.73H297.488L291.916 445.996L289.929 448.158V453.73H286.344V448.158L284.357 445.996L278.785 453.73H274.812L282.019 443.658L275.357 436.451H279.681L286.344 443.464V436.451H289.929V443.464ZM307.929 446.523V453.73H304.326V436.451H307.929V443.289H316.385V436.451H319.988V453.73H316.385V446.523H307.929ZM328.636 450.672H332.416C333.224 450.672 333.91 450.408 334.472 449.845C335.017 449.3 335.299 448.615 335.299 447.789C335.299 446.98 335.017 446.295 334.472 445.732C333.91 445.187 333.224 444.906 332.416 444.906H328.636V450.672ZM338.902 447.806C338.902 449.529 338.304 450.953 337.109 452.06C335.914 453.185 334.349 453.73 332.398 453.73H325.015V436.451H328.619V441.847H332.398C334.349 441.847 335.914 442.41 337.109 443.535C338.304 444.66 338.902 446.084 338.902 447.806ZM345.019 436.468V453.748H341.416V436.468H345.019ZM362.668 436.451H365.902V453.73H362.299V442.392L353.299 453.73H350.064V436.451H353.668V447.789L362.668 436.451ZM357.974 431.054C358.695 431.054 359.293 430.826 359.785 430.334C360.26 429.859 360.506 429.261 360.506 428.523H363.213C363.213 429.964 362.72 431.177 361.736 432.127C360.752 433.093 359.504 433.568 357.992 433.568C356.48 433.568 355.232 433.093 354.248 432.127C353.263 431.177 352.771 429.964 352.771 428.523H355.461C355.461 429.244 355.689 429.841 356.181 430.334C356.656 430.826 357.254 431.054 357.974 431.054Z" fill="#878787"/>
<path d="M136.622 488.299C136.622 486.682 136.077 485.328 135.022 484.203C133.95 483.096 132.685 482.534 131.226 482.534C129.749 482.534 128.483 483.096 127.411 484.203C126.339 485.328 125.812 486.682 125.812 488.299C125.812 489.916 126.339 491.27 127.411 492.377C128.483 493.502 129.749 494.047 131.226 494.047C132.685 494.047 133.95 493.502 135.022 492.377C136.077 491.27 136.622 489.916 136.622 488.299ZM122.226 488.299C122.226 485.873 123.104 483.764 124.897 481.971C126.69 480.178 128.8 479.282 131.226 479.282C133.651 479.282 135.743 480.178 137.536 481.971C139.329 483.764 140.226 485.873 140.226 488.299C140.226 490.725 139.329 492.817 137.536 494.61C135.743 496.403 133.651 497.299 131.226 497.299C128.8 497.299 126.69 496.403 124.897 494.61C123.104 492.817 122.226 490.725 122.226 488.299ZM161.46 488.475C161.46 490.901 160.599 492.975 158.894 494.698C157.188 496.42 155.167 497.282 152.812 497.282C150.104 497.282 147.942 496.315 146.29 494.381C144.638 492.448 143.812 489.635 143.812 485.961C143.812 481.76 144.603 478.614 146.149 476.522C147.714 474.412 149.929 473.129 152.812 472.655C154.095 472.444 155.237 472.162 156.257 471.846C157.276 471.512 157.979 471.231 158.366 471.02L158.946 470.668L160.563 473.375C160.493 473.463 160.335 473.604 160.124 473.78C159.913 473.955 159.175 474.272 157.927 474.729C156.679 475.186 155.097 475.573 153.181 475.889C151.528 476.153 150.192 476.838 149.19 477.946C148.171 479.036 147.591 480.512 147.415 482.375C147.45 482.305 147.538 482.2 147.661 482.077C147.784 481.953 148.03 481.743 148.417 481.426C148.786 481.11 149.173 480.846 149.595 480.6C150.017 480.354 150.544 480.143 151.194 479.95C151.845 479.756 152.513 479.651 153.181 479.651C155.36 479.651 157.276 480.53 158.946 482.27C160.616 484.01 161.46 486.084 161.46 488.475ZM147.767 488.475C147.767 490.057 148.276 491.393 149.261 492.448C150.263 493.52 151.44 494.047 152.812 494.047C154.183 494.047 155.36 493.52 156.362 492.448C157.347 491.393 157.856 490.057 157.856 488.475C157.856 486.893 157.347 485.575 156.362 484.502C155.36 483.43 154.183 482.885 152.812 482.885C151.44 482.885 150.263 483.43 149.261 484.502C148.276 485.575 147.767 486.893 147.767 488.475ZM174.942 497.282C174.292 497.282 173.659 497.211 173.062 497.053C172.446 496.912 171.919 496.719 171.497 496.491C171.058 496.262 170.671 496.034 170.337 495.787C170.003 495.541 169.757 495.348 169.616 495.207L169.37 494.944V504.489H165.767V479.651H169.37V481.637C169.528 481.479 169.757 481.268 170.056 480.987C170.354 480.723 170.987 480.371 171.972 479.932C172.938 479.51 173.923 479.282 174.942 479.282C177.228 479.282 179.196 480.161 180.884 481.918C182.571 483.676 183.415 485.786 183.415 488.282C183.415 490.778 182.571 492.905 180.884 494.662C179.196 496.42 177.228 497.282 174.942 497.282ZM174.591 482.534C173.22 482.534 172.007 483.096 170.952 484.221C169.897 485.346 169.37 486.717 169.37 488.299C169.37 489.881 169.897 491.235 170.952 492.36C172.007 493.485 173.22 494.047 174.591 494.047C175.962 494.047 177.175 493.485 178.229 492.36C179.284 491.235 179.812 489.881 179.812 488.299C179.812 486.717 179.284 485.346 178.229 484.221C177.175 483.096 175.962 482.534 174.591 482.534ZM201.222 496.93L197.618 496.948V495.155C197.565 495.19 197.478 495.278 197.372 495.383C197.267 495.489 197.038 495.647 196.704 495.893C196.37 496.139 196.019 496.35 195.632 496.543C195.245 496.737 194.753 496.912 194.173 497.071C193.575 497.211 192.995 497.299 192.397 497.299C190.64 497.299 189.181 496.789 188.021 495.77C186.86 494.75 186.28 493.573 186.28 492.272C186.28 490.848 186.72 489.653 187.616 488.686C188.513 487.737 189.743 487.121 191.308 486.858L197.618 485.768C197.618 484.854 197.267 484.098 196.599 483.465C195.931 482.85 195.069 482.534 194.015 482.534C193.101 482.534 192.257 482.727 191.519 483.114C190.78 483.5 190.271 483.87 189.989 484.256L189.515 484.871L187.177 482.534C187.247 482.446 187.335 482.323 187.458 482.182C187.581 482.041 187.862 481.778 188.284 481.409C188.706 481.039 189.163 480.705 189.655 480.407C190.13 480.125 190.763 479.862 191.554 479.633C192.345 479.405 193.171 479.282 194.015 479.282C196.124 479.282 197.847 479.914 199.2 481.162C200.536 482.411 201.222 483.94 201.222 485.768V496.93ZM192.942 494.065C194.401 494.065 195.544 493.625 196.37 492.746C197.196 491.868 197.618 490.637 197.618 489.02V488.668L192.028 489.565C191.378 489.67 190.851 489.934 190.464 490.356C190.06 490.76 189.866 491.27 189.866 491.885C189.866 492.465 190.13 492.975 190.692 493.414C191.255 493.836 191.993 494.065 192.942 494.065ZM217.78 484.151C217.78 484.959 217.552 485.662 217.112 486.26C216.673 486.858 216.216 487.245 215.759 487.438L215.073 487.772C215.179 487.789 215.302 487.825 215.46 487.895C215.618 487.948 215.882 488.088 216.269 488.299C216.655 488.51 216.989 488.774 217.288 489.073C217.587 489.371 217.868 489.776 218.114 490.303C218.36 490.83 218.483 491.428 218.483 492.078C218.483 493.52 217.851 494.75 216.567 495.77C215.284 496.789 213.526 497.282 211.294 497.282C210.45 497.282 209.642 497.176 208.868 496.965C208.095 496.754 207.444 496.508 206.935 496.209C206.407 495.928 205.968 495.629 205.581 495.33C205.194 495.032 204.896 494.768 204.72 494.557L204.474 494.223L206.812 491.885C206.952 492.061 207.128 492.254 207.374 492.5C207.62 492.746 208.13 493.08 208.921 493.467C209.712 493.854 210.503 494.047 211.312 494.047C212.507 494.047 213.403 493.836 214.001 493.379C214.599 492.94 214.915 492.377 214.915 491.709C214.915 491.041 214.599 490.496 214.001 490.039C213.403 489.6 212.507 489.371 211.312 489.371H209.325V486.489H211.312C212.243 486.489 212.964 486.313 213.456 485.944C213.948 485.575 214.194 485.1 214.194 484.52C214.194 483.94 213.948 483.465 213.456 483.096C212.964 482.727 212.243 482.534 211.312 482.534C210.608 482.534 209.94 482.674 209.272 482.938C208.604 483.202 208.13 483.465 207.813 483.746L207.356 484.151L205.001 481.813C205.159 481.637 205.405 481.391 205.722 481.11C206.038 480.828 206.741 480.459 207.831 479.985C208.921 479.528 210.081 479.282 211.312 479.282C213.298 479.282 214.88 479.774 216.04 480.723C217.2 481.69 217.78 482.832 217.78 484.151ZM242.636 486.664L249.298 479.651H253.622L246.96 486.858L254.167 496.93H250.194L244.622 489.196L242.636 491.358V496.93H239.05V491.358L237.063 489.196L231.491 496.93H227.519L234.726 486.858L228.063 479.651H232.388L239.05 486.664V479.651H242.636V486.664ZM269.636 479.651H272.87V496.93H269.267V485.592L260.267 496.93H257.032V479.651H260.636V490.989L269.636 479.651ZM289.429 484.151C289.429 484.959 289.2 485.662 288.761 486.26C288.321 486.858 287.864 487.245 287.407 487.438L286.722 487.772C286.827 487.789 286.95 487.825 287.108 487.895C287.267 487.948 287.53 488.088 287.917 488.299C288.304 488.51 288.638 488.774 288.937 489.073C289.235 489.371 289.517 489.776 289.763 490.303C290.009 490.83 290.132 491.428 290.132 492.078C290.132 493.52 289.499 494.75 288.216 495.77C286.933 496.789 285.175 497.282 282.942 497.282C282.099 497.282 281.29 497.176 280.517 496.965C279.743 496.754 279.093 496.508 278.583 496.209C278.056 495.928 277.616 495.629 277.229 495.33C276.843 495.032 276.544 494.768 276.368 494.557L276.122 494.223L278.46 491.885C278.601 492.061 278.776 492.254 279.022 492.5C279.269 492.746 279.778 493.08 280.569 493.467C281.36 493.854 282.151 494.047 282.96 494.047C284.155 494.047 285.052 493.836 285.649 493.379C286.247 492.94 286.563 492.377 286.563 491.709C286.563 491.041 286.247 490.496 285.649 490.039C285.052 489.6 284.155 489.371 282.96 489.371H280.974V486.489H282.96C283.892 486.489 284.612 486.313 285.104 485.944C285.597 485.575 285.843 485.1 285.843 484.52C285.843 483.94 285.597 483.465 285.104 483.096C284.612 482.727 283.892 482.534 282.96 482.534C282.257 482.534 281.589 482.674 280.921 482.938C280.253 483.202 279.778 483.465 279.462 483.746L279.005 484.151L276.649 481.813C276.808 481.637 277.054 481.391 277.37 481.11C277.687 480.828 278.39 480.459 279.479 479.985C280.569 479.528 281.729 479.282 282.96 479.282C284.946 479.282 286.528 479.774 287.688 480.723C288.849 481.69 289.429 482.832 289.429 484.151ZM297.726 489.723V496.93H294.122V479.651H297.726V486.489H306.181V479.651H309.784V496.93H306.181V489.723H297.726ZM327.433 479.651H330.667V496.93H327.063V485.592L318.063 496.93H314.829V479.651H318.433V490.989L327.433 479.651Z" fill="#878787"/>
<path fill-rule="evenodd" clip-rule="evenodd" d="M190.19 81.21C198.59 79.28 211.01 76.8801 220.19 76.8801C229.37 76.8801 241.79 79.28 250.19 81.21C252.005 81.6465 253.637 82.6454 254.851 84.0641C256.065 85.4829 256.799 87.2489 256.95 89.11L264.86 170.87C265.109 173.123 264.498 175.387 263.15 177.209C261.803 179.031 259.817 180.278 257.59 180.7C250.73 181.94 241.7 183.4 233.04 184.26C228.49 184.7 224.04 184.98 220.18 184.98C216.32 184.98 211.88 184.7 207.33 184.26C198.66 183.4 189.64 181.94 182.77 180.7C180.545 180.276 178.562 179.028 177.216 177.206C175.87 175.384 175.261 173.121 175.51 170.87L183.42 89.11C183.571 87.2476 184.307 85.4806 185.523 84.0617C186.739 82.6428 188.373 81.6447 190.19 81.21ZM220.19 69.27C210.07 69.27 196.92 71.87 188.5 73.79C185.128 74.5835 182.092 76.4193 179.823 79.0366C177.554 81.6539 176.167 84.9197 175.86 88.3701L167.95 170.13C167.531 174.274 168.684 178.424 171.181 181.758C173.677 185.092 177.335 187.366 181.43 188.13C187.5 189.23 195.32 190.51 203.17 191.41V200.51C194.82 199.71 186.33 198.51 179.41 197.44C175.697 196.856 171.895 197.311 168.425 198.755C164.955 200.199 161.953 202.575 159.75 205.62L151.83 202.02C150.183 201.271 148.787 200.064 147.808 198.542C146.829 197.021 146.309 195.249 146.31 193.44V172.8H152.42C153.395 172.75 154.314 172.327 154.987 171.619C155.66 170.911 156.035 169.972 156.035 168.995C156.035 168.018 155.66 167.079 154.987 166.371C154.314 165.663 153.395 165.24 152.42 165.19H132.58C131.605 165.24 130.686 165.663 130.013 166.371C129.34 167.079 128.965 168.018 128.965 168.995C128.965 169.972 129.34 170.911 130.013 171.619C130.686 172.327 131.605 172.75 132.58 172.8H138.69V193.54C138.688 196.812 139.631 200.015 141.405 202.764C143.179 205.514 145.708 207.693 148.69 209.04L156.61 212.64C156.153 214.597 156.145 216.632 156.585 218.593C157.026 220.554 157.904 222.39 159.155 223.963C160.405 225.536 161.995 226.807 163.805 227.679C165.616 228.551 167.6 229.003 169.61 229H216.41V251.17C184.49 251.46 168.83 255.43 161.09 259.93C156.96 262.33 154.82 265.05 153.94 267.68C150.638 267.737 147.468 268.984 145.012 271.191C142.556 273.398 140.979 276.417 140.571 279.694C140.163 282.971 140.952 286.285 142.792 289.027C144.631 291.769 147.399 293.755 150.586 294.62C153.773 295.484 157.164 295.17 160.138 293.734C163.111 292.298 165.467 289.837 166.771 286.804C168.076 283.77 168.242 280.368 167.238 277.222C166.235 274.076 164.13 271.398 161.31 269.68C162.189 268.294 163.435 267.179 164.91 266.46C170.85 263.01 184.79 259.03 216.41 258.73V268.17C213.234 269.087 210.495 271.12 208.699 273.895C206.902 276.67 206.167 280 206.63 283.273C207.093 286.547 208.722 289.543 211.218 291.71C213.714 293.878 216.909 295.072 220.215 295.072C223.521 295.072 226.716 293.878 229.212 291.71C231.707 289.543 233.337 286.547 233.8 283.273C234.263 280 233.528 276.67 231.731 273.895C229.935 271.12 227.196 269.087 224.02 268.17V258.73C255.64 259.03 269.58 263.01 275.51 266.46C276.989 267.177 278.239 268.292 279.12 269.68C276.295 271.4 274.185 274.081 273.179 277.232C272.174 280.383 272.339 283.791 273.645 286.829C274.95 289.868 277.309 292.333 280.287 293.771C283.266 295.21 286.663 295.525 289.855 294.659C293.047 293.793 295.819 291.803 297.661 289.057C299.504 286.31 300.293 282.991 299.883 279.709C299.474 276.427 297.894 273.403 295.433 271.193C292.973 268.983 289.797 267.736 286.49 267.68C285.61 265.05 283.49 262.33 279.34 259.93C271.6 255.43 255.94 251.46 224.02 251.17V229H270.82C272.829 229.001 274.812 228.548 276.622 227.675C278.431 226.802 280.021 225.532 281.27 223.959C282.52 222.386 283.399 220.551 283.84 218.591C284.282 216.631 284.275 214.597 283.82 212.64L291.73 209.04C294.712 207.693 297.241 205.514 299.015 202.764C300.789 200.015 301.732 196.812 301.73 193.54V172.8H307.84C308.815 172.75 309.734 172.327 310.407 171.619C311.08 170.911 311.455 169.972 311.455 168.995C311.455 168.018 311.08 167.079 310.407 166.371C309.734 165.663 308.815 165.24 307.84 165.19H287.96C287.444 165.164 286.928 165.242 286.443 165.422C285.958 165.601 285.515 165.877 285.141 166.233C284.766 166.589 284.468 167.017 284.264 167.492C284.06 167.967 283.955 168.478 283.955 168.995C283.955 169.512 284.06 170.023 284.264 170.498C284.468 170.973 284.766 171.401 285.141 171.757C285.515 172.113 285.958 172.389 286.443 172.568C286.928 172.748 287.444 172.827 287.96 172.8H294.07V193.54C294.071 195.349 293.551 197.12 292.572 198.642C291.593 200.164 290.197 201.371 288.55 202.12L280.63 205.72C278.427 202.675 275.425 200.299 271.955 198.855C268.485 197.411 264.683 196.956 260.97 197.54C254.05 198.63 245.55 199.81 237.21 200.61V191.51C245.06 190.61 252.88 189.33 258.95 188.23C263.045 187.466 266.703 185.192 269.199 181.858C271.696 178.524 272.849 174.374 272.43 170.23L264.52 88.47C264.231 85.0037 262.852 81.7179 260.582 79.0828C258.311 76.4477 255.265 74.5985 251.88 73.8C243.46 71.87 230.31 69.27 220.19 69.27ZM214.08 281.35C214.08 279.729 214.723 278.174 215.869 277.026C217.014 275.879 218.569 275.233 220.19 275.23C221.4 275.23 222.584 275.589 223.59 276.261C224.596 276.934 225.381 277.89 225.844 279.008C226.307 280.126 226.429 281.357 226.192 282.544C225.956 283.731 225.373 284.822 224.517 285.677C223.662 286.533 222.571 287.116 221.384 287.352C220.197 287.589 218.966 287.467 217.848 287.004C216.73 286.541 215.774 285.757 215.101 284.75C214.429 283.744 214.07 282.561 214.07 281.35H214.08ZM220.19 201.51C217.24 201.51 214.06 201.39 210.77 201.18V192.18C214.03 192.43 217.22 192.57 220.19 192.57C223.16 192.57 226.36 192.43 229.62 192.18V201.18C226.31 201.39 223.13 201.51 220.19 201.51ZM199.34 105.8L200.34 109.47L199.45 106.26L199.34 105.8ZM199.34 105.8C198.848 105.922 198.386 106.141 197.98 106.444C197.575 106.747 197.234 107.128 196.977 107.565C196.721 108.002 196.555 108.486 196.488 108.988C196.421 109.49 196.456 110 196.589 110.489C196.722 110.977 196.952 111.434 197.264 111.833C197.577 112.231 197.966 112.563 198.408 112.809C198.851 113.056 199.338 113.211 199.842 113.266C200.345 113.321 200.855 113.275 201.34 113.13H201.44L201.81 113.03L203.22 112.67C204.43 112.37 206.12 111.97 208.05 111.57C212.037 110.648 216.101 110.103 220.19 109.94C224.26 110.085 228.308 110.611 232.28 111.51C234.21 111.91 235.91 112.31 237.12 112.61L238.53 112.97L238.9 113.07H238.99C239.953 113.309 240.972 113.162 241.828 112.659C242.684 112.157 243.31 111.34 243.571 110.382C243.832 109.425 243.708 108.403 243.226 107.535C242.744 106.668 241.941 106.023 240.99 105.74H240.87L240.46 105.63L238.94 105.24C237.66 104.92 235.87 104.5 233.82 104.07C229.341 103.063 224.778 102.481 220.19 102.33C215.602 102.478 211.039 103.057 206.56 104.06C204.51 104.49 202.72 104.91 201.44 105.23L199.92 105.62L199.5 105.73H199.39L199.34 105.8ZM199.34 122.33C198.848 122.452 198.386 122.671 197.98 122.974C197.575 123.277 197.234 123.658 196.977 124.095C196.721 124.532 196.555 125.016 196.488 125.518C196.421 126.02 196.456 126.53 196.589 127.019C196.722 127.507 196.952 127.964 197.264 128.363C197.577 128.761 197.966 129.093 198.408 129.339C198.851 129.586 199.338 129.741 199.842 129.796C200.345 129.851 200.855 129.805 201.34 129.66H201.44L201.81 129.56L203.22 129.2C204.43 128.9 206.12 128.5 208.05 128.1C212.036 127.175 216.101 126.626 220.19 126.46C224.26 126.608 228.308 127.137 232.28 128.04C234.21 128.44 235.91 128.84 237.12 129.14L238.53 129.5L238.9 129.6H238.99C239.953 129.839 240.972 129.692 241.828 129.189C242.684 128.687 243.31 127.87 243.571 126.912C243.832 125.955 243.708 124.933 243.226 124.065C242.744 123.198 241.941 122.553 240.99 122.27H240.87L240.46 122.16L238.94 121.77C237.66 121.45 235.87 121.03 233.82 120.6C229.341 119.593 224.778 119.011 220.19 118.86C215.602 119.008 211.039 119.587 206.56 120.59C204.51 121.02 202.72 121.44 201.44 121.76L199.92 122.15L199.5 122.26H199.39L199.34 122.33ZM196.68 143.54C196.413 142.567 196.543 141.527 197.042 140.65C197.541 139.772 198.367 139.129 199.34 138.86H199.45L199.87 138.75L201.39 138.36C202.67 138.04 204.46 137.62 206.51 137.19C211.003 136.16 215.583 135.557 220.19 135.39C221.37 135.39 222.6 135.46 223.83 135.56C224.328 135.603 224.812 135.744 225.255 135.975C225.698 136.205 226.092 136.521 226.413 136.903C226.735 137.286 226.977 137.728 227.128 138.205C227.278 138.681 227.333 139.182 227.29 139.68C227.247 140.178 227.106 140.662 226.875 141.105C226.645 141.549 226.329 141.942 225.947 142.263C225.564 142.585 225.122 142.827 224.645 142.978C224.169 143.128 223.668 143.183 223.17 143.14C222.1 143.05 221.1 142.99 220.17 142.99C216.1 143.14 212.052 143.669 208.08 144.57C206.15 144.97 204.46 145.37 203.25 145.67L201.84 146.03L201.47 146.13H201.37C200.401 146.404 199.362 146.282 198.483 145.791C197.603 145.3 196.955 144.479 196.68 143.51V143.54ZM235.89 137.6C234.906 137.38 233.875 137.56 233.023 138.1C232.172 138.64 231.57 139.496 231.35 140.48C231.13 141.464 231.31 142.495 231.85 143.346C232.39 144.198 233.246 144.8 234.23 145.02C235.65 145.34 236.86 145.64 237.7 145.85L238.7 146.1L238.95 146.17H239.01C239.973 146.409 240.992 146.262 241.848 145.759C242.704 145.257 243.33 144.44 243.591 143.482C243.852 142.525 243.728 141.503 243.246 140.635C242.764 139.768 241.961 139.123 241.01 138.84H240.93L240.64 138.77L239.59 138.49C238.68 138.22 237.4 137.91 235.89 137.57V137.6ZM276.35 214.26C275.557 211.231 273.662 208.606 271.035 206.901C268.409 205.195 265.24 204.532 262.15 205.04C250.24 206.9 233.25 209.14 220.15 209.14C207.05 209.14 190.1 206.9 178.15 205.04C175.06 204.53 171.89 205.192 169.263 206.898C166.636 208.604 164.741 211.229 163.95 214.26C163.739 215.105 163.723 215.987 163.903 216.839C164.084 217.691 164.457 218.49 164.993 219.177C165.529 219.863 166.214 220.418 166.997 220.8C167.78 221.182 168.639 221.38 169.51 221.38H270.79C271.664 221.381 272.527 221.183 273.313 220.799C274.098 220.416 274.785 219.858 275.322 219.167C275.859 218.477 276.23 217.674 276.408 216.818C276.587 215.962 276.567 215.077 276.35 214.23V214.26ZM280.19 281.38C280.188 280.169 280.545 278.984 281.217 277.976C281.889 276.968 282.845 276.182 283.963 275.718C285.082 275.253 286.313 275.131 287.501 275.367C288.69 275.603 289.781 276.186 290.637 277.043C291.494 277.899 292.077 278.99 292.313 280.179C292.549 281.367 292.427 282.598 291.962 283.717C291.498 284.835 290.712 285.791 289.704 286.463C288.696 287.134 287.511 287.492 286.3 287.49C285.495 287.489 284.699 287.329 283.956 287.019C283.214 286.71 282.539 286.257 281.972 285.687C281.404 285.117 280.955 284.44 280.649 283.696C280.343 282.952 280.187 282.155 280.19 281.35V281.38ZM147.95 281.38C147.948 280.169 148.305 278.985 148.977 277.977C149.648 276.97 150.603 276.183 151.721 275.719C152.839 275.254 154.07 275.131 155.258 275.366C156.446 275.601 157.537 276.184 158.394 277.039C159.251 277.895 159.835 278.985 160.072 280.172C160.309 281.36 160.188 282.591 159.725 283.71C159.262 284.829 158.478 285.785 157.471 286.458C156.464 287.131 155.281 287.49 154.07 287.49C153.265 287.49 152.467 287.331 151.723 287.022C150.979 286.714 150.304 286.261 149.735 285.69C149.167 285.12 148.716 284.443 148.41 283.698C148.104 282.953 147.947 282.155 147.95 281.35V281.38Z" fill="#00A7B8"/>
</svg>
