<svg width="245" height="383" viewBox="0 0 245 383" fill="none" xmlns="http://www.w3.org/2000/svg">
<path d="M69.599 230.701C69.839 227.951 70.1091 226.281 70.1091 224.621C70.1091 184.441 70.1257 144.261 70.159 104.081C70.159 92.5808 75.339 83.8908 85.159 78.0208C91.4751 74.3181 98.9539 73.1295 106.107 74.6916C113.259 76.2537 119.562 80.4521 123.759 86.4509C127.546 91.6832 129.554 97.9923 129.489 104.451C129.449 123.651 129.449 142.854 129.489 162.061V167.481C134.229 166.781 138.379 165.531 142.489 165.691C153.649 166.121 163.659 172.921 166.599 184.511C167.329 187.371 167.909 188.441 171.329 186.651C181.529 181.321 199.069 188.461 203.579 199.361C204.579 201.871 205.579 204.431 206.579 207.271C209.371 206.313 212.22 205.528 215.109 204.921C228.529 202.921 244.259 212.721 244.539 227.761C245.039 254.621 245.419 281.551 244.039 308.361C243.229 324.041 235.829 338.211 225.789 350.541C217.802 360.555 207.597 368.576 195.979 373.971C177.079 382.611 157.079 384.201 136.749 381.591C118.909 379.291 103.379 371.511 89.649 360.021C80.719 352.551 74.649 342.841 68.119 333.411C54.589 313.721 40.9291 294.121 27.4191 274.411C19.4691 262.811 11.119 251.411 3.99904 239.331C-5.69096 222.871 3.06905 202.501 21.229 196.491C34.389 192.131 48.109 198.621 55.369 209.671C59.769 216.411 64.389 223.041 69.599 230.701ZM83.269 179.201C83.269 203.868 83.269 228.534 83.269 253.201C83.269 256.281 82.9191 259.201 79.3591 260.201C75.7991 261.201 72.699 260.201 70.619 256.851C69.549 255.111 68.309 253.481 67.159 251.781C58.859 239.531 50.479 227.331 42.289 215.001C37.909 208.411 25.809 206.721 19.489 212.851C14.169 218.021 12.389 225.851 16.159 232.401C19.609 238.401 23.379 244.191 27.289 249.891C41.729 270.891 56.289 291.831 70.789 312.831C76.859 321.641 82.1991 331.041 88.9191 339.321C105.279 359.481 127.049 368.931 152.829 369.261C156.937 369.241 161.029 368.758 165.029 367.821C172.979 366.071 181.329 365.031 188.649 361.761C214.509 350.171 228.919 329.281 230.899 301.461C232.569 277.931 231.429 254.201 231.309 230.561C231.309 223.481 225.649 218.561 218.579 218.761C211.779 218.911 206.899 223.901 206.709 230.941C206.629 233.591 206.849 236.271 206.599 238.941C206.169 243.401 202.519 247.111 199.179 246.791C195.449 246.431 192.659 242.791 192.629 238.191C192.629 229.321 192.699 220.451 192.559 211.591C192.449 204.041 187.239 199.001 180.199 198.811C174.009 198.641 167.319 204.891 167.849 211.631C168.144 216.35 168.144 221.082 167.849 225.801C167.559 232.181 162.119 235.491 157.289 231.951C155.419 230.591 154.009 227.391 153.929 224.951C153.579 214.171 153.839 203.381 153.759 192.601C153.689 184.601 148.759 179.411 141.469 179.421C139.782 179.457 138.119 179.836 136.583 180.536C135.047 181.235 133.67 182.24 132.535 183.489C131.4 184.738 130.531 186.205 129.982 187.801C129.433 189.397 129.214 191.088 129.339 192.771C129.819 199.831 129.509 206.951 129.339 214.041C129.403 215.827 128.768 217.567 127.569 218.893C126.37 220.219 124.702 221.025 122.919 221.141C119.029 221.401 116.569 219.331 115.859 214.961C115.612 213.058 115.515 211.139 115.569 209.221C115.569 176.274 115.569 143.327 115.569 110.381C115.571 107.278 115.417 104.178 115.109 101.091C114.717 97.5028 113.028 94.1815 110.36 91.7508C107.692 89.3202 104.228 87.9475 100.619 87.8908C89.8891 87.5508 83.6791 94.5208 83.4491 105.221C82.9291 129.891 83.289 154.531 83.269 179.201Z" fill="#1D1D1B"/>
<path d="M29.2791 92.891C25.1591 92.891 21.0291 92.961 16.9091 92.891C12.2191 92.801 9.02904 89.891 9.01904 85.891C9.01904 81.541 11.7591 78.891 16.8391 78.831C25.0791 78.711 33.3257 78.711 41.579 78.831C46.269 78.911 49.579 82.111 49.429 86.031C49.309 89.631 45.559 92.791 41.209 92.861C37.239 92.891 33.2591 92.891 29.2791 92.891Z" fill="#1D1D1B"/>
<path d="M108.219 20.2408C108.219 24.3608 108.299 28.4808 108.219 32.6008C108.099 37.3908 105.639 40.2208 101.629 40.3908C97.6189 40.5608 94.749 38.1808 94.309 33.3908C93.899 29.0108 94.169 24.5708 94.149 20.1608C94.149 16.3408 94.059 12.5108 94.149 8.69081C94.309 3.69081 97.319 0.0608067 101.149 0.000806738C105.499 -0.0591933 108.149 3.23085 108.239 8.79085C108.259 12.5908 108.219 16.4108 108.219 20.2408Z" fill="#1D1D1B"/>
<path d="M54.2489 36.0808C57.1589 39.0008 60.1289 41.8608 62.9689 44.8408C66.2789 48.3108 66.5389 52.0608 63.8189 55.0108C61.0989 57.9608 57.3889 58.3108 53.6789 55.2208C50.2989 52.4108 47.3389 49.0808 44.2089 45.9708C41.4989 43.2708 38.7289 40.6308 36.1089 37.8408C32.6989 34.2108 32.2589 29.5008 34.9089 26.7708C37.9089 23.6508 42.1589 24.0808 46.1289 27.9708C48.8589 30.6508 51.5489 33.3808 54.2489 36.0808Z" fill="#1D1D1B"/>
<path d="M148.059 36.0808C145.149 39.0008 142.179 41.8608 139.339 44.8408C136.029 48.3108 135.779 52.0608 138.489 55.0108C141.199 57.9608 144.919 58.3108 148.639 55.2208C152.019 52.4108 154.969 49.0808 158.099 45.9708C160.809 43.2708 163.579 40.6308 166.199 37.8408C169.609 34.2108 170.049 29.5008 167.409 26.7708C164.409 23.6508 160.149 24.0808 156.179 27.9708C153.469 30.6508 150.769 33.3808 148.059 36.0808Z" fill="#1D1D1B"/>
<path d="M170.129 100.811C165.559 100.811 160.979 100.961 156.419 100.811C152.119 100.631 149.819 98.061 149.919 94.061C150.019 90.241 152.619 87.6409 156.679 87.6109C165.519 87.5376 174.366 87.5376 183.219 87.6109C187.219 87.6109 190.369 90.731 190.329 94.301C190.289 97.871 187.419 100.711 183.399 100.861C178.979 101.021 174.549 100.861 170.129 100.861V100.811Z" fill="#1D1D1B"/>
</svg>
