<svg width="435" height="545" viewBox="0 0 435 545" fill="none" xmlns="http://www.w3.org/2000/svg">
<path d="M384.85 3H50C24.0426 3 3 24.0426 3 50V494.53C3 520.487 24.0426 541.53 50 541.53H384.85C410.807 541.53 431.85 520.487 431.85 494.53V50C431.85 24.0426 410.807 3 384.85 3Z" stroke="#00A7B8" stroke-width="5" stroke-miterlimit="10"/>
<path d="M105.828 358.803V384.01H100.432V373.745H89.6387V384.01H84.2246V358.803H89.6387V368.893H100.432V358.803H105.828ZM134.814 384.01H129.418V367.997L117.008 384.01H112.314V358.803H117.729V374.834L130.139 358.803H134.814V384.01ZM154.256 370.686C154.361 370.739 154.537 370.809 154.748 370.897C154.959 370.985 155.346 371.196 155.873 371.547C156.418 371.899 156.893 372.286 157.297 372.708C157.701 373.147 158.07 373.745 158.404 374.518C158.756 375.292 158.914 376.118 158.914 377.014C158.914 379.124 158.018 380.899 156.225 382.375C154.432 383.834 151.953 384.573 148.824 384.573C147.629 384.573 146.469 384.415 145.344 384.116C144.219 383.817 143.27 383.465 142.531 383.043C141.793 382.622 141.143 382.2 140.58 381.778C140.018 381.356 139.596 381.004 139.332 380.723L138.928 380.249L142.18 377.014L142.461 377.295C142.584 377.401 142.848 377.629 143.252 377.946C143.674 378.262 144.096 378.526 144.553 378.772C145.01 379 145.59 379.211 146.293 379.405C146.996 379.598 147.734 379.704 148.473 379.704C149.967 379.704 151.127 379.387 151.936 378.772C152.744 378.139 153.148 377.383 153.148 376.469C153.148 375.52 152.779 374.747 152.023 374.149C151.268 373.534 150.143 373.235 148.648 373.235H145.414V368.542H148.473C149.703 368.542 150.635 368.278 151.285 367.786C151.936 367.276 152.252 366.625 152.252 365.852C152.252 365.079 151.918 364.428 151.232 363.918C150.547 363.391 149.562 363.145 148.297 363.145C147.383 363.145 146.504 363.338 145.625 363.725C144.764 364.112 144.131 364.481 143.727 364.868L143.076 365.483L139.824 362.073C139.895 361.967 140.018 361.844 140.193 361.668C140.369 361.493 140.721 361.194 141.283 360.754C141.846 360.297 142.461 359.911 143.094 359.594C143.727 359.278 144.57 358.979 145.607 358.698C146.662 358.417 147.734 358.293 148.824 358.293C151.602 358.293 153.816 358.979 155.504 360.368C157.191 361.756 158.018 363.409 158.018 365.307C158.018 366.098 157.895 366.819 157.631 367.487C157.367 368.137 157.051 368.647 156.664 369.016C156.295 369.403 155.926 369.719 155.574 370C155.223 370.282 154.906 370.458 154.643 370.545L154.256 370.686ZM169.373 358.803V369.79L179.27 358.803H185.562L176.211 369.245L186.283 384.01H179.99L172.607 373.217L169.373 376.803V384.01H163.959V358.803H169.373ZM212.018 384.01H206.621V367.997L194.211 384.01H189.518V358.803H194.932V374.834L207.342 358.803H212.018V384.01ZM229.648 352.51C230.264 352.51 230.773 352.317 231.195 351.895C231.6 351.491 231.811 350.981 231.811 350.366H235.414C235.414 351.983 234.869 353.319 233.814 354.374C232.742 355.428 231.354 355.956 229.648 355.956C227.943 355.956 226.555 355.428 225.5 354.374C224.428 353.319 223.9 351.983 223.9 350.366H227.486C227.486 350.981 227.68 351.491 228.102 351.895C228.506 352.317 229.016 352.51 229.648 352.51ZM240.986 384.01H235.59V367.997L223.18 384.01H218.486V358.803H223.9V374.834L236.311 358.803H240.986V384.01ZM267.09 358.276C268.408 358.276 269.674 358.452 270.869 358.803C272.064 359.155 273.031 359.559 273.805 360.051C274.578 360.543 275.246 361.036 275.844 361.528C276.441 362.02 276.863 362.442 277.127 362.776L277.531 363.303L274.104 366.731C274.033 366.643 273.928 366.52 273.805 366.344C273.682 366.168 273.4 365.887 272.979 365.465C272.557 365.061 272.082 364.709 271.59 364.393C271.08 364.077 270.412 363.795 269.604 363.532C268.777 363.268 267.934 363.127 267.09 363.127C264.734 363.127 262.766 363.918 261.184 365.5C259.602 367.083 258.811 369.051 258.811 371.407C258.811 373.762 259.602 375.731 261.184 377.313C262.766 378.895 264.734 379.686 267.09 379.686C268.004 379.686 268.865 379.563 269.709 379.317C270.553 379.071 271.238 378.772 271.801 378.42C272.346 378.069 272.838 377.717 273.26 377.366C273.682 377.014 273.98 376.715 274.174 376.452L274.455 376.083L277.707 379.51C277.602 379.651 277.461 379.844 277.268 380.073C277.074 380.301 276.652 380.706 275.984 381.286C275.316 381.866 274.613 382.375 273.857 382.815C273.102 383.254 272.117 383.659 270.887 384.01C269.656 384.379 268.391 384.555 267.09 384.555C263.24 384.555 259.988 383.272 257.352 380.706C254.715 378.139 253.396 375.028 253.396 371.407C253.396 367.786 254.715 364.692 257.352 362.125C259.988 359.559 263.24 358.276 267.09 358.276ZM293.439 384.01H282.014V358.803H292.824C295.109 358.803 296.99 359.471 298.484 360.807C299.979 362.143 300.734 363.708 300.734 365.465C300.734 366.133 300.629 366.784 300.453 367.381C300.26 367.979 300.014 368.489 299.732 368.875C299.434 369.28 299.135 369.631 298.854 369.913C298.572 370.194 298.326 370.405 298.15 370.51L297.852 370.686C297.957 370.739 298.115 370.809 298.291 370.897C298.467 370.985 298.801 371.196 299.293 371.547C299.768 371.899 300.189 372.268 300.559 372.672C300.91 373.094 301.244 373.657 301.543 374.36C301.842 375.063 302 375.819 302 376.627C302 378.649 301.191 380.389 299.592 381.831C297.975 383.29 295.936 384.01 293.439 384.01ZM287.428 379.51H293.176C294.16 379.51 294.969 379.211 295.619 378.579C296.27 377.963 296.604 377.19 296.604 376.276C296.604 375.362 296.27 374.606 295.619 373.973C294.969 373.34 294.16 373.024 293.176 373.024H287.428V379.51ZM292.455 363.303H287.428V368.717H292.455C293.334 368.717 294.037 368.471 294.564 367.979C295.074 367.487 295.338 366.836 295.338 366.01C295.338 365.202 295.074 364.534 294.564 364.042C294.037 363.549 293.334 363.303 292.455 363.303ZM311.193 371.424C311.193 373.745 311.967 375.713 313.549 377.295C315.113 378.895 317.029 379.686 319.279 379.686C321.529 379.686 323.445 378.895 325.01 377.295C326.592 375.713 327.365 373.745 327.365 371.424C327.365 369.104 326.592 367.135 325.01 365.536C323.445 363.936 321.529 363.127 319.279 363.127C317.029 363.127 315.113 363.936 313.549 365.536C311.967 367.135 311.193 369.104 311.193 371.424ZM305.604 371.407C305.604 367.786 306.922 364.692 309.559 362.125C312.195 359.559 315.447 358.276 319.279 358.276C323.111 358.276 326.363 359.559 329 362.125C331.637 364.692 332.955 367.786 332.955 371.407C332.955 375.028 331.637 378.139 329 380.706C326.363 383.272 323.111 384.555 319.279 384.555C315.447 384.555 312.195 383.272 309.559 380.706C306.922 378.139 305.604 375.028 305.604 371.407ZM334.045 379.159H335.486C335.574 379.071 335.715 378.93 335.891 378.719C336.066 378.508 336.4 378.051 336.857 377.313C337.314 376.575 337.701 375.766 338.053 374.887C338.404 374.008 338.721 372.831 339.002 371.319C339.283 369.825 339.441 368.243 339.441 366.555V358.803H356.896V379.159H359.973V389.231H354.559V384.01H339.441V389.231H334.045V379.159ZM344.838 366.555C344.838 368.243 344.697 369.825 344.416 371.301C344.135 372.795 343.818 373.991 343.432 374.905C343.045 375.819 342.676 376.61 342.289 377.278C341.902 377.946 341.568 378.438 341.322 378.719L340.883 379.159H351.5V363.672H344.838V366.555Z" fill="#1D1D1B"/>
<path d="M54.0615 433.423V458.63H50.1064V447.644H37.6787V458.63H33.7236V433.423H37.6787V444.058H50.1064V433.423H54.0615ZM72.5889 441.351H75.8232V458.63H72.2197V447.292L63.2197 458.63H59.9854V441.351H63.5889V452.689L72.5889 441.351ZM92.3818 445.851C92.3818 446.66 92.1533 447.363 91.7139 447.96C91.2744 448.558 90.8174 448.945 90.3604 449.138L89.6748 449.472C89.7803 449.49 89.9033 449.525 90.0615 449.595C90.2197 449.648 90.4834 449.789 90.8701 450C91.2568 450.21 91.5908 450.474 91.8896 450.773C92.1885 451.072 92.4697 451.476 92.7158 452.003C92.9619 452.531 93.085 453.128 93.085 453.779C93.085 455.22 92.4521 456.451 91.1689 457.47C89.8857 458.49 88.1279 458.982 85.8955 458.982C85.0518 458.982 84.2432 458.876 83.4697 458.666C82.6963 458.455 82.0459 458.208 81.5361 457.91C81.0088 457.628 80.5693 457.33 80.1826 457.031C79.7959 456.732 79.4971 456.468 79.3213 456.257L79.0752 455.923L81.4131 453.585C81.5537 453.761 81.7295 453.955 81.9756 454.201C82.2217 454.447 82.7314 454.781 83.5225 455.167C84.3135 455.554 85.1045 455.748 85.9131 455.748C87.1084 455.748 88.0049 455.537 88.6025 455.08C89.2002 454.64 89.5166 454.078 89.5166 453.41C89.5166 452.742 89.2002 452.197 88.6025 451.74C88.0049 451.3 87.1084 451.072 85.9131 451.072H83.9268V448.189H85.9131C86.8447 448.189 87.5654 448.013 88.0576 447.644C88.5498 447.275 88.7959 446.8 88.7959 446.22C88.7959 445.64 88.5498 445.166 88.0576 444.796C87.5654 444.427 86.8447 444.234 85.9131 444.234C85.21 444.234 84.542 444.375 83.874 444.638C83.2061 444.902 82.7314 445.166 82.415 445.447L81.958 445.851L79.6025 443.513C79.7607 443.337 80.0068 443.091 80.3232 442.81C80.6396 442.529 81.3428 442.16 82.4326 441.685C83.5225 441.228 84.6826 440.982 85.9131 440.982C87.8994 440.982 89.4814 441.474 90.6416 442.423C91.8018 443.39 92.3818 444.533 92.3818 445.851ZM112.386 441.351L105.724 448.558L112.913 458.63H108.958L103.386 450.896L100.679 453.779V458.63H97.0752V441.351H100.679V449.085L108.062 441.351H112.386ZM128.382 441.351H131.616V458.63H128.013V447.292L119.013 458.63H115.778V441.351H119.382V452.689L128.382 441.351ZM149.265 441.351H152.499V458.63H148.896V447.292L139.896 458.63H136.661V441.351H140.265V452.689L149.265 441.351ZM144.571 435.955C145.292 435.955 145.89 435.726 146.382 435.234C146.856 434.759 147.103 434.162 147.103 433.423H149.81C149.81 434.865 149.317 436.078 148.333 437.027C147.349 437.994 146.101 438.468 144.589 438.468C143.077 438.468 141.829 437.994 140.845 437.027C139.86 436.078 139.368 434.865 139.368 433.423H142.058C142.058 434.144 142.286 434.742 142.778 435.234C143.253 435.726 143.851 435.955 144.571 435.955ZM163.679 450C163.679 447.574 164.558 445.482 166.351 443.689C168.144 441.896 170.253 441 172.679 441C174.015 441 175.28 441.281 176.44 441.861C177.601 442.441 178.427 443.021 178.937 443.601L179.692 444.427L177.354 446.765C177.231 446.572 177.056 446.343 176.81 446.062C176.563 445.781 176.054 445.412 175.245 444.955C174.437 444.48 173.593 444.251 172.679 444.251C171.202 444.251 169.937 444.796 168.864 445.921C167.792 447.029 167.265 448.382 167.265 450C167.265 451.617 167.792 452.97 168.864 454.095C169.937 455.203 171.202 455.765 172.679 455.765C173.593 455.765 174.437 455.537 175.245 455.08C176.054 454.623 176.634 454.166 176.985 453.744L177.53 453.076L179.868 455.414C179.798 455.501 179.692 455.625 179.552 455.8C179.411 455.976 179.095 456.257 178.638 456.662C178.163 457.066 177.671 457.417 177.161 457.734C176.634 458.05 175.966 458.332 175.157 458.595C174.331 458.859 173.505 459 172.679 459C170.253 459 168.144 458.103 166.351 456.31C164.558 454.517 163.679 452.425 163.679 450ZM183.454 441.351L191.733 441.369C193.386 441.369 194.687 441.791 195.671 442.634C196.638 443.478 197.13 444.568 197.13 445.869C197.13 446.607 196.954 447.275 196.638 447.873C196.321 448.47 195.987 448.892 195.653 449.138L195.161 449.472C195.231 449.49 195.319 449.525 195.46 449.578C195.583 449.648 195.812 449.789 196.163 450.035C196.497 450.281 196.796 450.544 197.042 450.826C197.288 451.107 197.517 451.494 197.728 451.986C197.938 452.478 198.044 453.023 198.044 453.585C198.044 455.08 197.499 456.292 196.444 457.224C195.39 458.173 193.931 458.63 192.103 458.63H183.454V441.351ZM192.103 450.914H187.058V455.589H192.103C192.806 455.589 193.386 455.378 193.808 454.957C194.229 454.535 194.44 453.955 194.44 453.251C194.44 452.601 194.212 452.056 193.79 451.599C193.351 451.142 192.788 450.914 192.103 450.914ZM193.544 446.22C193.544 445.658 193.368 445.218 193.052 444.902C192.718 444.585 192.278 444.427 191.733 444.427H187.058V448.031H191.733C192.278 448.031 192.718 447.855 193.052 447.539C193.368 447.222 193.544 446.783 193.544 446.22ZM215.306 450C215.306 448.382 214.761 447.029 213.706 445.904C212.634 444.796 211.368 444.234 209.909 444.234C208.433 444.234 207.167 444.796 206.095 445.904C205.022 447.029 204.495 448.382 204.495 450C204.495 451.617 205.022 452.97 206.095 454.078C207.167 455.203 208.433 455.748 209.909 455.748C211.368 455.748 212.634 455.203 213.706 454.078C214.761 452.97 215.306 451.617 215.306 450ZM200.909 450C200.909 447.574 201.788 445.464 203.581 443.671C205.374 441.878 207.483 440.982 209.909 440.982C212.335 440.982 214.427 441.878 216.22 443.671C218.013 445.464 218.909 447.574 218.909 450C218.909 452.425 218.013 454.517 216.22 456.31C214.427 458.103 212.335 459 209.909 459C207.483 459 205.374 458.103 203.581 456.31C201.788 454.517 200.909 452.425 200.909 450ZM220.351 455.396H221.599C221.669 455.326 221.757 455.22 221.897 455.062C222.038 454.904 222.267 454.552 222.601 453.99C222.935 453.445 223.233 452.847 223.479 452.214C223.726 451.582 223.954 450.738 224.165 449.683C224.376 448.646 224.481 447.556 224.481 446.396V441.351H237.085V455.396H239.599V462.955H236.013V458.63H223.954V462.955H220.351V455.396ZM228.085 444.585L228.067 446.396C228.067 447.556 227.979 448.646 227.786 449.666C227.593 450.703 227.347 451.564 227.065 452.232C226.784 452.9 226.485 453.48 226.204 453.972C225.923 454.464 225.677 454.816 225.501 455.027L225.202 455.396H233.481V444.585H228.085ZM272.206 446.396V449.63H249.161V446.396H272.206ZM281.944 450.703V448.91L297.062 440.982V444.585L286.989 449.806L297.062 455.027V458.63L281.944 450.703ZM318.12 458.63H301.368C301.368 457.083 301.614 455.66 302.071 454.394C302.546 453.128 303.161 452.056 303.917 451.212C304.673 450.369 305.499 449.595 306.413 448.892C307.327 448.189 308.224 447.556 309.12 446.976C310.034 446.396 310.86 445.816 311.616 445.253C312.372 444.691 312.987 444.041 313.444 443.285C313.919 442.529 314.147 441.703 314.147 440.806C314.147 439.541 313.761 438.521 312.97 437.783C312.179 437.044 311.071 436.675 309.647 436.675C308.962 436.675 308.312 436.816 307.714 437.062C307.116 437.308 306.642 437.607 306.308 437.958C305.974 438.31 305.675 438.644 305.429 438.996C305.183 439.347 305.007 439.664 304.919 439.91L304.796 440.279L301.562 438.837C301.597 438.679 301.667 438.468 301.755 438.205C301.843 437.958 302.089 437.501 302.493 436.833C302.897 436.183 303.372 435.603 303.917 435.093C304.444 434.601 305.235 434.126 306.255 433.705C307.274 433.283 308.399 433.072 309.665 433.072C312.126 433.072 314.165 433.828 315.747 435.304C317.329 436.798 318.12 438.626 318.12 440.806C318.12 441.966 317.874 443.021 317.417 444.005C316.942 444.99 316.345 445.816 315.624 446.484C314.903 447.152 314.077 447.82 313.146 448.523C312.214 449.226 311.317 449.859 310.438 450.421C309.56 451.001 308.681 451.687 307.837 452.496C306.993 453.304 306.343 454.148 305.886 455.027H318.12V458.63ZM325.134 454.306L328.368 456.117L323.868 463.306L321.53 462.058L325.134 454.306ZM342.237 441.896C344.751 441.896 346.825 442.705 348.442 444.304C350.06 445.886 350.886 447.908 350.886 450.369C350.886 452.9 350.042 454.974 348.39 456.591C346.737 458.191 344.558 459 341.886 459C340.726 459 339.636 458.859 338.599 458.578C337.562 458.296 336.7 457.98 336.032 457.593C335.364 457.207 334.784 456.82 334.292 456.433C333.8 456.046 333.448 455.73 333.202 455.466L332.886 455.027L335.399 452.513C335.435 452.583 335.522 452.689 335.646 452.83C335.769 452.97 336.032 453.199 336.437 453.533C336.841 453.867 337.28 454.166 337.737 454.412C338.194 454.658 338.792 454.886 339.53 455.097C340.269 455.308 341.06 455.396 341.886 455.396C343.327 455.396 344.522 454.921 345.472 453.955C346.421 453.005 346.913 451.792 346.913 450.351C346.913 448.91 346.421 447.714 345.472 446.748C344.505 445.798 343.31 445.306 341.886 445.306C340.831 445.306 339.882 445.5 339.038 445.886C338.194 446.273 337.614 446.66 337.315 447.046L336.841 447.644H333.958L334.679 433.423H349.251V437.027H338.282L337.913 442.968C338.862 442.265 340.304 441.896 342.237 441.896ZM361.679 450C361.679 447.574 362.558 445.482 364.351 443.689C366.144 441.896 368.253 441 370.679 441C372.015 441 373.28 441.281 374.44 441.861C375.601 442.441 376.427 443.021 376.937 443.601L377.692 444.427L375.354 446.765C375.231 446.572 375.056 446.343 374.81 446.062C374.563 445.781 374.054 445.412 373.245 444.955C372.437 444.48 371.593 444.251 370.679 444.251C369.202 444.251 367.937 444.796 366.864 445.921C365.792 447.029 365.265 448.382 365.265 450C365.265 451.617 365.792 452.97 366.864 454.095C367.937 455.203 369.202 455.765 370.679 455.765C371.593 455.765 372.437 455.537 373.245 455.08C374.054 454.623 374.634 454.166 374.985 453.744L375.53 453.076L377.868 455.414C377.798 455.501 377.692 455.625 377.552 455.8C377.411 455.976 377.095 456.257 376.638 456.662C376.163 457.066 375.671 457.417 375.161 457.734C374.634 458.05 373.966 458.332 373.157 458.595C372.331 458.859 371.505 459 370.679 459C368.253 459 366.144 458.103 364.351 456.31C362.558 454.517 361.679 452.425 361.679 450ZM390.63 448.91L396.94 441.351H399.823V458.63H396.22V447.292L390.63 453.955L385.058 447.292V458.63H381.454V441.351H384.337L390.63 448.91Z" fill="#878787"/>
<path fill-rule="evenodd" clip-rule="evenodd" d="M121.8 125.81C123.99 122.63 127.32 120.24 131.37 120.24C135.42 120.24 138.73 122.63 140.91 125.81C143.158 129.394 144.35 133.539 144.35 137.77C144.35 142.001 143.158 146.146 140.91 149.73C138.74 152.9 135.42 155.31 131.37 155.31C127.32 155.31 123.98 152.91 121.8 149.73C119.488 146.16 118.288 141.983 118.35 137.73C118.29 133.502 119.491 129.353 121.8 125.81ZM124.53 137.76C124.465 140.759 125.29 143.71 126.9 146.24C128.31 148.3 129.9 149.14 131.37 149.14C132.84 149.14 134.37 148.3 135.81 146.24C137.357 143.686 138.175 140.757 138.175 137.77C138.175 134.784 137.357 131.855 135.81 129.3C134.4 127.25 132.81 126.41 131.36 126.41C129.91 126.41 128.29 127.25 126.88 129.31C125.276 131.832 124.458 134.773 124.53 137.76ZM114.79 132.2C116.714 134.456 117.958 137.211 118.38 140.146C118.801 143.08 118.381 146.074 117.17 148.78C116.628 150.103 115.75 151.26 114.622 152.139C113.495 153.017 112.157 153.585 110.743 153.787C109.328 153.99 107.885 153.818 106.556 153.291C105.228 152.763 104.061 151.898 103.17 150.78C102.605 150.165 102.102 149.495 101.67 148.78C101.741 150.292 101.506 151.802 100.98 153.22C100.626 154.354 99.9819 155.377 99.1121 156.187C98.2424 156.996 97.1767 157.565 96.02 157.838C94.8633 158.11 93.6557 158.077 92.5159 157.741C91.3761 157.404 90.3436 156.777 89.5201 155.92C87.8226 154.299 86.643 152.211 86.1301 149.92C85.5525 147.644 85.6744 145.246 86.4801 143.04C86.8314 141.906 87.4726 140.883 88.3405 140.073C89.2084 139.262 90.2727 138.693 91.4283 138.42C92.5839 138.147 93.7907 138.181 94.9293 138.518C96.0679 138.855 97.0988 139.483 97.9201 140.34C98.5173 140.888 99.0507 141.502 99.5101 142.17C99.181 139.435 99.6281 136.663 100.8 134.17C101.34 132.846 102.217 131.686 103.345 130.805C104.472 129.925 105.81 129.356 107.226 129.153C108.642 128.951 110.086 129.123 111.415 129.652C112.744 130.182 113.911 131.05 114.8 132.17L114.79 132.2ZM110.25 136.35C110.006 136.004 109.68 135.722 109.302 135.531C108.924 135.339 108.504 135.243 108.08 135.25C107.63 135.31 106.92 135.68 106.32 136.91C105.658 138.494 105.437 140.227 105.68 141.925C105.923 143.624 106.621 145.226 107.7 146.56C107.948 146.907 108.275 147.189 108.654 147.382C109.034 147.575 109.454 147.674 109.88 147.67C110.33 147.61 111.04 147.24 111.65 146.01C112.347 144.442 112.566 142.703 112.28 141.01C112.078 139.291 111.372 137.669 110.25 136.35ZM93.0401 144.42C92.9682 144.4 92.8921 144.4 92.8201 144.42C92.7457 144.445 92.6798 144.49 92.6301 144.55C92.4418 144.757 92.2958 144.998 92.2001 145.26C91.8525 146.301 91.8211 147.422 92.1101 148.48C92.3228 149.564 92.8476 150.561 93.6201 151.35C93.8194 151.54 94.0537 151.69 94.3101 151.79C94.3846 151.816 94.4657 151.816 94.5401 151.79C94.5401 151.79 94.6301 151.79 94.7401 151.66C94.9244 151.453 95.067 151.212 95.1601 150.95C95.5064 149.91 95.5412 148.79 95.2601 147.73C95.0283 146.651 94.4901 145.661 93.7101 144.88C93.5179 144.693 93.29 144.547 93.0401 144.45V144.42ZM83.7201 149.02C85.5287 150.287 86.9207 152.062 87.7201 154.12C88.5677 156.156 88.7837 158.4 88.3401 160.56C88.1614 161.675 87.6957 162.725 86.9888 163.605C86.2818 164.486 85.3579 165.168 84.3078 165.583C83.2578 165.999 82.1176 166.134 80.9995 165.976C79.8813 165.818 78.8236 165.371 77.9301 164.68C76.1499 163.392 74.773 161.624 73.9602 159.582C73.1474 157.54 72.9324 155.31 73.3401 153.15C73.5191 152.034 73.9852 150.984 74.6927 150.102C75.4001 149.221 76.3246 148.538 77.3755 148.122C78.4263 147.705 79.5673 147.569 80.6867 147.726C81.806 147.884 82.8651 148.33 83.7601 149.02H83.7201ZM79.6201 153.89C79.8557 153.921 80.0777 154.018 80.2601 154.17C81.0068 154.765 81.5844 155.545 81.9353 156.433C82.2863 157.321 82.3982 158.286 82.2601 159.23C82.2232 159.464 82.1268 159.684 81.9801 159.87C81.738 159.842 81.509 159.745 81.3201 159.59C80.583 159.001 80.0114 158.23 79.6608 157.354C79.3103 156.478 79.1929 155.525 79.3201 154.59C79.3393 154.33 79.4449 154.084 79.6201 153.89ZM103.34 165.76C96.7671 167.61 90.748 171.044 85.8101 175.76C81.1601 180.4 78.7301 185.83 79.8101 191.64V191.71C80.5701 196.41 83.2801 202.76 86.0801 208.59C87.0801 210.65 88.0301 212.59 88.8901 214.29L89.8901 216.29C90.4201 217.36 90.8901 218.29 91.2501 219.13C91.5669 219.796 91.8343 220.485 92.0501 221.19C98.2501 238.62 99.5501 247.42 101.64 261.64C102.16 265.19 102.73 269.09 103.45 273.54C105.96 289.17 118.08 299.1 129.56 297.27C135.66 296.27 138.86 293.9 140.77 290.19C142.84 286.19 143.61 280.19 143.62 271.6C142.777 264.985 141.463 258.439 139.69 252.01C139.33 250.68 138.96 249.37 138.58 248.01C137.46 244.07 136.27 239.88 135.08 234.41C132.4 222.14 132.87 211.41 138.38 197.41C139.637 194.165 140.725 190.858 141.64 187.5C142.796 183.638 143.468 179.648 143.64 175.62C143.64 171.42 142.08 168.83 139.73 167.08C137.2 165.2 133.48 164.08 128.99 163.64C120.05 162.69 109.5 164.51 103.34 165.75V165.76ZM143.4 162.07C147.4 165.07 149.8 169.5 149.8 175.57C149.638 180.144 148.902 184.679 147.61 189.07C146.641 192.647 145.479 196.169 144.13 199.62C139.13 212.47 138.7 221.94 141.13 233.02C142.28 238.29 143.4 242.24 144.5 246.13C144.89 247.5 145.28 248.87 145.67 250.28C147.525 257.042 148.902 263.925 149.79 270.88C149.79 271.02 149.79 271.15 149.79 271.29C149.79 280.07 149.09 287.43 146.26 292.91C143.26 298.74 138.13 302.05 130.53 303.27C114.61 305.81 100.21 292.27 97.3501 274.42C96.6201 269.84 96.0301 265.87 95.5101 262.29C93.4301 248.18 92.2201 239.95 86.1901 223.03C86.1901 222.92 86.1201 222.81 86.0901 222.7C86.0621 222.605 86.0287 222.512 85.9901 222.42C85.9101 222.2 85.7901 221.93 85.6301 221.58C85.3101 220.88 84.8801 220 84.3601 218.94L83.4201 217.06C82.5501 215.32 81.5401 213.32 80.5301 211.21C77.7701 205.46 74.6701 198.37 73.7401 192.69C72.1701 184.24 75.9001 176.88 81.4401 171.34C87.1556 165.864 94.1411 161.892 101.77 159.78H101.99C108.16 158.52 119.59 156.49 129.58 157.49C134.62 157.94 139.62 159.22 143.4 162.06V162.07ZM72.9701 161C74.7188 162.027 76.1138 163.562 76.9701 165.4C77.578 167.034 77.8071 168.785 77.6401 170.52C77.5626 171.424 77.3291 172.307 76.9501 173.13C76.4502 174.24 75.5451 175.116 74.4201 175.58C72.762 176.165 70.9703 176.259 69.2601 175.85C68.0585 175.583 66.9418 175.022 66.0099 174.217C65.078 173.413 64.36 172.39 63.9201 171.24C63.0581 169.129 62.8627 166.805 63.3601 164.58C63.5463 163.567 63.9706 162.612 64.5983 161.795C65.226 160.978 66.039 160.321 66.9701 159.88C68.0659 159.486 69.2612 159.465 70.3701 159.82C71.2874 160.086 72.1627 160.48 72.9701 160.99V161ZM69.3801 166.05C69.1837 167.035 69.2882 168.056 69.6801 168.98C69.7582 169.212 69.9004 169.416 70.0901 169.57C70.2766 169.711 70.4916 169.81 70.7201 169.86C70.9795 169.917 71.2446 169.944 71.5101 169.94C71.5757 169.19 71.4838 168.433 71.2401 167.72L74.1001 166.58L71.2301 167.71C71.1167 167.494 70.968 167.298 70.7901 167.13C70.4613 166.802 70.0955 166.514 69.7001 166.27L69.3801 166.05ZM224.04 230.09C224.729 229.649 225.565 229.498 226.365 229.67C227.165 229.843 227.864 230.324 228.31 231.01C229.857 233.415 232.212 235.188 234.95 236.01C238.04 236.95 242.39 236.95 248.2 234.45C248.953 234.127 249.804 234.116 250.566 234.419C251.327 234.723 251.937 235.317 252.26 236.07C252.584 236.823 252.595 237.674 252.291 238.436C251.987 239.197 251.393 239.807 250.64 240.13C243.76 243.13 237.91 243.36 233.16 241.92C229.039 240.664 225.497 237.989 223.16 234.37C222.72 233.684 222.568 232.853 222.736 232.056C222.905 231.258 223.38 230.56 224.06 230.11L224.04 230.09ZM272.63 147.09C272.543 146.297 272.152 145.569 271.539 145.057C270.926 144.546 270.14 144.291 269.344 144.347C268.548 144.402 267.804 144.764 267.268 145.355C266.733 145.947 266.447 146.723 266.47 147.52V147.96C267.41 161.37 268.77 180.89 272.41 198.11C274.25 206.81 276.7 215.11 280.05 221.75C283.4 228.39 287.84 233.82 293.91 236.17C312.91 243.53 331.91 252.57 359.16 267.29C362.24 268.952 365.582 270.075 369.04 270.61C375.04 271.53 380.16 272.41 384.47 273.45C387.903 274.145 391.213 275.348 394.29 277.02C396.46 278.34 397.45 279.72 397.79 281.23C398.13 282.74 397.9 285.23 396.25 288.85C396.12 289.14 395.35 289.98 392.74 290.76C389.747 291.548 386.674 291.994 383.58 292.09C376.891 292.425 370.187 291.88 363.64 290.47C362.303 290.12 360.919 289.988 359.54 290.08C330.66 292.27 315.96 291.4 304.72 290C301.87 289.65 299.2 289.25 296.55 288.86C287.628 287.361 278.598 286.595 269.55 286.57C259.634 286.658 249.738 287.47 239.94 289C236.34 289.5 233.02 290 229.88 290.24C219.68 291.17 210.28 290.5 196.43 283.91C191.15 281.41 188.38 274.66 188.83 263.91C189.26 253.42 192.77 240.37 198.4 227.43C200.83 221.85 202.4 213.15 203.46 203.12C204.52 193.09 205.21 181.12 205.68 169.12L205.83 165.12C205.826 164.324 205.514 163.56 204.959 162.988C204.405 162.416 203.651 162.08 202.855 162.05C202.059 162.02 201.283 162.299 200.687 162.828C200.092 163.358 199.724 164.096 199.66 164.89L199.51 168.89C199.04 180.89 198.4 192.59 197.33 202.5C196.26 212.41 194.76 220.39 192.74 225.01C186.92 238.38 183.13 252.21 182.66 263.71C182.19 274.96 184.92 285.31 193.78 289.52C208.78 296.63 219.26 297.44 230.44 296.42C234.04 296.09 237.59 295.6 241.33 295.08C250.667 293.614 260.099 292.846 269.55 292.78C278.215 292.794 286.865 293.523 295.41 294.96C298.13 295.36 300.92 295.78 303.99 296.16C315.72 297.61 330.84 298.48 359.99 296.27C360.707 296.226 361.426 296.297 362.12 296.48C369.257 298.05 376.572 298.655 383.87 298.28C387.46 298.174 391.025 297.643 394.49 296.7C397.33 295.85 400.49 294.36 401.85 291.45C403.77 287.26 404.58 283.45 403.8 279.91C403.02 276.37 400.63 273.69 397.5 271.78C393.875 269.773 389.968 268.323 385.91 267.48C381.33 266.37 375.91 265.48 369.97 264.54C367.212 264.113 364.546 263.217 362.09 261.89C334.75 247.1 315.46 237.89 296.09 230.45C292.09 228.9 288.56 225.03 285.52 219C282.48 212.97 280.19 205.32 278.4 196.86C274.85 180.07 273.51 160.86 272.57 147.41L272.63 147.09ZM206.42 147.35C206.453 146.933 206.4 146.514 206.266 146.117C206.132 145.721 205.918 145.356 205.638 145.045C205.359 144.733 205.019 144.482 204.639 144.306C204.259 144.13 203.848 144.033 203.43 144.021C203.011 144.008 202.595 144.081 202.206 144.235C201.816 144.388 201.462 144.62 201.165 144.914C200.868 145.209 200.633 145.56 200.476 145.948C200.319 146.336 200.242 146.752 200.25 147.17C200.177 149.45 200.107 151.75 200.04 154.07C200.007 154.487 200.059 154.906 200.193 155.303C200.327 155.699 200.54 156.064 200.819 156.375C201.099 156.687 201.438 156.938 201.817 157.115C202.196 157.291 202.607 157.389 203.025 157.401C203.443 157.414 203.86 157.342 204.249 157.19C204.638 157.037 204.993 156.807 205.291 156.513C205.588 156.219 205.823 155.868 205.981 155.481C206.139 155.094 206.217 154.678 206.21 154.26C206.283 151.94 206.353 149.64 206.42 147.36V147.35Z" fill="#00A7B8"/>
<path fill-rule="evenodd" clip-rule="evenodd" d="M144.14 199.61C144.417 198.852 144.387 198.017 144.055 197.281C143.724 196.546 143.119 195.969 142.368 195.674C141.617 195.379 140.781 195.389 140.038 195.702C139.295 196.015 138.703 196.607 138.39 197.35C132.88 211.35 132.39 222.06 135.09 234.35C136.28 239.82 137.47 244.01 138.59 247.95C138.97 249.29 139.34 250.6 139.7 251.95C141.503 258.443 142.84 265.056 143.7 271.74C143.839 272.525 144.275 273.226 144.919 273.697C145.563 274.168 146.363 274.372 147.153 274.266C147.944 274.16 148.662 273.752 149.159 273.129C149.656 272.505 149.893 271.714 149.82 270.92C148.932 263.965 147.555 257.081 145.7 250.32C145.31 248.91 144.92 247.54 144.53 246.16C143.43 242.27 142.31 238.32 141.16 233.05C138.7 221.93 139.08 212.46 144.14 199.61ZM269.62 292.73C278.245 292.745 286.854 293.467 295.36 294.89H295.62C304.961 296.411 314.398 297.274 323.86 297.47C324.278 297.501 324.699 297.446 325.095 297.31C325.492 297.173 325.857 296.957 326.167 296.675C326.477 296.392 326.727 296.05 326.901 295.668C327.075 295.286 327.169 294.873 327.178 294.453C327.186 294.034 327.11 293.617 326.952 293.228C326.795 292.84 326.56 292.487 326.262 292.192C325.963 291.897 325.608 291.665 325.218 291.512C324.827 291.359 324.409 291.287 323.99 291.3C314.782 291.104 305.6 290.262 296.51 288.78H296.27C287.462 287.312 278.549 286.566 269.62 286.55C259.75 286.626 249.9 287.435 240.15 288.97C237.52 289.33 235.03 289.68 232.64 289.97C232.238 290.016 231.848 290.141 231.494 290.337C231.14 290.534 230.827 290.798 230.575 291.115C230.066 291.756 229.832 292.572 229.925 293.385C230.018 294.198 230.43 294.941 231.07 295.45C231.711 295.959 232.527 296.193 233.34 296.1C235.94 295.81 238.56 295.44 241.28 295.1C250.655 293.61 260.128 292.818 269.62 292.73Z" fill="#F58233"/>
</svg>
