<svg width="434" height="545" viewBox="0 0 434 545" fill="none" xmlns="http://www.w3.org/2000/svg">
<path d="M384.38 3H49.5303C23.5729 3 2.53027 24.0426 2.53027 50V494.53C2.53027 520.487 23.5729 541.53 49.5303 541.53H384.38C410.338 541.53 431.38 520.487 431.38 494.53V50C431.38 24.0426 410.338 3 384.38 3Z" stroke="#00A7B8" stroke-width="5" stroke-miterlimit="10"/>
<path d="M78.2686 449.128H91.7686V453.98H72.8545V428.773H91.3994V433.642H78.2686V438.687H88.5166V443.539H78.2686V449.128ZM109.399 445.525L107.237 443.187L99.8545 453.98H93.5615L103.634 439.214L94.2822 428.773H100.575L109.399 438.494V428.773H114.796V438.494L123.62 428.773H129.913L120.562 439.214L130.634 453.98H124.341L116.958 443.187L114.796 445.525V453.98H109.399V445.525ZM139.3 449.128H152.8V453.98H133.886V428.773H152.431V433.642H139.3V438.687H149.548V443.539H139.3V449.128ZM154.593 449.128H156.034C156.122 449.041 156.263 448.9 156.438 448.689C156.614 448.478 156.948 448.021 157.405 447.283C157.862 446.544 158.249 445.736 158.601 444.857C158.952 443.978 159.269 442.8 159.55 441.289C159.831 439.794 159.989 438.212 159.989 436.525V428.773H177.444V449.128H180.521V459.201H175.106V453.98H159.989V459.201H154.593V449.128ZM165.386 436.525C165.386 438.212 165.245 439.794 164.964 441.271C164.683 442.765 164.366 443.96 163.979 444.875C163.593 445.789 163.224 446.58 162.837 447.248C162.45 447.916 162.116 448.408 161.87 448.689L161.431 449.128H172.048V433.642H165.386V436.525ZM206.255 428.773V453.98H200.858V443.714H190.065V453.98H184.651V428.773H190.065V438.863H200.858V428.773H206.255ZM218.155 449.128H231.655V453.98H212.741V428.773H231.286V433.642H218.155V438.687H228.403V443.539H218.155V449.128ZM248.108 453.98H236.683V428.773H247.493C249.778 428.773 251.659 429.441 253.153 430.777C254.647 432.113 255.403 433.677 255.403 435.435C255.403 436.103 255.298 436.753 255.122 437.351C254.929 437.949 254.683 438.458 254.401 438.845C254.103 439.25 253.804 439.601 253.522 439.882C253.241 440.164 252.995 440.375 252.819 440.48L252.521 440.656C252.626 440.708 252.784 440.779 252.96 440.867C253.136 440.955 253.47 441.166 253.962 441.517C254.437 441.869 254.858 442.238 255.228 442.642C255.579 443.064 255.913 443.626 256.212 444.33C256.511 445.033 256.669 445.789 256.669 446.597C256.669 448.619 255.86 450.359 254.261 451.8C252.644 453.259 250.604 453.98 248.108 453.98ZM242.097 449.48H247.845C248.829 449.48 249.638 449.181 250.288 448.548C250.938 447.933 251.272 447.16 251.272 446.246C251.272 445.332 250.938 444.576 250.288 443.943C249.638 443.31 248.829 442.994 247.845 442.994H242.097V449.48ZM247.124 433.273H242.097V438.687H247.124C248.003 438.687 248.706 438.441 249.233 437.949C249.743 437.457 250.007 436.806 250.007 435.98C250.007 435.171 249.743 434.503 249.233 434.011C248.706 433.519 248.003 433.273 247.124 433.273ZM283.317 428.773V453.98H277.921V443.714H267.128V453.98H261.714V428.773H267.128V438.863H277.921V428.773H283.317ZM293.952 441.394C293.952 443.714 294.726 445.683 296.308 447.265C297.872 448.865 299.788 449.656 302.038 449.656C304.288 449.656 306.204 448.865 307.769 447.265C309.351 445.683 310.124 443.714 310.124 441.394C310.124 439.074 309.351 437.105 307.769 435.505C306.204 433.906 304.288 433.097 302.038 433.097C299.788 433.097 297.872 433.906 296.308 435.505C294.726 437.105 293.952 439.074 293.952 441.394ZM288.362 441.376C288.362 437.755 289.681 434.662 292.317 432.095C294.954 429.529 298.206 428.246 302.038 428.246C305.87 428.246 309.122 429.529 311.759 432.095C314.396 434.662 315.714 437.755 315.714 441.376C315.714 444.998 314.396 448.109 311.759 450.675C309.122 453.242 305.87 454.525 302.038 454.525C298.206 454.525 294.954 453.242 292.317 450.675C289.681 448.109 288.362 444.998 288.362 441.376ZM320.776 453.98V428.773H337.88V433.642H326.19V453.98H320.776ZM344.894 441.394C344.894 443.714 345.667 445.683 347.249 447.265C348.813 448.865 350.729 449.656 352.979 449.656C355.229 449.656 357.146 448.865 358.71 447.265C360.292 445.683 361.065 443.714 361.065 441.394C361.065 439.074 360.292 437.105 358.71 435.505C357.146 433.906 355.229 433.097 352.979 433.097C350.729 433.097 348.813 433.906 347.249 435.505C345.667 437.105 344.894 439.074 344.894 441.394ZM339.304 441.376C339.304 437.755 340.622 434.662 343.259 432.095C345.896 429.529 349.147 428.246 352.979 428.246C356.812 428.246 360.063 429.529 362.7 432.095C365.337 434.662 366.655 437.755 366.655 441.376C366.655 444.998 365.337 448.109 362.7 450.675C360.063 453.242 356.812 454.525 352.979 454.525C349.147 454.525 345.896 453.242 343.259 450.675C340.622 448.109 339.304 444.998 339.304 441.376Z" fill="#1D1D1B"/>
<path d="M141.418 471.973V497.18H136.021V486.914H125.229V497.18H119.814V471.973H125.229V482.063H136.021V471.973H141.418ZM152.053 484.594C152.053 486.914 152.826 488.883 154.408 490.465C155.973 492.065 157.889 492.856 160.139 492.856C162.389 492.856 164.305 492.065 165.869 490.465C167.451 488.883 168.225 486.914 168.225 484.594C168.225 482.274 167.451 480.305 165.869 478.705C164.305 477.106 162.389 476.297 160.139 476.297C157.889 476.297 155.973 477.106 154.408 478.705C152.826 480.305 152.053 482.274 152.053 484.594ZM146.463 484.577C146.463 480.955 147.781 477.862 150.418 475.295C153.055 472.729 156.307 471.446 160.139 471.446C163.971 471.446 167.223 472.729 169.859 475.295C172.496 477.862 173.814 480.955 173.814 484.577C173.814 488.198 172.496 491.309 169.859 493.875C167.223 496.442 163.971 497.725 160.139 497.725C156.307 497.725 153.055 496.442 150.418 493.875C147.781 491.309 146.463 488.198 146.463 484.577ZM210.57 471.973V497.18H178.877V471.973H184.291V492.328H192.025V471.973H197.422V492.328H205.156V471.973H210.57ZM222.436 492.328H235.936V497.18H217.021V471.973H235.566V476.842H222.436V481.887H232.684V486.739H222.436V492.328ZM262.566 471.973V497.18H257.17V486.914H246.377V497.18H240.963V471.973H246.377V482.063H257.17V471.973H262.566ZM291.553 497.18H286.156V481.166L273.746 497.18H269.053V471.973H274.467V488.004L286.877 471.973H291.553V497.18ZM316.742 471.973V497.198H311.346V488.373H306.67L301.801 497.198H296.053L301.449 487.653C301.326 487.6 301.168 487.53 300.957 487.424C300.746 487.319 300.395 487.037 299.885 486.616C299.357 486.176 298.9 485.702 298.514 485.209C298.109 484.7 297.74 483.996 297.424 483.118C297.107 482.221 296.949 481.272 296.949 480.27C296.949 477.932 297.758 475.963 299.393 474.364C301.01 472.782 303.084 471.973 305.58 471.973H316.742ZM302.346 480.27C302.346 481.184 302.662 481.94 303.312 482.573C303.963 483.205 304.789 483.522 305.773 483.522H311.346V476.86H305.773C304.789 476.86 303.963 477.176 303.312 477.827C302.662 478.459 302.346 479.286 302.346 480.27Z" fill="#1D1D1B"/>
<path d="M177.19 338.91C152.45 338.91 127.72 338.82 102.98 338.99C95.8901 338.99 89.8901 336.73 85.3301 331.29C79.5901 324.43 78.7501 314.89 84.0701 307.69C87.8701 302.5 89.1301 297.23 89.0701 290.96C88.9001 268.7 89.0701 246.43 89.0701 224.17C89.0701 219.74 89.8301 215.55 92.7001 211.96C95.4354 208.514 99.3998 206.263 103.76 205.68C106.112 205.31 108.52 205.704 110.631 206.804C112.742 207.903 114.445 209.651 115.49 211.79C116.34 213.46 116.93 215.3 117.77 216.98C119.829 221.28 122.901 225.016 126.722 227.866C130.544 230.717 135 232.597 139.708 233.346C144.417 234.094 149.236 233.689 153.753 232.163C158.27 230.638 162.349 228.039 165.64 224.59C168.89 221.151 171.964 217.55 174.85 213.8C181.18 205.93 191.06 205.01 198.74 210.12C204.74 214.12 211.15 217.48 217.15 221.41C236.65 234.41 257.93 243.09 280.72 248.41C291.44 250.92 302.08 253.94 312.64 256.87C326.06 260.55 332.73 269.42 333.07 283.31C333.49 299.55 327.07 312.01 312.97 320.8C298.039 329.971 281.259 335.716 263.84 337.62C256.271 338.47 248.657 338.861 241.04 338.79C219.79 338.99 198.51 338.91 177.19 338.91ZM97.2801 297.14H103.7C138.9 297.56 174.03 299.73 208.9 304.75C226.8 307.26 244.78 308.52 262.9 307.35C274.489 306.76 285.953 304.68 297.01 301.16C306.107 298.305 314.446 293.442 321.41 286.93C324.41 284 325.04 280.99 323.94 277.22C323.217 274.655 321.901 272.295 320.098 270.332C318.294 268.369 316.055 266.858 313.56 265.92C311.79 265.25 309.93 264.75 308.07 264.25C291.35 259.81 274.72 255.25 258 250.69C257.007 250.524 256.005 250.414 255 250.36C254 251.61 253.06 252.78 252.13 253.96C248.84 258.31 245.46 262.66 242.13 267.01C241.2 268.18 240.35 269.44 239.34 270.53C238.672 271.356 237.713 271.893 236.66 272.033C235.607 272.172 234.54 271.903 233.68 271.28C231.68 270.02 231.23 267.68 232.92 265.34C236.55 260.23 240.44 255.34 244.15 250.34C245 249.25 245.59 247.91 246.52 246.49C241.2 244.15 236.47 241.97 231.32 239.71C226.42 246.15 221.69 252.26 217.05 258.37C216.102 259.797 215.028 261.136 213.84 262.37C213.5 262.777 213.081 263.111 212.607 263.349C212.134 263.588 211.616 263.727 211.087 263.758C210.557 263.789 210.027 263.711 209.529 263.529C209.031 263.347 208.575 263.065 208.19 262.7C207.403 262.139 206.861 261.298 206.675 260.349C206.489 259.401 206.673 258.417 207.19 257.6C207.761 256.629 208.41 255.706 209.13 254.84C213.27 249.4 217.41 244.04 221.46 238.52C222.198 237.42 222.866 236.274 223.46 235.09C218.64 232.24 214.09 229.56 209.46 226.72C203.64 234.33 198.15 241.61 192.66 248.81C191.48 250.32 190.47 251.91 189.2 253.33C187.34 255.42 184.98 255.84 183.12 254.59C181.26 253.34 180.84 251.07 182.36 248.59C182.978 247.636 183.646 246.714 184.36 245.83C189.25 239.3 194.15 232.83 199.05 226.33C200.05 224.99 200.82 223.57 201.92 221.98C198.92 220.22 196.43 218.55 193.81 217.04C188.49 214.11 185.12 214.7 180.89 219.47C177.77 223.07 174.98 226.83 171.69 230.26C167.419 234.748 162.116 238.123 156.242 240.092C150.368 242.061 144.102 242.565 137.989 241.558C131.876 240.551 126.102 238.065 121.17 234.317C116.237 230.568 112.297 225.67 109.69 220.05C109.1 218.88 108.69 217.63 108.09 216.46C106.99 214.11 104.96 213.36 102.94 214.61C100.88 215.831 99.1609 217.55 97.9401 219.61C97.0101 221.45 97.0901 223.96 97.0901 226.22C97.0101 247.72 97.0901 269.22 97.0901 290.74L97.2801 297.14ZM322.37 297.98C304.37 307.98 299.07 310.19 285.47 312.98C260.91 317.84 236.25 316.98 211.6 313.65C174.699 308.381 137.466 305.775 100.19 305.85C96.7301 305.85 94.3701 306.69 92.8501 309.78C92.3401 310.78 91.5801 311.63 90.9901 312.63C90.0233 314.202 89.4419 315.981 89.2933 317.821C89.1447 319.661 89.4331 321.51 90.1351 323.217C90.837 324.924 91.9327 326.441 93.3325 327.644C94.7324 328.847 96.3968 329.703 98.1901 330.14C100.604 330.659 103.072 330.884 105.54 330.81C151.21 330.81 196.89 330.89 242.54 330.73C250.908 330.673 259.262 330.028 267.54 328.8C283.92 326.37 299.21 320.8 312.63 310.98C317.005 307.623 320.374 303.13 322.37 297.99V297.98Z" fill="#00A7B8"/>
</svg>
