<svg width="435" height="545" viewBox="0 0 435 545" fill="none" xmlns="http://www.w3.org/2000/svg">
<path d="M384.85 3H50C24.0426 3 3 24.0426 3 50V494.53C3 520.487 24.0426 541.53 50 541.53H384.85C410.807 541.53 431.85 520.487 431.85 494.53V50C431.85 24.0426 410.807 3 384.85 3Z" stroke="#00A7B8" stroke-width="5" stroke-miterlimit="10"/>
<path d="M46.4302 385.85H35.0044V360.643H45.8149C48.1001 360.643 49.981 361.311 51.4751 362.647C52.9692 363.983 53.7251 365.547 53.7251 367.305C53.7251 367.973 53.6196 368.624 53.4438 369.221C53.2505 369.819 53.0044 370.329 52.7231 370.715C52.4243 371.12 52.1255 371.471 51.8442 371.752C51.563 372.034 51.3169 372.245 51.1411 372.35L50.8423 372.526C50.9478 372.579 51.106 372.649 51.2817 372.737C51.4575 372.825 51.7915 373.036 52.2837 373.387C52.7583 373.739 53.1802 374.108 53.5493 374.512C53.9009 374.934 54.2349 375.497 54.5337 376.2C54.8325 376.903 54.9907 377.659 54.9907 378.467C54.9907 380.489 54.1821 382.229 52.5825 383.67C50.9653 385.129 48.9263 385.85 46.4302 385.85ZM40.4185 381.35H46.1665C47.1509 381.35 47.9595 381.051 48.6099 380.418C49.2603 379.803 49.5942 379.03 49.5942 378.116C49.5942 377.202 49.2603 376.446 48.6099 375.813C47.9595 375.18 47.1509 374.864 46.1665 374.864H40.4185V381.35ZM45.4458 365.143H40.4185V370.557H45.4458C46.3247 370.557 47.0278 370.311 47.5552 369.819C48.0649 369.327 48.3286 368.676 48.3286 367.85C48.3286 367.042 48.0649 366.374 47.5552 365.881C47.0278 365.389 46.3247 365.143 45.4458 365.143ZM88.8462 360.643V385.85H83.4497V365.512H72.8325V385.85H67.4185V360.643H88.8462ZM114.053 360.643V385.868H108.657V377.043H103.981L99.1118 385.868H93.3638L98.7603 376.323C98.6372 376.27 98.479 376.2 98.2681 376.094C98.0571 375.989 97.7056 375.708 97.1958 375.286C96.6685 374.846 96.2114 374.372 95.8247 373.879C95.4204 373.37 95.0513 372.667 94.7349 371.788C94.4185 370.891 94.2603 369.942 94.2603 368.94C94.2603 366.602 95.0688 364.633 96.7036 363.034C98.3208 361.452 100.395 360.643 102.891 360.643H114.053ZM99.6567 368.94C99.6567 369.854 99.9731 370.61 100.624 371.243C101.274 371.875 102.1 372.192 103.084 372.192H108.657V365.53H103.084C102.1 365.53 101.274 365.846 100.624 366.497C99.9731 367.129 99.6567 367.956 99.6567 368.94ZM118.026 360.643H137.819V365.512H130.629V385.85H125.233V365.512H118.026V360.643ZM144.481 373.264C144.481 375.584 145.254 377.553 146.836 379.135C148.401 380.735 150.317 381.526 152.567 381.526C154.817 381.526 156.733 380.735 158.297 379.135C159.879 377.553 160.653 375.584 160.653 373.264C160.653 370.944 159.879 368.975 158.297 367.375C156.733 365.776 154.817 364.967 152.567 364.967C150.317 364.967 148.401 365.776 146.836 367.375C145.254 368.975 144.481 370.944 144.481 373.264ZM138.891 373.247C138.891 369.625 140.209 366.532 142.846 363.965C145.483 361.399 148.735 360.116 152.567 360.116C156.399 360.116 159.651 361.399 162.288 363.965C164.924 366.532 166.243 369.625 166.243 373.247C166.243 376.868 164.924 379.979 162.288 382.545C159.651 385.112 156.399 386.395 152.567 386.395C148.735 386.395 145.483 385.112 142.846 382.545C140.209 379.979 138.891 376.868 138.891 373.247ZM176.35 360.643V368.395C176.35 369.907 176.737 371.067 177.51 371.875C178.284 372.684 179.409 373.071 180.85 373.071C181.729 373.071 182.59 372.93 183.434 372.631C184.278 372.333 184.893 372.034 185.28 371.735L185.895 371.278V360.643H191.292V385.85H185.895V376.499C184.331 377.465 182.344 377.94 179.954 377.922C177.141 377.922 174.926 377.096 173.344 375.426C171.745 373.774 170.954 371.418 170.954 368.395V360.643H176.35ZM219.381 360.643V385.85H213.985V375.584H203.192V385.85H197.778V360.643H203.192V370.733H213.985V360.643H219.381ZM230.016 373.264C230.016 375.584 230.79 377.553 232.372 379.135C233.936 380.735 235.852 381.526 238.102 381.526C240.352 381.526 242.268 380.735 243.833 379.135C245.415 377.553 246.188 375.584 246.188 373.264C246.188 370.944 245.415 368.975 243.833 367.375C242.268 365.776 240.352 364.967 238.102 364.967C235.852 364.967 233.936 365.776 232.372 367.375C230.79 368.975 230.016 370.944 230.016 373.264ZM224.426 373.247C224.426 369.625 225.745 366.532 228.381 363.965C231.018 361.399 234.27 360.116 238.102 360.116C241.934 360.116 245.186 361.399 247.823 363.965C250.459 366.532 251.778 369.625 251.778 373.247C251.778 376.868 250.459 379.979 247.823 382.545C245.186 385.112 241.934 386.395 238.102 386.395C234.27 386.395 231.018 385.112 228.381 382.545C225.745 379.979 224.426 376.868 224.426 373.247ZM268.002 354.35C268.618 354.35 269.127 354.157 269.549 353.735C269.954 353.331 270.165 352.821 270.165 352.206H273.768C273.768 353.823 273.223 355.159 272.168 356.213C271.096 357.268 269.708 357.795 268.002 357.795C266.297 357.795 264.909 357.268 263.854 356.213C262.782 355.159 262.254 353.823 262.254 352.206H265.84C265.84 352.821 266.034 353.331 266.456 353.735C266.86 354.157 267.37 354.35 268.002 354.35ZM279.34 385.85H273.944V369.836L261.534 385.85H256.84V360.643H262.254V376.674L274.665 360.643H279.34V385.85ZM298.237 360.643V368.395C298.237 369.907 298.624 371.067 299.397 371.875C300.17 372.684 301.295 373.071 302.737 373.071C303.616 373.071 304.477 372.93 305.321 372.631C306.165 372.333 306.78 372.034 307.167 371.735L307.782 371.278V360.643H313.178V385.85H307.782V376.499C306.217 377.465 304.231 377.94 301.84 377.922C299.028 377.922 296.813 377.096 295.231 375.426C293.631 373.774 292.84 371.418 292.84 368.395V360.643H298.237ZM332.637 375.233L329.579 366.954L326.502 375.233H332.637ZM334.43 379.909H324.709L322.547 385.85H316.782L326.696 360.643H332.444L342.358 385.85H336.592L334.43 379.909ZM356.772 360.116C358.09 360.116 359.356 360.292 360.551 360.643C361.747 360.995 362.713 361.399 363.487 361.891C364.26 362.383 364.928 362.875 365.526 363.368C366.124 363.86 366.545 364.282 366.809 364.616L367.213 365.143L363.786 368.571C363.715 368.483 363.61 368.36 363.487 368.184C363.364 368.008 363.083 367.727 362.661 367.305C362.239 366.901 361.764 366.549 361.272 366.233C360.762 365.917 360.094 365.635 359.286 365.372C358.459 365.108 357.616 364.967 356.772 364.967C354.417 364.967 352.448 365.758 350.866 367.34C349.284 368.922 348.493 370.891 348.493 373.247C348.493 375.602 349.284 377.571 350.866 379.153C352.448 380.735 354.417 381.526 356.772 381.526C357.686 381.526 358.547 381.403 359.391 381.157C360.235 380.911 360.92 380.612 361.483 380.26C362.028 379.909 362.52 379.557 362.942 379.206C363.364 378.854 363.663 378.555 363.856 378.292L364.137 377.922L367.389 381.35C367.284 381.491 367.143 381.684 366.95 381.913C366.756 382.141 366.334 382.545 365.667 383.125C364.999 383.706 364.295 384.215 363.54 384.655C362.784 385.094 361.799 385.499 360.569 385.85C359.338 386.219 358.073 386.395 356.772 386.395C352.922 386.395 349.67 385.112 347.034 382.545C344.397 379.979 343.079 376.868 343.079 373.247C343.079 369.625 344.397 366.532 347.034 363.965C349.67 361.399 352.922 360.116 356.772 360.116ZM369.182 360.643H388.975V365.512H381.786V385.85H376.389V365.512H369.182V360.643ZM415.43 385.85H410.034V369.836L397.624 385.85H392.93V360.643H398.344V376.674L410.754 360.643H415.43V385.85Z" fill="#1D1D1B"/>
<path d="M79.8306 417.263L86.6685 430.411L92.7856 417.263H96.9341L87.9341 436.353C86.8794 438.62 85.7192 440.272 84.4888 441.292C83.2583 442.312 81.6411 442.821 79.6548 442.821C79.2153 442.821 78.7935 442.786 78.3716 442.681C77.9497 442.593 77.6333 442.505 77.4224 442.399L77.1235 442.294V438.866C77.5981 439.112 78.3188 439.235 79.2856 439.235C80.4458 439.235 81.3774 439.007 82.0454 438.532C82.7134 438.075 83.2935 437.337 83.7856 436.353L84.6821 434.542L75.6821 417.263H79.8306ZM107.358 432.749L113.668 425.19H116.551V442.47H112.948V431.132L107.358 437.794L101.786 431.132V442.47H98.1821V425.19H101.065L107.358 432.749ZM137.61 435.087H124.092C124.286 436.317 124.883 437.372 125.903 438.251C126.922 439.147 128.118 439.587 129.506 439.587C130.526 439.587 131.458 439.358 132.336 438.901C133.215 438.444 133.831 438.005 134.182 437.565L134.727 436.897L137.065 439.235C136.995 439.341 136.889 439.464 136.749 439.64C136.608 439.815 136.292 440.097 135.799 440.501C135.325 440.905 134.815 441.257 134.27 441.573C133.743 441.89 133.04 442.171 132.178 442.435C131.317 442.698 130.42 442.821 129.506 442.821C127.063 442.821 124.954 441.925 123.178 440.132C121.403 438.339 120.506 436.177 120.506 433.646C120.506 431.22 121.385 429.146 123.108 427.423C124.831 425.7 126.905 424.821 129.331 424.821C131.756 424.821 133.76 425.63 135.377 427.247C136.995 428.864 137.803 430.868 137.803 433.294L137.61 435.087ZM129.313 427.897C128.012 427.897 126.922 428.284 126.043 429.058C125.165 429.831 124.567 430.815 124.25 432.028H134.252C134.042 430.815 133.497 429.831 132.618 429.058C131.739 428.284 130.649 427.897 129.313 427.897ZM150.917 442.821C150.266 442.821 149.633 442.751 149.036 442.593C148.42 442.452 147.893 442.259 147.471 442.03C147.032 441.802 146.645 441.573 146.311 441.327C145.977 441.081 145.731 440.888 145.59 440.747L145.344 440.483V450.028H141.741V425.19H145.344V427.177C145.502 427.019 145.731 426.808 146.03 426.526C146.329 426.263 146.961 425.911 147.946 425.472C148.913 425.05 149.897 424.821 150.917 424.821C153.202 424.821 155.17 425.7 156.858 427.458C158.545 429.216 159.389 431.325 159.389 433.821C159.389 436.317 158.545 438.444 156.858 440.202C155.17 441.96 153.202 442.821 150.917 442.821ZM150.565 428.073C149.194 428.073 147.981 428.636 146.926 429.761C145.872 430.886 145.344 432.257 145.344 433.839C145.344 435.421 145.872 436.774 146.926 437.899C147.981 439.024 149.194 439.587 150.565 439.587C151.936 439.587 153.149 439.024 154.204 437.899C155.258 436.774 155.786 435.421 155.786 433.839C155.786 432.257 155.258 430.886 154.204 429.761C153.149 428.636 151.936 428.073 150.565 428.073ZM179.34 435.087H165.823C166.016 436.317 166.614 437.372 167.633 438.251C168.653 439.147 169.848 439.587 171.237 439.587C172.256 439.587 173.188 439.358 174.067 438.901C174.946 438.444 175.561 438.005 175.913 437.565L176.458 436.897L178.795 439.235C178.725 439.341 178.62 439.464 178.479 439.64C178.338 439.815 178.022 440.097 177.53 440.501C177.055 440.905 176.545 441.257 176 441.573C175.473 441.89 174.77 442.171 173.909 442.435C173.047 442.698 172.151 442.821 171.237 442.821C168.793 442.821 166.684 441.925 164.909 440.132C163.133 438.339 162.237 436.177 162.237 433.646C162.237 431.22 163.116 429.146 164.838 427.423C166.561 425.7 168.635 424.821 171.061 424.821C173.487 424.821 175.491 425.63 177.108 427.247C178.725 428.864 179.534 430.868 179.534 433.294L179.34 435.087ZM171.043 427.897C169.743 427.897 168.653 428.284 167.774 429.058C166.895 429.831 166.297 430.815 165.981 432.028H175.983C175.772 430.815 175.227 429.831 174.348 429.058C173.469 428.284 172.379 427.897 171.043 427.897ZM187.075 435.263V442.47H183.471V425.19H187.075V432.028H195.53V425.19H199.133V442.47H195.53V435.263H187.075ZM207.782 435.263V442.47H204.178V425.19H207.782V432.028H216.237V425.19H219.84V442.47H216.237V435.263H207.782ZM238.754 442.47L235.151 442.487V440.694C235.098 440.729 235.01 440.817 234.905 440.923C234.799 441.028 234.571 441.187 234.237 441.433C233.903 441.679 233.551 441.89 233.165 442.083C232.778 442.276 232.286 442.452 231.706 442.61C231.108 442.751 230.528 442.839 229.93 442.839C228.172 442.839 226.713 442.329 225.553 441.31C224.393 440.29 223.813 439.112 223.813 437.812C223.813 436.388 224.252 435.192 225.149 434.226C226.045 433.276 227.276 432.661 228.84 432.397L235.151 431.308C235.151 430.394 234.799 429.638 234.131 429.005C233.463 428.39 232.602 428.073 231.547 428.073C230.633 428.073 229.79 428.267 229.051 428.653C228.313 429.04 227.803 429.409 227.522 429.796L227.047 430.411L224.709 428.073C224.78 427.985 224.868 427.862 224.991 427.722C225.114 427.581 225.395 427.317 225.817 426.948C226.239 426.579 226.696 426.245 227.188 425.946C227.663 425.665 228.295 425.401 229.086 425.173C229.877 424.944 230.704 424.821 231.547 424.821C233.657 424.821 235.379 425.454 236.733 426.702C238.069 427.95 238.754 429.479 238.754 431.308V442.47ZM230.475 439.604C231.934 439.604 233.077 439.165 233.903 438.286C234.729 437.407 235.151 436.177 235.151 434.56V434.208L229.561 435.104C228.911 435.21 228.383 435.474 227.997 435.896C227.592 436.3 227.399 436.81 227.399 437.425C227.399 438.005 227.663 438.515 228.225 438.954C228.788 439.376 229.526 439.604 230.475 439.604ZM249.565 425.19H257.458V442.47H253.872V437.073H250.092L246.665 442.47H242.709L246.489 436.528C246.401 436.511 246.278 436.458 246.12 436.37C245.961 436.3 245.68 436.106 245.293 435.825C244.907 435.544 244.573 435.21 244.274 434.823C243.975 434.454 243.694 433.944 243.448 433.276C243.202 432.608 243.061 431.905 243.061 431.132C243.061 429.409 243.659 428.003 244.854 426.878C246.049 425.753 247.614 425.19 249.565 425.19ZM253.872 428.249H249.547C248.739 428.249 248.053 428.53 247.491 429.075C246.946 429.638 246.665 430.323 246.665 431.132C246.665 431.958 246.946 432.644 247.491 433.188C248.053 433.751 248.739 434.015 249.547 434.015H253.872V428.249ZM286.989 434.015C286.989 436.44 286.127 438.515 284.422 440.237C282.717 441.96 280.696 442.821 278.34 442.821C275.633 442.821 273.471 441.854 271.819 439.921C270.167 437.987 269.34 435.175 269.34 431.501C269.34 427.3 270.131 424.153 271.678 422.062C273.243 419.952 275.458 418.669 278.34 418.194C279.624 417.983 280.766 417.702 281.786 417.386C282.805 417.052 283.508 416.771 283.895 416.56L284.475 416.208L286.092 418.915C286.022 419.003 285.864 419.144 285.653 419.319C285.442 419.495 284.704 419.812 283.456 420.269C282.208 420.726 280.625 421.112 278.709 421.429C277.057 421.692 275.721 422.378 274.719 423.485C273.7 424.575 273.12 426.052 272.944 427.915C272.979 427.845 273.067 427.739 273.19 427.616C273.313 427.493 273.559 427.282 273.946 426.966C274.315 426.649 274.702 426.386 275.124 426.14C275.545 425.894 276.073 425.683 276.723 425.489C277.374 425.296 278.042 425.19 278.709 425.19C280.889 425.19 282.805 426.069 284.475 427.81C286.145 429.55 286.989 431.624 286.989 434.015ZM273.295 434.015C273.295 435.597 273.805 436.933 274.79 437.987C275.792 439.06 276.969 439.587 278.34 439.587C279.711 439.587 280.889 439.06 281.891 437.987C282.875 436.933 283.385 435.597 283.385 434.015C283.385 432.433 282.875 431.114 281.891 430.042C280.889 428.97 279.711 428.425 278.34 428.425C276.969 428.425 275.792 428.97 274.79 430.042C273.805 431.114 273.295 432.433 273.295 434.015ZM304.62 433.839C304.62 432.222 304.075 430.868 303.02 429.743C301.948 428.636 300.682 428.073 299.223 428.073C297.747 428.073 296.481 428.636 295.409 429.743C294.336 430.868 293.809 432.222 293.809 433.839C293.809 435.456 294.336 436.81 295.409 437.917C296.481 439.042 297.747 439.587 299.223 439.587C300.682 439.587 301.948 439.042 303.02 437.917C304.075 436.81 304.62 435.456 304.62 433.839ZM290.223 433.839C290.223 431.413 291.102 429.304 292.895 427.511C294.688 425.718 296.797 424.821 299.223 424.821C301.649 424.821 303.741 425.718 305.534 427.511C307.327 429.304 308.223 431.413 308.223 433.839C308.223 436.265 307.327 438.356 305.534 440.149C303.741 441.942 301.649 442.839 299.223 442.839C296.797 442.839 294.688 441.942 292.895 440.149C291.102 438.356 290.223 436.265 290.223 433.839ZM314.165 425.19L327.471 425.208V442.487H323.868V428.442H317.75V430.253C317.75 433.54 317.504 436.142 316.977 438.04C316.45 439.938 315.782 441.222 314.973 441.872C314.165 442.505 313.11 442.839 311.827 442.839C311.51 442.839 311.159 442.804 310.807 442.751C310.456 442.681 310.174 442.628 309.981 442.558L309.665 442.487V439.06C310.139 439.165 310.561 439.235 310.913 439.253C311.651 439.253 312.231 439.042 312.653 438.655C313.075 438.251 313.444 437.372 313.725 436.001C314.006 434.63 314.165 432.714 314.165 430.235V425.19ZM336.137 439.411H340.092C340.901 439.411 341.586 439.147 342.149 438.585C342.694 438.04 342.975 437.354 342.975 436.528C342.975 435.72 342.694 435.034 342.149 434.472C341.586 433.927 340.901 433.646 340.092 433.646H336.137V439.411ZM346.579 436.546C346.579 438.269 345.981 439.692 344.786 440.8C343.59 441.925 342.026 442.47 340.075 442.47H332.516V425.19H336.12V430.587H340.075C342.026 430.587 343.59 431.149 344.786 432.274C345.981 433.399 346.579 434.823 346.579 436.546Z" fill="#878787"/>
<path d="M125.341 471.625V485.67H121.738V468.391H137.4V485.67H133.796V471.625H125.341ZM151.621 486.021C150.97 486.021 150.337 485.951 149.74 485.793C149.125 485.652 148.597 485.459 148.175 485.23C147.736 485.002 147.349 484.773 147.015 484.527C146.681 484.281 146.435 484.088 146.294 483.947L146.048 483.684V493.229H142.445V468.391H146.048V470.377C146.207 470.219 146.435 470.008 146.734 469.727C147.033 469.463 147.666 469.111 148.65 468.672C149.617 468.25 150.601 468.021 151.621 468.021C153.906 468.021 155.875 468.9 157.562 470.658C159.25 472.416 160.093 474.525 160.093 477.021C160.093 479.518 159.25 481.645 157.562 483.402C155.875 485.16 153.906 486.021 151.621 486.021ZM151.269 471.273C149.898 471.273 148.685 471.836 147.63 472.961C146.576 474.086 146.048 475.457 146.048 477.039C146.048 478.621 146.576 479.975 147.63 481.1C148.685 482.225 149.898 482.787 151.269 482.787C152.64 482.787 153.853 482.225 154.908 481.1C155.962 479.975 156.49 478.621 156.49 477.039C156.49 475.457 155.962 474.086 154.908 472.961C153.853 471.836 152.64 471.273 151.269 471.273ZM176.634 468.391H179.869V485.67H176.265V474.332L167.265 485.67H164.031V468.391H167.634V479.729L176.634 468.391ZM200.769 476.67L207.238 485.67H203.107L198.607 479.377L194.107 485.67H189.958L196.445 476.67L190.503 468.391H194.634L198.607 473.963L202.562 468.391H206.71L200.769 476.67ZM223.445 477.039C223.445 475.422 222.9 474.068 221.845 472.943C220.773 471.836 219.507 471.273 218.048 471.273C216.572 471.273 215.306 471.836 214.234 472.943C213.162 474.068 212.634 475.422 212.634 477.039C212.634 478.656 213.162 480.01 214.234 481.117C215.306 482.242 216.572 482.787 218.048 482.787C219.507 482.787 220.773 482.242 221.845 481.117C222.9 480.01 223.445 478.656 223.445 477.039ZM209.048 477.039C209.048 474.613 209.927 472.504 211.72 470.711C213.513 468.918 215.623 468.021 218.048 468.021C220.474 468.021 222.566 468.918 224.359 470.711C226.152 472.504 227.048 474.613 227.048 477.039C227.048 479.465 226.152 481.557 224.359 483.35C222.566 485.143 220.474 486.039 218.048 486.039C215.623 486.039 213.513 485.143 211.72 483.35C209.927 481.557 209.048 479.465 209.048 477.039ZM228.49 482.436H229.738C229.808 482.365 229.896 482.26 230.037 482.102C230.177 481.943 230.406 481.592 230.74 481.029C231.074 480.484 231.373 479.887 231.619 479.254C231.865 478.621 232.093 477.777 232.304 476.723C232.515 475.686 232.621 474.596 232.621 473.436V468.391H245.224V482.436H247.738V489.994H244.152V485.67H232.093V489.994H228.49V482.436ZM236.224 471.625L236.207 473.436C236.207 474.596 236.119 475.686 235.925 476.705C235.732 477.742 235.486 478.604 235.205 479.271C234.923 479.939 234.625 480.52 234.343 481.012C234.062 481.504 233.816 481.855 233.64 482.066L233.341 482.436H241.621V471.625H236.224ZM254.962 482.611H258.917C259.726 482.611 260.412 482.348 260.974 481.785C261.519 481.24 261.8 480.555 261.8 479.729C261.8 478.92 261.519 478.234 260.974 477.672C260.412 477.127 259.726 476.846 258.917 476.846H254.962V482.611ZM265.404 479.746C265.404 481.469 264.806 482.893 263.611 484C262.416 485.125 260.851 485.67 258.9 485.67H251.341V468.391H254.945V473.787H258.9C260.851 473.787 262.416 474.35 263.611 475.475C264.806 476.6 265.404 478.023 265.404 479.746ZM286.638 477.215C286.638 479.641 285.777 481.715 284.072 483.438C282.367 485.16 280.345 486.021 277.99 486.021C275.283 486.021 273.121 485.055 271.468 483.121C269.816 481.188 268.99 478.375 268.99 474.701C268.99 470.5 269.781 467.354 271.328 465.262C272.892 463.152 275.107 461.869 277.99 461.395C279.273 461.184 280.416 460.902 281.435 460.586C282.455 460.252 283.158 459.971 283.544 459.76L284.125 459.408L285.742 462.115C285.671 462.203 285.513 462.344 285.302 462.52C285.091 462.695 284.353 463.012 283.105 463.469C281.857 463.926 280.275 464.312 278.359 464.629C276.707 464.893 275.371 465.578 274.369 466.686C273.349 467.775 272.769 469.252 272.593 471.115C272.628 471.045 272.716 470.939 272.839 470.816C272.962 470.693 273.208 470.482 273.595 470.166C273.964 469.85 274.351 469.586 274.773 469.34C275.195 469.094 275.722 468.883 276.373 468.689C277.023 468.496 277.691 468.391 278.359 468.391C280.539 468.391 282.455 469.27 284.125 471.01C285.794 472.75 286.638 474.824 286.638 477.215ZM272.945 477.215C272.945 478.797 273.455 480.133 274.439 481.188C275.441 482.26 276.619 482.787 277.99 482.787C279.361 482.787 280.539 482.26 281.541 481.188C282.525 480.133 283.035 478.797 283.035 477.215C283.035 475.633 282.525 474.314 281.541 473.242C280.539 472.17 279.361 471.625 277.99 471.625C276.619 471.625 275.441 472.17 274.439 473.242C273.455 474.314 272.945 475.633 272.945 477.215ZM306.958 478.287H293.441C293.634 479.518 294.232 480.572 295.251 481.451C296.271 482.348 297.466 482.787 298.855 482.787C299.875 482.787 300.806 482.559 301.685 482.102C302.564 481.645 303.179 481.205 303.531 480.766L304.076 480.098L306.414 482.436C306.343 482.541 306.238 482.664 306.097 482.84C305.957 483.016 305.64 483.297 305.148 483.701C304.673 484.105 304.164 484.457 303.619 484.773C303.091 485.09 302.388 485.371 301.527 485.635C300.666 485.898 299.769 486.021 298.855 486.021C296.412 486.021 294.302 485.125 292.527 483.332C290.751 481.539 289.855 479.377 289.855 476.846C289.855 474.42 290.734 472.346 292.457 470.623C294.179 468.9 296.253 468.021 298.679 468.021C301.105 468.021 303.109 468.83 304.726 470.447C306.343 472.064 307.152 474.068 307.152 476.494L306.958 478.287ZM298.662 471.098C297.361 471.098 296.271 471.484 295.392 472.258C294.513 473.031 293.916 474.016 293.599 475.229H303.601C303.39 474.016 302.845 473.031 301.966 472.258C301.087 471.484 299.998 471.098 298.662 471.098Z" fill="#878787"/>
<path fill-rule="evenodd" clip-rule="evenodd" d="M122.11 80.7002C118.11 80.7002 114.88 83.0401 112.75 86.1501C110.482 89.6261 109.305 93.7005 109.37 97.8502C109.314 102.002 110.491 106.077 112.75 109.56C114.88 112.68 118.14 115.03 122.11 115.03C126.08 115.03 129.33 112.67 131.45 109.56C133.655 106.053 134.825 101.994 134.825 97.8502C134.825 93.7069 133.655 89.6479 131.45 86.1403C129.32 83.0403 126.07 80.7002 122.11 80.7002ZM117.73 106.16C116.16 103.677 115.353 100.788 115.41 97.8502C115.349 94.9217 116.157 92.0407 117.73 89.5702C119.11 87.5702 120.73 86.7402 122.11 86.7402C123.49 86.7402 125.11 87.5602 126.47 89.5702C127.986 92.0713 128.788 94.9403 128.788 97.8652C128.788 100.79 127.986 103.659 126.47 106.16C125.09 108.16 123.47 108.99 122.12 108.99C120.77 108.99 119.11 108.17 117.73 106.16ZM109.39 100.16C109.026 97.2737 107.803 94.5634 105.88 92.3802C105.01 91.276 103.865 90.4205 102.559 89.8999C101.253 89.3793 99.8331 89.2119 98.442 89.4147C97.051 89.6174 95.7379 90.1832 94.6351 91.0549C93.5323 91.9267 92.6786 93.0736 92.1601 94.3802C91.0174 96.8073 90.5775 99.5058 90.8901 102.17C90.4411 101.518 89.9213 100.918 89.3401 100.38C88.5347 99.542 87.5248 98.928 86.41 98.5989C85.2951 98.2697 84.1137 98.2367 82.9822 98.5032C81.8507 98.7696 80.8081 99.3263 79.9573 100.118C79.1065 100.91 78.4767 101.911 78.1301 103.02C77.3811 105.188 77.2655 107.525 77.7969 109.757C78.3282 111.988 79.4844 114.022 81.1301 115.62C81.9365 116.458 82.9472 117.072 84.0627 117.401C85.1781 117.73 86.36 117.762 87.492 117.496C88.6241 117.23 89.6673 116.673 90.5191 115.881C91.3708 115.09 92.0019 114.09 92.3501 112.98C92.8694 111.592 93.0974 110.111 93.0201 108.63C93.4491 109.34 93.9411 110.009 94.4901 110.63C95.3591 111.739 96.5057 112.599 97.8139 113.123C99.1221 113.647 100.545 113.816 101.94 113.613C103.334 113.41 104.65 112.842 105.755 111.967C106.859 111.092 107.713 109.941 108.23 108.63C109.453 105.996 109.857 103.056 109.39 100.19V100.16ZM99.3101 95.3903C99.7245 95.3852 100.134 95.4808 100.503 95.6689C100.872 95.8571 101.191 96.132 101.43 96.4702C102.531 97.7526 103.227 99.3325 103.43 101.01C103.715 102.672 103.499 104.381 102.81 105.92C102.22 107.12 101.52 107.48 101.08 107.54C100.662 107.548 100.249 107.454 99.8759 107.266C99.5028 107.078 99.1816 106.801 98.9401 106.46C97.8389 105.178 97.1428 103.598 96.9401 101.92C96.6653 100.258 96.8808 98.5519 97.5601 97.0103C98.1601 95.8003 98.8501 95.4402 99.2901 95.3802L99.3101 95.3903ZM84.3701 104.39C84.4428 104.377 84.5174 104.377 84.5901 104.39C84.8431 104.491 85.0741 104.641 85.2701 104.83C86.0376 105.596 86.5657 106.569 86.7901 107.63C87.0659 108.667 87.0311 109.763 86.6901 110.78C86.6014 111.035 86.462 111.27 86.2801 111.47C86.2288 111.529 86.1634 111.574 86.0901 111.6C86.0147 111.62 85.9355 111.62 85.8601 111.6C85.605 111.503 85.3733 111.353 85.1801 111.16C84.4139 110.4 83.8917 109.429 83.6801 108.37C83.3992 107.33 83.434 106.23 83.7801 105.21C83.8687 104.955 84.0082 104.72 84.1901 104.52C84.2381 104.457 84.2996 104.406 84.3701 104.37V104.39ZM79.3701 113.92C78.6008 111.906 77.2503 110.166 75.4901 108.92C74.618 108.241 73.5842 107.801 72.4903 107.642C71.3965 107.484 70.2802 107.613 69.2513 108.016C68.2223 108.42 67.316 109.084 66.6215 109.944C65.927 110.804 65.4681 111.829 65.2901 112.92C64.8929 115.034 65.104 117.217 65.8989 119.216C66.6937 121.215 68.0396 122.946 69.7801 124.21C70.6522 124.887 71.6851 125.325 72.7776 125.482C73.87 125.639 74.9846 125.51 76.012 125.107C77.0394 124.703 77.9444 124.04 78.6383 123.182C79.3321 122.323 79.7911 121.299 79.9701 120.21C80.3956 118.091 80.1762 115.893 79.3401 113.9L79.3701 113.92ZM72.1001 113.92C72.0478 113.806 71.9538 113.716 71.8374 113.67C71.721 113.623 71.591 113.623 71.4744 113.669C71.3577 113.715 71.2632 113.804 71.2103 113.918C71.1574 114.031 71.1502 114.161 71.1901 114.28C71.0289 115.202 71.1401 116.151 71.5101 117.01C71.8334 117.894 72.4067 118.666 73.1601 119.23C73.3447 119.377 73.5661 119.47 73.8001 119.5C73.9567 119.325 74.0547 119.104 74.0801 118.87C74.2154 117.935 74.1018 116.98 73.7507 116.102C73.3996 115.224 72.8234 114.454 72.0801 113.87L72.1001 113.92ZM77.5401 135C82.3804 130.403 88.2715 127.059 94.7001 125.26C100.7 124.04 111.06 122.26 119.8 123.14C124.2 123.57 127.8 124.66 130.31 126.5C132.62 128.21 134.15 130.75 134.15 134.86C134.065 136.402 133.627 137.904 132.87 139.25C131.897 141.072 130.752 142.797 129.45 144.4C128.15 146.07 126.76 147.64 125.45 149.08L125.3 149.26C124.131 150.527 123.039 151.863 122.03 153.26C117.94 159.39 115.12 165.68 114.27 172.35C113.42 179.02 114.58 185.93 118.1 193.11C119.8 196.58 121.55 199.54 123.21 202.27L124.44 204.27C125.66 206.27 126.81 208.1 127.89 210.05C131.195 215.836 133.31 222.225 134.11 228.84C134.11 237.27 133.34 243.1 131.32 247.03C129.45 250.67 126.32 253.03 120.32 253.96C109.08 255.76 97.2101 246.03 94.7501 230.73C94.0601 226.37 93.4901 222.56 92.9801 219.08C90.9801 205.16 89.6701 196.55 83.6001 179.48C83.3857 178.797 83.1251 178.128 82.8201 177.48C82.4601 176.69 82.0001 175.74 81.4801 174.7L80.4801 172.79C79.6401 171.11 78.7001 169.23 77.7301 167.21C74.9901 161.51 72.3301 155.28 71.5901 150.69C71.586 150.667 71.586 150.643 71.5901 150.62C70.6201 144.87 72.9601 139.55 77.5101 134.96L77.5401 135ZM140.19 134.86C140.19 128.92 137.83 124.55 133.92 121.65C130.18 118.86 125.29 117.65 120.4 117.12C110.62 116.12 99.4001 118.12 93.4001 119.36H93.1801C85.7136 121.432 78.8767 125.321 73.2801 130.68C67.8501 136.1 64.2001 143.31 65.7401 151.58C66.6501 157.14 69.6801 164.08 72.3901 169.72C73.3901 171.78 74.3901 173.72 75.2101 175.44L76.1401 177.28C76.6501 178.28 77.0701 179.18 77.3801 179.86C77.5301 180.21 77.6501 180.48 77.7301 180.69C77.8101 180.9 77.8201 180.94 77.8301 180.96C77.8301 181.07 77.8901 181.18 77.9301 181.29C83.8301 197.85 85.0201 205.91 87.0501 219.73C87.5701 223.24 88.1401 227.11 88.8501 231.6C91.6601 249.03 105.75 262.33 121.34 259.84C128.78 258.66 133.81 255.41 136.74 249.71C139.51 244.34 140.21 237.14 140.2 228.54C140.21 228.407 140.21 228.273 140.2 228.14C139.318 220.703 136.955 213.519 133.25 207.01C132.09 204.93 130.84 202.92 129.6 200.91L128.45 199.04C126.82 196.38 125.19 193.61 123.61 190.38C120.55 184.15 119.61 178.47 120.35 173.04C121.09 167.61 123.35 162.17 127.13 156.55C128.006 155.38 128.94 154.255 129.93 153.18L130.1 152.99C131.35 151.57 132.83 149.89 134.25 148.08C135.794 146.164 137.15 144.105 138.3 141.93C139.457 139.749 140.094 137.329 140.16 134.86H140.19ZM68.8901 124.86C68.0543 123.057 66.6863 121.553 64.9701 120.55C64.1825 120.054 63.3315 119.668 62.4401 119.4C61.3535 119.055 60.1835 119.076 59.1101 119.46C58.1983 119.891 57.4023 120.533 56.7884 121.333C56.1745 122.133 55.7602 123.068 55.5801 124.06C55.0881 126.238 55.2802 128.515 56.1301 130.58C56.5611 131.705 57.2631 132.706 58.1736 133.494C59.0842 134.283 60.1753 134.834 61.3501 135.1C63.0242 135.499 64.778 135.405 66.4001 134.83C67.4988 134.375 68.3848 133.521 68.8801 132.44C69.2454 131.626 69.4751 130.758 69.5601 129.87C69.7231 128.175 69.4973 126.465 68.9001 124.87L68.8901 124.86ZM61.7501 128.36C61.36 127.456 61.2553 126.455 61.4501 125.49L61.7801 125.68C62.169 125.92 62.5281 126.206 62.8501 126.53C63.02 126.695 63.1649 126.884 63.2801 127.09C63.5246 127.789 63.6133 128.533 63.5401 129.27C63.2814 129.283 63.0223 129.259 62.7701 129.2C62.546 129.152 62.3347 129.056 62.1501 128.92C61.9625 128.793 61.8137 128.617 61.7201 128.41L61.7501 128.36ZM63.2801 127.09L66.0901 125.97L63.2801 127.08V127.09ZM257.28 104.09C257.677 104.059 258.075 104.107 258.453 104.231C258.831 104.355 259.181 104.554 259.481 104.814C259.782 105.075 260.028 105.392 260.204 105.749C260.381 106.105 260.485 106.493 260.51 106.89V107.17C261.43 120.37 262.74 139.17 266.21 155.59C267.96 163.87 270.21 171.4 273.21 177.26C276.21 183.12 279.65 186.95 283.56 188.47C302.49 195.79 321.37 204.77 348.14 219.25C350.546 220.55 353.157 221.43 355.86 221.85C361.71 222.75 366.98 223.65 371.46 224.73C375.435 225.551 379.262 226.97 382.81 228.94C384.337 229.772 385.675 230.913 386.737 232.291C387.799 233.668 388.563 235.251 388.98 236.94C389.75 240.35 388.98 244.13 387.07 248.24C385.77 251.08 382.65 252.55 379.87 253.38C376.471 254.293 372.978 254.813 369.46 254.93C362.316 255.293 355.156 254.698 348.17 253.16C347.489 252.982 346.783 252.911 346.08 252.95C317.39 255.08 302.47 252.95 290.89 250.12C288.32 249.5 285.97 248.87 283.69 248.27C275.69 246.14 268.79 244.27 257.5 244.27C244.66 244.27 235.38 246.57 226.81 248.69C224.36 249.3 221.97 249.89 219.57 250.41C214.124 251.726 208.514 252.231 202.92 251.91C196.091 251.304 189.438 249.414 183.31 246.34C174.64 242.21 171.97 232.08 172.43 221.06C172.89 209.81 176.6 196.27 182.3 183.18C184.46 178.18 185.99 169.48 187.07 158.41C188.15 147.34 188.72 134.61 189.17 121.67C189.184 121.276 189.275 120.889 189.439 120.53C189.602 120.171 189.835 119.848 190.123 119.58C190.411 119.311 190.75 119.101 191.119 118.963C191.488 118.825 191.881 118.761 192.275 118.775C192.669 118.789 193.056 118.88 193.415 119.044C193.774 119.207 194.097 119.44 194.366 119.728C194.634 120.016 194.844 120.355 194.982 120.724C195.12 121.093 195.184 121.486 195.17 121.88C194.72 134.88 194.17 147.88 193.04 158.99C191.91 170.1 190.39 179.65 187.8 185.59C182.29 198.26 178.85 211.04 178.43 221.31C177.99 231.82 180.7 238.42 185.87 240.88C191.319 243.633 197.24 245.329 203.32 245.88C208.338 246.162 213.369 245.697 218.25 244.5C220.42 244.03 222.66 243.5 225.02 242.89C233.66 240.75 243.81 238.23 257.46 238.23C269.6 238.23 277.4 240.32 285.46 242.49C287.66 243.08 289.88 243.67 292.22 244.23C303.12 246.85 317.41 249 345.56 246.91C346.906 246.825 348.256 246.956 349.56 247.3C355.969 248.679 362.532 249.211 369.08 248.88C372.12 248.794 375.14 248.358 378.08 247.58C380.63 246.81 381.39 245.99 381.52 245.71C383.13 242.19 383.38 239.84 383.02 238.25C382.66 236.66 381.72 235.42 379.6 234.13C376.585 232.492 373.343 231.312 369.98 230.63C365.77 229.63 360.71 228.75 354.88 227.85C351.491 227.328 348.217 226.229 345.2 224.6C318.57 210.19 299.92 201.34 281.32 194.14C275.37 191.83 271.02 186.48 267.75 180.01C264.48 173.54 262.07 165.38 260.27 156.87C256.71 140.01 255.37 120.87 254.46 107.77V107.34C254.413 106.557 254.675 105.787 255.189 105.194C255.703 104.602 256.428 104.234 257.21 104.17L257.28 104.09ZM192.73 104.09C193.128 104.099 193.519 104.187 193.882 104.349C194.246 104.511 194.573 104.743 194.846 105.032C195.118 105.322 195.331 105.662 195.471 106.034C195.61 106.407 195.675 106.803 195.66 107.2C195.66 108.2 195.66 108.96 195.66 109.75C195.66 110.55 195.66 111.42 195.66 112.64C195.648 113.034 195.558 113.422 195.395 113.781C195.233 114.14 195.002 114.464 194.714 114.734C194.427 115.003 194.089 115.214 193.72 115.353C193.352 115.492 192.959 115.558 192.565 115.545C192.171 115.533 191.783 115.443 191.424 115.281C191.065 115.118 190.741 114.887 190.472 114.599C190.202 114.312 189.991 113.974 189.852 113.605C189.713 113.237 189.648 112.844 189.66 112.45C189.66 111.45 189.66 110.67 189.66 109.88C189.66 109.08 189.66 108.23 189.66 107.04C189.691 106.272 190.015 105.546 190.566 105.01C191.116 104.474 191.852 104.17 192.62 104.16L192.73 104.09ZM212.93 188.2C213.263 187.982 213.635 187.832 214.027 187.759C214.418 187.686 214.82 187.691 215.209 187.775C215.598 187.859 215.966 188.019 216.292 188.246C216.619 188.474 216.897 188.764 217.11 189.1C218.628 191.45 220.932 193.183 223.61 193.99C226.61 194.91 230.89 194.91 236.61 192.46C237.347 192.143 238.18 192.132 238.926 192.429C239.671 192.727 240.268 193.308 240.585 194.045C240.902 194.782 240.913 195.616 240.616 196.361C240.319 197.106 239.737 197.703 239 198.02C232.26 200.91 226.53 201.18 221.88 199.77C217.831 198.55 214.347 195.931 212.05 192.38C211.622 191.725 211.468 190.928 211.619 190.16C211.77 189.393 212.216 188.714 212.86 188.27L212.93 188.2Z" fill="#00A7B8"/>
<path fill-rule="evenodd" clip-rule="evenodd" d="M181.62 202.79C181.727 202.408 181.758 202.008 181.71 201.614C181.663 201.22 181.538 200.84 181.344 200.494C181.149 200.148 180.889 199.844 180.577 199.599C180.264 199.353 179.907 199.172 179.525 199.065C179.143 198.958 178.743 198.927 178.349 198.975C177.955 199.022 177.574 199.147 177.229 199.341C176.883 199.536 176.578 199.796 176.333 200.109C176.088 200.421 175.907 200.778 175.8 201.16C173.03 211.07 171.72 220.64 172.58 228.52C173.44 236.4 176.58 243.21 183.25 246.39C192.65 250.85 200.35 252.28 207.65 252.06C214.14 251.87 220.24 250.35 226.57 248.78L228.57 248.29C229.348 248.098 230.019 247.604 230.433 246.918C230.847 246.231 230.972 245.409 230.78 244.63C230.588 243.852 230.094 243.182 229.408 242.767C228.721 242.353 227.898 242.228 227.12 242.42L225.21 242.9C218.76 244.49 213.3 245.9 207.49 246.02C201.24 246.21 194.49 245.02 185.87 240.93C181.87 239.03 179.36 234.72 178.61 227.87C177.86 221.02 178.94 212.31 181.62 202.79ZM137.57 216.79C137.314 216.03 136.767 215.403 136.048 215.047C135.33 214.691 134.5 214.634 133.74 214.89C132.98 215.146 132.353 215.693 131.997 216.412C131.64 217.13 131.584 217.96 131.84 218.72C132.917 222.002 133.687 225.376 134.14 228.8C134.14 237.24 133.37 243.07 131.35 247C129.48 250.64 126.35 253 120.35 253.93C109.11 255.73 97.24 246 94.78 230.7C94.23 227.24 93.78 224.13 93.34 221.25C93.2219 220.454 92.7927 219.738 92.1466 219.259C91.5006 218.78 90.6906 218.577 89.895 218.695C89.0993 218.813 88.3831 219.242 87.904 219.888C87.4248 220.534 87.2219 221.344 87.34 222.14C87.76 225.02 88.23 228.14 88.79 231.66C91.6 249.09 105.69 262.39 121.28 259.9C128.72 258.72 133.75 255.47 136.68 249.77C139.45 244.39 140.15 237.2 140.14 228.6C140.15 228.467 140.15 228.333 140.14 228.2C139.644 224.319 138.777 220.495 137.55 216.78L137.57 216.79Z" fill="#F58233"/>
</svg>
