<svg width="434" height="544" viewBox="0 0 434 544" fill="none" xmlns="http://www.w3.org/2000/svg">
<path d="M384.38 2.66003H49.5303C23.5729 2.66003 2.53027 23.7027 2.53027 49.66V494.19C2.53027 520.147 23.5729 541.19 49.5303 541.19H384.38C410.338 541.19 431.38 520.147 431.38 494.19V49.66C431.38 23.7027 410.338 2.66003 384.38 2.66003Z" stroke="#00A7B8" stroke-width="5" stroke-miterlimit="10"/>
<path d="M138.692 328.483V353.69H133.296V333.352H122.679V353.69H117.265V328.483H138.692ZM145.179 328.483L155.796 328.501C158.38 328.501 160.524 329.309 162.229 330.926C163.935 332.544 164.796 334.565 164.796 336.956C164.796 339.346 163.935 341.368 162.247 342.985C160.542 344.602 158.397 345.411 155.796 345.411H150.593V353.69H145.179V328.483ZM155.62 333.37H150.593V340.559H155.62C156.692 340.559 157.589 340.208 158.31 339.522C159.03 338.819 159.399 337.975 159.399 336.973C159.399 335.954 159.03 335.11 158.31 334.407C157.589 333.704 156.692 333.37 155.62 333.37ZM173.796 341.104C173.796 343.424 174.569 345.393 176.151 346.975C177.716 348.575 179.632 349.366 181.882 349.366C184.132 349.366 186.048 348.575 187.612 346.975C189.194 345.393 189.968 343.424 189.968 341.104C189.968 338.784 189.194 336.815 187.612 335.215C186.048 333.616 184.132 332.807 181.882 332.807C179.632 332.807 177.716 333.616 176.151 335.215C174.569 336.815 173.796 338.784 173.796 341.104ZM168.206 341.087C168.206 337.465 169.524 334.372 172.161 331.805C174.798 329.239 178.05 327.956 181.882 327.956C185.714 327.956 188.966 329.239 191.603 331.805C194.239 334.372 195.558 337.465 195.558 341.087C195.558 344.708 194.239 347.819 191.603 350.385C188.966 352.952 185.714 354.235 181.882 354.235C178.05 354.235 174.798 352.952 172.161 350.385C169.524 347.819 168.206 344.708 168.206 341.087ZM200.62 353.69V328.483H217.724V333.352H206.034V353.69H200.62ZM225.124 328.483L231.048 340.366L236.093 328.483H241.858L233.034 347.397C232.015 349.577 230.802 351.229 229.396 352.354C228.007 353.479 226.284 354.042 224.21 354.042C223.735 354.042 223.261 354.006 222.769 353.901C222.294 353.813 221.942 353.725 221.696 353.62L221.327 353.514V348.839C221.925 349.085 222.646 349.19 223.489 349.19C225.3 349.19 226.688 348.364 227.655 346.676L228.376 345.411L219.376 328.483H225.124ZM264.71 328.483V353.69H259.313V333.352H251.931V336.235C251.931 339.786 251.72 342.774 251.333 345.182C250.946 347.59 250.366 349.436 249.593 350.719C248.819 352.02 247.976 352.917 247.026 353.444C246.077 353.971 244.952 354.235 243.651 354.235C243.124 354.235 242.579 354.182 242.052 354.077C241.507 353.971 241.103 353.866 240.856 353.76L240.417 353.62V348.469C241.015 348.715 241.612 348.839 242.21 348.839C243.142 348.839 243.897 348.557 244.478 347.995C245.058 347.432 245.55 346.184 245.937 344.286C246.323 342.387 246.534 339.715 246.534 336.27V328.483H264.71ZM276.593 328.483V339.469L286.489 328.483H292.782L283.431 338.924L293.503 353.69H287.21L279.827 342.897L276.593 346.483V353.69H271.179V328.483H276.593ZM319.237 353.69H313.841V337.676L301.431 353.69H296.737V328.483H302.151V344.514L314.562 328.483H319.237V353.69Z" fill="#1D1D1B"/>
<path d="M108.388 423.863H111.447V449.07H107.492V429.998H102.992V427.291C104.503 427.133 105.646 426.781 106.437 426.219C107.228 425.656 107.878 424.883 108.388 423.863ZM134.123 436.836V440.07H121.519V436.836H134.123ZM155.164 449.07H138.412C138.412 447.523 138.658 446.099 139.115 444.834C139.589 443.568 140.205 442.496 140.96 441.652C141.716 440.808 142.542 440.035 143.457 439.332C144.371 438.629 145.267 437.996 146.164 437.416C147.078 436.836 147.904 436.256 148.66 435.693C149.416 435.131 150.031 434.48 150.488 433.724C150.962 432.969 151.191 432.142 151.191 431.246C151.191 429.98 150.804 428.961 150.013 428.222C149.222 427.484 148.115 427.115 146.691 427.115C146.005 427.115 145.355 427.256 144.757 427.502C144.16 427.748 143.685 428.047 143.351 428.398C143.017 428.75 142.718 429.084 142.472 429.435C142.226 429.787 142.05 430.103 141.962 430.349L141.839 430.719L138.605 429.277C138.64 429.119 138.71 428.908 138.798 428.644C138.886 428.398 139.132 427.941 139.537 427.273C139.941 426.623 140.416 426.043 140.96 425.533C141.488 425.041 142.279 424.566 143.298 424.144C144.318 423.722 145.443 423.511 146.708 423.511C149.169 423.511 151.208 424.267 152.791 425.744C154.373 427.238 155.164 429.066 155.164 431.246C155.164 432.406 154.917 433.461 154.46 434.445C153.986 435.429 153.388 436.256 152.667 436.924C151.947 437.592 151.121 438.26 150.189 438.963C149.257 439.666 148.361 440.299 147.482 440.861C146.603 441.441 145.724 442.127 144.88 442.935C144.037 443.744 143.386 444.588 142.929 445.467H155.164V449.07ZM178.929 449.07L178.912 442.601C177.716 443.445 176.275 443.867 174.587 443.867C172.513 443.867 170.843 443.234 169.613 441.969C168.382 440.703 167.75 438.998 167.75 436.836V431.791H171.335V436.836C171.335 437.926 171.687 438.822 172.39 439.543C173.093 440.263 173.937 440.615 174.939 440.615C175.677 440.615 176.38 440.51 177.048 440.263C177.716 440.017 178.191 439.771 178.49 439.525L178.929 439.174V431.791H182.515V449.07H178.929ZM201.429 449.07L197.826 449.088V447.295C197.773 447.33 197.685 447.418 197.58 447.523C197.474 447.629 197.246 447.787 196.912 448.033C196.578 448.279 196.226 448.49 195.839 448.683C195.453 448.877 194.96 449.052 194.38 449.211C193.783 449.351 193.203 449.439 192.605 449.439C190.847 449.439 189.388 448.929 188.228 447.91C187.068 446.89 186.488 445.713 186.488 444.412C186.488 442.988 186.927 441.793 187.824 440.826C188.72 439.877 189.951 439.261 191.515 438.998L197.826 437.908C197.826 436.994 197.474 436.238 196.806 435.605C196.138 434.99 195.277 434.674 194.222 434.674C193.308 434.674 192.464 434.867 191.726 435.254C190.988 435.64 190.478 436.01 190.197 436.396L189.722 437.011L187.384 434.674C187.455 434.586 187.542 434.463 187.666 434.322C187.789 434.181 188.07 433.918 188.492 433.549C188.914 433.179 189.371 432.845 189.863 432.547C190.337 432.265 190.97 432.002 191.761 431.773C192.552 431.545 193.378 431.422 194.222 431.422C196.332 431.422 198.054 432.054 199.408 433.302C200.744 434.551 201.429 436.08 201.429 437.908V449.07ZM193.15 446.205C194.609 446.205 195.751 445.765 196.578 444.886C197.404 444.008 197.826 442.777 197.826 441.16V440.808L192.236 441.705C191.585 441.81 191.058 442.074 190.671 442.496C190.267 442.9 190.074 443.41 190.074 444.025C190.074 444.605 190.337 445.115 190.9 445.554C191.462 445.976 192.201 446.205 193.15 446.205ZM205.402 440.439C205.402 438.013 206.281 435.922 208.074 434.129C209.867 432.336 211.976 431.439 214.402 431.439C215.738 431.439 217.003 431.72 218.164 432.301C219.324 432.881 220.15 433.461 220.66 434.041L221.416 434.867L219.078 437.205C218.955 437.011 218.779 436.783 218.533 436.502C218.287 436.22 217.777 435.851 216.968 435.394C216.16 434.92 215.316 434.691 214.402 434.691C212.925 434.691 211.66 435.236 210.587 436.361C209.515 437.469 208.988 438.822 208.988 440.439C208.988 442.056 209.515 443.41 210.587 444.535C211.66 445.642 212.925 446.205 214.402 446.205C215.316 446.205 216.16 445.976 216.968 445.519C217.777 445.062 218.357 444.605 218.708 444.183L219.253 443.515L221.591 445.853C221.521 445.941 221.416 446.064 221.275 446.24C221.134 446.416 220.818 446.697 220.361 447.101C219.886 447.506 219.394 447.857 218.884 448.174C218.357 448.49 217.689 448.771 216.88 449.035C216.054 449.299 215.228 449.439 214.402 449.439C211.976 449.439 209.867 448.543 208.074 446.75C206.281 444.957 205.402 442.865 205.402 440.439ZM239.046 449.07L235.443 449.088V447.295C235.39 447.33 235.302 447.418 235.197 447.523C235.091 447.629 234.863 447.787 234.529 448.033C234.195 448.279 233.843 448.49 233.457 448.683C233.07 448.877 232.578 449.052 231.998 449.211C231.4 449.351 230.82 449.439 230.222 449.439C228.464 449.439 227.005 448.929 225.845 447.91C224.685 446.89 224.105 445.713 224.105 444.412C224.105 442.988 224.544 441.793 225.441 440.826C226.337 439.877 227.568 439.261 229.132 438.998L235.443 437.908C235.443 436.994 235.091 436.238 234.423 435.605C233.755 434.99 232.894 434.674 231.839 434.674C230.925 434.674 230.082 434.867 229.343 435.254C228.605 435.64 228.095 436.01 227.814 436.396L227.339 437.011L225.001 434.674C225.072 434.586 225.16 434.463 225.283 434.322C225.406 434.181 225.687 433.918 226.109 433.549C226.531 433.179 226.988 432.845 227.48 432.547C227.955 432.265 228.587 432.002 229.378 431.773C230.169 431.545 230.996 431.422 231.839 431.422C233.949 431.422 235.671 432.054 237.025 433.302C238.361 434.551 239.046 436.08 239.046 437.908V449.07ZM230.767 446.205C232.226 446.205 233.369 445.765 234.195 444.886C235.021 444.008 235.443 442.777 235.443 441.16V440.808L229.853 441.705C229.203 441.81 228.675 442.074 228.289 442.496C227.884 442.9 227.691 443.41 227.691 444.025C227.691 444.605 227.955 445.115 228.517 445.554C229.08 445.976 229.818 446.205 230.767 446.205ZM251.298 431.791L259.578 431.808C261.23 431.808 262.531 432.23 263.515 433.074C264.482 433.918 264.974 435.008 264.974 436.308C264.974 437.047 264.798 437.715 264.482 438.312C264.166 438.91 263.832 439.332 263.498 439.578L263.005 439.912C263.076 439.929 263.164 439.965 263.304 440.017C263.427 440.088 263.656 440.228 264.007 440.474C264.341 440.72 264.64 440.984 264.886 441.265C265.132 441.547 265.361 441.933 265.572 442.426C265.783 442.918 265.888 443.463 265.888 444.025C265.888 445.519 265.343 446.732 264.289 447.664C263.234 448.613 261.775 449.07 259.947 449.07H251.298V431.791ZM259.947 441.353H254.902V446.029H259.947C260.65 446.029 261.23 445.818 261.652 445.396C262.074 444.974 262.285 444.394 262.285 443.691C262.285 443.041 262.056 442.496 261.634 442.039C261.195 441.582 260.632 441.353 259.947 441.353ZM261.388 436.66C261.388 436.097 261.212 435.658 260.896 435.342C260.562 435.025 260.123 434.867 259.578 434.867H254.902V438.47H259.578C260.123 438.47 260.562 438.295 260.896 437.978C261.212 437.662 261.388 437.222 261.388 436.66ZM274.519 445.836H275.767C275.837 445.765 275.925 445.66 276.066 445.502C276.207 445.344 276.435 444.992 276.769 444.429C277.103 443.885 277.402 443.287 277.648 442.654C277.894 442.021 278.123 441.177 278.333 440.123C278.544 439.086 278.65 437.996 278.65 436.836V431.791H291.253V445.836H293.767V453.394H290.181V449.07H278.123V453.394H274.519V445.836ZM282.253 435.025L282.236 436.836C282.236 437.996 282.148 439.086 281.955 440.105C281.761 441.142 281.515 442.004 281.234 442.672C280.953 443.34 280.654 443.92 280.373 444.412C280.091 444.904 279.845 445.256 279.669 445.467L279.371 445.836H287.65V435.025H282.253ZM313.402 441.687H299.884C300.078 442.918 300.675 443.972 301.695 444.851C302.714 445.748 303.91 446.187 305.298 446.187C306.318 446.187 307.25 445.959 308.128 445.502C309.007 445.045 309.623 444.605 309.974 444.166L310.519 443.498L312.857 445.836C312.787 445.941 312.681 446.064 312.541 446.24C312.4 446.416 312.083 446.697 311.591 447.101C311.117 447.506 310.607 447.857 310.062 448.174C309.535 448.49 308.832 448.771 307.97 449.035C307.109 449.299 306.212 449.422 305.298 449.422C302.855 449.422 300.746 448.525 298.97 446.732C297.195 444.939 296.298 442.777 296.298 440.246C296.298 437.82 297.177 435.746 298.9 434.023C300.623 432.301 302.697 431.422 305.123 431.422C307.548 431.422 309.552 432.23 311.169 433.847C312.787 435.465 313.595 437.469 313.595 439.894L313.402 441.687ZM305.105 434.498C303.804 434.498 302.714 434.885 301.835 435.658C300.957 436.431 300.359 437.416 300.042 438.629H310.044C309.833 437.416 309.289 436.431 308.41 435.658C307.531 434.885 306.441 434.498 305.105 434.498ZM321.136 441.863V449.07H317.533V431.791H321.136V438.629H329.591V431.791H333.195V449.07H329.591V441.863H321.136ZM341.843 446.011H345.798C346.607 446.011 347.292 445.748 347.855 445.185C348.4 444.64 348.681 443.955 348.681 443.129C348.681 442.32 348.4 441.635 347.855 441.072C347.292 440.527 346.607 440.246 345.798 440.246H341.843V446.011ZM352.285 443.146C352.285 444.869 351.687 446.293 350.492 447.4C349.296 448.525 347.732 449.07 345.781 449.07H338.222V431.791H341.826V437.187H345.781C347.732 437.187 349.296 437.75 350.492 438.875C351.687 440 352.285 441.424 352.285 443.146Z" fill="#878787"/>
<path fill-rule="evenodd" clip-rule="evenodd" d="M151.19 118.71C151.18 117.829 150.831 116.985 150.214 116.356C149.597 115.726 148.761 115.359 147.881 115.33C147 115.302 146.142 115.615 145.486 116.203C144.83 116.792 144.427 117.611 144.36 118.49C144.36 119.87 144.28 120.55 144.24 121.27C144.24 122.02 144.15 122.83 144.1 124.4C144.068 125.304 144.397 126.184 145.014 126.847C145.631 127.509 146.486 127.898 147.39 127.93C148.295 127.962 149.175 127.633 149.837 127.016C150.499 126.399 150.888 125.545 150.92 124.64C150.92 123.16 151.01 122.43 151.06 121.71C151.13 120.94 151.19 120.18 151.19 118.71ZM212.19 121.36C212.135 120.457 211.722 119.613 211.044 119.014C210.366 118.415 209.478 118.109 208.575 118.165C207.672 118.221 206.828 118.633 206.229 119.311C205.63 119.989 205.325 120.877 205.38 121.78C205.62 125.48 205.8 129.78 205.99 134.52C206.47 146.33 207.05 160.58 209.04 173.62C210.43 182.79 212.56 191.62 215.96 198.94C219.36 206.26 224.19 212.28 231.19 215.17C253.3 224.27 266.64 231.36 290.95 245.4C294.479 247.429 298.344 248.807 302.36 249.47C307.72 250.36 312.36 251.22 316.16 252.24C319.177 252.919 322.067 254.073 324.72 255.66C325.446 256.072 326.078 256.631 326.575 257.3C327.073 257.97 327.425 258.736 327.61 259.55C327.92 261.11 327.68 263.42 326.18 266.9C326.12 267.03 325.59 267.78 323.29 268.52C320.652 269.274 317.932 269.704 315.19 269.8C309.065 270.145 302.92 269.647 296.93 268.32C295.376 267.908 293.765 267.753 292.16 267.86C265.66 269.92 252.23 267.74 241.99 265.12C239.82 264.56 237.74 263.97 235.68 263.38C227.98 261.19 220.46 259.04 208.81 259.04C195.72 259.04 185.96 261.62 177.74 263.79C175.52 264.38 173.4 264.94 171.37 265.41C166.804 266.595 162.08 267.057 157.37 266.78C151.646 266.215 146.091 264.515 141.03 261.78C136.42 259.44 133.79 252.99 134.2 242.31C134.6 231.96 137.87 219.06 143.1 206.31C144.517 202.426 145.522 198.404 146.1 194.31C146.91 189.43 147.59 183.67 148.17 177.41C149.32 164.91 150.07 150.28 150.59 136.51C150.627 135.606 150.304 134.724 149.69 134.058C149.077 133.392 148.225 132.997 147.32 132.96C146.416 132.923 145.534 133.247 144.868 133.86C144.202 134.473 143.807 135.326 143.77 136.23C143.25 149.96 142.5 164.44 141.37 176.76C140.8 182.93 140.14 188.51 139.37 193.16C138.877 196.735 138.019 200.25 136.81 203.65C131.39 216.9 127.81 230.65 127.41 242.01C126.98 253.08 129.46 263.55 138 267.86C143.857 270.994 150.278 272.931 156.89 273.56C162.287 273.89 167.703 273.373 172.94 272.03C175.25 271.5 177.55 270.9 179.89 270.28C188.02 268.14 196.74 265.84 208.89 265.84C219.51 265.84 226.01 267.69 233.57 269.84C235.72 270.45 237.95 271.08 240.38 271.7C251.38 274.53 265.61 276.7 292.78 274.64C293.636 274.59 294.494 274.681 295.32 274.91C301.991 276.404 308.835 276.97 315.66 276.59C319.011 276.461 322.333 275.917 325.55 274.97C328.23 274.11 331.31 272.56 332.55 269.57C334.32 265.47 335.09 261.67 334.42 258.21C334.06 256.515 333.36 254.91 332.363 253.492C331.367 252.075 330.093 250.873 328.62 249.96C325.341 247.93 321.749 246.453 317.99 245.59C313.83 244.48 308.99 243.59 303.55 242.68C300.343 242.152 297.257 241.051 294.44 239.43C270.01 225.33 256.38 218.07 233.86 208.8C229.03 206.8 225.2 202.46 222.19 196.02C219.18 189.58 217.19 181.45 215.84 172.56C213.91 159.92 213.36 146.36 212.84 134.67C212.63 129.88 212.45 125.36 212.19 121.36ZM170.84 209.54C170.611 209.161 170.308 208.833 169.947 208.576C169.587 208.319 169.178 208.138 168.746 208.044C168.313 207.95 167.866 207.946 167.432 208.031C166.998 208.117 166.585 208.29 166.22 208.54C165.459 209.051 164.921 209.833 164.717 210.727C164.512 211.621 164.657 212.559 165.12 213.35C167.275 216.953 170.66 219.656 174.65 220.96C179.21 222.43 184.8 222.13 191.33 219.15C192.161 218.763 192.812 218.073 193.15 217.222C193.489 216.37 193.489 215.422 193.15 214.57C192.989 214.158 192.746 213.784 192.434 213.47C192.123 213.156 191.75 212.909 191.34 212.745C190.929 212.581 190.489 212.503 190.047 212.516C189.605 212.529 189.171 212.632 188.77 212.82C183.47 215.24 179.58 215.22 176.83 214.33C174.32 213.506 172.19 211.806 170.83 209.54H170.84Z" fill="#00A7B8"/>
</svg>
