<svg width="434" height="545" viewBox="0 0 434 545" fill="none" xmlns="http://www.w3.org/2000/svg">
<path d="M384.38 3H49.53C23.5726 3 2.53003 24.0426 2.53003 50V494.53C2.53003 520.487 23.5726 541.53 49.53 541.53H384.38C410.337 541.53 431.38 520.487 431.38 494.53V50C431.38 24.0426 410.337 3 384.38 3Z" stroke="#00A7B8" stroke-width="5" stroke-miterlimit="10"/>
<path d="M77.0864 357.276C78.4048 357.276 79.6704 357.452 80.8657 357.803C82.061 358.155 83.0278 358.559 83.8013 359.051C84.5747 359.543 85.2427 360.036 85.8403 360.528C86.438 361.02 86.8599 361.442 87.1235 361.776L87.5278 362.303L84.1001 365.731C84.0298 365.643 83.9243 365.52 83.8013 365.344C83.6782 365.168 83.397 364.887 82.9751 364.465C82.5532 364.061 82.0786 363.709 81.5864 363.393C81.0767 363.077 80.4087 362.795 79.6001 362.532C78.7739 362.268 77.9302 362.127 77.0864 362.127C74.731 362.127 72.7622 362.918 71.1802 364.5C69.5981 366.083 68.8071 368.051 68.8071 370.407C68.8071 372.762 69.5981 374.731 71.1802 376.313C72.7622 377.895 74.731 378.686 77.0864 378.686C78.0005 378.686 78.8618 378.563 79.7056 378.317C80.5493 378.071 81.2349 377.772 81.7974 377.42C82.3423 377.069 82.8345 376.717 83.2563 376.366C83.6782 376.014 83.9771 375.715 84.1704 375.452L84.4517 375.083L87.7036 378.51C87.5981 378.651 87.4575 378.844 87.2642 379.073C87.0708 379.301 86.6489 379.706 85.981 380.286C85.313 380.866 84.6099 381.375 83.854 381.815C83.0981 382.254 82.1138 382.659 80.8833 383.01C79.6528 383.379 78.3872 383.555 77.0864 383.555C73.2368 383.555 69.9849 382.272 67.3481 379.706C64.7114 377.139 63.3931 374.028 63.3931 370.407C63.3931 366.786 64.7114 363.692 67.3481 361.125C69.9849 358.559 73.2368 357.276 77.0864 357.276ZM92.0103 357.803L102.627 357.821C105.211 357.821 107.356 358.629 109.061 360.247C110.766 361.864 111.627 363.885 111.627 366.276C111.627 368.667 110.766 370.688 109.079 372.305C107.374 373.922 105.229 374.731 102.627 374.731H97.4243V383.01H92.0103V357.803ZM102.452 362.69H97.4243V369.879H102.452C103.524 369.879 104.42 369.528 105.141 368.842C105.862 368.139 106.231 367.295 106.231 366.293C106.231 365.274 105.862 364.43 105.141 363.727C104.42 363.024 103.524 362.69 102.452 362.69ZM121.893 378.159H135.393V383.01H116.479V357.803H135.024V362.672H121.893V367.717H132.141V372.569H121.893V378.159ZM137.186 378.159H138.627C138.715 378.071 138.856 377.93 139.032 377.719C139.208 377.508 139.542 377.051 139.999 376.313C140.456 375.575 140.842 374.766 141.194 373.887C141.545 373.008 141.862 371.831 142.143 370.319C142.424 368.825 142.583 367.243 142.583 365.555V357.803H160.038V378.159H163.114V388.231H157.7V383.01H142.583V388.231H137.186V378.159ZM147.979 365.555C147.979 367.243 147.838 368.825 147.557 370.301C147.276 371.795 146.959 372.991 146.573 373.905C146.186 374.819 145.817 375.61 145.43 376.278C145.043 376.946 144.709 377.438 144.463 377.719L144.024 378.159H154.641V362.672H147.979V365.555ZM188.848 357.803V383.01H183.452V372.745H172.659V383.01H167.245V357.803H172.659V367.893H183.452V357.803H188.848ZM217.834 383.01H212.438V366.997L200.028 383.01H195.334V357.803H200.749V373.834L213.159 357.803H217.834V383.01ZM235.465 351.51C236.081 351.51 236.59 351.317 237.012 350.895C237.417 350.491 237.627 349.981 237.627 349.366H241.231C241.231 350.983 240.686 352.319 239.631 353.374C238.559 354.428 237.17 354.956 235.465 354.956C233.76 354.956 232.372 354.428 231.317 353.374C230.245 352.319 229.717 350.983 229.717 349.366H233.303C233.303 349.981 233.497 350.491 233.918 350.895C234.323 351.317 234.833 351.51 235.465 351.51ZM246.803 383.01H241.407V366.997L228.997 383.01H224.303V357.803H229.717V373.834L242.127 357.803H246.803V383.01ZM272.907 357.276C274.225 357.276 275.491 357.452 276.686 357.803C277.881 358.155 278.848 358.559 279.622 359.051C280.395 359.543 281.063 360.036 281.661 360.528C282.258 361.02 282.68 361.442 282.944 361.776L283.348 362.303L279.92 365.731C279.85 365.643 279.745 365.52 279.622 365.344C279.499 365.168 279.217 364.887 278.795 364.465C278.374 364.061 277.899 363.709 277.407 363.393C276.897 363.077 276.229 362.795 275.42 362.532C274.594 362.268 273.75 362.127 272.907 362.127C270.551 362.127 268.583 362.918 267 364.5C265.418 366.083 264.627 368.051 264.627 370.407C264.627 372.762 265.418 374.731 267 376.313C268.583 377.895 270.551 378.686 272.907 378.686C273.821 378.686 274.682 378.563 275.526 378.317C276.37 378.071 277.055 377.772 277.618 377.42C278.163 377.069 278.655 376.717 279.077 376.366C279.499 376.014 279.797 375.715 279.991 375.452L280.272 375.083L283.524 378.51C283.418 378.651 283.278 378.844 283.084 379.073C282.891 379.301 282.469 379.706 281.801 380.286C281.133 380.866 280.43 381.375 279.674 381.815C278.918 382.254 277.934 382.659 276.704 383.01C275.473 383.379 274.208 383.555 272.907 383.555C269.057 383.555 265.805 382.272 263.168 379.706C260.532 377.139 259.213 374.028 259.213 370.407C259.213 366.786 260.532 363.692 263.168 361.125C265.805 358.559 269.057 357.276 272.907 357.276ZM299.256 383.01H287.831V357.803H298.641C300.926 357.803 302.807 358.471 304.301 359.807C305.795 361.143 306.551 362.708 306.551 364.465C306.551 365.133 306.446 365.784 306.27 366.381C306.077 366.979 305.831 367.489 305.549 367.875C305.25 368.28 304.952 368.631 304.67 368.913C304.389 369.194 304.143 369.405 303.967 369.51L303.668 369.686C303.774 369.739 303.932 369.809 304.108 369.897C304.284 369.985 304.618 370.196 305.11 370.547C305.584 370.899 306.006 371.268 306.375 371.672C306.727 372.094 307.061 372.657 307.36 373.36C307.659 374.063 307.817 374.819 307.817 375.627C307.817 377.649 307.008 379.389 305.409 380.831C303.792 382.29 301.752 383.01 299.256 383.01ZM293.245 378.51H298.993C299.977 378.51 300.786 378.211 301.436 377.579C302.086 376.963 302.42 376.19 302.42 375.276C302.42 374.362 302.086 373.606 301.436 372.973C300.786 372.34 299.977 372.024 298.993 372.024H293.245V378.51ZM298.272 362.303H293.245V367.717H298.272C299.151 367.717 299.854 367.471 300.381 366.979C300.891 366.487 301.155 365.836 301.155 365.01C301.155 364.202 300.891 363.534 300.381 363.042C299.854 362.549 299.151 362.303 298.272 362.303ZM317.01 370.424C317.01 372.745 317.784 374.713 319.366 376.295C320.93 377.895 322.846 378.686 325.096 378.686C327.346 378.686 329.262 377.895 330.827 376.295C332.409 374.713 333.182 372.745 333.182 370.424C333.182 368.104 332.409 366.135 330.827 364.536C329.262 362.936 327.346 362.127 325.096 362.127C322.846 362.127 320.93 362.936 319.366 364.536C317.784 366.135 317.01 368.104 317.01 370.424ZM311.42 370.407C311.42 366.786 312.739 363.692 315.375 361.125C318.012 358.559 321.264 357.276 325.096 357.276C328.928 357.276 332.18 358.559 334.817 361.125C337.454 363.692 338.772 366.786 338.772 370.407C338.772 374.028 337.454 377.139 334.817 379.706C332.18 382.272 328.928 383.555 325.096 383.555C321.264 383.555 318.012 382.272 315.375 379.706C312.739 377.139 311.42 374.028 311.42 370.407ZM339.862 378.159H341.303C341.391 378.071 341.532 377.93 341.708 377.719C341.883 377.508 342.217 377.051 342.674 376.313C343.131 375.575 343.518 374.766 343.87 373.887C344.221 373.008 344.538 371.831 344.819 370.319C345.1 368.825 345.258 367.243 345.258 365.555V357.803H362.713V378.159H365.79V388.231H360.375V383.01H345.258V388.231H339.862V378.159ZM350.655 365.555C350.655 367.243 350.514 368.825 350.233 370.301C349.952 371.795 349.635 372.991 349.249 373.905C348.862 374.819 348.493 375.61 348.106 376.278C347.719 376.946 347.385 377.438 347.139 377.719L346.7 378.159H357.317V362.672H350.655V365.555Z" fill="#1D1D1B"/>
<path d="M48.1465 427.901C49.4121 427.901 50.6426 428.077 51.8027 428.411C52.9805 428.745 53.9473 429.149 54.7207 429.624C55.4941 430.116 56.1621 430.591 56.7246 431.048C57.3047 431.522 57.7266 431.927 57.9902 432.261L58.377 432.753L55.8633 435.284C55.793 435.196 55.7051 435.073 55.5645 434.897C55.4238 434.722 55.125 434.423 54.6328 433.966C54.1582 433.526 53.6484 433.14 53.0859 432.823C52.541 432.507 51.8203 432.208 50.9414 431.927C50.0625 431.646 49.1133 431.522 48.1289 431.522C45.5273 431.522 43.3125 432.419 41.4844 434.229C39.6738 436.04 38.7598 438.255 38.7598 440.874C38.7598 443.476 39.6738 445.69 41.4844 447.519C43.2949 449.329 45.5098 450.243 48.1289 450.243C49.1133 450.243 50.0625 450.103 50.959 449.821C51.8555 449.54 52.5938 449.224 53.1914 448.837C53.7891 448.45 54.2988 448.063 54.7559 447.677C55.2129 447.29 55.5469 446.974 55.7578 446.71L56.0391 446.271L58.5703 448.802C58.4824 448.942 58.3418 449.118 58.1484 449.347C57.9551 449.575 57.5332 449.979 56.8652 450.56C56.1973 451.122 55.4941 451.632 54.7559 452.089C54.0176 452.528 53.0332 452.933 51.8379 453.284C50.6426 453.636 49.4121 453.812 48.1465 453.812C44.3672 453.812 41.2031 452.563 38.6543 450.05C36.0879 447.554 34.8223 444.478 34.8223 440.856C34.8223 437.235 36.0879 434.177 38.6543 431.663C41.2031 429.167 44.3672 427.901 48.1465 427.901ZM71.5254 453.812C70.875 453.812 70.2422 453.741 69.6445 453.583C69.0293 453.442 68.502 453.249 68.0801 453.021C67.6406 452.792 67.2539 452.563 66.9199 452.317C66.5859 452.071 66.3398 451.878 66.1992 451.737L65.9531 451.474V461.019H62.3496V436.181H65.9531V438.167C66.1113 438.009 66.3398 437.798 66.6387 437.517C66.9375 437.253 67.5703 436.901 68.5547 436.462C69.5215 436.04 70.5059 435.812 71.5254 435.812C73.8105 435.812 75.7793 436.69 77.4668 438.448C79.1543 440.206 79.998 442.315 79.998 444.812C79.998 447.308 79.1543 449.435 77.4668 451.192C75.7793 452.95 73.8105 453.812 71.5254 453.812ZM71.1738 439.063C69.8027 439.063 68.5898 439.626 67.5352 440.751C66.4805 441.876 65.9531 443.247 65.9531 444.829C65.9531 446.411 66.4805 447.765 67.5352 448.89C68.5898 450.015 69.8027 450.577 71.1738 450.577C72.5449 450.577 73.7578 450.015 74.8125 448.89C75.8672 447.765 76.3945 446.411 76.3945 444.829C76.3945 443.247 75.8672 441.876 74.8125 440.751C73.7578 439.626 72.5449 439.063 71.1738 439.063ZM99.9492 446.077H86.4316C86.625 447.308 87.2227 448.362 88.2422 449.241C89.2617 450.138 90.457 450.577 91.8457 450.577C92.8652 450.577 93.7969 450.349 94.6758 449.892C95.5547 449.435 96.1699 448.995 96.5215 448.556L97.0664 447.888L99.4043 450.226C99.334 450.331 99.2285 450.454 99.0879 450.63C98.9473 450.806 98.6309 451.087 98.1387 451.491C97.6641 451.896 97.1543 452.247 96.6094 452.563C96.082 452.88 95.3789 453.161 94.5176 453.425C93.6562 453.688 92.7598 453.812 91.8457 453.812C89.4023 453.812 87.293 452.915 85.5176 451.122C83.7422 449.329 82.8457 447.167 82.8457 444.636C82.8457 442.21 83.7246 440.136 85.4473 438.413C87.1699 436.69 89.2441 435.812 91.6699 435.812C94.0957 435.812 96.0996 436.62 97.7168 438.237C99.334 439.854 100.143 441.858 100.143 444.284L99.9492 446.077ZM91.6523 438.888C90.3516 438.888 89.2617 439.274 88.3828 440.048C87.5039 440.821 86.9062 441.806 86.5898 443.019H96.5918C96.3809 441.806 95.8359 440.821 94.957 440.048C94.0781 439.274 92.9883 438.888 91.6523 438.888ZM101.566 450.226H102.814C102.885 450.155 102.973 450.05 103.113 449.892C103.254 449.733 103.482 449.382 103.816 448.819C104.15 448.274 104.449 447.677 104.695 447.044C104.941 446.411 105.17 445.567 105.381 444.513C105.592 443.476 105.697 442.386 105.697 441.226V436.181H118.301V450.226H120.814V457.784H117.229V453.46H105.17V457.784H101.566V450.226ZM109.301 439.415L109.283 441.226C109.283 442.386 109.195 443.476 109.002 444.495C108.809 445.532 108.562 446.394 108.281 447.062C108 447.729 107.701 448.31 107.42 448.802C107.139 449.294 106.893 449.646 106.717 449.856L106.418 450.226H114.697V439.415H109.301ZM128.039 446.253V453.46H124.436V436.181H128.039V443.019H136.494V436.181H140.098V453.46H136.494V446.253H128.039ZM157.746 436.181H160.98V453.46H157.377V442.122L148.377 453.46H145.143V436.181H148.746V447.519L157.746 436.181ZM178.629 436.181H181.863V453.46H178.26V442.122L169.26 453.46H166.025V436.181H169.629V447.519L178.629 436.181ZM173.936 430.784C174.656 430.784 175.254 430.556 175.746 430.063C176.221 429.589 176.467 428.991 176.467 428.253H179.174C179.174 429.694 178.682 430.907 177.697 431.856C176.713 432.823 175.465 433.298 173.953 433.298C172.441 433.298 171.193 432.823 170.209 431.856C169.225 430.907 168.732 429.694 168.732 428.253H171.422C171.422 428.974 171.65 429.571 172.143 430.063C172.617 430.556 173.215 430.784 173.936 430.784ZM193.043 444.829C193.043 442.403 193.922 440.312 195.715 438.519C197.508 436.726 199.617 435.829 202.043 435.829C203.379 435.829 204.645 436.11 205.805 436.69C206.965 437.271 207.791 437.851 208.301 438.431L209.057 439.257L206.719 441.595C206.596 441.401 206.42 441.173 206.174 440.892C205.928 440.61 205.418 440.241 204.609 439.784C203.801 439.31 202.957 439.081 202.043 439.081C200.566 439.081 199.301 439.626 198.229 440.751C197.156 441.858 196.629 443.212 196.629 444.829C196.629 446.446 197.156 447.8 198.229 448.925C199.301 450.032 200.566 450.595 202.043 450.595C202.957 450.595 203.801 450.366 204.609 449.909C205.418 449.452 205.998 448.995 206.35 448.573L206.895 447.905L209.232 450.243C209.162 450.331 209.057 450.454 208.916 450.63C208.775 450.806 208.459 451.087 208.002 451.491C207.527 451.896 207.035 452.247 206.525 452.563C205.998 452.88 205.33 453.161 204.521 453.425C203.695 453.688 202.869 453.829 202.043 453.829C199.617 453.829 197.508 452.933 195.715 451.14C193.922 449.347 193.043 447.255 193.043 444.829ZM212.818 436.181L221.098 436.198C222.75 436.198 224.051 436.62 225.035 437.464C226.002 438.308 226.494 439.397 226.494 440.698C226.494 441.437 226.318 442.104 226.002 442.702C225.686 443.3 225.352 443.722 225.018 443.968L224.525 444.302C224.596 444.319 224.684 444.354 224.824 444.407C224.947 444.478 225.176 444.618 225.527 444.864C225.861 445.11 226.16 445.374 226.406 445.655C226.652 445.937 226.881 446.323 227.092 446.815C227.303 447.308 227.408 447.853 227.408 448.415C227.408 449.909 226.863 451.122 225.809 452.054C224.754 453.003 223.295 453.46 221.467 453.46H212.818V436.181ZM221.467 445.743H216.422V450.419H221.467C222.17 450.419 222.75 450.208 223.172 449.786C223.594 449.364 223.805 448.784 223.805 448.081C223.805 447.431 223.576 446.886 223.154 446.429C222.715 445.972 222.152 445.743 221.467 445.743ZM222.908 441.05C222.908 440.487 222.732 440.048 222.416 439.731C222.082 439.415 221.643 439.257 221.098 439.257H216.422V442.86H221.098C221.643 442.86 222.082 442.685 222.416 442.368C222.732 442.052 222.908 441.612 222.908 441.05ZM244.67 444.829C244.67 443.212 244.125 441.858 243.07 440.733C241.998 439.626 240.732 439.063 239.273 439.063C237.797 439.063 236.531 439.626 235.459 440.733C234.387 441.858 233.859 443.212 233.859 444.829C233.859 446.446 234.387 447.8 235.459 448.907C236.531 450.032 237.797 450.577 239.273 450.577C240.732 450.577 241.998 450.032 243.07 448.907C244.125 447.8 244.67 446.446 244.67 444.829ZM230.273 444.829C230.273 442.403 231.152 440.294 232.945 438.501C234.738 436.708 236.848 435.812 239.273 435.812C241.699 435.812 243.791 436.708 245.584 438.501C247.377 440.294 248.273 442.403 248.273 444.829C248.273 447.255 247.377 449.347 245.584 451.14C243.791 452.933 241.699 453.829 239.273 453.829C236.848 453.829 234.738 452.933 232.945 451.14C231.152 449.347 230.273 447.255 230.273 444.829ZM249.715 450.226H250.963C251.033 450.155 251.121 450.05 251.262 449.892C251.402 449.733 251.631 449.382 251.965 448.819C252.299 448.274 252.598 447.677 252.844 447.044C253.09 446.411 253.318 445.567 253.529 444.513C253.74 443.476 253.846 442.386 253.846 441.226V436.181H266.449V450.226H268.963V457.784H265.377V453.46H253.318V457.784H249.715V450.226ZM257.449 439.415L257.432 441.226C257.432 442.386 257.344 443.476 257.15 444.495C256.957 445.532 256.711 446.394 256.43 447.062C256.148 447.729 255.85 448.31 255.568 448.802C255.287 449.294 255.041 449.646 254.865 449.856L254.566 450.226H262.846V439.415H257.449ZM301.57 441.226V444.46H278.525V441.226H301.57ZM318.146 440.136C318.252 440.188 318.41 440.259 318.621 440.347C318.832 440.435 319.184 440.646 319.693 440.979C320.221 441.313 320.678 441.7 321.064 442.122C321.451 442.562 321.82 443.159 322.137 443.933C322.471 444.706 322.629 445.55 322.629 446.464C322.629 448.521 321.82 450.261 320.168 451.685C318.516 453.108 316.336 453.829 313.629 453.829C312.486 453.829 311.396 453.688 310.359 453.407C309.322 453.126 308.461 452.81 307.793 452.423C307.125 452.036 306.545 451.649 306.053 451.263C305.561 450.876 305.191 450.56 304.945 450.296L304.629 449.856L307.143 447.343C307.195 447.413 307.283 447.519 307.406 447.659C307.529 447.8 307.793 448.028 308.197 448.362C308.602 448.696 309.023 448.995 309.48 449.241C309.938 449.487 310.553 449.716 311.291 449.927C312.029 450.138 312.82 450.226 313.629 450.226C315.193 450.226 316.424 449.856 317.32 449.101C318.217 448.345 318.656 447.396 318.656 446.271C318.656 445.146 318.217 444.196 317.32 443.44C316.424 442.685 315.193 442.298 313.629 442.298H311.098V438.694H313.629C314.877 438.694 315.844 438.378 316.547 437.728C317.25 437.095 317.584 436.216 317.584 435.108C317.584 434.001 317.25 433.122 316.547 432.472C315.844 431.839 314.877 431.505 313.629 431.505C312.574 431.505 311.59 431.733 310.641 432.19C309.709 432.647 309.041 433.087 308.619 433.509L308.039 434.194L305.525 431.681C305.596 431.593 305.719 431.47 305.859 431.294C306 431.118 306.334 430.819 306.826 430.362C307.336 429.923 307.881 429.536 308.461 429.22C309.023 428.903 309.779 428.604 310.729 428.323C311.66 428.042 312.627 427.919 313.629 427.919C316.107 427.919 318.041 428.552 319.447 429.817C320.854 431.083 321.557 432.735 321.557 434.757C321.557 435.442 321.434 436.11 321.188 436.743C320.941 437.376 320.66 437.903 320.344 438.29C320.027 438.694 319.693 439.046 319.359 439.327C319.025 439.608 318.744 439.819 318.498 439.925L318.146 440.136ZM339.732 441.226V444.46H327.129V441.226H339.732ZM359.332 444.812H362.584V448.415H359.332V453.46H355.377V448.415H343.143V444.108L354.305 428.253H359.332V444.812ZM355.377 444.812V432.753L346.922 444.812H355.377ZM372.656 444.829C372.656 442.403 373.535 440.312 375.328 438.519C377.121 436.726 379.23 435.829 381.656 435.829C382.992 435.829 384.258 436.11 385.418 436.69C386.578 437.271 387.404 437.851 387.914 438.431L388.67 439.257L386.332 441.595C386.209 441.401 386.033 441.173 385.787 440.892C385.541 440.61 385.031 440.241 384.223 439.784C383.414 439.31 382.57 439.081 381.656 439.081C380.18 439.081 378.914 439.626 377.842 440.751C376.77 441.858 376.242 443.212 376.242 444.829C376.242 446.446 376.77 447.8 377.842 448.925C378.914 450.032 380.18 450.595 381.656 450.595C382.57 450.595 383.414 450.366 384.223 449.909C385.031 449.452 385.611 448.995 385.963 448.573L386.508 447.905L388.846 450.243C388.775 450.331 388.67 450.454 388.529 450.63C388.389 450.806 388.072 451.087 387.615 451.491C387.141 451.896 386.648 452.247 386.139 452.563C385.611 452.88 384.943 453.161 384.135 453.425C383.309 453.688 382.482 453.829 381.656 453.829C379.23 453.829 377.121 452.933 375.328 451.14C373.535 449.347 372.656 447.255 372.656 444.829ZM401.607 443.739L407.918 436.181H410.801V453.46H407.197V442.122L401.607 448.784L396.035 442.122V453.46H392.432V436.181H395.314L401.607 443.739Z" fill="#878787"/>
<path fill-rule="evenodd" clip-rule="evenodd" d="M118.28 117.42C114.37 117.42 111.15 119.73 109.05 122.8C106.81 126.23 105.65 130.254 105.72 134.35C105.663 138.441 106.822 142.458 109.05 145.89C111.15 148.96 114.36 151.28 118.28 151.28C122.2 151.28 125.39 148.96 127.49 145.89C129.657 142.431 130.806 138.432 130.806 134.35C130.806 130.268 129.657 126.269 127.49 122.81C125.39 119.74 122.18 117.42 118.28 117.42ZM113.97 142.51C112.476 140.047 111.685 137.221 111.685 134.34C111.685 131.459 112.476 128.633 113.97 126.17C115.33 124.17 116.91 123.38 118.29 123.38C119.67 123.38 121.22 124.19 122.58 126.17C124.071 128.636 124.859 131.463 124.859 134.345C124.859 137.227 124.071 140.054 122.58 142.52C121.22 144.52 119.65 145.31 118.29 145.31C116.93 145.31 115.32 144.5 113.97 142.51ZM105.74 136.63C105.379 133.79 104.177 131.123 102.29 128.97C101.433 127.883 100.306 127.04 99.0215 126.525C97.7367 126.011 96.3393 125.843 94.9691 126.038C93.599 126.234 92.3043 126.786 91.2146 127.639C90.1248 128.492 89.2784 129.617 88.76 130.9C87.6309 133.292 87.1944 135.952 87.5 138.58C87.0666 137.934 86.5563 137.343 85.98 136.82C85.1876 135.992 84.193 135.385 83.0945 135.059C81.996 134.733 80.8314 134.699 79.7157 134.961C78.6001 135.222 77.5718 135.77 76.7326 136.55C75.8933 137.331 75.272 138.316 74.93 139.41C74.1923 141.546 74.0771 143.848 74.5976 146.047C75.1181 148.246 76.253 150.251 77.87 151.83C78.6629 152.648 79.6547 153.246 80.7482 153.566C81.8418 153.886 82.9996 153.916 84.1084 153.654C85.2171 153.392 86.2389 152.846 87.0736 152.071C87.9082 151.295 88.5272 150.316 88.87 149.23C89.3844 147.861 89.6125 146.401 89.54 144.94C89.9556 145.635 90.4414 146.285 90.9899 146.88C91.8453 147.97 92.9723 148.816 94.2577 149.332C95.5431 149.849 96.9419 150.019 98.3136 149.824C99.6853 149.63 100.982 149.078 102.073 148.224C103.164 147.37 104.011 146.245 104.53 144.96C105.762 142.368 106.184 139.465 105.74 136.63ZM95.8 131.93C96.2106 131.924 96.6163 132.019 96.9822 132.205C97.3481 132.392 97.6631 132.665 97.9 133C98.9976 134.261 99.694 135.821 99.9 137.48C100.178 139.115 99.9657 140.795 99.29 142.31C98.71 143.49 98.02 143.85 97.58 143.91C97.14 143.97 96.38 143.82 95.48 142.84C94.4374 141.553 93.7631 140.008 93.5289 138.369C93.2948 136.729 93.5094 135.057 94.15 133.53C94.73 132.34 95.42 131.99 95.85 131.93H95.8ZM81.08 140.76C81.1486 140.74 81.2214 140.74 81.29 140.76C81.5444 140.854 81.776 141 81.97 141.19C82.7232 141.944 83.2439 142.898 83.47 143.94C83.7408 144.964 83.706 146.045 83.37 147.05C83.2801 147.302 83.1407 147.533 82.96 147.73C82.9126 147.793 82.8458 147.839 82.77 147.86C82.77 147.86 82.69 147.86 82.55 147.86C82.2991 147.765 82.0708 147.619 81.88 147.43C81.128 146.678 80.6134 145.722 80.4 144.68C80.1218 143.657 80.1531 142.575 80.4899 141.57C80.5814 141.321 80.7169 141.091 80.89 140.89C81 140.78 81.06 140.76 81.08 140.76ZM76.08 150.15C75.3265 148.165 73.996 146.452 72.26 145.23C71.3966 144.574 70.3779 144.152 69.3032 144.007C68.2286 143.861 67.1345 143.996 66.1276 144.399C65.1206 144.802 64.2352 145.458 63.5574 146.305C62.8796 147.152 62.4326 148.159 62.26 149.23C61.8688 151.311 62.0755 153.46 62.856 155.428C63.6366 157.396 64.959 159.103 66.67 160.35C67.5336 161.019 68.5566 161.45 69.6381 161.603C70.7196 161.755 71.8222 161.623 72.837 161.219C73.8518 160.815 74.7436 160.154 75.4246 159.3C76.1055 158.446 76.5521 157.429 76.72 156.35C77.143 154.27 76.934 152.11 76.12 150.15H76.08ZM68.92 150.15C68.7407 150.009 68.5264 149.919 68.3 149.89C68.1521 150.071 68.0554 150.289 68.02 150.52C67.8641 151.425 67.9753 152.357 68.34 153.2C68.6597 154.07 69.2219 154.83 69.96 155.39C70.1435 155.539 70.3654 155.632 70.6 155.66C70.7457 155.482 70.8391 155.268 70.87 155.04C71.0314 154.131 70.9201 153.195 70.55 152.35C70.2395 151.483 69.6878 150.723 68.96 150.16L68.92 150.15ZM74.28 170.94C79.0583 166.402 84.8792 163.109 91.23 161.35C97.18 160.15 107.36 158.35 115.97 159.26C120.31 159.69 123.9 160.76 126.33 162.57C128.76 164.38 130.11 166.76 130.11 170.82C130.027 172.338 129.596 173.816 128.85 175.14C127.89 176.934 126.766 178.635 125.49 180.22C124.2 181.86 122.83 183.41 121.58 184.83L121.43 185C120.283 186.248 119.208 187.56 118.21 188.93C114.21 194.93 111.4 201.17 110.56 207.74C109.741 214.784 111.054 221.911 114.33 228.2C116.01 231.63 117.73 234.55 119.38 237.2L120.58 239.2C121.78 241.15 122.92 242.98 123.99 244.9C127.232 250.584 129.312 256.855 130.11 263.35C130.11 271.67 129.36 277.41 127.36 281.29C125.52 284.87 122.43 287.18 116.54 288.12C105.46 289.89 93.77 280.3 91.34 265.22C90.66 260.93 90.11 257.22 89.6 253.74C87.6 240.02 86.34 231.53 80.35 214.74C80.1448 214.055 79.8874 213.386 79.58 212.74C79.23 211.96 78.77 211.03 78.26 210L77.32 208.12C76.49 206.46 75.56 204.6 74.61 202.62C71.91 197 69.29 190.86 68.55 186.34C68.5549 186.313 68.5549 186.286 68.55 186.26C67.52 180.67 69.83 175.43 74.32 170.95L74.28 170.94ZM136.03 170.8C136.03 164.94 133.7 160.63 129.85 157.8C126.16 155.06 121.34 153.8 116.52 153.34C106.88 152.34 95.85 154.34 89.9 155.55L89.69 155.6C82.3283 157.636 75.587 161.468 70.07 166.75C64.72 172.09 61.13 179.2 62.64 187.36C63.54 192.84 66.53 199.67 69.2 205.23C70.2 207.23 71.14 209.23 71.98 210.87L72.89 212.68C73.39 213.68 73.81 214.56 74.11 215.23C74.27 215.57 74.38 215.83 74.46 216.04C74.54 216.25 74.55 216.29 74.56 216.31C74.584 216.418 74.6141 216.525 74.65 216.63C80.47 232.96 81.65 240.9 83.65 254.52C84.16 257.97 84.73 261.8 85.43 266.21C88.19 283.38 102.09 296.49 117.43 294.04C124.76 292.87 129.72 289.67 132.61 284.04C135.34 278.75 136.02 271.65 136.02 263.18C136.03 263.047 136.03 262.913 136.02 262.78C135.143 255.454 132.815 248.376 129.17 241.96C128.03 239.96 126.8 237.96 125.57 235.96L124.44 234.12C122.83 231.49 121.22 228.76 119.67 225.58C116.927 220.329 115.829 214.374 116.52 208.49C117.21 203.1 119.52 197.77 123.21 192.23C124.07 191.075 124.991 189.966 125.97 188.91L126.13 188.73C127.36 187.32 128.83 185.66 130.22 183.89C131.743 182.001 133.082 179.972 134.22 177.83C135.373 175.665 136.006 173.262 136.07 170.81L136.03 170.8ZM65.76 160.98C64.9326 159.205 63.5822 157.725 61.89 156.74C61.1167 156.249 60.2786 155.869 59.4 155.61C58.3267 155.271 57.1725 155.288 56.11 155.66C55.2133 156.089 54.4307 156.724 53.8259 157.513C53.2212 158.302 52.8114 159.223 52.63 160.2C52.1485 162.349 52.3405 164.594 53.18 166.63C53.6047 167.737 54.2959 168.723 55.1925 169.499C56.0891 170.275 57.1633 170.818 58.32 171.08C59.9774 171.478 61.7151 171.385 63.32 170.81C64.4056 170.365 65.279 169.52 65.76 168.45C66.1287 167.655 66.3555 166.803 66.43 165.93C66.594 164.255 66.3716 162.565 65.78 160.99L65.76 160.98ZM58.76 164.44C58.3804 163.548 58.276 162.562 58.46 161.61L58.79 161.8C59.1742 162.034 59.5271 162.316 59.84 162.64C60.0109 162.8 60.156 162.985 60.27 163.19C60.5043 163.884 60.5895 164.62 60.52 165.35C60.2647 165.357 60.0095 165.334 59.76 165.28C59.5396 165.229 59.332 165.134 59.15 165C58.9746 164.853 58.8402 164.664 58.76 164.45V164.44ZM60.27 163.19L63.03 162.09L60.26 163.18L60.27 163.19ZM251.43 140.55C252.216 140.5 252.991 140.762 253.586 141.278C254.181 141.795 254.549 142.524 254.61 143.31V143.58C255.51 156.58 256.81 175.1 260.23 191.3C261.95 199.47 264.23 206.89 267.1 212.66C269.97 218.43 273.44 222.22 277.3 223.66C295.95 230.88 314.56 239.73 340.94 254C343.314 255.277 345.887 256.143 348.55 256.56C354.31 257.45 359.55 258.33 363.93 259.39C367.844 260.203 371.613 261.602 375.11 263.54C376.612 264.357 377.929 265.476 378.977 266.827C380.025 268.178 380.782 269.732 381.2 271.39C381.95 274.76 381.2 278.48 379.32 282.52C378.03 285.33 374.95 286.77 372.21 287.59C368.864 288.495 365.424 289.009 361.96 289.12C354.914 289.472 347.852 288.887 340.96 287.38C340.292 287.202 339.6 287.131 338.91 287.17C310.63 289.27 295.91 287.17 284.51 284.38C281.98 283.77 279.66 283.15 277.42 282.55C269.57 280.45 262.73 278.62 251.61 278.62C238.95 278.62 229.8 280.89 221.36 282.98C218.94 283.58 216.59 284.16 214.22 284.68C208.851 285.97 203.322 286.466 197.81 286.15C191.095 285.57 184.551 283.728 178.52 280.72C169.97 276.66 167.34 266.72 167.79 255.81C168.25 244.72 171.91 231.37 177.52 218.48C179.65 213.58 181.16 204.97 182.22 194.06C183.28 183.15 183.85 170.61 184.29 157.85C184.304 157.456 184.395 157.069 184.558 156.71C184.722 156.351 184.955 156.028 185.243 155.759C185.531 155.491 185.87 155.281 186.239 155.143C186.608 155.005 187.001 154.941 187.395 154.955C187.789 154.969 188.176 155.06 188.535 155.223C188.894 155.387 189.217 155.62 189.486 155.908C189.754 156.196 189.964 156.535 190.102 156.904C190.24 157.273 190.304 157.666 190.29 158.06C189.85 170.83 189.29 183.65 188.2 194.64C187.11 205.63 185.58 215 183.03 220.85C177.6 233.34 174.21 245.94 173.79 256.06C173.36 266.41 176.03 272.92 181.12 275.34C186.494 278.054 192.334 279.727 198.33 280.27C203.274 280.543 208.23 280.085 213.04 278.91C215.18 278.45 217.39 277.91 219.71 277.33C228.22 275.21 238.23 272.73 251.71 272.73C263.71 272.73 271.36 274.79 279.34 276.93C281.5 277.51 283.7 278.09 286 278.65C296.74 281.23 310.82 283.35 338.57 281.29C339.898 281.205 341.232 281.333 342.52 281.67C348.838 283.026 355.306 283.55 361.76 283.23C364.746 283.14 367.712 282.707 370.6 281.94C373.12 281.19 373.86 280.38 373.99 280.11C375.58 276.63 375.82 274.32 375.47 272.75C375.12 271.18 374.19 269.97 372.1 268.69C369.129 267.075 365.934 265.912 362.62 265.24C358.46 264.24 353.48 263.39 347.73 262.5C344.394 261.985 341.171 260.903 338.2 259.3C311.95 245.1 293.57 236.37 275.2 229.3C269.34 227.04 265.04 221.76 261.83 215.38C258.62 209 256.22 200.97 254.45 192.57C250.94 175.96 249.63 157.12 248.72 144.19V143.76C248.664 142.978 248.917 142.206 249.423 141.608C249.929 141.01 250.65 140.634 251.43 140.56V140.55ZM187.81 140.55C188.597 140.581 189.34 140.921 189.879 141.495C190.418 142.069 190.709 142.833 190.69 143.62C190.69 144.62 190.69 145.35 190.69 146.12C190.69 146.92 190.69 147.78 190.69 148.97C190.73 149.394 190.68 149.821 190.543 150.224C190.406 150.627 190.184 150.996 189.893 151.307C189.602 151.617 189.248 151.863 188.855 152.026C188.462 152.189 188.038 152.267 187.613 152.254C187.187 152.241 186.769 152.138 186.387 151.951C186.004 151.764 185.666 151.498 185.394 151.171C185.123 150.843 184.924 150.461 184.811 150.051C184.698 149.64 184.674 149.21 184.74 148.79C184.74 147.79 184.74 147.03 184.74 146.25C184.74 145.47 184.74 144.63 184.74 143.46C184.763 142.668 185.1 141.917 185.675 141.372C186.25 140.827 187.018 140.531 187.81 140.55ZM207.72 223.45C208.385 223.026 209.189 222.88 209.96 223.045C210.731 223.21 211.407 223.671 211.84 224.33C213.332 226.646 215.601 228.355 218.24 229.15C221.24 230.05 225.42 230.06 231.03 227.64C231.738 227.42 232.501 227.47 233.174 227.78C233.847 228.09 234.382 228.638 234.675 229.318C234.968 229.999 234.999 230.764 234.762 231.466C234.524 232.167 234.036 232.757 233.39 233.12C226.75 235.97 221.1 236.24 216.52 234.85C212.529 233.649 209.095 231.068 206.83 227.57C206.407 226.904 206.263 226.098 206.43 225.327C206.596 224.556 207.06 223.882 207.72 223.45Z" fill="#00A7B8"/>
<path fill-rule="evenodd" clip-rule="evenodd" d="M122.34 188.1C122.992 188.543 123.443 189.224 123.596 189.997C123.75 190.77 123.593 191.572 123.16 192.23C119.46 197.77 117.16 203.1 116.47 208.49C115.799 214.377 116.918 220.328 119.68 225.57C121.463 229.131 123.432 232.596 125.58 235.95C126.05 236.7 126.51 237.45 126.97 238.21C129.664 242.383 131.863 246.857 133.52 251.54C133.7 251.923 133.796 252.339 133.804 252.762C133.811 253.185 133.729 253.604 133.563 253.993C133.397 254.382 133.15 254.731 132.839 255.018C132.529 255.305 132.161 255.523 131.76 255.658C131.359 255.792 130.935 255.841 130.514 255.8C130.093 255.759 129.686 255.63 129.318 255.42C128.951 255.211 128.632 254.926 128.383 254.585C128.133 254.244 127.958 253.853 127.87 253.44C126.359 249.191 124.356 245.133 121.9 241.35L120.58 239.21C118.309 235.655 116.226 231.983 114.34 228.21C111.039 221.922 109.708 214.785 110.52 207.73C111.36 201.16 114.13 194.96 118.17 188.92C118.39 188.592 118.672 188.31 119 188.091C119.329 187.872 119.697 187.72 120.085 187.644C120.472 187.568 120.871 187.569 121.258 187.647C121.645 187.726 122.013 187.879 122.34 188.1ZM276.52 282.35C269.09 280.35 262.26 278.67 251.63 278.67C238.97 278.67 229.88 280.93 221.47 283.01C218.47 283.75 215.6 284.47 212.66 285.06C212.258 285.186 211.835 285.226 211.417 285.178C210.999 285.129 210.595 284.994 210.233 284.779C209.871 284.565 209.558 284.276 209.314 283.933C209.071 283.589 208.902 283.199 208.82 282.786C208.737 282.373 208.743 281.948 208.835 281.537C208.928 281.127 209.106 280.74 209.358 280.403C209.61 280.065 209.93 279.785 210.297 279.579C210.664 279.374 211.071 279.248 211.49 279.21C214.06 278.7 216.72 278.04 219.56 277.33C228.1 275.22 238.17 272.72 251.63 272.72C263.04 272.72 270.46 274.57 278.06 276.6L279.06 276.88C287.679 279.396 296.537 281.005 305.49 281.68C305.914 281.659 306.338 281.728 306.734 281.883C307.129 282.038 307.487 282.275 307.784 282.579C308.081 282.883 308.31 283.246 308.456 283.645C308.602 284.044 308.661 284.469 308.631 284.893C308.6 285.316 308.48 285.729 308.278 286.102C308.076 286.476 307.797 286.803 307.46 287.06C307.122 287.318 306.734 287.501 306.32 287.598C305.906 287.694 305.477 287.702 305.06 287.62C295.741 286.916 286.521 285.24 277.55 282.62L276.52 282.35ZM69.2401 205.21C67.2686 201.226 65.5519 197.121 64.1001 192.92C64.1983 192.208 64.5492 191.554 65.0889 191.079C65.6285 190.603 66.321 190.338 67.0401 190.33C67.8121 190.316 68.5658 190.565 69.178 191.036C69.7902 191.506 70.2246 192.17 70.4101 192.92C71.5601 196.06 73.0701 199.43 74.6101 202.63C75.5601 204.63 76.4901 206.47 77.3201 208.13L78.2601 210.01C78.7701 211.01 79.2601 212.01 79.5801 212.75C79.8875 213.396 80.1449 214.065 80.3501 214.75C86.3501 231.57 87.5801 240.06 89.6001 253.75L89.7901 255.06C89.7901 255.06 89.7901 257.65 86.4701 257.65C85.7704 257.658 85.0955 257.391 84.5906 256.907C84.0856 256.423 83.791 255.759 83.7701 255.06L83.6801 254.48C81.6801 240.86 80.5101 232.92 74.6801 216.59C74.6442 216.485 74.6142 216.378 74.5901 216.27C74.5627 216.178 74.5293 216.088 74.4901 216C74.4101 215.79 74.3001 215.52 74.1401 215.19C73.8401 214.52 73.4201 213.66 72.9201 212.64L72.0101 210.83C71.1801 209.17 70.2101 207.24 69.2401 205.21Z" fill="#F58233"/>
</svg>
