<svg width="435" height="545" viewBox="0 0 435 545" fill="none" xmlns="http://www.w3.org/2000/svg">
<path d="M384.85 3H50C24.0426 3 3 24.0426 3 50V494.53C3 520.487 24.0426 541.53 50 541.53H384.85C410.807 541.53 431.85 520.487 431.85 494.53V50C431.85 24.0426 410.807 3 384.85 3Z" stroke="#00A7B8" stroke-width="5" stroke-miterlimit="10"/>
<path d="M80.8003 374.85H69.3745V349.643H80.1851C82.4702 349.643 84.3511 350.311 85.8452 351.647C87.3394 352.983 88.0952 354.547 88.0952 356.305C88.0952 356.973 87.9897 357.624 87.814 358.221C87.6206 358.819 87.3745 359.329 87.0933 359.715C86.7944 360.12 86.4956 360.471 86.2144 360.752C85.9331 361.034 85.687 361.245 85.5112 361.35L85.2124 361.526C85.3179 361.579 85.4761 361.649 85.6519 361.737C85.8276 361.825 86.1616 362.036 86.6538 362.387C87.1284 362.739 87.5503 363.108 87.9194 363.512C88.271 363.934 88.605 364.497 88.9038 365.2C89.2026 365.903 89.3608 366.659 89.3608 367.467C89.3608 369.489 88.5522 371.229 86.9526 372.67C85.3354 374.129 83.2964 374.85 80.8003 374.85ZM74.7886 370.35H80.5366C81.521 370.35 82.3296 370.051 82.98 369.418C83.6304 368.803 83.9644 368.03 83.9644 367.116C83.9644 366.202 83.6304 365.446 82.98 364.813C82.3296 364.18 81.521 363.864 80.5366 363.864H74.7886V370.35ZM79.8159 354.143H74.7886V359.557H79.8159C80.6948 359.557 81.3979 359.311 81.9253 358.819C82.4351 358.327 82.6987 357.676 82.6987 356.85C82.6987 356.042 82.4351 355.374 81.9253 354.881C81.3979 354.389 80.6948 354.143 79.8159 354.143ZM121.951 349.643V374.85H116.554V349.643H121.951ZM104.671 374.85H94.4058V349.643H99.8198V357.922H104.671C107.255 357.922 109.4 358.749 111.105 360.366C112.81 361.983 113.671 364.004 113.671 366.395C113.671 368.803 112.81 370.807 111.105 372.424C109.4 374.042 107.255 374.85 104.671 374.85ZM99.8198 369.999H104.496C105.568 369.999 106.464 369.665 107.185 368.961C107.906 368.258 108.275 367.415 108.275 366.395C108.275 365.393 107.906 364.549 107.185 363.846C106.464 363.143 105.568 362.792 104.496 362.792H99.8198V369.999ZM140.689 349.116C142.007 349.116 143.273 349.292 144.468 349.643C145.664 349.995 146.63 350.399 147.404 350.891C148.177 351.383 148.845 351.875 149.443 352.368C150.041 352.86 150.462 353.282 150.726 353.616L151.13 354.143L147.703 357.571C147.632 357.483 147.527 357.36 147.404 357.184C147.281 357.008 147 356.727 146.578 356.305C146.156 355.901 145.681 355.549 145.189 355.233C144.679 354.917 144.011 354.635 143.203 354.372C142.376 354.108 141.533 353.967 140.689 353.967C138.333 353.967 136.365 354.758 134.783 356.34C133.201 357.922 132.41 359.891 132.41 362.247C132.41 364.602 133.201 366.571 134.783 368.153C136.365 369.735 138.333 370.526 140.689 370.526C141.603 370.526 142.464 370.403 143.308 370.157C144.152 369.911 144.837 369.612 145.4 369.26C145.945 368.909 146.437 368.557 146.859 368.206C147.281 367.854 147.58 367.555 147.773 367.292L148.054 366.922L151.306 370.35C151.201 370.491 151.06 370.684 150.867 370.913C150.673 371.141 150.251 371.545 149.583 372.125C148.916 372.706 148.212 373.215 147.457 373.655C146.701 374.094 145.716 374.499 144.486 374.85C143.255 375.219 141.99 375.395 140.689 375.395C136.839 375.395 133.587 374.112 130.951 371.545C128.314 368.979 126.996 365.868 126.996 362.247C126.996 358.625 128.314 355.532 130.951 352.965C133.587 350.399 136.839 349.116 140.689 349.116ZM159.023 362.264C159.023 364.584 159.796 366.553 161.378 368.135C162.943 369.735 164.859 370.526 167.109 370.526C169.359 370.526 171.275 369.735 172.839 368.135C174.421 366.553 175.195 364.584 175.195 362.264C175.195 359.944 174.421 357.975 172.839 356.375C171.275 354.776 169.359 353.967 167.109 353.967C164.859 353.967 162.943 354.776 161.378 356.375C159.796 357.975 159.023 359.944 159.023 362.264ZM153.433 362.247C153.433 358.625 154.751 355.532 157.388 352.965C160.025 350.399 163.277 349.116 167.109 349.116C170.941 349.116 174.193 350.399 176.83 352.965C179.466 355.532 180.785 358.625 180.785 362.247C180.785 365.868 179.466 368.979 176.83 371.545C174.193 374.112 170.941 375.395 167.109 375.395C163.277 375.395 160.025 374.112 157.388 371.545C154.751 368.979 153.433 365.868 153.433 362.247ZM191.261 349.643V360.629L201.158 349.643H207.451L198.099 360.084L208.171 374.85H201.878L194.496 364.057L191.261 367.643V374.85H185.847V349.643H191.261ZM233.906 374.85H228.509V358.836L216.099 374.85H211.406V349.643H216.82V365.674L229.23 349.643H233.906V374.85ZM251.537 343.35C252.152 343.35 252.662 343.157 253.083 342.735C253.488 342.331 253.699 341.821 253.699 341.206H257.302C257.302 342.823 256.757 344.159 255.703 345.213C254.63 346.268 253.242 346.795 251.537 346.795C249.832 346.795 248.443 346.268 247.388 345.213C246.316 344.159 245.789 342.823 245.789 341.206H249.375C249.375 341.821 249.568 342.331 249.99 342.735C250.394 343.157 250.904 343.35 251.537 343.35ZM262.875 374.85H257.478V358.836L245.068 374.85H240.375V349.643H245.789V365.674L258.199 349.643H262.875V374.85ZM288.978 349.116C290.296 349.116 291.562 349.292 292.757 349.643C293.953 349.995 294.919 350.399 295.693 350.891C296.466 351.383 297.134 351.875 297.732 352.368C298.33 352.86 298.751 353.282 299.015 353.616L299.419 354.143L295.992 357.571C295.921 357.483 295.816 357.36 295.693 357.184C295.57 357.008 295.289 356.727 294.867 356.305C294.445 355.901 293.97 355.549 293.478 355.233C292.968 354.917 292.3 354.635 291.492 354.372C290.666 354.108 289.822 353.967 288.978 353.967C286.623 353.967 284.654 354.758 283.072 356.34C281.49 357.922 280.699 359.891 280.699 362.247C280.699 364.602 281.49 366.571 283.072 368.153C284.654 369.735 286.623 370.526 288.978 370.526C289.892 370.526 290.753 370.403 291.597 370.157C292.441 369.911 293.126 369.612 293.689 369.26C294.234 368.909 294.726 368.557 295.148 368.206C295.57 367.854 295.869 367.555 296.062 367.292L296.343 366.922L299.595 370.35C299.49 370.491 299.349 370.684 299.156 370.913C298.962 371.141 298.541 371.545 297.873 372.125C297.205 372.706 296.501 373.215 295.746 373.655C294.99 374.094 294.005 374.499 292.775 374.85C291.544 375.219 290.279 375.395 288.978 375.395C285.128 375.395 281.876 374.112 279.24 371.545C276.603 368.979 275.285 365.868 275.285 362.247C275.285 358.625 276.603 355.532 279.24 352.965C281.876 350.399 285.128 349.116 288.978 349.116ZM315.328 374.85H303.902V349.643H314.712C316.998 349.643 318.878 350.311 320.373 351.647C321.867 352.983 322.623 354.547 322.623 356.305C322.623 356.973 322.517 357.624 322.341 358.221C322.148 358.819 321.902 359.329 321.621 359.715C321.322 360.12 321.023 360.471 320.742 360.752C320.46 361.034 320.214 361.245 320.039 361.35L319.74 361.526C319.845 361.579 320.003 361.649 320.179 361.737C320.355 361.825 320.689 362.036 321.181 362.387C321.656 362.739 322.078 363.108 322.447 363.512C322.798 363.934 323.132 364.497 323.431 365.2C323.73 365.903 323.888 366.659 323.888 367.467C323.888 369.489 323.08 371.229 321.48 372.67C319.863 374.129 317.824 374.85 315.328 374.85ZM309.316 370.35H315.064C316.048 370.35 316.857 370.051 317.507 369.418C318.158 368.803 318.492 368.03 318.492 367.116C318.492 366.202 318.158 365.446 317.507 364.813C316.857 364.18 316.048 363.864 315.064 363.864H309.316V370.35ZM314.343 354.143H309.316V359.557H314.343C315.222 359.557 315.925 359.311 316.453 358.819C316.962 358.327 317.226 357.676 317.226 356.85C317.226 356.042 316.962 355.374 316.453 354.881C315.925 354.389 315.222 354.143 314.343 354.143ZM333.082 362.264C333.082 364.584 333.855 366.553 335.437 368.135C337.001 369.735 338.917 370.526 341.167 370.526C343.417 370.526 345.333 369.735 346.898 368.135C348.48 366.553 349.253 364.584 349.253 362.264C349.253 359.944 348.48 357.975 346.898 356.375C345.333 354.776 343.417 353.967 341.167 353.967C338.917 353.967 337.001 354.776 335.437 356.375C333.855 357.975 333.082 359.944 333.082 362.264ZM327.492 362.247C327.492 358.625 328.81 355.532 331.447 352.965C334.083 350.399 337.335 349.116 341.167 349.116C345 349.116 348.251 350.399 350.888 352.965C353.525 355.532 354.843 358.625 354.843 362.247C354.843 365.868 353.525 368.979 350.888 371.545C348.251 374.112 345 375.395 341.167 375.395C337.335 375.395 334.083 374.112 331.447 371.545C328.81 368.979 327.492 365.868 327.492 362.247ZM355.933 369.999H357.375C357.462 369.911 357.603 369.77 357.779 369.559C357.955 369.348 358.289 368.891 358.746 368.153C359.203 367.415 359.589 366.606 359.941 365.727C360.292 364.848 360.609 363.67 360.89 362.159C361.171 360.665 361.33 359.083 361.33 357.395V349.643H378.785V369.999H381.861V380.071H376.447V374.85H361.33V380.071H355.933V369.999ZM366.726 357.395C366.726 359.083 366.585 360.665 366.304 362.141C366.023 363.635 365.707 364.831 365.32 365.745C364.933 366.659 364.564 367.45 364.177 368.118C363.791 368.786 363.457 369.278 363.21 369.559L362.771 369.999H373.388V354.512H366.726V357.395Z" fill="#1D1D1B"/>
<path d="M34.8965 460.48L24.1035 460.498V435.291H34.3516C36.3906 435.291 38.1309 435.958 39.5723 437.312C41.0137 438.648 41.7344 440.195 41.7344 441.953C41.7344 442.955 41.5234 443.886 41.1016 444.73C40.6797 445.574 40.2754 446.154 39.8711 446.488L39.2207 446.998C39.3086 447.033 39.4316 447.121 39.6074 447.226C39.7832 447.332 40.082 447.578 40.5391 447.947C40.9785 448.316 41.3652 448.72 41.6816 449.177C41.998 449.617 42.2969 450.197 42.5781 450.9C42.8594 451.603 43 452.341 43 453.097C43 455.119 42.2266 456.859 40.6797 458.3C39.1328 459.759 37.1992 460.48 34.8965 460.48ZM28.0586 457.07H34.8965C36.0566 457.07 37.041 456.666 37.8496 455.875C38.6406 455.083 39.0449 454.099 39.0449 452.939C39.0449 451.761 38.6406 450.777 37.8496 449.986C37.0586 449.177 36.0742 448.791 34.8965 448.791H28.0586V457.07ZM34.3516 438.718H28.0586V445.556H34.3516C35.3359 445.556 36.1445 445.222 36.7949 444.572C37.4453 443.921 37.7793 443.113 37.7793 442.128C37.7793 441.144 37.4453 440.335 36.7949 439.685C36.1445 439.035 35.3359 438.718 34.3516 438.718ZM51.0859 457.421H54.8652C55.6738 457.421 56.3594 457.158 56.9219 456.595C57.4668 456.05 57.748 455.365 57.748 454.539C57.748 453.73 57.4668 453.044 56.9219 452.482C56.3594 451.937 55.6738 451.656 54.8652 451.656H51.0859V457.421ZM61.3516 454.556C61.3516 456.279 60.7539 457.703 59.5586 458.81C58.3633 459.935 56.7988 460.48 54.8477 460.48H47.4648V443.201H51.0684V448.597H54.8477C56.7988 448.597 58.3633 449.16 59.5586 450.285C60.7539 451.41 61.3516 452.833 61.3516 454.556ZM67.4688 443.218V460.498H63.8652V443.218H67.4688ZM71.4414 451.849C71.4414 449.423 72.3203 447.332 74.1133 445.539C75.9062 443.746 78.0156 442.849 80.4414 442.849C81.7773 442.849 83.043 443.13 84.2031 443.71C85.3633 444.291 86.1895 444.871 86.6992 445.451L87.4551 446.277L85.1172 448.615C84.9941 448.421 84.8184 448.193 84.5723 447.912C84.3262 447.63 83.8164 447.261 83.0078 446.804C82.1992 446.33 81.3555 446.101 80.4414 446.101C78.9648 446.101 77.6992 446.646 76.627 447.771C75.5547 448.878 75.0273 450.232 75.0273 451.849C75.0273 453.466 75.5547 454.82 76.627 455.945C77.6992 457.052 78.9648 457.615 80.4414 457.615C81.3555 457.615 82.1992 457.386 83.0078 456.929C83.8164 456.472 84.3965 456.015 84.748 455.593L85.293 454.925L87.6309 457.263C87.5605 457.351 87.4551 457.474 87.3145 457.65C87.1738 457.826 86.8574 458.107 86.4004 458.511C85.9258 458.916 85.4336 459.267 84.9238 459.583C84.3965 459.9 83.7285 460.181 82.9199 460.445C82.0938 460.708 81.2676 460.849 80.4414 460.849C78.0156 460.849 75.9062 459.953 74.1133 458.16C72.3203 456.367 71.4414 454.275 71.4414 451.849ZM104.541 451.849C104.541 450.232 103.996 448.878 102.941 447.753C101.869 446.646 100.604 446.083 99.1445 446.083C97.668 446.083 96.4023 446.646 95.3301 447.753C94.2578 448.878 93.7305 450.232 93.7305 451.849C93.7305 453.466 94.2578 454.82 95.3301 455.927C96.4023 457.052 97.668 457.597 99.1445 457.597C100.604 457.597 101.869 457.052 102.941 455.927C103.996 454.82 104.541 453.466 104.541 451.849ZM90.1445 451.849C90.1445 449.423 91.0234 447.314 92.8164 445.521C94.6094 443.728 96.7188 442.832 99.1445 442.832C101.57 442.832 103.662 443.728 105.455 445.521C107.248 447.314 108.145 449.423 108.145 451.849C108.145 454.275 107.248 456.367 105.455 458.16C103.662 459.953 101.57 460.849 99.1445 460.849C96.7188 460.849 94.6094 459.953 92.8164 458.16C91.0234 456.367 90.1445 454.275 90.1445 451.849ZM127.41 443.201L120.748 450.408L127.938 460.48H123.982L118.41 452.746L115.703 455.628V460.48H112.1V443.201H115.703V450.935L123.086 443.201H127.41ZM143.406 443.201H146.641V460.48H143.037V449.142L134.037 460.48H130.803V443.201H134.406V454.539L143.406 443.201ZM164.289 443.201H167.523V460.48H163.92V449.142L154.92 460.48H151.686V443.201H155.289V454.539L164.289 443.201ZM159.596 437.804C160.316 437.804 160.914 437.576 161.406 437.083C161.881 436.609 162.127 436.011 162.127 435.273H164.834C164.834 436.714 164.342 437.927 163.357 438.876C162.373 439.843 161.125 440.318 159.613 440.318C158.102 440.318 156.854 439.843 155.869 438.876C154.885 437.927 154.393 436.714 154.393 435.273H157.082C157.082 435.994 157.311 436.591 157.803 437.083C158.277 437.576 158.875 437.804 159.596 437.804ZM178.703 451.849C178.703 449.423 179.582 447.332 181.375 445.539C183.168 443.746 185.277 442.849 187.703 442.849C189.039 442.849 190.305 443.13 191.465 443.71C192.625 444.291 193.451 444.871 193.961 445.451L194.717 446.277L192.379 448.615C192.256 448.421 192.08 448.193 191.834 447.912C191.588 447.63 191.078 447.261 190.27 446.804C189.461 446.33 188.617 446.101 187.703 446.101C186.227 446.101 184.961 446.646 183.889 447.771C182.816 448.878 182.289 450.232 182.289 451.849C182.289 453.466 182.816 454.82 183.889 455.945C184.961 457.052 186.227 457.615 187.703 457.615C188.617 457.615 189.461 457.386 190.27 456.929C191.078 456.472 191.658 456.015 192.01 455.593L192.555 454.925L194.893 457.263C194.822 457.351 194.717 457.474 194.576 457.65C194.436 457.826 194.119 458.107 193.662 458.511C193.188 458.916 192.695 459.267 192.186 459.583C191.658 459.9 190.99 460.181 190.182 460.445C189.355 460.708 188.529 460.849 187.703 460.849C185.277 460.849 183.168 459.953 181.375 458.16C179.582 456.367 178.703 454.275 178.703 451.849ZM198.479 443.201L206.758 443.218C208.41 443.218 209.711 443.64 210.695 444.484C211.662 445.328 212.154 446.417 212.154 447.718C212.154 448.457 211.979 449.125 211.662 449.722C211.346 450.32 211.012 450.742 210.678 450.988L210.186 451.322C210.256 451.339 210.344 451.375 210.484 451.427C210.607 451.498 210.836 451.638 211.188 451.884C211.521 452.13 211.82 452.394 212.066 452.675C212.312 452.957 212.541 453.343 212.752 453.835C212.963 454.328 213.068 454.873 213.068 455.435C213.068 456.929 212.523 458.142 211.469 459.074C210.414 460.023 208.955 460.48 207.127 460.48H198.479V443.201ZM207.127 452.763H202.082V457.439H207.127C207.83 457.439 208.41 457.228 208.832 456.806C209.254 456.384 209.465 455.804 209.465 455.101C209.465 454.451 209.236 453.906 208.814 453.449C208.375 452.992 207.812 452.763 207.127 452.763ZM208.568 448.07C208.568 447.507 208.393 447.068 208.076 446.751C207.742 446.435 207.303 446.277 206.758 446.277H202.082V449.88H206.758C207.303 449.88 207.742 449.705 208.076 449.388C208.393 449.072 208.568 448.632 208.568 448.07ZM230.33 451.849C230.33 450.232 229.785 448.878 228.73 447.753C227.658 446.646 226.393 446.083 224.934 446.083C223.457 446.083 222.191 446.646 221.119 447.753C220.047 448.878 219.52 450.232 219.52 451.849C219.52 453.466 220.047 454.82 221.119 455.927C222.191 457.052 223.457 457.597 224.934 457.597C226.393 457.597 227.658 457.052 228.73 455.927C229.785 454.82 230.33 453.466 230.33 451.849ZM215.934 451.849C215.934 449.423 216.812 447.314 218.605 445.521C220.398 443.728 222.508 442.832 224.934 442.832C227.359 442.832 229.451 443.728 231.244 445.521C233.037 447.314 233.934 449.423 233.934 451.849C233.934 454.275 233.037 456.367 231.244 458.16C229.451 459.953 227.359 460.849 224.934 460.849C222.508 460.849 220.398 459.953 218.605 458.16C216.812 456.367 215.934 454.275 215.934 451.849ZM235.375 457.246H236.623C236.693 457.175 236.781 457.07 236.922 456.912C237.062 456.753 237.291 456.402 237.625 455.839C237.959 455.294 238.258 454.697 238.504 454.064C238.75 453.431 238.979 452.587 239.189 451.533C239.4 450.496 239.506 449.406 239.506 448.246V443.201H252.109V457.246H254.623V464.804H251.037V460.48H238.979V464.804H235.375V457.246ZM243.109 446.435L243.092 448.246C243.092 449.406 243.004 450.496 242.811 451.515C242.617 452.552 242.371 453.414 242.09 454.082C241.809 454.75 241.51 455.33 241.229 455.822C240.947 456.314 240.701 456.666 240.525 456.876L240.227 457.246H248.506V446.435H243.109ZM287.23 448.246V451.48H264.186V448.246H287.23ZM312.086 450.759V452.552L296.969 460.48V456.876L307.041 451.656L296.969 446.435V442.832L312.086 450.759ZM331.703 451.832H334.955V455.435H331.703V460.48H327.748V455.435H315.514V451.128L326.676 435.273H331.703V451.832ZM327.748 451.832V439.773L319.293 451.832H327.748ZM340.158 456.156L343.393 457.966L338.893 465.156L336.555 463.908L340.158 456.156ZM357.262 443.746C359.775 443.746 361.85 444.554 363.467 446.154C365.084 447.736 365.91 449.757 365.91 452.218C365.91 454.75 365.066 456.824 363.414 458.441C361.762 460.041 359.582 460.849 356.91 460.849C355.75 460.849 354.66 460.708 353.623 460.427C352.586 460.146 351.725 459.83 351.057 459.443C350.389 459.056 349.809 458.669 349.316 458.283C348.824 457.896 348.473 457.58 348.227 457.316L347.91 456.876L350.424 454.363C350.459 454.433 350.547 454.539 350.67 454.679C350.793 454.82 351.057 455.048 351.461 455.382C351.865 455.716 352.305 456.015 352.762 456.261C353.219 456.507 353.816 456.736 354.555 456.947C355.293 457.158 356.084 457.246 356.91 457.246C358.352 457.246 359.547 456.771 360.496 455.804C361.445 454.855 361.938 453.642 361.938 452.201C361.938 450.759 361.445 449.564 360.496 448.597C359.529 447.648 358.334 447.156 356.91 447.156C355.855 447.156 354.906 447.349 354.062 447.736C353.219 448.123 352.639 448.509 352.34 448.896L351.865 449.494H348.982L349.703 435.273H364.275V438.876H353.307L352.938 444.818C353.887 444.115 355.328 443.746 357.262 443.746ZM376.703 451.849C376.703 449.423 377.582 447.332 379.375 445.539C381.168 443.746 383.277 442.849 385.703 442.849C387.039 442.849 388.305 443.13 389.465 443.71C390.625 444.291 391.451 444.871 391.961 445.451L392.717 446.277L390.379 448.615C390.256 448.421 390.08 448.193 389.834 447.912C389.588 447.63 389.078 447.261 388.27 446.804C387.461 446.33 386.617 446.101 385.703 446.101C384.227 446.101 382.961 446.646 381.889 447.771C380.816 448.878 380.289 450.232 380.289 451.849C380.289 453.466 380.816 454.82 381.889 455.945C382.961 457.052 384.227 457.615 385.703 457.615C386.617 457.615 387.461 457.386 388.27 456.929C389.078 456.472 389.658 456.015 390.01 455.593L390.555 454.925L392.893 457.263C392.822 457.351 392.717 457.474 392.576 457.65C392.436 457.826 392.119 458.107 391.662 458.511C391.188 458.916 390.695 459.267 390.186 459.583C389.658 459.9 388.99 460.181 388.182 460.445C387.355 460.708 386.529 460.849 385.703 460.849C383.277 460.849 381.168 459.953 379.375 458.16C377.582 456.367 376.703 454.275 376.703 451.849ZM405.654 450.759L411.965 443.201H414.848V460.48H411.244V449.142L405.654 455.804L400.082 449.142V460.48H396.479V443.201H399.361L405.654 450.759Z" fill="#878787"/>
<path fill-rule="evenodd" clip-rule="evenodd" d="M123.01 76.8101C118.95 76.8101 115.62 79.2001 113.44 82.3801C111.126 85.931 109.924 90.0921 109.99 94.3301C109.922 98.5841 111.123 102.762 113.44 106.33C115.62 109.51 118.95 111.91 123.01 111.91C127.07 111.91 130.37 109.51 132.55 106.33C134.801 102.747 135.996 98.6016 135.996 94.3701C135.996 90.1386 134.801 85.993 132.55 82.41C130.37 79.21 127.05 76.8101 123.01 76.8101ZM118.53 102.81C116.924 100.278 116.1 97.3282 116.16 94.3301C116.096 91.3409 116.921 88.4 118.53 85.8801C119.94 83.8301 121.53 82.9801 123.01 82.9801C124.49 82.9801 126.01 83.8201 127.45 85.8701C128.994 88.4256 129.81 91.3544 129.81 94.3401C129.81 97.3257 128.994 100.255 127.45 102.81C126.04 104.88 124.45 105.71 123.01 105.71C121.57 105.71 119.94 104.87 118.53 102.81ZM110.01 96.7201C109.645 93.7552 108.398 90.9682 106.43 88.7201C105.541 87.5997 104.374 86.7316 103.045 86.2023C101.717 85.673 100.272 85.501 98.8563 85.7032C97.4404 85.9055 96.1021 86.475 94.9747 87.3552C93.8472 88.2354 92.97 89.3955 92.4302 90.7201C91.2594 93.2134 90.8091 95.9844 91.1302 98.7201C90.6797 98.0513 90.1491 97.44 89.5502 96.9C88.7298 96.0399 87.6989 95.4092 86.5597 95.0703C85.4204 94.7314 84.2124 94.6962 83.0553 94.968C81.8982 95.2399 80.8322 95.8094 79.9631 96.6201C79.0939 97.4309 78.4517 98.4547 78.1002 99.5901C77.3347 101.8 77.2102 104.181 77.7411 106.458C78.272 108.736 79.4365 110.817 81.1002 112.46C81.9237 113.317 82.9562 113.944 84.0959 114.281C85.2357 114.617 86.4434 114.65 87.6001 114.378C88.7567 114.105 89.8224 113.536 90.6922 112.726C91.562 111.917 92.2058 110.894 92.5602 109.76C93.0958 108.344 93.3307 106.832 93.2502 105.32C93.6889 106.033 94.1945 106.703 94.7602 107.32C95.6509 108.438 96.8182 109.303 98.1465 109.831C99.4748 110.358 100.918 110.529 102.333 110.327C103.747 110.125 105.085 109.557 106.212 108.678C107.34 107.8 108.218 106.642 108.76 105.32C110.025 102.642 110.46 99.6473 110.01 96.7201ZM99.7102 91.8501C100.134 91.8417 100.554 91.9376 100.932 92.1294C101.311 92.3212 101.636 92.603 101.88 92.9501C102.988 94.267 103.683 95.8807 103.88 97.5901C104.171 99.2823 103.952 101.023 103.25 102.59C102.65 103.82 101.94 104.19 101.48 104.25C101.054 104.256 100.633 104.157 100.253 103.964C99.8735 103.771 99.5464 103.488 99.3002 103.14C98.1925 101.827 97.4968 100.217 97.3002 98.5101C97.0231 96.8167 97.2456 95.0792 97.9402 93.5101C98.5502 92.2801 99.2602 91.9101 99.7002 91.8501H99.7102ZM84.4502 100.96C84.5256 100.94 84.6048 100.94 84.6802 100.96C84.9408 101.063 85.1787 101.215 85.3802 101.41C86.1601 102.191 86.6983 103.181 86.9302 104.26C87.2112 105.32 87.1765 106.439 86.8302 107.48C86.7381 107.744 86.5916 107.986 86.4002 108.19C86.3002 108.3 86.2302 108.32 86.2102 108.32C86.1357 108.346 86.0547 108.346 85.9802 108.32C85.7204 108.221 85.4825 108.071 85.2802 107.88C84.5038 107.099 83.9721 106.109 83.7502 105.03C83.4618 103.971 83.4931 102.851 83.8402 101.81C83.9333 101.549 84.0759 101.308 84.2602 101.1C84.3141 101.042 84.3786 100.994 84.4502 100.96ZM79.3202 110.69C78.5196 108.635 77.1275 106.864 75.3202 105.6C74.4267 104.907 73.3681 104.458 72.2486 104.299C71.129 104.139 69.9872 104.274 68.9356 104.689C67.8839 105.105 66.9587 105.788 66.2511 106.67C65.5435 107.552 65.0779 108.603 64.9002 109.72C64.4913 111.878 64.7049 114.109 65.5158 116.15C66.3268 118.192 67.7018 119.961 69.4802 121.25C70.3736 121.943 71.4322 122.392 72.5518 122.552C73.6713 122.711 74.8131 122.577 75.8648 122.161C76.9164 121.745 77.8416 121.062 78.5492 120.18C79.2568 119.298 79.7224 118.247 79.9002 117.13C80.3441 114.983 80.1423 112.753 79.3202 110.72V110.69ZM71.9002 110.71C71.7156 110.555 71.4896 110.458 71.2502 110.43C71.0967 110.617 70.9965 110.841 70.9602 111.08C70.83 112.015 70.9459 112.969 71.2967 113.845C71.6474 114.722 72.2208 115.493 72.9602 116.08C73.1456 116.234 73.3712 116.331 73.6102 116.36C73.7654 116.18 73.863 115.957 73.8902 115.72C74.0263 114.776 73.9133 113.812 73.5625 112.924C73.2117 112.037 72.6353 111.256 71.8902 110.66L71.9002 110.71ZM77.4502 132.27C82.3845 127.554 88.4003 124.12 94.9702 122.27C101.14 121.03 111.69 119.21 120.61 120.11C125.11 120.55 128.83 121.66 131.35 123.54C133.71 125.29 135.27 127.88 135.27 132.08C135.27 134.84 133.47 138.47 130.74 142.17C128.544 145.093 126.091 147.814 123.41 150.3C114.65 158.3 108.03 167.61 105.81 177.86C104.99 181.66 101.66 185.86 97.7102 186.86C96.6538 187.143 95.5507 187.207 94.4688 187.047C93.387 186.887 92.3494 186.507 91.4202 185.93C89.0202 184.58 86.2402 181.87 83.4202 176.93C82.7202 175.71 80.1002 170.93 77.4202 165.18C74.7402 159.43 72.2002 152.88 71.4202 148.18V148.1C70.3702 142.35 72.8002 136.96 77.4502 132.28V132.27ZM141.45 132.12C141.45 126.05 139.04 121.59 135.05 118.62C131.23 115.78 126.23 114.5 121.24 114C111.24 113 99.8102 115 93.6502 116.29L93.4302 116.34C85.7907 118.465 78.8004 122.458 73.0902 127.96C67.5402 133.5 63.8202 140.86 65.3802 149.31C66.3102 154.94 69.1702 162.06 71.8502 167.91C74.5302 173.76 77.2802 178.79 78.0702 180.16C81.2402 185.67 84.7202 189.36 88.3902 191.43C90.0206 192.399 91.8286 193.032 93.7075 193.291C95.5864 193.551 97.4982 193.431 99.3302 192.94C105.91 191.15 110.63 184.87 111.84 179.27C113.69 170.73 119.35 162.51 127.59 154.95C130.559 152.2 133.273 149.188 135.7 145.95C138.53 142.05 141.44 137.02 141.44 132.13L141.45 132.12ZM68.6202 121.96C67.7639 120.122 66.3688 118.587 64.6202 117.56C63.8142 117.054 62.9428 116.66 62.0302 116.39C60.9198 116.045 59.7277 116.066 58.6302 116.45C57.7018 116.894 56.8917 117.551 56.266 118.368C55.6403 119.185 55.2168 120.138 55.0302 121.15C54.5269 123.375 54.7224 125.701 55.5902 127.81C56.0299 128.958 56.7466 129.98 57.6765 130.784C58.6064 131.588 59.7207 132.15 60.9202 132.42C62.6296 132.836 64.4236 132.742 66.0802 132.15C67.2075 131.689 68.1137 130.812 68.6102 129.7C68.9949 128.879 69.2286 127.994 69.3002 127.09C69.4705 125.351 69.2378 123.595 68.6202 121.96ZM61.3202 125.54C60.9249 124.617 60.8169 123.596 61.0102 122.61L61.3502 122.81C61.7474 123.051 62.1135 123.34 62.4402 123.67C62.618 123.838 62.7667 124.034 62.8802 124.25C63.1336 124.961 63.2259 125.719 63.1502 126.47C62.8845 126.479 62.6188 126.452 62.3602 126.39C62.1332 126.341 61.9187 126.246 61.7302 126.11C61.547 125.958 61.4058 125.762 61.3202 125.54ZM62.8802 124.25L65.7502 123.11L62.8802 124.24V124.25ZM264.29 103.65C264.202 102.858 263.811 102.131 263.2 101.621C262.589 101.11 261.804 100.855 261.009 100.91C260.214 100.964 259.471 101.323 258.935 101.912C258.398 102.5 258.11 103.274 258.13 104.07V104.51C259.07 117.92 260.43 137.44 264.06 154.66C265.9 163.36 268.35 171.66 271.71 178.3C275.07 184.94 279.49 190.37 285.57 192.72C304.57 200.08 323.57 209.12 350.82 223.84C353.899 225.505 357.241 226.628 360.7 227.16C366.65 228.08 371.82 228.96 376.13 230C379.562 230.696 382.872 231.9 385.95 233.57C388.11 234.89 389.11 236.27 389.44 237.78C389.77 239.29 389.55 241.78 387.91 245.41C387.78 245.69 387 246.53 384.39 247.31C381.4 248.098 378.331 248.544 375.24 248.64C368.551 248.975 361.847 248.43 355.3 247.02C353.962 246.676 352.579 246.544 351.2 246.63C322.75 248.63 310.58 244.2 300.73 238.93C298.99 238 297.28 237.02 295.55 236.02C287.23 231.23 278.34 226.11 261.55 224.35C247.2 222.86 239.07 228.49 231.55 233.71C230.31 234.57 229.09 235.42 227.86 236.22C223.34 239.381 218.194 241.536 212.77 242.54C206.62 243.6 198.67 243.3 187.59 240.28C184.93 239.55 183.01 237.71 181.73 234.59C180.45 231.47 179.87 226.91 180.14 221.48C180.69 210.65 184.45 196.94 190.08 184C192.5 178.43 194.08 169.72 195.14 159.69C196.2 149.66 196.88 137.69 197.36 125.69L197.51 121.69C197.506 120.894 197.194 120.13 196.639 119.558C196.085 118.986 195.331 118.65 194.535 118.62C193.739 118.59 192.963 118.869 192.367 119.398C191.772 119.927 191.404 120.666 191.34 121.46L191.19 125.46C190.72 137.46 190.07 149.16 189 159.08C187.93 169 186.43 176.96 184.42 181.58C178.6 194.95 174.57 209.41 173.98 221.22C173.68 227.11 174.22 232.58 175.98 236.98C177.74 241.38 181.04 244.98 185.92 246.28C197.62 249.48 206.51 249.92 213.78 248.68C220.031 247.526 225.965 245.059 231.19 241.44C232.59 240.52 233.924 239.61 235.19 238.71C242.61 233.6 248.87 229.3 260.83 230.54C276.3 232.16 284.08 236.63 292.29 241.34C294.08 242.34 295.88 243.4 297.79 244.43C308.79 250.31 322.16 254.94 351.61 252.84C352.33 252.795 353.053 252.866 353.75 253.05C360.887 254.619 368.202 255.224 375.5 254.85C379.093 254.744 382.661 254.214 386.13 253.27C388.97 252.43 392.13 250.93 393.49 248.02C395.4 243.83 396.22 240.02 395.44 236.48C395.007 234.764 394.224 233.156 393.14 231.757C392.056 230.358 390.694 229.198 389.14 228.35C385.542 226.317 381.659 224.837 377.62 223.96C373.04 222.86 367.62 221.96 361.69 221.02C358.928 220.593 356.26 219.697 353.8 218.37C326.46 203.58 307.17 194.37 287.8 186.93C283.8 185.38 280.28 181.51 277.23 175.48C274.18 169.45 271.9 161.8 270.11 153.34C266.57 136.55 265.23 117.34 264.29 103.89V103.65ZM198.05 103.95C198.083 103.533 198.03 103.113 197.896 102.717C197.762 102.321 197.548 101.956 197.268 101.644C196.989 101.333 196.649 101.082 196.269 100.906C195.889 100.73 195.478 100.633 195.06 100.621C194.641 100.608 194.225 100.681 193.836 100.835C193.446 100.988 193.092 101.219 192.795 101.514C192.498 101.808 192.263 102.16 192.106 102.548C191.949 102.936 191.872 103.352 191.88 103.77C191.807 106.05 191.737 108.35 191.67 110.67C191.684 111.464 192.002 112.222 192.56 112.787C193.117 113.352 193.871 113.681 194.665 113.706C195.458 113.73 196.231 113.448 196.822 112.918C197.413 112.389 197.778 111.652 197.84 110.86C197.92 108.54 197.98 106.24 198.05 103.96V103.95ZM219.96 187.6C219.516 186.913 218.817 186.431 218.017 186.259C217.217 186.088 216.382 186.241 215.695 186.685C215.008 187.129 214.526 187.828 214.354 188.628C214.183 189.428 214.336 190.263 214.78 190.95C217.115 194.57 220.659 197.246 224.78 198.5C229.53 199.94 235.39 199.66 242.27 196.71C242.983 196.361 243.534 195.752 243.81 195.008C244.086 194.264 244.065 193.442 243.751 192.713C243.437 191.984 242.855 191.404 242.125 191.092C241.395 190.781 240.573 190.762 239.83 191.04C234.01 193.54 229.67 193.53 226.57 192.6C223.847 191.764 221.506 189.994 219.96 187.6ZM104.96 226.2C102.35 228.97 100.96 233.06 102.43 238.82C104.08 245.14 106.61 249.15 109.61 251.43C112.61 253.71 116.33 254.52 121.21 253.74C125.58 253.04 128.39 251.17 130.29 248.48C132.19 245.79 133.46 241.73 133.95 236.63C134.49 230.94 132.44 227.11 129.33 224.63C125.689 222.003 121.223 220.775 116.75 221.17C112.03 221.51 107.68 223.29 104.95 226.2H104.96ZM133.15 219.81C137.95 223.58 140.83 229.48 140.09 237.21C139.56 242.84 138.2 248.01 135.33 252.05C132.46 256.09 128.05 258.9 122.19 259.84C116.03 260.84 110.44 259.84 105.88 256.35C101.32 252.86 98.3102 247.49 96.4602 240.35C94.4602 232.7 96.2902 226.35 100.46 221.94C104.63 217.53 110.46 215.39 116.36 215.02C122.348 214.54 128.308 216.242 133.14 219.81H133.15Z" fill="#00A7B8"/>
<path fill-rule="evenodd" clip-rule="evenodd" d="M127.62 154.9C128.203 154.34 128.544 153.575 128.57 152.767C128.596 151.96 128.304 151.174 127.757 150.579C127.21 149.984 126.452 149.627 125.645 149.584C124.838 149.541 124.047 149.816 123.44 150.35C114.68 158.35 108.06 167.66 105.84 177.91C105.02 181.71 101.69 185.91 97.7402 186.91C96.6839 187.193 95.5807 187.256 94.4988 187.097C93.417 186.937 92.3794 186.557 91.4502 185.98C89.0502 184.63 86.2702 181.92 83.4502 176.98C82.8302 175.9 80.6902 171.98 78.3702 167.1C78.2039 166.721 77.9634 166.38 77.6628 166.096C77.3622 165.812 77.0077 165.591 76.6203 165.447C76.2329 165.302 75.8204 165.237 75.4073 165.255C74.9942 165.273 74.5889 165.373 74.2153 165.551C73.8418 165.728 73.5077 165.979 73.2328 166.288C72.9579 166.597 72.7478 166.957 72.6149 167.349C72.482 167.741 72.429 168.155 72.4591 168.567C72.4892 168.98 72.6018 169.382 72.7902 169.75C75.1802 174.75 77.4002 178.83 78.1002 180.06C81.2702 185.57 84.7502 189.26 88.4202 191.33C90.0509 192.298 91.8588 192.931 93.7376 193.19C95.6164 193.45 97.5281 193.33 99.3602 192.84C105.94 191.05 110.66 184.77 111.87 179.17C113.7 170.68 119.35 162.46 127.62 154.9ZM104.98 226.2C102.37 228.97 100.98 233.06 102.45 238.82C102.553 239.214 102.576 239.624 102.52 240.027C102.464 240.43 102.329 240.819 102.123 241.17C101.917 241.521 101.644 241.828 101.319 242.073C100.994 242.318 100.624 242.497 100.23 242.6C99.8362 242.702 99.4259 242.726 99.0228 242.67C98.6196 242.614 98.2314 242.479 97.8804 242.273C97.5294 242.067 97.2224 241.793 96.977 241.468C96.7316 241.144 96.5526 240.774 96.4502 240.38C94.4502 232.73 96.2802 226.38 100.45 221.97C104.62 217.56 110.45 215.42 116.35 215.05C122.338 214.559 128.301 216.25 133.14 219.81C137.94 223.58 140.82 229.48 140.08 237.21C140.003 238.024 139.606 238.774 138.976 239.296C138.346 239.817 137.534 240.067 136.72 239.99C135.906 239.913 135.156 239.516 134.634 238.886C134.113 238.255 133.863 237.444 133.94 236.63C134.48 230.94 132.43 227.11 129.32 224.63C125.679 222.003 121.213 220.774 116.74 221.17C112.03 221.51 107.68 223.29 104.95 226.2H104.98ZM235.47 238.53C231.05 241.59 226.09 245.01 219.89 247.1C219.506 247.231 219.1 247.286 218.695 247.26C218.29 247.234 217.893 247.129 217.529 246.95C216.793 246.589 216.23 245.951 215.965 245.175C215.7 244.399 215.754 243.55 216.115 242.814C216.476 242.077 217.114 241.515 217.89 241.25C223.2 239.46 227.12 236.75 231.33 233.84C232.97 232.71 234.65 231.55 236.48 230.4C242.9 226.4 250.26 223.18 261.53 224.4C277.81 226.1 286.53 230.89 294.75 235.6L295.49 236.02C303.18 240.44 310.49 244.63 323.96 246.36C324.737 246.504 325.43 246.94 325.895 247.578C326.361 248.217 326.564 249.01 326.462 249.794C326.361 250.578 325.964 251.293 325.351 251.792C324.739 252.292 323.958 252.538 323.17 252.48C308.45 250.59 300.29 245.9 292.45 241.39L291.68 240.95C283.81 236.43 275.94 232.11 260.89 230.54C251.38 229.54 245.4 232.12 239.77 235.67C238.37 236.55 236.93 237.55 235.44 238.58L235.47 238.53Z" fill="#F58233"/>
</svg>
