<svg width="435" height="545" viewBox="0 0 435 545" fill="none" xmlns="http://www.w3.org/2000/svg">
<path d="M384.85 3H50C24.0426 3 3 24.0426 3 50V494.53C3 520.487 24.0426 541.53 50 541.53H384.85C410.807 541.53 431.85 520.487 431.85 494.53V50C431.85 24.0426 410.807 3 384.85 3Z" stroke="#00A7B8" stroke-width="5" stroke-miterlimit="10"/>
<path fill-rule="evenodd" clip-rule="evenodd" d="M130.91 120.24C126.91 120.24 123.52 122.63 121.34 125.81C119.018 129.376 117.817 133.556 117.89 137.81C117.821 142.064 119.023 146.242 121.34 149.81C123.52 153 126.85 155.4 130.91 155.4C134.97 155.4 138.28 152.99 140.46 149.81C142.708 146.224 143.9 142.077 143.9 137.845C143.9 133.613 142.708 129.466 140.46 125.88C138.28 122.64 134.96 120.24 130.91 120.24ZM126.44 146.24C124.893 143.686 124.075 140.757 124.075 137.77C124.075 134.784 124.893 131.855 126.44 129.3C127.85 127.25 129.49 126.4 130.92 126.4C132.35 126.4 133.92 127.24 135.37 129.29C136.921 131.854 137.741 134.794 137.741 137.79C137.741 140.787 136.921 143.726 135.37 146.29C133.96 148.35 132.37 149.18 130.92 149.18C129.47 149.18 127.85 148.35 126.44 146.25V146.24ZM117.91 140.15C117.537 137.202 116.29 134.434 114.33 132.2C113.441 131.08 112.274 130.212 110.945 129.682C109.616 129.153 108.172 128.981 106.756 129.183C105.34 129.386 104.002 129.955 102.874 130.835C101.747 131.716 100.87 132.876 100.33 134.2C99.1591 136.693 98.7088 139.464 99.0299 142.2C98.5688 141.522 98.0283 140.901 97.4199 140.35C96.5975 139.493 95.5658 138.865 94.4266 138.529C93.2874 138.192 92.0802 138.159 90.9241 138.431C89.7679 138.704 88.7029 139.273 87.8341 140.083C86.9653 140.893 86.3227 141.916 85.9699 143.05C85.164 145.26 85.042 147.661 85.6199 149.94C86.1311 152.232 87.3109 154.32 89.0099 155.94C89.8314 156.8 90.863 157.43 92.0029 157.769C93.1427 158.108 94.3512 158.143 95.5088 157.871C96.6665 157.599 97.7331 157.03 98.6032 156.22C99.4733 155.409 100.117 154.386 100.47 153.25C101.004 151.83 101.239 150.315 101.16 148.8C101.596 149.515 102.102 150.185 102.67 150.8C103.561 151.918 104.728 152.783 106.056 153.311C107.384 153.838 108.828 154.01 110.242 153.807C111.657 153.605 112.995 153.037 114.122 152.159C115.249 151.28 116.128 150.123 116.67 148.8C117.939 146.109 118.371 143.099 117.91 140.16V140.15ZM107.62 135.28C108.044 135.277 108.463 135.377 108.841 135.57C109.218 135.763 109.544 136.044 109.79 136.39C110.899 137.706 111.595 139.32 111.79 141.03C112.076 142.723 111.857 144.462 111.16 146.03C110.55 147.26 109.84 147.63 109.39 147.69C108.963 147.699 108.541 147.602 108.161 147.409C107.78 147.215 107.454 146.931 107.21 146.58C106.131 145.246 105.432 143.644 105.189 141.945C104.946 140.247 105.168 138.514 105.83 136.93C106.44 135.69 107.14 135.33 107.59 135.26L107.62 135.28ZM92.3499 144.43C92.4226 144.416 92.4972 144.416 92.5699 144.43C92.8309 144.532 93.0689 144.685 93.2699 144.88C94.0589 145.66 94.6014 146.655 94.8299 147.74C95.113 148.801 95.0748 149.921 94.7199 150.96C94.6308 151.223 94.4877 151.465 94.2999 151.67C94.2468 151.727 94.182 151.771 94.1099 151.8C94.0339 151.815 93.9559 151.815 93.8799 151.8C93.6202 151.696 93.3826 151.543 93.1799 151.35C92.4036 150.568 91.869 149.578 91.6399 148.5C91.3589 147.44 91.3936 146.321 91.7399 145.28C91.829 145.017 91.9721 144.775 92.1599 144.57C92.2109 144.513 92.2719 144.466 92.3399 144.43H92.3499ZM87.2099 154.17C86.4158 152.109 85.0226 150.333 83.2099 149.07C82.3158 148.377 81.2564 147.928 80.1361 147.769C79.0159 147.61 77.8735 147.746 76.8217 148.163C75.7698 148.58 74.8448 149.263 74.1377 150.147C73.4307 151.03 72.9662 152.083 72.7899 153.2C72.3835 155.359 72.5982 157.588 73.409 159.629C74.2197 161.67 75.5933 163.439 77.3699 164.73C78.2624 165.427 79.3213 165.878 80.4418 166.039C81.5622 166.2 82.7054 166.066 83.7581 165.65C84.8108 165.234 85.7365 164.55 86.4437 163.666C87.1508 162.782 87.6149 161.729 87.7899 160.61C88.2429 158.453 88.0374 156.209 87.1999 154.17H87.2099ZM79.7899 154.17C79.603 154.021 79.3777 153.927 79.1399 153.9C78.9842 154.085 78.8837 154.311 78.8499 154.55C78.7197 155.486 78.8357 156.439 79.1864 157.316C79.5371 158.192 80.1105 158.963 80.8499 159.55C81.0387 159.705 81.2677 159.802 81.5099 159.83C81.6566 159.644 81.753 159.424 81.7899 159.19C81.9522 158.248 81.8376 157.279 81.4599 156.4C81.1214 155.516 80.5388 154.746 79.7799 154.18L79.7899 154.17ZM85.3399 175.72C90.2843 171.007 96.3057 167.574 102.88 165.72C109.05 164.48 119.6 162.66 128.53 163.55C133.03 164 136.74 165.11 139.27 166.99C141.63 168.74 143.19 171.33 143.19 175.54C143.101 177.114 142.653 178.647 141.88 180.02C140.889 181.885 139.72 183.65 138.39 185.29C137.06 186.99 135.64 188.59 134.39 190.07L134.24 190.25C133.045 191.538 131.93 192.897 130.9 194.32C126.71 200.58 123.84 207.01 122.97 213.83C122.1 220.65 123.28 227.7 126.88 235.03C128.62 238.59 130.4 241.61 132.11 244.4C132.53 245.09 132.95 245.76 133.36 246.4C134.61 248.4 135.78 250.32 136.89 252.31C140.263 258.224 142.421 264.752 143.24 271.51C143.24 280.12 142.46 286.08 140.39 290.1C138.48 293.82 135.27 296.21 129.17 297.19C117.68 299.02 105.56 289.08 103.04 273.44C102.33 268.99 101.76 265.09 101.24 261.53C99.1499 247.31 97.8499 238.53 91.6399 221.07C91.4337 220.363 91.1694 219.674 90.8499 219.01C90.4799 218.2 90.0099 217.23 89.4799 216.17C89.1699 215.55 88.8499 214.9 88.4799 214.22C87.6199 212.5 86.6599 210.57 85.6699 208.51C82.8699 202.68 80.1499 196.32 79.3899 191.63C79.3948 191.604 79.3948 191.577 79.3899 191.55C78.2499 185.81 80.6799 180.35 85.3299 175.73L85.3399 175.72ZM149.34 175.58C149.34 169.51 146.93 165.04 142.94 162.07C139.12 159.23 134.11 157.95 129.12 157.45C119.12 156.45 107.69 158.45 101.52 159.73L101.3 159.79C93.6715 161.903 86.6863 165.875 80.9699 171.35C75.4199 176.89 71.6899 184.26 73.2599 192.72C74.1899 198.4 77.2599 205.49 80.0599 211.25C81.0599 213.36 82.0599 215.36 82.9499 217.09L83.8899 218.98C84.4099 220.03 84.8399 220.92 85.1599 221.62C85.3199 221.96 85.4399 222.24 85.5199 222.46C85.5584 222.552 85.5918 222.645 85.6199 222.74C85.6199 222.85 85.6799 222.96 85.7199 223.07C91.7199 240 92.9599 248.23 95.0399 262.35C95.5699 265.94 96.1499 269.9 96.8899 274.48C99.7499 292.29 114.15 305.89 130.08 303.34C137.69 302.13 142.82 298.81 145.82 292.99C148.65 287.5 149.36 280.14 149.35 271.35C149.36 271.214 149.36 271.077 149.35 270.94C148.441 263.339 146.016 255.998 142.22 249.35C141.04 247.22 139.76 245.16 138.5 243.11C138.1 242.48 137.71 241.84 137.32 241.2C135.65 238.48 133.98 235.65 132.37 232.35C129.25 225.98 128.37 220.18 129.03 214.64C129.69 209.1 132.13 203.52 135.97 197.78C136.862 196.584 137.817 195.436 138.83 194.34L139 194.15C140.28 192.69 141.8 190.97 143.24 189.15C144.818 187.194 146.204 185.091 147.38 182.87C148.595 180.63 149.27 178.137 149.35 175.59L149.34 175.58ZM76.4899 165.4C75.6336 163.562 74.2385 162.027 72.4899 161C71.6906 160.488 70.8216 160.094 69.9099 159.83C68.8009 159.475 67.6056 159.496 66.5099 159.89C65.5787 160.331 64.7658 160.988 64.1381 161.805C63.5104 162.622 63.086 163.577 62.8999 164.59C62.4018 166.815 62.5972 169.14 63.4599 171.25C63.9 172.401 64.6179 173.425 65.5496 174.231C66.4813 175.037 67.5978 175.6 68.7999 175.87C70.5103 176.283 72.3042 176.186 73.9599 175.59C75.0859 175.133 75.9921 174.259 76.4899 173.15C76.8719 172.324 77.1087 171.437 77.1899 170.53C77.3533 168.794 77.1208 167.044 76.5099 165.41L76.4899 165.4ZM69.1899 168.98C68.7946 168.057 68.6866 167.036 68.8799 166.05L69.2199 166.25C69.6179 166.494 69.984 166.786 70.3099 167.12C70.4887 167.283 70.6377 167.476 70.7499 167.69C70.9986 168.402 71.0907 169.159 71.0199 169.91C70.7541 169.92 70.4883 169.893 70.2299 169.83C69.9984 169.785 69.7798 169.69 69.5899 169.55C69.4134 169.401 69.279 169.208 69.1999 168.99L69.1899 168.98ZM70.7499 167.69L73.6199 166.55L70.7499 167.68V167.69ZM268.96 144.21C269.365 144.182 269.771 144.233 270.156 144.362C270.54 144.491 270.896 144.695 271.201 144.962C271.507 145.228 271.757 145.553 271.937 145.916C272.117 146.28 272.223 146.675 272.25 147.08V147.36C273.19 160.85 274.53 180.04 278.08 196.84C279.87 205.3 282.19 213 285.2 218.98C288.21 224.96 291.78 228.89 295.78 230.44C315.12 237.92 334.42 247.1 361.78 261.9C364.241 263.224 366.909 264.12 369.67 264.55C375.67 265.47 381.03 266.39 385.61 267.49C389.671 268.331 393.582 269.781 397.21 271.79C400.34 273.71 402.71 276.31 403.52 279.93C404.33 283.55 403.52 287.28 401.57 291.47C400.24 294.38 397.05 295.88 394.2 296.73C390.747 297.674 387.197 298.217 383.62 298.35C376.319 298.72 369.001 298.114 361.86 296.55C361.166 296.364 360.447 296.289 359.73 296.33C330.41 298.51 315.16 296.28 303.33 293.44C300.71 292.81 298.33 292.17 295.98 291.54C287.84 289.37 280.74 287.47 269.21 287.47C256.09 287.47 246.6 289.82 237.85 291.99C235.35 292.61 232.9 293.21 230.45 293.74C224.889 295.083 219.161 295.602 213.45 295.28C206.484 294.655 199.699 292.721 193.45 289.58C184.58 285.37 181.86 275.02 182.33 263.76C182.8 252.25 186.59 238.42 192.41 225.04C194.62 219.97 196.19 211.04 197.29 199.73C198.39 188.42 198.98 175.41 199.43 162.19C199.425 161.773 199.505 161.358 199.665 160.972C199.824 160.587 200.061 160.237 200.359 159.945C200.658 159.653 201.013 159.425 201.402 159.274C201.791 159.123 202.207 159.052 202.625 159.066C203.042 159.08 203.452 159.179 203.831 159.356C204.209 159.533 204.547 159.785 204.825 160.097C205.103 160.409 205.315 160.773 205.448 161.169C205.582 161.565 205.633 161.984 205.6 162.4C205.15 175.64 204.54 188.93 203.43 200.33C202.32 211.73 200.72 221.44 198.08 227.51C192.44 240.45 188.93 253.51 188.5 264.01C188.05 274.75 190.82 281.49 196.1 284.01C201.671 286.826 207.724 288.563 213.94 289.13C219.065 289.412 224.203 288.937 229.19 287.72C231.41 287.24 233.7 286.67 236.11 286.07C244.93 283.88 255.31 281.3 269.26 281.3C281.67 281.3 289.64 283.44 297.91 285.66C300.16 286.26 302.43 286.87 304.82 287.44C315.96 290.12 330.56 292.32 359.32 290.18C360.702 290.089 362.09 290.22 363.43 290.57C369.976 291.985 376.681 292.53 383.37 292.19C386.465 292.105 389.539 291.659 392.53 290.86C395.15 290.08 395.92 289.24 396.05 288.96C397.7 285.35 397.95 282.96 397.59 281.32C397.23 279.68 396.26 278.44 394.09 277.12C391.013 275.444 387.703 274.237 384.27 273.54C379.96 272.54 374.79 271.62 368.83 270.7C365.367 270.171 362.021 269.048 358.94 267.38C331.62 252.61 312.62 243.57 293.62 236.21C287.54 233.86 283.09 228.39 279.76 221.77C276.43 215.15 273.95 206.83 272.11 198.13C268.47 180.9 267.11 161.37 266.17 147.95V147.52C266.114 146.714 266.376 145.917 266.899 145.301C267.422 144.684 268.165 144.297 268.97 144.22L268.96 144.21ZM202.96 144.21C203.779 144.236 204.554 144.585 205.116 145.181C205.678 145.777 205.981 146.571 205.96 147.39C205.96 148.45 205.96 149.19 205.96 150C205.96 150.83 205.96 151.72 205.96 153C205.935 153.82 205.585 154.596 204.988 155.157C204.39 155.719 203.594 156.02 202.775 155.995C201.955 155.97 201.179 155.62 200.618 155.023C200.056 154.426 199.755 153.63 199.78 152.81C199.78 151.74 199.78 150.98 199.78 150.18C199.78 149.36 199.78 148.49 199.78 147.28C199.782 146.865 199.868 146.454 200.033 146.073C200.197 145.692 200.437 145.348 200.738 145.061C201.038 144.774 201.393 144.551 201.782 144.405C202.171 144.259 202.585 144.193 203 144.21H202.96ZM223.61 230.21C224.297 229.765 225.133 229.611 225.933 229.782C226.734 229.953 227.434 230.434 227.88 231.12C229.427 233.525 231.782 235.298 234.52 236.12C237.62 237.06 241.96 237.06 247.78 234.56C248.156 234.376 248.565 234.271 248.983 234.25C249.401 234.229 249.819 234.293 250.211 234.438C250.603 234.584 250.962 234.807 251.265 235.095C251.569 235.383 251.811 235.73 251.976 236.115C252.141 236.499 252.227 236.913 252.228 237.331C252.228 237.75 252.144 238.164 251.98 238.549C251.815 238.933 251.575 239.281 251.272 239.57C250.97 239.859 250.612 240.084 250.22 240.23C243.34 243.23 237.48 243.47 232.73 242.03C228.608 240.776 225.065 238.101 222.73 234.48C222.501 234.14 222.343 233.758 222.263 233.356C222.184 232.953 222.186 232.54 222.269 232.138C222.352 231.737 222.514 231.356 222.746 231.018C222.978 230.68 223.275 230.392 223.62 230.17L223.61 230.21Z" fill="#00A7B8"/>
<path d="M84.6777 358.803V384.01H79.2812V373.745H68.4883V384.01H63.0742V358.803H68.4883V368.893H79.2812V358.803H84.6777ZM96.5781 379.159H110.078V384.01H91.1641V358.803H109.709V363.672H96.5781V368.717H106.826V373.569H96.5781V379.159ZM144.988 384.01H139.592V367.997L127.182 384.01H122.488V358.803H127.902V374.834L140.312 358.803H144.988V384.01ZM163.709 358.276C165.027 358.276 166.293 358.452 167.488 358.803C168.684 359.155 169.65 359.559 170.424 360.051C171.197 360.543 171.865 361.036 172.463 361.528C173.061 362.02 173.482 362.442 173.746 362.776L174.15 363.303L170.723 366.731C170.652 366.643 170.547 366.52 170.424 366.344C170.301 366.168 170.02 365.887 169.598 365.465C169.176 365.061 168.701 364.709 168.209 364.393C167.699 364.077 167.031 363.795 166.223 363.532C165.396 363.268 164.553 363.127 163.709 363.127C161.354 363.127 159.385 363.918 157.803 365.5C156.221 367.083 155.43 369.051 155.43 371.407C155.43 373.762 156.221 375.731 157.803 377.313C159.385 378.895 161.354 379.686 163.709 379.686C164.623 379.686 165.484 379.563 166.328 379.317C167.172 379.071 167.857 378.772 168.42 378.42C168.965 378.069 169.457 377.717 169.879 377.366C170.301 377.014 170.6 376.715 170.793 376.452L171.074 376.083L174.326 379.51C174.221 379.651 174.08 379.844 173.887 380.073C173.693 380.301 173.271 380.706 172.604 381.286C171.936 381.866 171.232 382.375 170.477 382.815C169.721 383.254 168.736 383.659 167.506 384.01C166.275 384.379 165.01 384.555 163.709 384.555C159.859 384.555 156.607 383.272 153.971 380.706C151.334 378.139 150.016 375.028 150.016 371.407C150.016 367.786 151.334 364.692 153.971 362.125C156.607 359.559 159.859 358.276 163.709 358.276ZM200.061 358.803V384.01H194.664V363.672H184.047V384.01H178.633V358.803H200.061ZM234.092 358.803V384.01H228.695V358.803H234.092ZM216.812 384.01H206.547V358.803H211.961V367.083H216.812C219.396 367.083 221.541 367.909 223.246 369.526C224.951 371.143 225.812 373.165 225.812 375.555C225.812 377.963 224.951 379.967 223.246 381.584C221.541 383.202 219.396 384.01 216.812 384.01ZM211.961 379.159H216.637C217.709 379.159 218.605 378.825 219.326 378.122C220.047 377.418 220.416 376.575 220.416 375.555C220.416 374.553 220.047 373.709 219.326 373.006C218.605 372.303 217.709 371.952 216.637 371.952H211.961V379.159ZM238.064 358.803H257.857V363.672H250.668V384.01H245.271V363.672H238.064V358.803ZM289.357 358.803V384.01H283.961V358.803H289.357ZM272.078 384.01H261.812V358.803H267.227V367.083H272.078C274.662 367.083 276.807 367.909 278.512 369.526C280.217 371.143 281.078 373.165 281.078 375.555C281.078 377.963 280.217 379.967 278.512 381.584C276.807 383.202 274.662 384.01 272.078 384.01ZM267.227 379.159H271.902C272.975 379.159 273.871 378.825 274.592 378.122C275.312 377.418 275.682 376.575 275.682 375.555C275.682 374.553 275.312 373.709 274.592 373.006C273.871 372.303 272.975 371.952 271.902 371.952H267.227V379.159ZM307.27 384.01H295.844V358.803H306.654C308.939 358.803 310.82 359.471 312.314 360.807C313.809 362.143 314.564 363.708 314.564 365.465C314.564 366.133 314.459 366.784 314.283 367.381C314.09 367.979 313.844 368.489 313.562 368.875C313.264 369.28 312.965 369.631 312.684 369.913C312.402 370.194 312.156 370.405 311.98 370.51L311.682 370.686C311.787 370.739 311.945 370.809 312.121 370.897C312.297 370.985 312.631 371.196 313.123 371.547C313.598 371.899 314.02 372.268 314.389 372.672C314.74 373.094 315.074 373.657 315.373 374.36C315.672 375.063 315.83 375.819 315.83 376.627C315.83 378.649 315.021 380.389 313.422 381.831C311.805 383.29 309.766 384.01 307.27 384.01ZM301.258 379.51H307.006C307.99 379.51 308.799 379.211 309.449 378.579C310.1 377.963 310.434 377.19 310.434 376.276C310.434 375.362 310.1 374.606 309.449 373.973C308.799 373.34 307.99 373.024 307.006 373.024H301.258V379.51ZM306.285 363.303H301.258V368.717H306.285C307.164 368.717 307.867 368.471 308.395 367.979C308.904 367.487 309.168 366.836 309.168 366.01C309.168 365.202 308.904 364.534 308.395 364.042C307.867 363.549 307.164 363.303 306.285 363.303ZM333.109 373.393L330.051 365.114L326.975 373.393H333.109ZM334.902 378.069H325.182L323.02 384.01H317.254L327.168 358.803H332.916L342.83 384.01H337.064L334.902 378.069ZM380.641 371.424C380.641 375.098 379.375 378.209 376.879 380.741C374.383 383.29 371.377 384.555 367.844 384.555C364.609 384.555 361.85 383.536 359.529 381.461C357.227 379.387 355.803 376.821 355.258 373.745H351.848V384.01H346.434V358.803H351.848V368.717H355.258C355.803 365.817 357.227 363.356 359.547 361.317C361.867 359.295 364.627 358.276 367.861 358.276C371.377 358.276 374.4 359.559 376.896 362.09C379.393 364.639 380.641 367.75 380.641 371.424ZM375.227 371.407C375.227 369.034 374.506 367.065 373.047 365.5C371.605 363.918 369.865 363.145 367.844 363.145C365.84 363.145 364.1 363.918 362.641 365.5C361.199 367.065 360.461 369.034 360.461 371.407C360.461 373.797 361.199 375.766 362.641 377.331C364.1 378.913 365.84 379.686 367.844 379.686C369.865 379.686 371.605 378.913 373.047 377.331C374.506 375.766 375.227 373.797 375.227 371.407Z" fill="#1D1D1B"/>
<path d="M124.457 440.62L113.664 440.638V415.431H123.912C125.951 415.431 127.691 416.099 129.132 417.452C130.574 418.788 131.294 420.335 131.294 422.093C131.294 423.095 131.083 424.026 130.662 424.87C130.24 425.714 129.835 426.294 129.431 426.628L128.781 427.138C128.869 427.173 128.992 427.261 129.167 427.366C129.343 427.472 129.642 427.718 130.099 428.087C130.539 428.456 130.925 428.86 131.242 429.317C131.558 429.757 131.857 430.337 132.138 431.04C132.419 431.743 132.56 432.481 132.56 433.237C132.56 435.259 131.787 436.999 130.24 438.44C128.693 439.899 126.759 440.62 124.457 440.62ZM117.619 437.21H124.457C125.617 437.21 126.601 436.806 127.41 436.015C128.201 435.224 128.605 434.239 128.605 433.079C128.605 431.901 128.201 430.917 127.41 430.126C126.619 429.317 125.634 428.931 124.457 428.931H117.619V437.21ZM123.912 418.858H117.619V425.696H123.912C124.896 425.696 125.705 425.362 126.355 424.712C127.005 424.062 127.339 423.253 127.339 422.269C127.339 421.284 127.005 420.476 126.355 419.825C125.705 419.175 124.896 418.858 123.912 418.858ZM135.97 431.989C135.97 429.563 136.849 427.472 138.642 425.679C140.435 423.886 142.544 422.989 144.97 422.989C146.306 422.989 147.572 423.271 148.732 423.851C149.892 424.431 150.718 425.011 151.228 425.591L151.984 426.417L149.646 428.755C149.523 428.562 149.347 428.333 149.101 428.052C148.855 427.771 148.345 427.401 147.537 426.944C146.728 426.47 145.884 426.241 144.97 426.241C143.494 426.241 142.228 426.786 141.156 427.911C140.083 429.019 139.556 430.372 139.556 431.989C139.556 433.606 140.083 434.96 141.156 436.085C142.228 437.192 143.494 437.755 144.97 437.755C145.884 437.755 146.728 437.526 147.537 437.069C148.345 436.612 148.925 436.155 149.277 435.733L149.822 435.065L152.16 437.403C152.089 437.491 151.984 437.614 151.843 437.79C151.703 437.966 151.386 438.247 150.929 438.651C150.455 439.056 149.962 439.407 149.453 439.724C148.925 440.04 148.257 440.321 147.449 440.585C146.623 440.849 145.796 440.989 144.97 440.989C142.544 440.989 140.435 440.093 138.642 438.3C136.849 436.507 135.97 434.415 135.97 431.989ZM171.759 433.237H158.242C158.435 434.468 159.033 435.522 160.052 436.401C161.072 437.298 162.267 437.737 163.656 437.737C164.675 437.737 165.607 437.509 166.486 437.052C167.365 436.595 167.98 436.155 168.332 435.716L168.876 435.048L171.214 437.386C171.144 437.491 171.039 437.614 170.898 437.79C170.757 437.966 170.441 438.247 169.949 438.651C169.474 439.056 168.964 439.407 168.419 439.724C167.892 440.04 167.189 440.321 166.328 440.585C165.466 440.849 164.57 440.972 163.656 440.972C161.212 440.972 159.103 440.075 157.328 438.282C155.552 436.489 154.656 434.327 154.656 431.796C154.656 429.37 155.535 427.296 157.257 425.573C158.98 423.851 161.054 422.972 163.48 422.972C165.906 422.972 167.91 423.78 169.527 425.397C171.144 427.015 171.953 429.019 171.953 431.444L171.759 433.237ZM163.462 426.048C162.162 426.048 161.072 426.435 160.193 427.208C159.314 427.981 158.716 428.966 158.4 430.179H168.402C168.191 428.966 167.646 427.981 166.767 427.208C165.888 426.435 164.798 426.048 163.462 426.048ZM191.746 431.62L198.214 440.62H194.083L189.583 434.327L185.083 440.62H180.935L187.421 431.62L181.48 423.341H185.611L189.583 428.913L193.539 423.341H197.687L191.746 431.62ZM214.421 431.989C214.421 430.372 213.876 429.019 212.822 427.894C211.75 426.786 210.484 426.224 209.025 426.224C207.548 426.224 206.283 426.786 205.21 427.894C204.138 429.019 203.611 430.372 203.611 431.989C203.611 433.606 204.138 434.96 205.21 436.067C206.283 437.192 207.548 437.737 209.025 437.737C210.484 437.737 211.75 437.192 212.822 436.067C213.876 434.96 214.421 433.606 214.421 431.989ZM200.025 431.989C200.025 429.563 200.904 427.454 202.697 425.661C204.49 423.868 206.599 422.972 209.025 422.972C211.451 422.972 213.542 423.868 215.335 425.661C217.128 427.454 218.025 429.563 218.025 431.989C218.025 434.415 217.128 436.507 215.335 438.3C213.542 440.093 211.451 440.989 209.025 440.989C206.599 440.989 204.49 440.093 202.697 438.3C200.904 436.507 200.025 434.415 200.025 431.989ZM231.156 440.972C230.505 440.972 229.873 440.901 229.275 440.743C228.66 440.603 228.132 440.409 227.71 440.181C227.271 439.952 226.884 439.724 226.55 439.478C226.216 439.231 225.97 439.038 225.83 438.897L225.583 438.634V448.179H221.98V423.341H225.583V425.327C225.742 425.169 225.97 424.958 226.269 424.677C226.568 424.413 227.201 424.062 228.185 423.622C229.152 423.2 230.136 422.972 231.156 422.972C233.441 422.972 235.41 423.851 237.097 425.608C238.785 427.366 239.628 429.476 239.628 431.972C239.628 434.468 238.785 436.595 237.097 438.353C235.41 440.11 233.441 440.972 231.156 440.972ZM230.804 426.224C229.433 426.224 228.22 426.786 227.166 427.911C226.111 429.036 225.583 430.407 225.583 431.989C225.583 433.571 226.111 434.925 227.166 436.05C228.22 437.175 229.433 437.737 230.804 437.737C232.175 437.737 233.388 437.175 234.443 436.05C235.498 434.925 236.025 433.571 236.025 431.989C236.025 430.407 235.498 429.036 234.443 427.911C233.388 426.786 232.175 426.224 230.804 426.224ZM256.89 431.989C256.89 430.372 256.345 429.019 255.291 427.894C254.218 426.786 252.953 426.224 251.494 426.224C250.017 426.224 248.751 426.786 247.679 427.894C246.607 429.019 246.08 430.372 246.08 431.989C246.08 433.606 246.607 434.96 247.679 436.067C248.751 437.192 250.017 437.737 251.494 437.737C252.953 437.737 254.218 437.192 255.291 436.067C256.345 434.96 256.89 433.606 256.89 431.989ZM242.494 431.989C242.494 429.563 243.373 427.454 245.166 425.661C246.958 423.868 249.068 422.972 251.494 422.972C253.919 422.972 256.011 423.868 257.804 425.661C259.597 427.454 260.494 429.563 260.494 431.989C260.494 434.415 259.597 436.507 257.804 438.3C256.011 440.093 253.919 440.989 251.494 440.989C249.068 440.989 246.958 440.093 245.166 438.3C243.373 436.507 242.494 434.415 242.494 431.989ZM264.449 440.62V423.341H268.052V437.386H274.345V423.341H277.949V437.386H284.259V423.341H287.845V440.62H264.449ZM306.214 431.989C306.214 430.372 305.669 429.019 304.615 427.894C303.542 426.786 302.277 426.224 300.818 426.224C299.341 426.224 298.076 426.786 297.003 427.894C295.931 429.019 295.404 430.372 295.404 431.989C295.404 433.606 295.931 434.96 297.003 436.067C298.076 437.192 299.341 437.737 300.818 437.737C302.277 437.737 303.542 437.192 304.615 436.067C305.669 434.96 306.214 433.606 306.214 431.989ZM291.818 431.989C291.818 429.563 292.697 427.454 294.49 425.661C296.283 423.868 298.392 422.972 300.818 422.972C303.244 422.972 305.335 423.868 307.128 425.661C308.921 427.454 309.818 429.563 309.818 431.989C309.818 434.415 308.921 436.507 307.128 438.3C305.335 440.093 303.244 440.989 300.818 440.989C298.392 440.989 296.283 440.093 294.49 438.3C292.697 436.507 291.818 434.415 291.818 431.989Z" fill="#878787"/>
</svg>
