<svg width="434" height="545" viewBox="0 0 434 545" fill="none" xmlns="http://www.w3.org/2000/svg">
<path d="M384.48 3H49.6301C23.6727 3 2.63013 24.0426 2.63013 50V494.53C2.63013 520.487 23.6727 541.53 49.6301 541.53H384.48C410.438 541.53 431.48 520.487 431.48 494.53V50C431.48 24.0426 410.438 3 384.48 3Z" stroke="#00A7B8" stroke-width="5" stroke-miterlimit="10"/>
<path d="M86.3303 377.84H74.9045V352.633H85.7151C88.0002 352.633 89.8811 353.301 91.3752 354.637C92.8694 355.973 93.6252 357.538 93.6252 359.295C93.6252 359.963 93.5198 360.614 93.344 361.211C93.1506 361.809 92.9045 362.319 92.6233 362.706C92.3245 363.11 92.0256 363.461 91.7444 363.743C91.4631 364.024 91.217 364.235 91.0413 364.34L90.7424 364.516C90.8479 364.569 91.0061 364.639 91.1819 364.727C91.3577 364.815 91.6917 365.026 92.1838 365.377C92.6584 365.729 93.0803 366.098 93.4495 366.502C93.801 366.924 94.135 367.487 94.4338 368.19C94.7327 368.893 94.8909 369.649 94.8909 370.458C94.8909 372.479 94.0823 374.219 92.4827 375.661C90.8655 377.12 88.8264 377.84 86.3303 377.84ZM80.3186 373.34H86.0667C87.051 373.34 87.8596 373.042 88.51 372.409C89.1604 371.793 89.4944 371.02 89.4944 370.106C89.4944 369.192 89.1604 368.436 88.51 367.803C87.8596 367.17 87.051 366.854 86.0667 366.854H80.3186V373.34ZM85.3459 357.133H80.3186V362.547H85.3459C86.2249 362.547 86.928 362.301 87.4553 361.809C87.9651 361.317 88.2288 360.667 88.2288 359.84C88.2288 359.032 87.9651 358.364 87.4553 357.872C86.928 357.379 86.2249 357.133 85.3459 357.133ZM119.571 352.106C120.889 352.106 122.155 352.282 123.35 352.633C124.545 352.985 125.512 353.389 126.285 353.881C127.059 354.374 127.727 354.866 128.324 355.358C128.922 355.85 129.344 356.272 129.608 356.606L130.012 357.133L126.584 360.561C126.514 360.473 126.408 360.35 126.285 360.174C126.162 359.999 125.881 359.717 125.459 359.295C125.037 358.891 124.563 358.54 124.071 358.223C123.561 357.907 122.893 357.625 122.084 357.362C121.258 357.098 120.414 356.958 119.571 356.958C117.215 356.958 115.246 357.749 113.664 359.331C112.082 360.913 111.291 362.881 111.291 365.237C111.291 367.592 112.082 369.561 113.664 371.143C115.246 372.725 117.215 373.516 119.571 373.516C120.485 373.516 121.346 373.393 122.19 373.147C123.033 372.901 123.719 372.602 124.281 372.25C124.826 371.899 125.319 371.547 125.74 371.196C126.162 370.844 126.461 370.545 126.655 370.282L126.936 369.913L130.188 373.34C130.082 373.481 129.942 373.674 129.748 373.903C129.555 374.131 129.133 374.536 128.465 375.116C127.797 375.696 127.094 376.206 126.338 376.645C125.582 377.084 124.598 377.489 123.367 377.84C122.137 378.209 120.871 378.385 119.571 378.385C115.721 378.385 112.469 377.102 109.832 374.536C107.196 371.969 105.877 368.858 105.877 365.237C105.877 361.616 107.196 358.522 109.832 355.956C112.469 353.389 115.721 352.106 119.571 352.106ZM145.92 377.84H134.494V352.633H145.305C147.59 352.633 149.471 353.301 150.965 354.637C152.459 355.973 153.215 357.538 153.215 359.295C153.215 359.963 153.11 360.614 152.934 361.211C152.74 361.809 152.494 362.319 152.213 362.706C151.914 363.11 151.615 363.461 151.334 363.743C151.053 364.024 150.807 364.235 150.631 364.34L150.332 364.516C150.438 364.569 150.596 364.639 150.772 364.727C150.948 364.815 151.281 365.026 151.774 365.377C152.248 365.729 152.67 366.098 153.039 366.502C153.391 366.924 153.725 367.487 154.024 368.19C154.323 368.893 154.481 369.649 154.481 370.458C154.481 372.479 153.672 374.219 152.073 375.661C150.455 377.12 148.416 377.84 145.92 377.84ZM139.908 373.34H145.656C146.641 373.34 147.449 373.042 148.1 372.409C148.75 371.793 149.084 371.02 149.084 370.106C149.084 369.192 148.75 368.436 148.1 367.803C147.449 367.17 146.641 366.854 145.656 366.854H139.908V373.34ZM144.936 357.133H139.908V362.547H144.936C145.815 362.547 146.518 362.301 147.045 361.809C147.555 361.317 147.819 360.667 147.819 359.84C147.819 359.032 147.555 358.364 147.045 357.872C146.518 357.379 145.815 357.133 144.936 357.133ZM163.674 365.254C163.674 367.575 164.448 369.543 166.03 371.125C167.594 372.725 169.51 373.516 171.76 373.516C174.01 373.516 175.926 372.725 177.49 371.125C179.073 369.543 179.846 367.575 179.846 365.254C179.846 362.934 179.073 360.965 177.49 359.366C175.926 357.766 174.01 356.958 171.76 356.958C169.51 356.958 167.594 357.766 166.03 359.366C164.448 360.965 163.674 362.934 163.674 365.254ZM158.084 365.237C158.084 361.616 159.403 358.522 162.039 355.956C164.676 353.389 167.928 352.106 171.76 352.106C175.592 352.106 178.844 353.389 181.481 355.956C184.117 358.522 185.436 361.616 185.436 365.237C185.436 368.858 184.117 371.969 181.481 374.536C178.844 377.102 175.592 378.385 171.76 378.385C167.928 378.385 164.676 377.102 162.039 374.536C159.403 371.969 158.084 368.858 158.084 365.237ZM186.526 372.989H187.967C188.055 372.901 188.196 372.76 188.371 372.549C188.547 372.338 188.881 371.881 189.338 371.143C189.795 370.405 190.182 369.596 190.533 368.717C190.885 367.838 191.201 366.661 191.483 365.149C191.764 363.655 191.922 362.073 191.922 360.385V352.633H209.377V372.989H212.453V383.061H207.039V377.84H191.922V383.061H186.526V372.989ZM197.319 360.385C197.319 362.073 197.178 363.655 196.897 365.131C196.615 366.625 196.299 367.821 195.912 368.735C195.526 369.649 195.156 370.44 194.77 371.108C194.383 371.776 194.049 372.268 193.803 372.549L193.364 372.989H203.981V357.502H197.319V360.385ZM221.998 372.989H235.498V377.84H216.584V352.633H235.129V357.502H221.998V362.547H232.246V367.399H221.998V372.989ZM260.16 352.106C261.479 352.106 262.744 352.282 263.94 352.633C265.135 352.985 266.102 353.389 266.875 353.881C267.649 354.374 268.317 354.866 268.914 355.358C269.512 355.85 269.934 356.272 270.198 356.606L270.602 357.133L267.174 360.561C267.104 360.473 266.998 360.35 266.875 360.174C266.752 359.999 266.471 359.717 266.049 359.295C265.627 358.891 265.153 358.54 264.66 358.223C264.151 357.907 263.483 357.625 262.674 357.362C261.848 357.098 261.004 356.958 260.16 356.958C257.805 356.958 255.836 357.749 254.254 359.331C252.672 360.913 251.881 362.881 251.881 365.237C251.881 367.592 252.672 369.561 254.254 371.143C255.836 372.725 257.805 373.516 260.16 373.516C261.074 373.516 261.936 373.393 262.78 373.147C263.623 372.901 264.309 372.602 264.871 372.25C265.416 371.899 265.908 371.547 266.33 371.196C266.752 370.844 267.051 370.545 267.244 370.282L267.526 369.913L270.778 373.34C270.672 373.481 270.531 373.674 270.338 373.903C270.145 374.131 269.723 374.536 269.055 375.116C268.387 375.696 267.684 376.206 266.928 376.645C266.172 377.084 265.188 377.489 263.957 377.84C262.727 378.209 261.461 378.385 260.16 378.385C256.311 378.385 253.059 377.102 250.422 374.536C247.785 371.969 246.467 368.858 246.467 365.237C246.467 361.616 247.785 358.522 250.422 355.956C253.059 353.389 256.311 352.106 260.16 352.106ZM272.571 352.633H292.364V357.502H285.174V377.84H279.778V357.502H272.571V352.633ZM299.026 365.254C299.026 367.575 299.799 369.543 301.381 371.125C302.946 372.725 304.862 373.516 307.112 373.516C309.362 373.516 311.278 372.725 312.842 371.125C314.424 369.543 315.198 367.575 315.198 365.254C315.198 362.934 314.424 360.965 312.842 359.366C311.278 357.766 309.362 356.958 307.112 356.958C304.862 356.958 302.946 357.766 301.381 359.366C299.799 360.965 299.026 362.934 299.026 365.254ZM293.436 365.237C293.436 361.616 294.754 358.522 297.391 355.956C300.028 353.389 303.28 352.106 307.112 352.106C310.944 352.106 314.196 353.389 316.832 355.956C319.469 358.522 320.787 361.616 320.787 365.237C320.787 368.858 319.469 371.969 316.832 374.536C314.196 377.102 310.944 378.385 307.112 378.385C303.28 378.385 300.028 377.102 297.391 374.536C294.754 371.969 293.436 368.858 293.436 365.237ZM347.278 352.633V377.84H341.881V357.502H331.264V377.84H325.85V352.633H347.278ZM381.309 352.633V377.84H375.912V352.633H381.309ZM364.03 377.84H353.764V352.633H359.178V360.913H364.03C366.614 360.913 368.758 361.739 370.463 363.356C372.168 364.973 373.03 366.995 373.03 369.385C373.03 371.793 372.168 373.797 370.463 375.415C368.758 377.032 366.614 377.84 364.03 377.84ZM359.178 372.989H363.854C364.926 372.989 365.823 372.655 366.543 371.952C367.264 371.249 367.633 370.405 367.633 369.385C367.633 368.383 367.264 367.54 366.543 366.836C365.823 366.133 364.926 365.782 363.854 365.782H359.178V372.989Z" fill="#1D1D1B"/>
<path d="M83.2808 409.243L90.1187 422.392L96.2358 409.243H100.384L91.3843 428.333C90.3296 430.601 89.1694 432.253 87.939 433.272C86.7085 434.292 85.0913 434.802 83.105 434.802C82.6655 434.802 82.2437 434.767 81.8218 434.661C81.3999 434.573 81.0835 434.485 80.8726 434.38L80.5737 434.274V430.847C81.0483 431.093 81.769 431.216 82.7358 431.216C83.896 431.216 84.8276 430.987 85.4956 430.513C86.1636 430.056 86.7437 429.317 87.2358 428.333L88.1323 426.522L79.1323 409.243H83.2808ZM110.808 424.729L117.119 417.171H120.001V434.45H116.398V423.112L110.808 429.774L105.236 423.112V434.45H101.632V417.171H104.515L110.808 424.729ZM141.06 427.067H127.542C127.736 428.298 128.333 429.353 129.353 430.231C130.373 431.128 131.568 431.567 132.957 431.567C133.976 431.567 134.908 431.339 135.787 430.882C136.666 430.425 137.281 429.985 137.632 429.546L138.177 428.878L140.515 431.216C140.445 431.321 140.339 431.444 140.199 431.62C140.058 431.796 139.742 432.077 139.25 432.481C138.775 432.886 138.265 433.237 137.72 433.554C137.193 433.87 136.49 434.151 135.628 434.415C134.767 434.679 133.871 434.802 132.957 434.802C130.513 434.802 128.404 433.905 126.628 432.112C124.853 430.319 123.957 428.157 123.957 425.626C123.957 423.2 124.835 421.126 126.558 419.403C128.281 417.681 130.355 416.802 132.781 416.802C135.207 416.802 137.21 417.61 138.828 419.228C140.445 420.845 141.253 422.849 141.253 425.274L141.06 427.067ZM132.763 419.878C131.462 419.878 130.373 420.265 129.494 421.038C128.615 421.812 128.017 422.796 127.701 424.009H137.703C137.492 422.796 136.947 421.812 136.068 421.038C135.189 420.265 134.099 419.878 132.763 419.878ZM154.367 434.802C153.716 434.802 153.083 434.731 152.486 434.573C151.871 434.433 151.343 434.239 150.921 434.011C150.482 433.782 150.095 433.554 149.761 433.308C149.427 433.062 149.181 432.868 149.041 432.728L148.794 432.464V442.009H145.191V417.171H148.794V419.157C148.953 418.999 149.181 418.788 149.48 418.507C149.779 418.243 150.412 417.892 151.396 417.452C152.363 417.03 153.347 416.802 154.367 416.802C156.652 416.802 158.621 417.681 160.308 419.438C161.996 421.196 162.839 423.306 162.839 425.802C162.839 428.298 161.996 430.425 160.308 432.183C158.621 433.94 156.652 434.802 154.367 434.802ZM154.015 420.054C152.644 420.054 151.431 420.616 150.376 421.741C149.322 422.866 148.794 424.237 148.794 425.819C148.794 427.401 149.322 428.755 150.376 429.88C151.431 431.005 152.644 431.567 154.015 431.567C155.386 431.567 156.599 431.005 157.654 429.88C158.708 428.755 159.236 427.401 159.236 425.819C159.236 424.237 158.708 422.866 157.654 421.741C156.599 420.616 155.386 420.054 154.015 420.054ZM182.791 427.067H169.273C169.466 428.298 170.064 429.353 171.083 430.231C172.103 431.128 173.298 431.567 174.687 431.567C175.707 431.567 176.638 431.339 177.517 430.882C178.396 430.425 179.011 429.985 179.363 429.546L179.908 428.878L182.246 431.216C182.175 431.321 182.07 431.444 181.929 431.62C181.789 431.796 181.472 432.077 180.98 432.481C180.505 432.886 179.996 433.237 179.451 433.554C178.923 433.87 178.22 434.151 177.359 434.415C176.498 434.679 175.601 434.802 174.687 434.802C172.244 434.802 170.134 433.905 168.359 432.112C166.583 430.319 165.687 428.157 165.687 425.626C165.687 423.2 166.566 421.126 168.289 419.403C170.011 417.681 172.085 416.802 174.511 416.802C176.937 416.802 178.941 417.61 180.558 419.228C182.175 420.845 182.984 422.849 182.984 425.274L182.791 427.067ZM174.494 419.878C173.193 419.878 172.103 420.265 171.224 421.038C170.345 421.812 169.748 422.796 169.431 424.009H179.433C179.222 422.796 178.677 421.812 177.798 421.038C176.919 420.265 175.83 419.878 174.494 419.878ZM190.525 427.243V434.45H186.921V417.171H190.525V424.009H198.98V417.171H202.583V434.45H198.98V427.243H190.525ZM211.232 427.243V434.45H207.628V417.171H211.232V424.009H219.687V417.171H223.291V434.45H219.687V427.243H211.232ZM242.205 434.45L238.601 434.468V432.675C238.548 432.71 238.46 432.798 238.355 432.903C238.25 433.009 238.021 433.167 237.687 433.413C237.353 433.659 237.001 433.87 236.615 434.063C236.228 434.257 235.736 434.433 235.156 434.591C234.558 434.731 233.978 434.819 233.38 434.819C231.623 434.819 230.164 434.31 229.003 433.29C227.843 432.271 227.263 431.093 227.263 429.792C227.263 428.368 227.703 427.173 228.599 426.206C229.496 425.257 230.726 424.642 232.291 424.378L238.601 423.288C238.601 422.374 238.25 421.618 237.582 420.985C236.914 420.37 236.052 420.054 234.998 420.054C234.083 420.054 233.24 420.247 232.501 420.634C231.763 421.021 231.253 421.39 230.972 421.776L230.498 422.392L228.16 420.054C228.23 419.966 228.318 419.843 228.441 419.702C228.564 419.562 228.845 419.298 229.267 418.929C229.689 418.56 230.146 418.226 230.638 417.927C231.113 417.646 231.746 417.382 232.537 417.153C233.328 416.925 234.154 416.802 234.998 416.802C237.107 416.802 238.83 417.435 240.183 418.683C241.519 419.931 242.205 421.46 242.205 423.288V434.45ZM233.925 431.585C235.384 431.585 236.527 431.146 237.353 430.267C238.179 429.388 238.601 428.157 238.601 426.54V426.188L233.011 427.085C232.361 427.19 231.833 427.454 231.447 427.876C231.042 428.28 230.849 428.79 230.849 429.405C230.849 429.985 231.113 430.495 231.675 430.935C232.238 431.356 232.976 431.585 233.925 431.585ZM253.015 417.171H260.908V434.45H257.322V429.054H253.542L250.115 434.45H246.16L249.939 428.509C249.851 428.491 249.728 428.438 249.57 428.351C249.412 428.28 249.13 428.087 248.744 427.806C248.357 427.524 248.023 427.19 247.724 426.804C247.425 426.435 247.144 425.925 246.898 425.257C246.652 424.589 246.511 423.886 246.511 423.112C246.511 421.39 247.109 419.983 248.304 418.858C249.5 417.733 251.064 417.171 253.015 417.171ZM257.322 420.229H252.998C252.189 420.229 251.503 420.511 250.941 421.056C250.396 421.618 250.115 422.304 250.115 423.112C250.115 423.938 250.396 424.624 250.941 425.169C251.503 425.731 252.189 425.995 252.998 425.995H257.322V420.229ZM290.439 425.995C290.439 428.421 289.578 430.495 287.873 432.218C286.167 433.94 284.146 434.802 281.791 434.802C279.083 434.802 276.921 433.835 275.269 431.901C273.617 429.968 272.791 427.155 272.791 423.481C272.791 419.28 273.582 416.134 275.128 414.042C276.693 411.933 278.908 410.649 281.791 410.175C283.074 409.964 284.216 409.683 285.236 409.366C286.255 409.032 286.958 408.751 287.345 408.54L287.925 408.188L289.542 410.896C289.472 410.983 289.314 411.124 289.103 411.3C288.892 411.476 288.154 411.792 286.906 412.249C285.658 412.706 284.076 413.093 282.16 413.409C280.507 413.673 279.171 414.358 278.169 415.466C277.15 416.556 276.57 418.032 276.394 419.896C276.429 419.825 276.517 419.72 276.64 419.597C276.763 419.474 277.009 419.263 277.396 418.946C277.765 418.63 278.152 418.366 278.574 418.12C278.996 417.874 279.523 417.663 280.173 417.47C280.824 417.276 281.492 417.171 282.16 417.171C284.339 417.171 286.255 418.05 287.925 419.79C289.595 421.53 290.439 423.604 290.439 425.995ZM276.746 425.995C276.746 427.577 277.255 428.913 278.24 429.968C279.242 431.04 280.419 431.567 281.791 431.567C283.162 431.567 284.339 431.04 285.341 429.968C286.326 428.913 286.835 427.577 286.835 425.995C286.835 424.413 286.326 423.095 285.341 422.022C284.339 420.95 283.162 420.405 281.791 420.405C280.419 420.405 279.242 420.95 278.24 422.022C277.255 423.095 276.746 424.413 276.746 425.995ZM308.07 425.819C308.07 424.202 307.525 422.849 306.47 421.724C305.398 420.616 304.132 420.054 302.673 420.054C301.197 420.054 299.931 420.616 298.859 421.724C297.787 422.849 297.259 424.202 297.259 425.819C297.259 427.437 297.787 428.79 298.859 429.897C299.931 431.022 301.197 431.567 302.673 431.567C304.132 431.567 305.398 431.022 306.47 429.897C307.525 428.79 308.07 427.437 308.07 425.819ZM293.673 425.819C293.673 423.394 294.552 421.284 296.345 419.491C298.138 417.698 300.248 416.802 302.673 416.802C305.099 416.802 307.191 417.698 308.984 419.491C310.777 421.284 311.673 423.394 311.673 425.819C311.673 428.245 310.777 430.337 308.984 432.13C307.191 433.923 305.099 434.819 302.673 434.819C300.248 434.819 298.138 433.923 296.345 432.13C294.552 430.337 293.673 428.245 293.673 425.819ZM317.615 417.171L330.921 417.188V434.468H327.318V420.423H321.201V422.233C321.201 425.521 320.955 428.122 320.427 430.021C319.9 431.919 319.232 433.202 318.423 433.853C317.615 434.485 316.56 434.819 315.277 434.819C314.96 434.819 314.609 434.784 314.257 434.731C313.906 434.661 313.625 434.608 313.431 434.538L313.115 434.468V431.04C313.589 431.146 314.011 431.216 314.363 431.233C315.101 431.233 315.681 431.022 316.103 430.636C316.525 430.231 316.894 429.353 317.175 427.981C317.457 426.61 317.615 424.694 317.615 422.216V417.171ZM339.587 431.392H343.542C344.351 431.392 345.037 431.128 345.599 430.565C346.144 430.021 346.425 429.335 346.425 428.509C346.425 427.7 346.144 427.015 345.599 426.452C345.037 425.907 344.351 425.626 343.542 425.626H339.587V431.392ZM350.029 428.526C350.029 430.249 349.431 431.673 348.236 432.78C347.041 433.905 345.476 434.45 343.525 434.45H335.966V417.171H339.57V422.567H343.525C345.476 422.567 347.041 423.13 348.236 424.255C349.431 425.38 350.029 426.804 350.029 428.526Z" fill="#878787"/>
<path d="M128.792 463.605V477.65H125.188V460.371H140.85V477.65H137.247V463.605H128.792ZM155.071 478.002C154.42 478.002 153.788 477.932 153.19 477.773C152.575 477.633 152.047 477.439 151.625 477.211C151.186 476.982 150.799 476.754 150.465 476.508C150.131 476.262 149.885 476.068 149.745 475.928L149.499 475.664V485.209H145.895V460.371H149.499V462.357C149.657 462.199 149.885 461.988 150.184 461.707C150.483 461.443 151.116 461.092 152.1 460.652C153.067 460.23 154.051 460.002 155.071 460.002C157.356 460.002 159.325 460.881 161.012 462.639C162.7 464.396 163.543 466.506 163.543 469.002C163.543 471.498 162.7 473.625 161.012 475.383C159.325 477.141 157.356 478.002 155.071 478.002ZM154.719 463.254C153.348 463.254 152.135 463.816 151.081 464.941C150.026 466.066 149.499 467.438 149.499 469.02C149.499 470.602 150.026 471.955 151.081 473.08C152.135 474.205 153.348 474.768 154.719 474.768C156.09 474.768 157.303 474.205 158.358 473.08C159.413 471.955 159.94 470.602 159.94 469.02C159.94 467.438 159.413 466.066 158.358 464.941C157.303 463.816 156.09 463.254 154.719 463.254ZM180.084 460.371H183.319V477.65H179.715V466.312L170.715 477.65H167.481V460.371H171.084V471.709L180.084 460.371ZM204.219 468.65L210.688 477.65H206.557L202.057 471.357L197.557 477.65H193.409L199.895 468.65L193.954 460.371H198.084L202.057 465.943L206.012 460.371H210.161L204.219 468.65ZM226.895 469.02C226.895 467.402 226.35 466.049 225.295 464.924C224.223 463.816 222.958 463.254 221.499 463.254C220.022 463.254 218.756 463.816 217.684 464.924C216.612 466.049 216.084 467.402 216.084 469.02C216.084 470.637 216.612 471.99 217.684 473.098C218.756 474.223 220.022 474.768 221.499 474.768C222.958 474.768 224.223 474.223 225.295 473.098C226.35 471.99 226.895 470.637 226.895 469.02ZM212.499 469.02C212.499 466.594 213.377 464.484 215.17 462.691C216.963 460.898 219.073 460.002 221.499 460.002C223.924 460.002 226.016 460.898 227.809 462.691C229.602 464.484 230.499 466.594 230.499 469.02C230.499 471.445 229.602 473.537 227.809 475.33C226.016 477.123 223.924 478.02 221.499 478.02C219.073 478.02 216.963 477.123 215.17 475.33C213.377 473.537 212.499 471.445 212.499 469.02ZM231.94 474.416H233.188C233.258 474.346 233.346 474.24 233.487 474.082C233.627 473.924 233.856 473.572 234.19 473.01C234.524 472.465 234.823 471.867 235.069 471.234C235.315 470.602 235.543 469.758 235.754 468.703C235.965 467.666 236.071 466.576 236.071 465.416V460.371H248.674V474.416H251.188V481.975H247.602V477.65H235.543V481.975H231.94V474.416ZM239.674 463.605L239.657 465.416C239.657 466.576 239.569 467.666 239.375 468.686C239.182 469.723 238.936 470.584 238.655 471.252C238.374 471.92 238.075 472.5 237.793 472.992C237.512 473.484 237.266 473.836 237.09 474.047L236.792 474.416H245.071V463.605H239.674ZM258.413 474.592H262.368C263.176 474.592 263.862 474.328 264.424 473.766C264.969 473.221 265.25 472.535 265.25 471.709C265.25 470.9 264.969 470.215 264.424 469.652C263.862 469.107 263.176 468.826 262.368 468.826H258.413V474.592ZM268.854 471.727C268.854 473.449 268.256 474.873 267.061 475.98C265.866 477.105 264.301 477.65 262.35 477.65H254.792V460.371H258.395V465.768H262.35C264.301 465.768 265.866 466.33 267.061 467.455C268.256 468.58 268.854 470.004 268.854 471.727ZM290.088 469.195C290.088 471.621 289.227 473.695 287.522 475.418C285.817 477.141 283.795 478.002 281.44 478.002C278.733 478.002 276.571 477.035 274.918 475.102C273.266 473.168 272.44 470.355 272.44 466.682C272.44 462.48 273.231 459.334 274.778 457.242C276.342 455.133 278.557 453.85 281.44 453.375C282.723 453.164 283.866 452.883 284.885 452.566C285.905 452.232 286.608 451.951 286.995 451.74L287.575 451.389L289.192 454.096C289.122 454.184 288.963 454.324 288.752 454.5C288.542 454.676 287.803 454.992 286.555 455.449C285.307 455.906 283.725 456.293 281.809 456.609C280.157 456.873 278.821 457.559 277.819 458.666C276.799 459.756 276.219 461.232 276.043 463.096C276.079 463.025 276.167 462.92 276.29 462.797C276.413 462.674 276.659 462.463 277.045 462.146C277.415 461.83 277.801 461.566 278.223 461.32C278.645 461.074 279.172 460.863 279.823 460.67C280.473 460.477 281.141 460.371 281.809 460.371C283.989 460.371 285.905 461.25 287.575 462.99C289.245 464.73 290.088 466.805 290.088 469.195ZM276.395 469.195C276.395 470.777 276.905 472.113 277.889 473.168C278.891 474.24 280.069 474.768 281.44 474.768C282.811 474.768 283.989 474.24 284.991 473.168C285.975 472.113 286.485 470.777 286.485 469.195C286.485 467.613 285.975 466.295 284.991 465.223C283.989 464.15 282.811 463.605 281.44 463.605C280.069 463.605 278.891 464.15 277.889 465.223C276.905 466.295 276.395 467.613 276.395 469.195ZM310.409 470.268H296.891C297.084 471.498 297.682 472.553 298.702 473.432C299.721 474.328 300.917 474.768 302.305 474.768C303.325 474.768 304.256 474.539 305.135 474.082C306.014 473.625 306.629 473.186 306.981 472.746L307.526 472.078L309.864 474.416C309.793 474.521 309.688 474.645 309.547 474.82C309.407 474.996 309.09 475.277 308.598 475.682C308.124 476.086 307.614 476.438 307.069 476.754C306.542 477.07 305.838 477.352 304.977 477.615C304.116 477.879 303.219 478.002 302.305 478.002C299.862 478.002 297.752 477.105 295.977 475.312C294.202 473.52 293.305 471.357 293.305 468.826C293.305 466.4 294.184 464.326 295.907 462.604C297.629 460.881 299.704 460.002 302.129 460.002C304.555 460.002 306.559 460.811 308.176 462.428C309.793 464.045 310.602 466.049 310.602 468.475L310.409 470.268ZM302.112 463.078C300.811 463.078 299.721 463.465 298.842 464.238C297.963 465.012 297.366 465.996 297.049 467.209H307.051C306.84 465.996 306.295 465.012 305.417 464.238C304.538 463.465 303.448 463.078 302.112 463.078Z" fill="#878787"/>
<path fill-rule="evenodd" clip-rule="evenodd" d="M118.38 117.42C114.47 117.42 111.25 119.73 109.15 122.8C106.91 126.23 105.75 130.254 105.82 134.35C105.763 138.441 106.922 142.458 109.15 145.89C111.25 148.96 114.46 151.28 118.38 151.28C122.3 151.28 125.49 148.96 127.59 145.89C129.757 142.431 130.906 138.432 130.906 134.35C130.906 130.268 129.757 126.269 127.59 122.81C125.49 119.74 122.28 117.42 118.38 117.42ZM114.07 142.51C112.576 140.047 111.785 137.221 111.785 134.34C111.785 131.459 112.576 128.633 114.07 126.17C115.43 124.17 117.01 123.38 118.39 123.38C119.77 123.38 121.32 124.19 122.68 126.17C124.171 128.636 124.959 131.463 124.959 134.345C124.959 137.227 124.171 140.054 122.68 142.52C121.32 144.52 119.75 145.31 118.39 145.31C117.03 145.31 115.42 144.5 114.07 142.51ZM105.84 136.63C105.479 133.79 104.277 131.123 102.39 128.97C101.534 127.883 100.406 127.04 99.1216 126.525C97.8368 126.011 96.4394 125.843 95.0692 126.038C93.6991 126.234 92.4044 126.786 91.3147 127.639C90.2249 128.492 89.3785 129.617 88.8601 130.9C87.731 133.292 87.2945 135.952 87.6001 138.58C87.1667 137.934 86.6564 137.343 86.0801 136.82C85.2877 135.992 84.2931 135.385 83.1946 135.059C82.0961 134.733 80.9315 134.699 79.8158 134.961C78.7001 135.222 77.6719 135.77 76.8327 136.55C75.9934 137.331 75.3721 138.316 75.03 139.41C74.2924 141.546 74.1772 143.848 74.6977 146.047C75.2182 148.246 76.3531 150.251 77.9701 151.83C78.763 152.648 79.7548 153.246 80.8483 153.566C81.9419 153.886 83.0997 153.916 84.2085 153.654C85.3172 153.392 86.339 152.846 87.1737 152.071C88.0083 151.295 88.6273 150.316 88.9701 149.23C89.4845 147.861 89.7126 146.401 89.6401 144.94C90.0557 145.635 90.5415 146.285 91.09 146.88C91.9454 147.97 93.0724 148.816 94.3578 149.332C95.6432 149.849 97.042 150.019 98.4137 149.824C99.7854 149.63 101.082 149.078 102.173 148.224C103.264 147.37 104.111 146.245 104.63 144.96C105.862 142.368 106.284 139.465 105.84 136.63ZM95.9001 131.93C96.3107 131.924 96.7164 132.019 97.0823 132.205C97.4482 132.392 97.7632 132.665 98.0001 133C99.0977 134.261 99.7941 135.821 100 137.48C100.278 139.115 100.066 140.795 99.3901 142.31C98.8101 143.49 98.1201 143.85 97.6801 143.91C97.2401 143.97 96.4801 143.82 95.5801 142.84C94.5375 141.553 93.8632 140.008 93.629 138.369C93.3948 136.729 93.6095 135.057 94.2501 133.53C94.8301 132.34 95.5201 131.99 95.9501 131.93H95.9001ZM81.1801 140.76C81.2487 140.74 81.3215 140.74 81.3901 140.76C81.6445 140.854 81.8761 141 82.0701 141.19C82.8233 141.944 83.344 142.898 83.5701 143.94C83.8409 144.964 83.8061 146.045 83.4701 147.05C83.3802 147.302 83.2408 147.533 83.0601 147.73C83.0127 147.793 82.9459 147.839 82.8701 147.86C82.8701 147.86 82.7901 147.86 82.6501 147.86C82.3992 147.765 82.1709 147.619 81.9801 147.43C81.2281 146.678 80.7135 145.722 80.5001 144.68C80.2219 143.657 80.2532 142.575 80.59 141.57C80.6815 141.321 80.817 141.091 80.9901 140.89C81.1001 140.78 81.1601 140.76 81.1801 140.76ZM76.1801 150.15C75.4266 148.165 74.0961 146.452 72.3601 145.23C71.4966 144.574 70.478 144.152 69.4033 144.007C68.3287 143.861 67.2346 143.996 66.2277 144.399C65.2207 144.802 64.3353 145.458 63.6575 146.305C62.9797 147.152 62.5327 148.159 62.3601 149.23C61.9689 151.311 62.1756 153.46 62.9561 155.428C63.7367 157.396 65.0591 159.103 66.7701 160.35C67.6337 161.019 68.6567 161.45 69.7382 161.603C70.8197 161.755 71.9223 161.623 72.9371 161.219C73.9519 160.815 74.8437 160.154 75.5247 159.3C76.2056 158.446 76.6522 157.429 76.8201 156.35C77.2431 154.27 77.0341 152.11 76.2201 150.15H76.1801ZM69.0201 150.15C68.8408 150.009 68.6265 149.919 68.4001 149.89C68.2522 150.071 68.1555 150.289 68.1201 150.52C67.9642 151.425 68.0754 152.357 68.4401 153.2C68.7598 154.07 69.322 154.83 70.0601 155.39C70.2436 155.539 70.4655 155.632 70.7001 155.66C70.8458 155.482 70.9392 155.268 70.9701 155.04C71.1315 154.131 71.0202 153.195 70.6501 152.35C70.3396 151.483 69.7879 150.723 69.0601 150.16L69.0201 150.15ZM74.3801 170.94C79.1584 166.402 84.9793 163.109 91.3301 161.35C97.2801 160.15 107.46 158.35 116.07 159.26C120.41 159.69 124 160.76 126.43 162.57C128.86 164.38 130.21 166.76 130.21 170.82C130.127 172.338 129.696 173.816 128.95 175.14C127.991 176.934 126.866 178.635 125.59 180.22C124.3 181.86 122.93 183.41 121.68 184.83L121.53 185C120.383 186.248 119.308 187.56 118.31 188.93C114.31 194.93 111.5 201.17 110.66 207.74C109.841 214.784 111.154 221.911 114.43 228.2C116.11 231.63 117.83 234.55 119.48 237.2L120.68 239.2C121.88 241.15 123.02 242.98 124.09 244.9C127.332 250.584 129.412 256.855 130.21 263.35C130.21 271.67 129.46 277.41 127.46 281.29C125.62 284.87 122.53 287.18 116.64 288.12C105.56 289.89 93.8701 280.3 91.4401 265.22C90.7601 260.93 90.2101 257.22 89.7001 253.74C87.7001 240.02 86.4401 231.53 80.4501 214.74C80.2449 214.055 79.9875 213.386 79.6801 212.74C79.3301 211.96 78.8701 211.03 78.3601 210L77.4201 208.12C76.5901 206.46 75.6601 204.6 74.7101 202.62C72.0101 197 69.3901 190.86 68.6501 186.34C68.655 186.313 68.655 186.286 68.6501 186.26C67.6201 180.67 69.9301 175.43 74.4201 170.95L74.3801 170.94ZM136.13 170.8C136.13 164.94 133.8 160.63 129.95 157.8C126.26 155.06 121.44 153.8 116.62 153.34C106.98 152.34 95.9501 154.34 90.0001 155.55L89.7901 155.6C82.4284 157.636 75.6871 161.468 70.1701 166.75C64.8201 172.09 61.2301 179.2 62.7401 187.36C63.6401 192.84 66.6301 199.67 69.3001 205.23C70.3001 207.23 71.2401 209.23 72.0801 210.87L72.9901 212.68C73.4901 213.68 73.9101 214.56 74.2101 215.23C74.3701 215.57 74.4801 215.83 74.5601 216.04C74.6401 216.25 74.6501 216.29 74.6601 216.31C74.6841 216.418 74.7142 216.525 74.7501 216.63C80.5701 232.96 81.7501 240.9 83.7501 254.52C84.2601 257.97 84.83 261.8 85.53 266.21C88.29 283.38 102.19 296.49 117.53 294.04C124.86 292.87 129.82 289.67 132.71 284.04C135.44 278.75 136.12 271.65 136.12 263.18C136.13 263.047 136.13 262.913 136.12 262.78C135.243 255.454 132.915 248.376 129.27 241.96C128.13 239.96 126.9 237.96 125.67 235.96L124.54 234.12C122.93 231.49 121.32 228.76 119.77 225.58C117.027 220.329 115.929 214.374 116.62 208.49C117.31 203.1 119.62 197.77 123.31 192.23C124.17 191.075 125.091 189.966 126.07 188.91L126.23 188.73C127.46 187.32 128.93 185.66 130.32 183.89C131.843 182.001 133.182 179.972 134.32 177.83C135.473 175.665 136.106 173.262 136.17 170.81L136.13 170.8ZM65.8601 160.98C65.0327 159.205 63.6823 157.725 61.9901 156.74C61.2168 156.249 60.3787 155.869 59.5001 155.61C58.4268 155.271 57.2726 155.288 56.2101 155.66C55.3134 156.089 54.5308 156.724 53.926 157.513C53.3213 158.302 52.9115 159.223 52.7301 160.2C52.2486 162.349 52.4406 164.594 53.28 166.63C53.7048 167.737 54.396 168.723 55.2926 169.499C56.1892 170.275 57.2634 170.818 58.4201 171.08C60.0775 171.478 61.8152 171.385 63.4201 170.81C64.5057 170.365 65.379 169.52 65.8601 168.45C66.2288 167.655 66.4556 166.803 66.53 165.93C66.6941 164.255 66.4717 162.565 65.8801 160.99L65.8601 160.98ZM58.8601 164.44C58.4805 163.548 58.3761 162.562 58.5601 161.61L58.8901 161.8C59.2743 162.034 59.6272 162.316 59.9401 162.64C60.111 162.8 60.2561 162.985 60.3701 163.19C60.6044 163.884 60.6896 164.62 60.6201 165.35C60.3648 165.357 60.1096 165.334 59.8601 165.28C59.6397 165.229 59.4321 165.134 59.2501 165C59.0747 164.853 58.9403 164.664 58.8601 164.45V164.44ZM60.3701 163.19L63.1301 162.09L60.3601 163.18L60.3701 163.19ZM251.53 140.55C252.316 140.5 253.091 140.762 253.686 141.278C254.281 141.795 254.649 142.524 254.71 143.31V143.58C255.61 156.58 256.91 175.1 260.33 191.3C262.05 199.47 264.33 206.89 267.2 212.66C270.07 218.43 273.54 222.22 277.4 223.66C296.05 230.88 314.66 239.73 341.04 254C343.414 255.277 345.987 256.143 348.65 256.56C354.41 257.45 359.65 258.33 364.03 259.39C367.944 260.203 371.714 261.602 375.21 263.54C376.712 264.357 378.029 265.476 379.077 266.827C380.125 268.178 380.882 269.732 381.3 271.39C382.05 274.76 381.3 278.48 379.42 282.52C378.13 285.33 375.05 286.77 372.31 287.59C368.964 288.495 365.525 289.009 362.06 289.12C355.014 289.472 347.952 288.887 341.06 287.38C340.392 287.202 339.7 287.131 339.01 287.17C310.73 289.27 296.01 287.17 284.61 284.38C282.08 283.77 279.76 283.15 277.52 282.55C269.67 280.45 262.83 278.62 251.71 278.62C239.05 278.62 229.9 280.89 221.46 282.98C219.04 283.58 216.69 284.16 214.32 284.68C208.951 285.97 203.423 286.466 197.91 286.15C191.196 285.57 184.651 283.728 178.62 280.72C170.07 276.66 167.44 266.72 167.89 255.81C168.35 244.72 172.01 231.37 177.62 218.48C179.75 213.58 181.26 204.97 182.32 194.06C183.38 183.15 183.95 170.61 184.39 157.85C184.404 157.456 184.495 157.069 184.659 156.71C184.822 156.351 185.055 156.028 185.343 155.759C185.631 155.491 185.97 155.281 186.339 155.143C186.708 155.005 187.101 154.941 187.495 154.955C187.889 154.969 188.276 155.06 188.635 155.223C188.994 155.387 189.317 155.62 189.586 155.908C189.854 156.196 190.064 156.535 190.202 156.904C190.34 157.273 190.404 157.666 190.39 158.06C189.95 170.83 189.39 183.65 188.3 194.64C187.21 205.63 185.68 215 183.13 220.85C177.7 233.34 174.31 245.94 173.89 256.06C173.46 266.41 176.13 272.92 181.22 275.34C186.594 278.054 192.434 279.727 198.43 280.27C203.374 280.543 208.33 280.085 213.14 278.91C215.28 278.45 217.49 277.91 219.81 277.33C228.32 275.21 238.33 272.73 251.81 272.73C263.81 272.73 271.46 274.79 279.44 276.93C281.6 277.51 283.8 278.09 286.1 278.65C296.84 281.23 310.92 283.35 338.67 281.29C339.999 281.205 341.332 281.333 342.62 281.67C348.938 283.026 355.406 283.55 361.86 283.23C364.846 283.14 367.813 282.707 370.7 281.94C373.22 281.19 373.96 280.38 374.09 280.11C375.68 276.63 375.92 274.32 375.57 272.75C375.22 271.18 374.29 269.97 372.2 268.69C369.229 267.075 366.034 265.912 362.72 265.24C358.56 264.24 353.58 263.39 347.83 262.5C344.494 261.985 341.271 260.903 338.3 259.3C312.05 245.1 293.67 236.37 275.3 229.3C269.44 227.04 265.14 221.76 261.93 215.38C258.72 209 256.32 200.97 254.55 192.57C251.04 175.96 249.73 157.12 248.82 144.19V143.76C248.764 142.978 249.017 142.206 249.523 141.608C250.03 141.01 250.75 140.634 251.53 140.56V140.55ZM187.91 140.55C188.697 140.581 189.44 140.921 189.979 141.495C190.518 142.069 190.809 142.833 190.79 143.62C190.79 144.62 190.79 145.35 190.79 146.12C190.79 146.92 190.79 147.78 190.79 148.97C190.831 149.394 190.781 149.821 190.643 150.224C190.506 150.627 190.284 150.996 189.993 151.307C189.702 151.617 189.348 151.863 188.955 152.026C188.562 152.189 188.138 152.267 187.713 152.254C187.287 152.241 186.87 152.138 186.487 151.951C186.105 151.764 185.766 151.498 185.494 151.171C185.223 150.843 185.024 150.461 184.911 150.051C184.798 149.64 184.774 149.21 184.84 148.79C184.84 147.79 184.84 147.03 184.84 146.25C184.84 145.47 184.84 144.63 184.84 143.46C184.864 142.668 185.2 141.917 185.775 141.372C186.35 140.827 187.118 140.531 187.91 140.55ZM207.82 223.45C208.485 223.026 209.289 222.88 210.061 223.045C210.832 223.21 211.507 223.671 211.94 224.33C213.433 226.646 215.702 228.355 218.34 229.15C221.34 230.05 225.52 230.06 231.13 227.64C231.838 227.42 232.602 227.47 233.274 227.78C233.947 228.09 234.482 228.638 234.775 229.318C235.068 229.999 235.099 230.764 234.862 231.466C234.624 232.167 234.136 232.757 233.49 233.12C226.85 235.97 221.2 236.24 216.62 234.85C212.629 233.649 209.195 231.068 206.93 227.57C206.507 226.904 206.363 226.098 206.53 225.327C206.696 224.556 207.16 223.882 207.82 223.45Z" fill="#00A7B8"/>
<path fill-rule="evenodd" clip-rule="evenodd" d="M122.44 188.1C123.092 188.543 123.543 189.224 123.696 189.997C123.85 190.77 123.693 191.572 123.26 192.23C119.56 197.77 117.26 203.1 116.57 208.49C115.9 214.377 117.018 220.328 119.78 225.57C121.563 229.131 123.532 232.596 125.68 235.95C126.15 236.7 126.61 237.45 127.07 238.21C129.764 242.383 131.963 246.857 133.62 251.54C133.8 251.923 133.896 252.339 133.904 252.762C133.911 253.185 133.829 253.604 133.663 253.993C133.497 254.382 133.25 254.731 132.94 255.018C132.629 255.305 132.261 255.523 131.86 255.658C131.46 255.792 131.035 255.841 130.614 255.8C130.193 255.759 129.786 255.63 129.418 255.42C129.051 255.211 128.732 254.926 128.483 254.585C128.233 254.244 128.058 253.853 127.97 253.44C126.459 249.191 124.456 245.133 122 241.35L120.68 239.21C118.409 235.655 116.327 231.983 114.44 228.21C111.139 221.922 109.808 214.785 110.62 207.73C111.46 201.16 114.23 194.96 118.27 188.92C118.49 188.592 118.772 188.31 119.1 188.091C119.429 187.872 119.798 187.72 120.185 187.644C120.572 187.568 120.971 187.569 121.358 187.647C121.745 187.726 122.113 187.879 122.44 188.1ZM276.62 282.35C269.19 280.35 262.36 278.67 251.73 278.67C239.07 278.67 229.98 280.93 221.57 283.01C218.57 283.75 215.7 284.47 212.76 285.06C212.359 285.186 211.935 285.226 211.517 285.178C211.099 285.129 210.695 284.994 210.333 284.779C209.971 284.565 209.658 284.276 209.415 283.933C209.171 283.589 209.003 283.199 208.92 282.786C208.837 282.373 208.843 281.948 208.935 281.537C209.028 281.127 209.206 280.74 209.458 280.403C209.71 280.065 210.03 279.785 210.397 279.579C210.765 279.374 211.171 279.248 211.59 279.21C214.16 278.7 216.82 278.04 219.66 277.33C228.2 275.22 238.27 272.72 251.73 272.72C263.14 272.72 270.56 274.57 278.16 276.6L279.16 276.88C287.779 279.396 296.637 281.005 305.59 281.68C306.014 281.659 306.438 281.728 306.834 281.883C307.229 282.038 307.587 282.275 307.884 282.579C308.181 282.883 308.41 283.246 308.556 283.645C308.702 284.044 308.762 284.469 308.731 284.893C308.7 285.316 308.58 285.729 308.378 286.102C308.176 286.476 307.897 286.803 307.56 287.06C307.222 287.318 306.834 287.501 306.42 287.598C306.006 287.694 305.577 287.702 305.16 287.62C295.841 286.916 286.621 285.24 277.65 282.62L276.62 282.35ZM69.3401 205.21C67.3687 201.226 65.652 197.121 64.2002 192.92C64.2984 192.208 64.6493 191.554 65.189 191.079C65.7286 190.603 66.4211 190.338 67.1402 190.33C67.9122 190.316 68.6659 190.565 69.2781 191.036C69.8903 191.506 70.3246 192.17 70.5102 192.92C71.6602 196.06 73.1702 199.43 74.7102 202.63C75.6602 204.63 76.5902 206.47 77.4202 208.13L78.3602 210.01C78.8702 211.01 79.3602 212.01 79.6802 212.75C79.9876 213.396 80.245 214.065 80.4502 214.75C86.4502 231.57 87.6802 240.06 89.7002 253.75L89.8902 255.06C89.8902 255.06 89.8902 257.65 86.5702 257.65C85.8705 257.658 85.1956 257.391 84.6907 256.907C84.1857 256.423 83.8911 255.759 83.8702 255.06L83.7802 254.48C81.7802 240.86 80.6102 232.92 74.7802 216.59C74.7443 216.485 74.7142 216.378 74.6902 216.27C74.6628 216.178 74.6294 216.088 74.5901 216C74.5101 215.79 74.4002 215.52 74.2402 215.19C73.9402 214.52 73.5202 213.66 73.0202 212.64L72.1102 210.83C71.2802 209.17 70.3101 207.24 69.3401 205.21Z" fill="#F58233"/>
</svg>
